<svg width="99" height="30" viewBox="0 0 99 30" fill="none" xmlns="http://www.w3.org/2000/svg">
<path d="M2.95385 11.0475C-0.0423479 11.307 -0.134336 12.8491 0.194194 13.5878C0.160406 13.4797 0.218234 13.5337 0.719846 14.6147C1.34686 15.9658 0.522728 16.5063 0.457022 17.6954C0.391315 18.8844 1.04838 19.1547 1.96826 19.4789C2.88815 19.8032 6.17345 20.3437 7.22475 20.5599C8.27605 20.7761 24.6369 24.5054 26.9366 24.7216C29.2363 24.9377 38.6323 27.7482 40.5378 28.3427C42.0621 28.8184 46.6484 29.4057 48.751 29.6399C49.1891 29.8921 50.4594 30.2452 52.0363 29.6399C54.0075 28.8832 59.5268 28.0725 62.4836 27.532C65.4404 26.9916 72.8652 24.3432 74.1136 24.2351C75.362 24.127 81.407 23.5866 84.4295 22.1813C87.4519 20.7761 89.0289 21.6949 90.4744 21.9651C91.92 22.2354 94.2854 22.2354 95.1395 21.9651C95.9937 21.6949 99.3447 20.5599 98.3591 18.7763C97.5707 17.3495 98.0306 15.4074 98.3591 14.6147C98.1882 12.2941 96.9883 11.2773 95.1395 10.5673L94.287 14.6147L85.2196 13.9725L47.7671 21.9651C45.3573 21.4967 40.4195 20.5599 39.9464 20.5599C39.4733 20.5599 15.0876 14.2183 2.95385 11.0475Z" fill="#C18D5F"/>
<path d="M2.95385 11.0454C-0.0423479 11.3048 -0.134337 12.847 0.194194 13.5856C0.160406 13.4775 0.218234 13.5316 0.719846 14.6125C1.34686 15.9637 0.522728 16.5042 0.457022 17.6933C0.391315 18.8823 1.04838 19.1525 1.96826 19.4768C2.88815 19.8011 6.17346 20.3416 7.22475 20.5578C8.27605 20.774 24.6369 24.5033 26.9366 24.7194C29.2363 24.9356 38.6323 27.7461 40.5378 28.3406C42.0621 28.8163 46.6484 29.4036 48.751 29.6378C49.1891 29.89 50.4594 30.2431 52.0363 29.6378C54.0075 28.8811 59.5268 28.0704 62.4836 27.5299C65.4404 26.9894 72.8652 24.3411 74.1136 24.233C74.5827 24.1924 75.729 24.0907 77.1377 23.9051C78.6271 23.5661 81.816 22.5207 82.6571 21.0506C83.4981 19.5805 87.1689 19.7895 88.8991 20.0777C89.4242 20.1816 90.4744 20.0662 90.4744 18.7742C90.4744 17.4822 90.826 15.3063 91.0017 14.3799L85.2196 13.9704L47.7671 21.963C45.3573 21.4946 40.4195 20.5578 39.9464 20.5578C39.4733 20.5578 15.0876 14.2162 2.95385 11.0454Z" fill="#A87855"/>
<path d="M18.461 7.86415C17.5411 8.08034 6.69956 10.6746 2.95431 10.9989C2.25345 10.9989 0.917424 11.2151 1.18025 12.0799C1.50878 13.1608 15.4385 15.8632 16.9497 16.1334C18.461 16.4037 30.6166 18.3494 32.5221 19.3222C34.4276 20.2951 40.6696 20.3491 44.1521 21.8084C47.6186 23.2611 52.6477 22.5715 54.249 22.3519L54.2708 22.3489C55.5324 22.1759 63.6887 20.2591 67.6091 19.3222C69.1861 18.5295 73.1285 16.9549 76.2824 16.9982C80.2247 17.0522 82.6558 15.8632 84.1671 15.2146C85.6783 14.566 86.861 14.8363 91.1319 15.0525C95.4028 15.2687 97.0455 13.431 97.0455 13.1608C98.951 11.4313 93.2345 9.91795 91.6576 9.48557C87.9123 8.45866 87.0582 9.37747 84.4299 8.24247C82.3273 7.33447 75.8443 6.24271 72.8656 5.81033C71.4858 5.79232 68.0297 5.44281 65.2437 4.1889C61.7613 2.62152 55.3221 2.45939 52.6939 1.59463C50.0656 0.729867 49.1457 0.189391 45.0062 0.405581C40.8668 0.621772 40.4068 1.59463 39.9469 2.18915C39.4869 2.78368 39.7497 2.94582 36.9901 3.3782C34.2304 3.81058 19.3809 7.64796 18.461 7.86415Z" fill="#E3C390"/>
<path d="M18.461 7.86388C17.5411 8.08007 6.69956 10.6744 2.95431 10.9986C2.25345 10.9986 0.917424 11.2148 1.18025 12.0796C1.50878 13.1605 15.4385 15.8629 16.9497 16.1332C18.461 16.4034 30.6166 18.3491 32.5221 19.322C34.4276 20.2948 40.6696 20.3489 44.1521 21.8082C47.6186 23.2608 52.6477 22.5712 54.249 22.3516L54.2708 22.3486C45.1376 20.8893 26.4508 16.9222 24.7687 12.7282C22.6661 7.48554 22.7318 7.80982 28.8425 6.51268C33.7311 5.47497 36.3111 3.99047 36.9901 3.37793C34.2304 3.81031 19.3809 7.64769 18.461 7.86388Z" fill="#D7AB78"/>
<path fill-rule="evenodd" clip-rule="evenodd" d="M48.6866 29.5366C49.1246 29.7888 50.3949 30.1419 51.9719 29.5366C53.4872 28.9549 57.0992 28.3413 60.032 27.8431C60.9144 27.6932 61.7353 27.5537 62.4192 27.4287C64.0108 27.1378 66.8972 26.236 69.4179 25.4485C71.5798 24.7731 73.4728 24.1817 74.0491 24.1318C75.2976 24.0237 81.3425 23.4833 84.365 22.078C86.829 20.9324 88.3323 21.3314 89.5869 21.6644C89.8713 21.7398 90.1429 21.8119 90.41 21.8618C91.8555 22.1321 94.2209 22.1321 95.0751 21.8618C95.9293 21.5916 99.2803 20.4566 98.2947 18.673C97.5062 17.2462 97.9662 15.3041 98.2947 14.5114C98.0488 11.1737 95.6744 10.5331 92.302 9.62329C92.0701 9.56075 91.8336 9.49693 91.5927 9.43088C89.7947 8.93789 88.663 8.89333 87.6815 8.85468C86.6184 8.81283 85.7315 8.7779 84.365 8.18779C82.2624 7.27979 75.7794 6.18802 72.8007 5.75564C71.4209 5.73763 67.9648 5.38812 65.1788 4.13422C63.1045 3.20058 59.981 2.76555 57.2388 2.38363C55.3774 2.12438 53.6916 1.88959 52.6289 1.53994C52.3076 1.43422 52.0118 1.33334 51.7326 1.2381C49.7276 0.554332 48.5747 0.161135 44.9413 0.350894C41.0594 0.553631 40.4134 1.42179 39.9687 2.01935C39.9392 2.059 39.9106 2.09747 39.882 2.13446C39.8215 2.21255 39.7736 2.28318 39.7296 2.34794C39.4389 2.77624 39.3224 2.94792 36.9252 3.32351C34.7246 3.6683 24.8364 6.17822 20.4538 7.29064C19.3404 7.57325 18.5824 7.76567 18.396 7.80946C18.3511 7.82002 18.2825 7.83626 18.1922 7.85762C16.434 8.27368 6.45171 10.6358 2.8894 10.9442C-0.0340499 11.1974 -0.19261 12.6717 0.106589 13.4293C0.11169 13.4422 0.116925 13.4549 0.122281 13.4674C0.124743 13.4731 0.127229 13.4788 0.129741 13.4845C0.127777 13.4782 0.126122 13.4724 0.124846 13.4674C0.118781 13.4436 0.12128 13.4359 0.139781 13.4628C0.142738 13.4671 0.146103 13.4723 0.149908 13.4784C0.150234 13.4789 0.150563 13.4794 0.150895 13.48C0.152426 13.4825 0.154026 13.4851 0.155696 13.4879C0.213198 13.5839 0.354401 13.8627 0.655393 14.5114C1.05508 15.3727 0.865117 15.9045 0.657816 16.485C0.539909 16.8151 0.416391 17.161 0.392569 17.5921C0.326863 18.7811 0.983924 19.0514 1.90381 19.3756C2.56541 19.6089 4.45061 19.9539 5.84821 20.2098C6.39382 20.3096 6.86512 20.3959 7.1603 20.4566C7.37083 20.4999 8.19529 20.6841 9.39784 20.9527C14.2004 22.0255 25.033 24.4454 26.8721 24.6183C29.1719 24.8344 38.5678 27.6449 40.4733 28.2394C41.9977 28.7151 46.584 29.3024 48.6866 29.5366ZM0.132667 13.4253C-0.0124322 13.0602 -0.0497964 12.5255 0.285585 12.0454C0.636507 11.543 1.39936 11.095 2.89215 10.9657C4.76719 10.8034 8.41598 10.0732 11.709 9.35721C14.6809 8.71099 17.3654 8.07578 18.1994 7.87842C18.2897 7.85705 18.3583 7.84081 18.4033 7.83025C18.5898 7.78642 19.3483 7.59388 20.4623 7.31113C22.097 6.89618 24.4973 6.28693 26.9783 5.66825C31.1515 4.62762 35.552 3.56066 36.9301 3.34475C38.3088 3.12873 38.9381 2.97957 39.2796 2.80825C39.4519 2.72184 39.5511 2.62983 39.6361 2.52202C39.676 2.4713 39.7129 2.417 39.7525 2.35869L39.759 2.34906C39.8012 2.28691 39.8471 2.21982 39.9041 2.14607C39.9329 2.10884 39.9617 2.07023 39.9912 2.0305C40.1987 1.75184 40.4471 1.41812 41.0455 1.11928C41.7302 0.777331 42.8752 0.480465 44.943 0.372469C47.0113 0.264451 48.2732 0.345579 49.3456 0.561062C50.1563 0.723962 50.8589 0.963567 51.7212 1.25762C52.0007 1.35295 52.297 1.454 52.6192 1.56001C53.2788 1.77704 54.1762 1.94962 55.204 2.11094C55.8386 2.21055 56.5241 2.30601 57.2348 2.405C57.6752 2.46634 58.1253 2.52902 58.579 2.59489C60.9531 2.93951 63.4293 3.37145 65.1662 4.15318C67.9558 5.40872 71.4145 5.75886 72.7982 5.77723C74.2873 5.99342 76.651 6.37422 78.9053 6.81439C81.1619 7.255 83.3049 7.75441 84.3528 8.20693C85.6718 8.77655 86.5469 8.83086 87.5587 8.87146C87.599 8.87308 87.6395 8.87467 87.6802 8.87628C88.661 8.91489 89.7898 8.95934 91.5844 9.45139C91.8255 9.5175 92.0622 9.58135 92.294 9.6439C93.8649 10.0677 95.2144 10.4318 96.2342 11.0361C97.4004 11.727 98.1363 12.7329 98.2682 14.5084C98.1035 14.9071 97.9071 15.5906 97.8496 16.353C97.792 17.1178 97.8741 17.964 98.2708 18.682C98.514 19.1221 98.4895 19.5211 98.3034 19.8772C98.1169 20.2341 97.7673 20.5489 97.3584 20.818C96.5405 21.3563 95.4925 21.7066 95.0657 21.8416C94.6435 21.9752 93.8429 22.0429 92.9643 22.0429C92.0867 22.0429 91.1361 21.9754 90.4158 21.8407C90.1499 21.791 89.88 21.7194 89.596 21.644C89.4954 21.6173 89.393 21.5902 89.2885 21.5633C88.8896 21.461 88.4606 21.3643 87.9818 21.3201C87.023 21.2318 85.8677 21.3546 84.3521 22.0592C82.8448 22.76 80.5816 23.2459 78.5368 23.5701C76.4929 23.8942 74.6704 24.0563 74.0464 24.1103C73.8875 24.1241 73.6327 24.1779 73.3045 24.2617C72.9756 24.3457 72.5712 24.4602 72.1122 24.5962C71.3348 24.8265 70.3998 25.1186 69.4086 25.4283C69.2292 25.4844 69.048 25.541 68.8655 25.5979C66.4828 26.3413 63.8895 27.1378 62.4135 27.4076C61.7299 27.5326 60.9092 27.672 60.0268 27.8219L59.8113 27.8585C58.8472 28.0223 57.8184 28.198 56.8202 28.3805C54.8251 28.7452 52.9495 29.1375 51.9608 29.517C50.3926 30.119 49.1322 29.7668 48.7016 29.5189C48.6982 29.5169 48.6943 29.5156 48.6901 29.5152C47.6391 29.3981 45.9672 29.1928 44.3677 28.9573C42.7673 28.7216 41.2421 28.4562 40.4826 28.2192C39.5296 27.9219 36.704 27.0705 33.829 26.2665C32.3916 25.8645 30.9416 25.4742 29.7071 25.1709C28.4733 24.8678 27.4527 24.6511 26.8751 24.5968C26.3023 24.5429 24.8505 24.2698 22.9762 23.8862C21.1027 23.5029 18.8093 23.0097 16.5548 22.5165C13.8523 21.9254 11.2054 21.3341 9.40519 20.9319C8.20219 20.6632 7.37731 20.4789 7.16668 20.4356C6.87129 20.3749 6.39935 20.2885 5.85333 20.1885C5.42733 20.1106 4.95622 20.0243 4.48869 19.9356C3.42002 19.7327 2.37144 19.517 1.91416 19.3558C1.45337 19.1933 1.06491 19.0464 0.798437 18.794C0.533274 18.5428 0.386159 18.1842 0.418824 17.593C0.442492 17.1647 0.564693 16.8226 0.682332 16.4932C0.727217 16.3675 0.771438 16.2437 0.809268 16.1177C0.946145 15.6617 0.995739 15.1842 0.679948 14.5036C0.429147 13.9632 0.289065 13.6789 0.215814 13.5432C0.197495 13.5093 0.183213 13.4844 0.172326 13.467C0.166891 13.4583 0.162155 13.4512 0.158064 13.4457C0.154312 13.4407 0.150034 13.4355 0.145334 13.4317C0.14367 13.4304 0.139316 13.4271 0.132667 13.4253Z" fill="#F5F5F5"/>
<path fill-rule="evenodd" clip-rule="evenodd" d="M1.63002 12.2369C1.63293 12.2315 1.64069 12.229 1.64733 12.2314C3.16917 12.7807 5.73788 13.6238 8.49765 14.3672C11.2576 15.1108 14.2077 15.7545 16.4927 15.9057C19.3523 16.095 21.7352 16.6222 23.8628 17.156C24.259 17.2555 24.6464 17.3551 25.0263 17.4528C26.6865 17.8798 28.2043 18.2702 29.7004 18.4461C31.4473 18.6513 33.0608 19.1243 34.582 19.5703C34.6643 19.5944 34.7463 19.6185 34.8281 19.6424C36.4218 20.1086 37.9146 20.5268 39.3577 20.5538C40.8061 20.5809 41.7609 20.933 42.6323 21.3049C42.7333 21.3481 42.8332 21.3914 42.9326 21.4346C43.6904 21.7636 44.419 22.08 45.4039 22.1753C45.6111 22.1954 45.8359 22.2196 46.0778 22.2457C48.4441 22.5009 52.4544 22.9334 57.8164 21.3651C60.7738 20.5002 63.3368 19.9461 65.3327 19.534C65.5847 19.4819 65.8277 19.4322 66.0612 19.3843C66.7527 19.2427 67.3617 19.1179 67.8796 19.0012C68.5726 18.8449 69.1011 18.7033 69.4447 18.5553C70.1359 18.2574 71.3198 17.9194 72.7737 17.5951C74.2279 17.2707 75.9531 16.9598 77.7276 16.7166C78.8994 16.5559 80.3864 16.242 81.9265 15.9168C82.7173 15.7499 83.5222 15.58 84.3055 15.4263C85.4596 15.2 86.5669 15.009 87.5133 14.9152C88.4589 14.8214 89.2462 14.8244 89.7587 14.9876C90.2658 15.1491 90.9909 15.2335 91.7919 15.236C92.5928 15.2386 93.4684 15.1593 94.2763 14.994C95.0844 14.8287 95.8236 14.5775 96.3524 14.2368C96.881 13.8962 97.1982 13.4669 97.1656 12.9445C97.1653 12.9385 97.1708 12.9334 97.1781 12.9331C97.1853 12.9328 97.1915 12.9374 97.1919 12.9433C97.225 13.4748 96.9017 13.9103 96.3686 14.2538C95.8358 14.5971 95.0926 14.8492 94.2827 15.015C93.4725 15.1807 92.5947 15.2602 91.7918 15.2576C90.9892 15.2551 90.2606 15.1706 89.7492 15.0078C89.2433 14.8467 88.4618 14.8429 87.5164 14.9367C86.5716 15.0303 85.4655 15.2211 84.3116 15.4474C83.5294 15.6008 82.7253 15.7705 81.9347 15.9374C80.3938 16.2627 78.9048 16.5771 77.7319 16.7379C75.9583 16.9811 74.2339 17.2918 72.7806 17.6159C71.327 17.9402 70.1455 18.2777 69.4569 18.5744C69.1105 18.7237 68.5795 18.8658 67.8866 19.022C67.3683 19.1388 66.7589 19.2637 66.0673 19.4054C65.8338 19.4532 65.591 19.5029 65.3391 19.5549C63.3435 19.967 60.7814 20.5209 57.8252 21.3855C52.4571 22.9555 48.4414 22.5224 46.0746 22.2671C45.8326 22.2411 45.608 22.2168 45.4008 22.1968C44.4108 22.101 43.6779 21.7827 42.9203 21.4537C42.8209 21.4105 42.7211 21.3672 42.6202 21.3241C41.7504 20.9529 40.7997 20.6024 39.3571 20.5754C37.9091 20.5483 36.4123 20.1288 34.8192 19.6627C34.7377 19.6389 34.6559 19.6149 34.5738 19.5908C33.0521 19.1448 31.4408 18.6724 29.6967 18.4675C28.1983 18.2914 26.678 17.9003 25.0176 17.4732C24.6379 17.3756 24.2509 17.276 23.8551 17.1767C21.7282 16.6431 19.3474 16.1164 16.4906 15.9273C14.2024 15.7759 11.2499 15.1314 8.48947 14.3878C5.72883 13.6441 3.15932 12.8008 1.63677 12.2512C1.63012 12.2488 1.6271 12.2424 1.63002 12.2369Z" fill="#F5F5F5"/>
<path d="M6.78809 9.76535C4.11342 9.39086 3.66327 10.4068 3.77253 10.9616L28.6837 16.7351H32.7481L58.8393 11.6898C57.3315 12.3833 53.1359 14.0408 48.4159 15.1227C42.5159 16.475 39.2381 16.0589 39.2381 15.9549C39.2381 15.8717 37.0529 16.4403 35.9604 16.7351V18.3995C38.2985 18.6075 43.0928 19.1693 43.5648 19.7518C44.1548 20.48 51.497 20.532 53.0048 20.324C54.5126 20.1159 60.4126 18.5035 61.7237 17.8794C62.7726 17.38 74.0482 15.3481 79.5548 14.3945C79.9045 14.1865 80.4988 13.6039 80.0793 12.9381C79.5548 12.1059 77.4571 13.1982 71.8193 13.7704C66.1815 14.3425 60.7404 14.6546 63.6904 13.7704C66.6404 12.8861 87.8804 11.2737 90.7649 10.9097C93.6493 10.5456 89.6504 10.2335 86.3726 8.82914C83.0948 7.42479 81.5215 8.82914 75.8837 7.00869C70.2459 5.18825 62.0515 7.8409 64.5426 7.00869C67.0337 6.17649 66.2471 5.24026 64.5426 4.46007C62.8382 3.67987 58.8393 3.41981 57.397 2.9517C55.9548 2.48358 54.3159 3.99195 51.497 4.46007C48.6781 4.92818 43.5648 7.42479 39.2381 8.82914C34.9115 10.2335 44.417 5.76037 47.8259 4.46007C51.2348 3.15976 56.4137 3.21174 54.3159 2.11948C52.2181 1.02721 45.007 0.715131 43.5648 0.871169C42.1226 1.02721 39.8281 2.17149 37.927 2.11948C36.0259 2.06746 23.3737 5.65635 22.7837 5.76037C22.1937 5.8644 10.1314 10.2335 6.78809 9.76535Z" fill="#FEEED6"/>
<path d="M6.80371 9.82206C4.12904 9.44757 3.6789 10.4635 3.78816 11.0184L28.6993 16.7918H32.7638L58.8549 11.7465H54.3316C51.7896 11.7465 30.2579 14.5696 28.6993 14.5696C27.4524 14.5696 13.5827 11.4046 6.80371 9.82206Z" fill="#F4DAB4"/>
<path d="M47.8415 4.51677C51.2504 3.21647 56.4293 3.26845 54.3316 2.17618C53.8049 1.90196 52.9559 1.67691 51.9568 1.49609C52.6659 1.66299 53.8713 2.09795 53.0204 2.5026C51.9568 3.0084 43.959 4.16701 42.7135 4.99921C41.4679 5.83142 38.3585 7.70387 38.1506 9.10822C38.3587 8.68658 45.0884 5.56693 47.8415 4.51677Z" fill="#F4DAB4"/>
<path d="M63.706 13.8271C66.656 12.9428 87.896 11.3304 90.7805 10.9664C92.6947 10.7247 91.5775 10.506 89.6513 9.97579C89.5858 10.12 89.4022 10.4397 89.1924 10.5646C88.9302 10.7206 82.3091 11.2407 77.3924 10.9664C73.4591 10.7468 66.6293 12.782 63.706 13.8271Z" fill="#F4DAB4"/>
<path d="M79.5705 14.4512C79.9201 14.2432 80.5145 13.6606 80.0949 12.9949C79.9201 13.2723 79.1349 13.9519 77.3924 14.4512C75.2144 15.0754 62.1835 17.0662 60.2824 17.4303C58.3813 17.7944 48.1546 18.4562 47.3024 18.4562C46.4502 18.4562 44.7457 17.0662 41.8613 17.0662C39.5537 17.0662 39.1614 16.3631 39.2538 16.0116C39.2538 15.9284 37.0686 16.497 35.976 16.7918V18.4562C38.3141 18.6642 43.1084 19.226 43.5804 19.8085C44.1704 20.5367 51.5127 20.5887 53.0204 20.3807C54.5282 20.1726 60.4282 18.5602 61.7393 17.9361C62.7882 17.4367 74.0638 15.4048 79.5705 14.4512Z" fill="#F4DAB4"/>
<path d="M59.4302 3.80292C56.4933 3.23183 54.8074 3.84237 54.3316 4.21902C54.1737 4.31827 54.1333 4.61326 55.2346 4.99921C56.6113 5.48165 63.706 5.3633 63.706 4.99921C63.706 4.63512 63.1013 4.51677 59.4302 3.80292Z" fill="#F4DAB4"/>
<path fill-rule="evenodd" clip-rule="evenodd" d="M52.1735 1.83667L52.1801 1.81689C53.1841 1.99468 54.039 2.21623 54.5701 2.48686C54.8339 2.62123 54.9862 2.73935 55.0406 2.84637C55.0679 2.9003 55.0705 2.9515 55.0498 3.00013C55.0292 3.04854 54.9859 3.09353 54.9235 3.13584C54.7991 3.22027 54.5959 3.29589 54.3335 3.36787C54.0707 3.43994 53.7471 3.50874 53.3806 3.57907C53.0981 3.63329 52.79 3.68844 52.4645 3.74671C51.1003 3.99091 49.4298 4.28996 48.0486 4.80547C46.6662 5.32144 44.2849 6.34602 42.2229 7.29349C41.192 7.76721 40.241 8.22157 39.5348 8.58336C39.1817 8.76427 38.89 8.92193 38.68 9.04725C38.5751 9.10992 38.4908 9.16437 38.4296 9.20951C38.399 9.23207 38.3743 9.25219 38.3558 9.26974C38.3371 9.28741 38.3251 9.30198 38.3194 9.31347L38.294 9.30855C38.3466 8.96097 38.5824 8.58543 38.9247 8.20539C39.2671 7.8252 39.7169 7.43964 40.199 7.07192C40.951 6.49822 41.7825 5.96724 42.4087 5.56743C42.5851 5.45477 42.7452 5.35253 42.8826 5.26268C43.0407 5.15935 43.3047 5.0516 43.6464 4.94112C43.9885 4.83055 44.4096 4.7169 44.8827 4.60206C45.829 4.37239 46.9844 4.13773 48.1338 3.91315C48.5229 3.83713 48.9112 3.76226 49.2906 3.68913C50.0321 3.54621 50.7391 3.40992 51.3496 3.28459C51.8111 3.18986 52.2173 3.10144 52.5414 3.02119C52.8658 2.94085 53.1069 2.86897 53.239 2.80751C53.4512 2.70876 53.5306 2.61029 53.5264 2.5173C53.5222 2.42341 53.4327 2.33006 53.2909 2.24191C53.0081 2.06607 52.5292 1.91861 52.1735 1.83667ZM52.4699 1.89131C52.7688 1.97598 53.0928 2.09257 53.3074 2.22595C53.4505 2.31493 53.5481 2.4133 53.5527 2.51659C53.5575 2.62077 53.4677 2.72491 53.2525 2.82505C53.1175 2.88789 52.8737 2.96037 52.5494 3.04068C52.2246 3.12108 51.818 3.2096 51.3564 3.30436C50.7456 3.42973 50.0383 3.56608 49.2967 3.70903C48.9174 3.78215 48.5291 3.857 48.1402 3.93298C46.9909 4.15755 45.8361 4.39209 44.8906 4.62158C44.4178 4.73633 43.9976 4.84977 43.6565 4.96C43.3152 5.07034 43.0544 5.17713 42.8996 5.27832C42.7618 5.36839 42.6015 5.47079 42.4249 5.58356C41.7988 5.98336 40.9685 6.51351 40.2174 7.08651C39.736 7.45377 39.2874 7.83835 38.9463 8.21711C38.6207 8.5786 38.3937 8.93401 38.3285 9.26347C38.3307 9.26127 38.333 9.25903 38.3354 9.25677C38.3549 9.23834 38.3804 9.21759 38.4114 9.19468C38.4736 9.14885 38.5587 9.09391 38.664 9.03104C38.8746 8.90528 39.167 8.7473 39.5203 8.56629C40.227 8.20424 41.1784 7.74969 42.2095 7.27589C44.2717 6.32832 46.6538 5.30339 48.0372 4.78704C49.4213 4.27043 51.0957 3.97072 52.4599 3.72652C52.785 3.66833 53.0925 3.61329 53.3743 3.55921C53.7405 3.48893 54.0632 3.42032 54.3247 3.34858C54.5866 3.27676 54.7857 3.20218 54.9062 3.12044C54.9663 3.07966 55.0061 3.03757 55.0248 2.99371C55.0434 2.95006 55.0414 2.9038 55.0161 2.85387C54.9649 2.75317 54.8188 2.63801 54.5557 2.50396C54.0812 2.26223 53.3443 2.05908 52.4699 1.89131ZM59.682 4.10445C56.7342 3.54358 55.0459 4.14391 54.5722 4.5108L54.5712 4.51162C54.5338 4.53462 54.5035 4.56876 54.4952 4.61268C54.4869 4.65656 54.5004 4.71136 54.5533 4.77585C54.6594 4.90531 54.9228 5.07164 55.4755 5.26115C55.6468 5.31988 55.908 5.36978 56.235 5.41125C56.5618 5.45269 56.9533 5.48563 57.3844 5.51071C58.2466 5.56087 59.2668 5.5796 60.244 5.57233C61.2211 5.56506 62.1548 5.5318 62.8441 5.47801C63.1889 5.45111 63.472 5.41911 63.6687 5.38276C63.7672 5.36457 63.8433 5.34542 63.8945 5.32555C63.9201 5.3156 63.9387 5.30575 63.9508 5.29617C63.9629 5.28665 63.9676 5.27813 63.9676 5.2705C63.9676 5.22693 63.9583 5.18753 63.9355 5.15039C63.9127 5.11323 63.876 5.07774 63.8199 5.04238C63.7072 4.97141 63.518 4.90185 63.2117 4.82113C62.5995 4.65977 61.5264 4.45539 59.682 4.10445ZM54.5541 4.49591C55.0372 4.12225 56.7361 3.52289 59.6882 4.08459C61.5319 4.43539 62.6066 4.64004 63.2202 4.80176C63.5268 4.88258 63.7199 4.95307 63.8365 5.0265C63.895 5.06335 63.9345 5.10115 63.9593 5.1416C63.9841 5.18206 63.9939 5.2246 63.9939 5.2705C63.9939 5.28524 63.9847 5.29862 63.9696 5.3105C63.9547 5.32233 63.9332 5.33339 63.9062 5.34384C63.8523 5.36476 63.7739 5.38435 63.6748 5.40266C63.4764 5.43933 63.1918 5.47143 62.8468 5.49836C62.1564 5.55223 61.2218 5.58551 60.2442 5.59278C59.2666 5.60006 58.2456 5.58132 57.3824 5.5311C56.9508 5.50599 56.5586 5.473 56.2308 5.43143C55.9033 5.38989 55.6393 5.33968 55.4648 5.27986C54.9111 5.08996 54.6415 4.9216 54.531 4.78683C54.4756 4.7192 54.4598 4.65951 54.4691 4.60972C54.4785 4.5602 54.5125 4.52169 54.5541 4.49591ZM3.79752 11.1795L28.814 16.8526H32.8938L58.9975 11.9135H54.5629C53.9256 11.9135 52.096 12.0868 49.684 12.347C47.2726 12.6072 44.2804 12.954 41.319 13.3009C40.5983 13.3853 39.8794 13.4698 39.1712 13.5529C36.9693 13.8115 34.8703 14.058 33.1391 14.2549C31.995 14.3849 31.0116 14.4934 30.2651 14.5693C29.5192 14.6451 29.0089 14.6886 28.8121 14.6886C28.6538 14.6886 28.2975 14.6396 27.7838 14.5516C27.2694 14.4635 26.5956 14.3358 25.8011 14.1778C24.2121 13.8618 22.14 13.4243 19.8943 12.9381C15.4032 11.9659 10.2175 10.7993 6.81226 10.0214C5.47087 9.83775 4.69084 9.99572 4.25997 10.2649C3.83264 10.5318 3.7458 10.9099 3.79752 11.1795ZM4.24346 10.2489C4.68294 9.97441 5.47235 9.81709 6.81756 10.0014L6.81901 10.0016C10.2241 10.7794 15.4101 11.9462 19.9014 12.9184C22.147 13.4045 24.2189 13.842 25.8076 14.158C26.602 14.316 27.2755 14.4436 27.7895 14.5316C28.3041 14.6198 28.6573 14.6681 28.8121 14.6681C29.0068 14.6681 29.515 14.6249 30.2617 14.549C31.0079 14.4731 31.9912 14.3647 33.1352 14.2346C34.8665 14.0378 36.9655 13.7913 39.1675 13.5327C39.8757 13.4495 40.5945 13.3651 41.3151 13.2807C44.2765 12.9338 47.2688 12.5869 49.6804 12.3268C52.0914 12.0666 53.9233 11.893 54.5629 11.893H59.1072L59.1103 11.9132L32.8969 16.8731H28.8102L3.77404 11.1954L3.77275 11.189C3.71732 10.9136 3.80375 10.5236 4.24346 10.2489ZM90.038 10.1496L90.0503 10.1529C90.2419 10.2045 90.4255 10.2531 90.5991 10.2991C90.8637 10.3691 91.1048 10.4329 91.3145 10.4916C91.6615 10.5887 91.9247 10.6722 92.0674 10.7474C92.1032 10.7662 92.1319 10.7848 92.1526 10.8033C92.1732 10.8217 92.1864 10.8406 92.1898 10.8599C92.1969 10.8998 92.1618 10.9348 92.0933 10.9661C92.0241 10.9977 91.9163 11.0279 91.7664 11.0576C91.6163 11.0873 91.4231 11.1167 91.1825 11.1464C90.3264 11.2522 87.8614 11.465 84.7365 11.7347C82.5714 11.9216 80.0897 12.1359 77.6068 12.3608C74.5732 12.6356 71.5377 12.9264 69.0754 13.2028C67.8442 13.341 66.7564 13.4756 65.8839 13.6028C65.0111 13.73 64.3546 13.8497 63.9854 13.958L63.9753 13.9391C65.4442 13.4253 67.8942 12.6682 70.4712 12.0664C73.0478 11.4648 75.753 11.0181 77.7314 11.1261C80.2002 11.2609 83.0974 11.2006 85.4104 11.0873C86.5668 11.0307 87.5771 10.9608 88.3147 10.8956C88.6835 10.8629 88.984 10.8315 89.2004 10.8034C89.3087 10.7893 89.3957 10.7761 89.4596 10.7641C89.4916 10.7581 89.5176 10.7524 89.5376 10.7471C89.5579 10.7417 89.5706 10.737 89.5771 10.7332C89.6802 10.6732 89.7779 10.5655 89.8584 10.4541C89.9387 10.343 90.0009 10.2295 90.0336 10.1591L90.038 10.1496ZM90.054 10.1755C90.0198 10.2473 89.9589 10.3568 89.8813 10.4641C89.8005 10.576 89.7006 10.6869 89.5929 10.7496C89.5829 10.7554 89.5668 10.7609 89.5461 10.7664C89.5251 10.772 89.4982 10.7779 89.4658 10.784C89.401 10.7962 89.3133 10.8094 89.2048 10.8235C88.9877 10.8517 88.6867 10.8832 88.3177 10.9159C87.5796 10.9812 86.5689 11.0511 85.412 11.1077C83.0985 11.221 80.2 11.2814 77.7295 11.1465C75.7563 11.0388 73.055 11.4845 70.4788 12.086C68.0432 12.6548 65.7209 13.3624 64.2343 13.8719C64.621 13.7814 65.1817 13.6844 65.8791 13.5827C66.7521 13.4554 67.8402 13.3208 69.0716 13.1826C71.5343 12.9061 74.5701 12.6153 77.6037 12.3405C80.0877 12.1155 82.5701 11.9012 84.7352 11.7143C87.8591 11.4446 90.3228 11.2319 91.1784 11.1262C91.4185 11.0966 91.6109 11.0673 91.7599 11.0378C91.9092 11.0082 92.014 10.9786 92.0799 10.9485C92.1464 10.9181 92.1685 10.8895 92.1637 10.8627C92.1613 10.8486 92.1514 10.8334 92.1327 10.8167C92.1141 10.8001 92.0873 10.7826 92.0526 10.7643C91.9132 10.6909 91.6532 10.6081 91.3056 10.5108C91.096 10.4522 90.8553 10.3885 90.591 10.3185C90.4211 10.2736 90.2414 10.226 90.054 10.1755ZM80.4454 13.1075L80.4572 13.1258C80.67 13.4562 80.6256 13.7662 80.4838 14.019C80.3423 14.2714 80.1036 14.4671 79.9265 14.5702L79.9242 14.5715L79.9214 14.572C77.1553 15.0407 72.9405 15.7744 69.2854 16.4523C67.4579 16.7912 65.7704 17.1162 64.474 17.3871C63.8258 17.5225 63.2754 17.6444 62.8543 17.7478C62.4326 17.8513 62.1419 17.9358 62.0117 17.9965C61.6814 18.1503 61.0631 18.3647 60.2986 18.6028C59.5338 18.8409 58.6218 19.103 57.7038 19.3523C55.8682 19.8507 54.0066 20.2984 53.248 20.4009C52.4891 20.5033 50.265 20.5416 48.1575 20.4649C47.1036 20.4266 46.0781 20.3594 45.2788 20.2571C44.8792 20.2059 44.5357 20.1459 44.2734 20.0761C44.1422 20.0412 44.0309 20.0038 43.9429 19.9637C43.8551 19.9237 43.7896 19.8805 43.751 19.8339C43.6938 19.7648 43.5695 19.6945 43.3881 19.6244C43.2073 19.5544 42.9719 19.4852 42.6947 19.4176C42.1405 19.2823 41.4211 19.1532 40.6428 19.0357C39.0862 18.8005 37.2952 18.6114 36.121 18.5092L36.1093 18.5081V16.8555L36.1182 16.8532C36.6671 16.7083 37.4904 16.4961 38.1766 16.3303C38.5197 16.2474 38.8286 16.1761 39.0519 16.1306C39.1634 16.1079 39.254 16.0915 39.3168 16.0834C39.348 16.0794 39.3731 16.0773 39.3908 16.0776C39.3995 16.0778 39.4076 16.0786 39.4141 16.0806C39.4208 16.0828 39.4286 16.0875 39.4286 16.0959V16.097L39.4283 16.098C39.3831 16.2665 39.4559 16.5217 39.8289 16.7356C40.2024 16.9497 40.8772 17.1223 42.035 17.1223C43.4866 17.1223 44.6412 17.4646 45.5395 17.8066C45.764 17.8921 45.9726 17.9776 46.1657 18.0576C46.2011 18.0723 46.236 18.0868 46.2703 18.1011C46.4235 18.1647 46.5663 18.2241 46.6994 18.2764C47.0259 18.4046 47.2908 18.4888 47.5012 18.4888C47.9286 18.4888 50.7103 18.3262 53.6249 18.1188C56.5397 17.9113 59.5844 17.6593 60.5382 17.4805C61.1343 17.3688 62.8194 17.1014 64.9219 16.7677C66.1883 16.5667 67.6062 16.3416 69.0288 16.1121C70.9213 15.8068 72.8224 15.4934 74.3872 15.2181C75.9523 14.9427 77.1798 14.7055 77.726 14.5524C78.6 14.3073 79.2336 14.0181 79.6705 13.7563C80.1076 13.4944 80.347 13.2603 80.4337 13.1258L80.4454 13.1075ZM79.6866 13.7725C79.2474 14.0356 78.6114 14.3259 77.7349 14.5716C77.1869 14.7253 75.9576 14.9628 74.393 15.2381C72.828 15.5134 70.9267 15.8268 69.0342 16.1321C67.611 16.3618 66.1928 16.5868 64.9263 16.7879C62.8243 17.1215 61.1401 17.3888 60.5444 17.5004C59.5882 17.6796 56.541 17.9318 53.6273 18.1391C50.7134 18.3465 47.9301 18.5092 47.5012 18.5092C47.2836 18.5092 47.0134 18.4226 46.6875 18.2946C46.554 18.2422 46.4107 18.1826 46.2575 18.1189C46.2232 18.1047 46.1885 18.0903 46.1533 18.0757C45.9602 17.9956 45.752 17.9103 45.5279 17.825C44.6315 17.4837 43.4811 17.1428 42.035 17.1428C40.8745 17.1428 40.1932 16.9699 39.8132 16.752C39.4365 16.536 39.3565 16.2759 39.4012 16.0989C39.3988 16.0985 39.3952 16.0982 39.3901 16.0981C39.3751 16.0978 39.352 16.0996 39.3211 16.1036C39.2595 16.1115 39.17 16.1277 39.0586 16.1504C38.8359 16.1957 38.5274 16.2669 38.1845 16.3498C37.5023 16.5146 36.6844 16.7254 36.1356 16.8702V18.4899C37.3105 18.5924 39.0955 18.7811 40.6478 19.0156C41.4265 19.1332 42.147 19.2624 42.7026 19.3981C42.9804 19.4659 43.2173 19.5354 43.3999 19.6061C43.5819 19.6765 43.7118 19.7488 43.7732 19.8228C43.8086 19.8657 43.8702 19.9068 43.9563 19.9461C44.0422 19.9853 44.1517 20.0221 44.2819 20.0568C44.5423 20.126 44.8841 20.1858 45.2831 20.2369C46.0809 20.3391 47.1052 20.4061 48.1588 20.4445C50.2662 20.5212 52.4877 20.4828 53.2435 20.3807C53.9996 20.2786 55.8591 19.8315 57.6951 19.333C58.6129 19.0838 59.5244 18.8218 60.2888 18.5838C61.0534 18.3457 61.6699 18.1318 61.9982 17.9789C62.1315 17.9168 62.4253 17.8316 62.8464 17.7283C63.268 17.6248 63.8188 17.5028 64.4671 17.3673C65.7639 17.0963 67.4517 16.7713 69.2793 16.4324C72.9333 15.7547 77.1468 15.0212 79.9129 14.5525C80.0868 14.4508 80.3209 14.2584 80.4597 14.0108C80.5963 13.7672 80.6407 13.4703 80.4451 13.1531C80.3473 13.2933 80.1068 13.5206 79.6866 13.7725Z" fill="#F5F5F5"/>
</svg>
