<svg width="99" height="30" viewBox="0 0 99 30" fill="none" xmlns="http://www.w3.org/2000/svg">
<path fill-rule="evenodd" clip-rule="evenodd" d="M90.498 17.1586C90.5183 17.5817 90.5395 18.0237 90.5395 18.4727C90.5395 19.1313 90.2708 19.503 89.9192 19.6931C89.572 19.8807 89.1589 19.883 88.8844 19.829C88.0235 19.6856 86.6805 19.5622 85.4502 19.6571C84.8347 19.7045 84.2508 19.8063 83.7704 19.9855C83.2904 20.1647 82.9176 20.4196 82.7159 20.7721C82.2859 21.5236 81.2621 22.1595 80.1713 22.6479C79.0777 23.1377 77.9033 23.4852 77.1547 23.6556L77.1511 23.6564L77.1475 23.6569C75.7371 23.8428 74.5894 23.9446 74.1199 23.9852C73.971 23.9981 73.7241 24.0497 73.3956 24.1336C73.0687 24.2171 72.6658 24.3312 72.2072 24.4671C71.4306 24.6971 70.4966 24.9889 69.5053 25.2986C69.3259 25.3547 69.1445 25.4113 68.9619 25.4683C66.5822 26.2108 63.9814 27.0098 62.4973 27.2811L62.4688 27.1756C63.9414 26.9064 66.5314 26.111 68.9153 25.3672C69.0977 25.3103 69.2789 25.2537 69.4583 25.1977C70.4495 24.888 71.3849 24.5958 72.1627 24.3654C72.6219 24.2293 73.027 24.1146 73.3566 24.0304C73.6847 23.9466 73.9429 23.8919 74.1061 23.8777C74.5744 23.8372 75.7178 23.7358 77.1231 23.5506C77.864 23.3818 79.0268 23.0374 80.1085 22.553C81.1948 22.0665 82.1859 21.4446 82.597 20.726C82.8159 20.3435 83.2173 20.0732 83.7161 19.8871C84.2146 19.7011 84.8143 19.5975 85.4379 19.5494C86.6852 19.4533 88.0422 19.5784 88.9116 19.7232L88.9127 19.7234L88.9139 19.7236C89.1645 19.7732 89.5383 19.7696 89.847 19.6027C90.1517 19.438 90.4081 19.106 90.4081 18.4727C90.4081 18.0259 90.3871 17.5875 90.3668 17.1654C90.3578 16.9782 90.349 16.7942 90.3422 16.6141C90.3203 16.0296 90.32 15.4867 90.4089 15.0181L90.5387 15.0347C90.4519 15.4925 90.4516 16.0267 90.4736 16.6108C90.4803 16.789 90.4891 16.972 90.498 17.1586Z" fill="#F5F5F5"/>
<path fill-rule="evenodd" clip-rule="evenodd" d="M37.0399 3.11189C36.349 3.73518 33.7552 5.22346 28.8602 6.26256C28.5159 6.33563 28.1912 6.4035 27.8851 6.46747C26.8305 6.68787 25.9977 6.86191 25.3548 7.04253C24.5239 7.27598 24.0295 7.51567 23.7838 7.86546C23.5382 8.2149 23.5308 8.68859 23.7243 9.41363C23.9101 10.11 24.277 11.0245 24.7733 12.2615C24.7928 12.3101 24.8125 12.3592 24.8324 12.4088C25.0376 12.9206 25.5046 13.4338 26.19 13.9433C26.8749 14.4524 27.774 14.9548 28.8371 15.4459C30.9633 16.4281 33.738 17.3616 36.7481 18.2104C42.768 19.9078 49.7199 21.2638 54.2846 21.9931L54.2595 22.0992C49.691 21.3693 42.7329 20.0121 36.7055 18.3126C33.6921 17.4629 30.9089 16.527 28.7728 15.5402C27.7047 15.0468 26.7966 14.5398 26.1019 14.0235C25.4078 13.5075 24.9228 12.9793 24.7076 12.4426C24.687 12.3914 24.6667 12.3407 24.6465 12.2905C24.1521 11.0581 23.7833 10.1387 23.596 9.4368C23.4014 8.70763 23.3981 8.19832 23.67 7.81137C23.9416 7.42476 24.478 7.17464 25.3124 6.94024C25.9607 6.75808 26.8007 6.58255 27.8567 6.36186C28.162 6.29806 28.4853 6.23049 28.8273 6.15789C33.7093 5.12157 36.2757 3.64085 36.9428 3.03906L37.0399 3.11189Z" fill="#F5F5F5"/>
<path fill-rule="evenodd" clip-rule="evenodd" d="M45.2208 0.479621C47.2757 0.372298 48.5116 0.453934 49.5523 0.663047C50.3438 0.822099 51.0244 1.05414 51.8811 1.34628C52.163 1.44238 52.4639 1.54499 52.7941 1.65364C53.4766 1.87819 54.3936 2.05355 55.4225 2.21504C56.0589 2.31492 56.7491 2.41106 57.4621 2.51038L57.4623 2.5104C57.9022 2.57168 58.3508 2.63416 58.8007 2.69947C61.1792 3.04473 63.6177 3.4727 65.3154 4.23684C68.1377 5.50711 71.6199 5.86291 73.0382 5.88448C74.5248 6.10061 76.8738 6.47936 79.1135 6.91667C81.3756 7.35838 83.4887 7.85301 84.5056 8.29217C85.8689 8.88091 86.7837 8.9376 87.8099 8.97877C87.85 8.98038 87.8903 8.98197 87.9308 8.98356L87.9317 8.9836C88.9054 9.02193 90.0087 9.06537 91.7724 9.54895C92.0154 9.61559 92.2529 9.67971 92.4846 9.74228C94.0612 10.168 95.371 10.5217 96.3588 11.1069C97.4502 11.7536 98.1562 12.6924 98.292 14.3957C98.1243 14.814 97.9334 15.4964 97.8763 16.254C97.8174 17.035 97.8991 17.9171 98.3182 18.6755C98.533 19.0642 98.5095 19.406 98.3489 19.7133C98.1837 20.0294 97.8667 20.3203 97.4734 20.5791C96.6861 21.0972 95.6679 21.4388 95.2435 21.573C94.8657 21.6926 94.104 21.7613 93.2271 21.7613C92.3609 21.7613 91.4289 21.6944 90.731 21.564C90.4762 21.5164 90.2207 21.4486 89.9403 21.3742L89.9402 21.3741L89.94 21.3741C89.8376 21.3469 89.7319 21.3188 89.6217 21.2906C89.2177 21.1869 88.7719 21.0859 88.2709 21.0397C87.2581 20.9464 86.0532 21.0799 84.4985 21.8028C83.0272 22.4868 80.797 22.9682 78.7548 23.292C76.7209 23.6145 74.9065 23.7759 74.2844 23.8298C74.0996 23.8458 73.8245 23.9053 73.4971 23.9889C73.1633 24.0741 72.7551 24.1898 72.2948 24.3261C71.5152 24.5571 70.5779 24.85 69.5867 25.1596C69.4075 25.2156 69.2265 25.2721 69.0444 25.329C66.6542 26.0747 64.0802 26.8646 62.6249 27.1307C61.9433 27.2553 61.1245 27.3944 60.2416 27.5443L60.241 27.5445L60.0262 27.5809C59.0622 27.7448 58.0318 27.9207 57.0317 28.1035C55.0427 28.4671 53.1401 28.8634 52.1235 29.2536C50.6342 29.8253 49.4635 29.4817 49.1001 29.2724C49.0658 29.2527 49.0262 29.2399 48.9846 29.2353C47.9362 29.1185 46.2677 28.9136 44.6722 28.6787C43.0673 28.4424 41.5646 28.1797 40.8293 27.9503C39.8737 27.6521 37.0455 26.8 34.168 25.9953C32.7292 25.5929 31.2761 25.2018 30.0376 24.8975C28.8065 24.5951 27.7664 24.373 27.1648 24.3164C26.611 24.2644 25.1771 23.9953 23.2961 23.6104C21.4245 23.2274 19.1325 22.7346 16.8784 22.2415C14.1827 21.6518 11.5376 21.0609 9.73557 20.6584L9.73454 20.6582C8.52722 20.3885 7.69851 20.2034 7.48684 20.1598C7.18951 20.0987 6.71162 20.0112 6.16171 19.9105C5.73576 19.8325 5.2666 19.7467 4.80467 19.659C3.72753 19.4545 2.70343 19.2426 2.27014 19.0899C1.80167 18.9248 1.4652 18.7928 1.23983 18.5794C1.02755 18.3783 0.886944 18.0753 0.917917 17.5149C0.940206 17.1115 1.05082 16.802 1.16573 16.4804C1.21221 16.3503 1.25939 16.2183 1.30171 16.0773C1.44766 15.5911 1.50007 15.072 1.16373 14.3472C0.912982 13.8069 0.770894 13.5182 0.694797 13.3773C0.675711 13.3419 0.659351 13.3132 0.64549 13.291C0.638643 13.28 0.630912 13.2683 0.622557 13.257L0.622306 13.2567C0.619479 13.2529 0.613239 13.2445 0.60385 13.2342C0.488296 12.9098 0.472451 12.4576 0.753476 12.0553C1.05459 11.6242 1.73471 11.1973 3.17971 11.0722C5.07648 10.908 8.74414 10.1732 12.0322 9.45829C15.007 8.81147 17.6939 8.17565 18.5275 7.97839C18.6177 7.95705 18.6862 7.94084 18.731 7.93031C18.9187 7.8862 19.6815 7.69258 20.8004 7.40859L20.801 7.40843C22.4376 6.99303 24.8357 6.38435 27.3097 5.76742C31.4907 4.72485 35.8749 3.66229 37.2372 3.44886C38.6061 3.23437 39.2806 3.08045 39.6656 2.88735C39.873 2.7833 39.9965 2.66886 40.0974 2.5408C40.1417 2.48454 40.1821 2.42501 40.2206 2.36821L40.2207 2.36804L40.2283 2.35691C40.2703 2.295 40.3134 2.23215 40.3665 2.1635C40.3969 2.12421 40.4266 2.08434 40.4567 2.04404L40.4569 2.04378C40.6626 1.76807 40.8836 1.47195 41.431 1.19857C42.0689 0.880022 43.17 0.586723 45.2208 0.479621ZM52.9893 1.25218C52.6767 1.14931 52.386 1.05015 52.1093 0.955782C51.2409 0.659538 50.5112 0.410632 49.677 0.243016C48.5658 0.0197486 47.272 -0.0607575 45.1875 0.0481093C43.0987 0.157198 41.9002 0.458422 41.1582 0.828979C40.4972 1.15908 40.2152 1.53913 40.0062 1.82074C39.9773 1.85962 39.9499 1.89663 39.923 1.93137C39.8611 2.01135 39.8118 2.08362 39.7694 2.14606L39.7648 2.1528L39.7647 2.15298C39.7233 2.21385 39.6908 2.26176 39.6562 2.30567C39.5908 2.38873 39.5212 2.45332 39.3919 2.51818C39.1034 2.66287 38.5295 2.80621 37.1388 3.02411C35.7414 3.24306 31.3209 4.31538 27.1572 5.35364C24.6679 5.97439 22.2653 6.58426 20.6327 6.99866L20.6323 6.99878L20.6323 6.99878C19.5247 7.27993 18.7717 7.47108 18.5866 7.51456C18.5416 7.52515 18.4729 7.54141 18.3825 7.5628C17.5481 7.76023 14.8666 8.39475 11.8979 9.04027C8.59888 9.75758 4.97316 10.4821 3.12468 10.6422C1.57347 10.7765 0.709498 11.2504 0.297705 11.8399C-0.107451 12.4199 -0.037455 13.0599 0.145711 13.4717C0.161127 13.5064 0.186261 13.5359 0.217701 13.5589C0.288484 13.6908 0.425706 13.9693 0.672643 14.5014C0.963317 15.1278 0.917175 15.5546 0.791384 15.9737C0.758683 16.0826 0.718111 16.1962 0.675419 16.3157C0.555209 16.6522 0.418196 17.0358 0.39281 17.4952C0.358076 18.1238 0.513152 18.5505 0.842945 18.8629C1.15965 19.1628 1.61166 19.3282 2.06307 19.4873C2.54966 19.6589 3.62816 19.8794 4.68647 20.0803C5.16086 20.1703 5.63425 20.257 6.06025 20.3349C6.60154 20.434 7.06631 20.519 7.35935 20.5793C7.56866 20.6223 8.38835 20.8055 9.58537 21.0729L9.58571 21.0729L9.58593 21.073C11.3838 21.4746 14.0328 22.0664 16.7433 22.6593C18.9983 23.1526 21.2934 23.6461 23.1692 24.03C25.0355 24.4119 26.509 24.69 27.1051 24.746C27.6534 24.7976 28.6501 25.0079 29.8871 25.3118C31.1167 25.6139 32.5629 26.0031 33.9988 26.4046C36.8705 27.2078 39.693 28.0582 40.6429 28.3546C41.432 28.6008 42.9846 28.8695 44.5796 29.1043C46.1539 29.3361 47.7971 29.5386 48.8541 29.6571C49.4052 29.9455 50.7381 30.2626 52.3458 29.6455C53.3004 29.279 55.1431 28.8917 57.1457 28.5256C58.1415 28.3436 59.1684 28.1682 60.1325 28.0044L60.349 27.9676C61.2305 27.8179 62.0532 27.6781 62.739 27.5527C64.2404 27.2783 66.8572 26.4738 69.2308 25.7332C69.3163 25.7065 69.4016 25.6799 69.4865 25.6534C69.5831 25.6233 69.6792 25.5932 69.7747 25.5634C70.766 25.2537 71.6981 24.9625 72.4729 24.7329C72.9305 24.5974 73.3302 24.4842 73.653 24.4018C73.9821 24.3178 74.2121 24.2708 74.3394 24.2598C74.9658 24.2056 76.798 24.0427 78.8543 23.7166C80.9024 23.3919 83.2059 22.9004 84.7571 22.1792C86.2248 21.4968 87.3196 21.3871 88.2124 21.4694C88.664 21.5111 89.0725 21.6026 89.4652 21.7033C89.5629 21.7284 89.6609 21.7544 89.759 21.7805L89.7594 21.7806C90.0472 21.857 90.3351 21.9334 90.6145 21.9856C91.3622 22.1254 92.3357 22.1937 93.2271 22.1937C94.1078 22.1937 94.9559 22.1273 95.4322 21.9766C95.8621 21.8406 96.9465 21.4796 97.8018 20.9167C98.2299 20.635 98.6192 20.2909 98.8318 19.8841C99.049 19.4685 99.0747 18.9996 98.7968 18.4965C98.4274 17.8281 98.3448 17.0257 98.4009 16.2807C98.4569 15.5377 98.6492 14.873 98.8063 14.4941C98.8173 14.4675 98.8219 14.4393 98.8198 14.4112C98.6845 12.5739 97.9146 11.4959 96.666 10.7561C95.6068 10.1285 94.2087 9.75172 92.6443 9.33009C92.4125 9.26761 92.1771 9.20416 91.9386 9.13875C90.1063 8.63636 88.9461 8.59067 87.9568 8.55171L87.9561 8.55168C87.9156 8.55009 87.8755 8.54851 87.8356 8.54691C86.8413 8.50701 86.0149 8.4556 84.75 7.90934C83.6643 7.4405 81.4846 6.93526 79.2349 6.49598C76.973 6.05433 74.6024 5.67247 73.1092 5.45571C73.0955 5.45372 73.0816 5.45263 73.0677 5.45245C71.7127 5.43476 68.3032 5.08873 65.5678 3.85753C63.7831 3.0543 61.2608 2.61751 58.892 2.27367C58.4336 2.20712 57.9817 2.14419 57.5408 2.08279C56.8329 1.9842 56.1534 1.88958 55.521 1.79032C54.4945 1.62921 53.621 1.46001 52.9893 1.25218ZM2.0094 11.9564C1.87648 11.9084 1.72144 11.9581 1.66311 12.0674C1.60478 12.1768 1.66524 12.3043 1.79816 12.3523C3.32747 12.9043 5.90453 13.75 8.67348 14.496C11.438 15.2408 14.4135 15.8916 16.7323 16.0451C19.5626 16.2324 21.9234 16.7541 24.044 17.2862C24.435 17.3843 24.8189 17.4831 25.1967 17.5803L25.1968 17.5803C26.8585 18.0078 28.4028 18.4052 29.9231 18.5838C31.6416 18.7858 33.2312 19.2517 34.7575 19.699L34.7575 19.6991C34.8376 19.7225 34.9175 19.746 34.9973 19.7693C36.5837 20.2334 38.1183 20.6658 39.6131 20.6938C41.0007 20.7197 41.9117 21.0545 42.7669 21.4195C42.8661 21.4618 42.965 21.5048 43.0642 21.5479C43.8199 21.8765 44.5943 22.2132 45.6334 22.3138C45.8395 22.3337 46.0635 22.3579 46.3052 22.384C48.6769 22.64 52.7445 23.079 58.1706 21.4921C61.1156 20.6307 63.6686 20.0787 65.6616 19.6672C65.912 19.6155 66.1538 19.566 66.3868 19.5182C67.0794 19.3764 67.693 19.2507 68.2143 19.1331C68.9064 18.9771 69.4615 18.8301 69.8345 18.6694C70.4978 18.3836 71.6575 18.0507 73.1077 17.7272C74.5524 17.4049 76.2686 17.0956 78.0347 16.8535C79.2178 16.6913 80.7261 16.373 82.2745 16.0461C83.0622 15.8799 83.8603 15.7114 84.6313 15.5602C85.7827 15.3344 86.8777 15.1458 87.808 15.0536C88.751 14.9601 89.4775 14.9712 89.9208 15.1124C90.4721 15.2879 91.2349 15.3735 92.0526 15.3761C92.8746 15.3787 93.7731 15.2974 94.6046 15.1273C95.4329 14.9578 96.2134 14.6964 96.7843 14.3285C97.36 13.9575 97.7415 13.4636 97.703 12.8459C97.6955 12.7266 97.572 12.6349 97.427 12.641C97.2821 12.6472 97.1706 12.7488 97.178 12.868C97.2052 13.3042 96.946 13.675 96.4602 13.9881C95.9695 14.3043 95.2675 14.5461 94.4778 14.7077C93.6913 14.8686 92.8362 14.9462 92.0546 14.9437C91.2687 14.9412 90.5778 14.8579 90.1106 14.7091C89.5354 14.526 88.6932 14.5303 87.7451 14.6243C86.7843 14.7196 85.6658 14.9128 84.5093 15.1396C83.7146 15.2955 82.9037 15.4667 82.1102 15.6342L82.1101 15.6343C80.5776 15.9579 79.1098 16.2678 77.9483 16.427C76.1662 16.6713 74.4329 16.9836 72.9701 17.3099C71.5127 17.635 70.307 17.9777 69.5905 18.2864C69.2736 18.4229 68.7692 18.5597 68.0753 18.7161C67.5606 18.8322 66.9559 18.9561 66.2657 19.0975L66.2652 19.0975C66.0311 19.1455 65.7872 19.1955 65.5337 19.2478C63.535 19.6605 60.963 20.2165 57.9945 21.0847C52.6903 22.636 48.732 22.2094 46.3706 21.9549C46.1285 21.9288 45.9031 21.9045 45.6948 21.8844C44.7588 21.7938 44.0716 21.4958 43.3117 21.1662L43.3116 21.1662C43.2123 21.1231 43.1116 21.0795 43.009 21.0357C42.123 20.6575 41.1285 20.2896 39.6251 20.2615C38.2288 20.2354 36.7738 19.8301 35.1734 19.3619C35.09 19.3375 35.0062 19.3129 34.922 19.2882C33.4053 18.8435 31.77 18.3641 29.9975 18.1558C28.5233 17.9825 27.0295 17.5984 25.3706 17.1718L25.3706 17.1718L25.3704 17.1718C24.9887 17.0736 24.5983 16.9732 24.1973 16.8726C22.0635 16.3372 19.6606 15.8051 16.7744 15.6141C14.5201 15.4649 11.593 14.8276 8.83709 14.0851C6.08563 13.3439 3.52447 12.5033 2.0094 11.9564Z" fill="#F5F5F5"/>
<path fill-rule="evenodd" clip-rule="evenodd" d="M47.0346 1.34063C44.7791 1.1448 42.6256 1.1078 41.9268 1.18336C41.586 1.22022 41.1862 1.31666 40.739 1.44488C40.4661 1.52313 40.1838 1.61067 39.8908 1.70153C39.7018 1.76016 39.5083 1.82017 39.3099 1.87996C38.3149 2.17994 37.2264 2.46608 36.2266 2.43874C36.0161 2.43299 35.6313 2.4789 35.098 2.57297C34.5716 2.6658 33.9199 2.80183 33.1865 2.96759C31.7201 3.29903 29.9356 3.74731 28.1903 4.20105C26.4453 4.65469 24.7412 5.11327 23.4357 5.46515L23.251 5.51494C22.6786 5.66926 22.1907 5.80077 21.8211 5.89899C21.42 6.00557 21.1425 6.07732 21.0553 6.09269C21.0363 6.09604 20.97 6.11397 20.8428 6.15329C20.7225 6.19048 20.5617 6.24228 20.3645 6.30676C20.1468 6.37794 19.8869 6.46387 19.5906 6.56182C19.3496 6.64152 19.0844 6.72917 18.7984 6.82332C17.5252 7.24236 15.8467 7.78689 14.081 8.3136C12.316 8.84009 10.4601 9.3499 8.8328 9.69878C8.01918 9.87321 7.25934 10.0081 6.59448 10.0846C5.93278 10.1606 5.3513 10.1805 4.90043 10.1174C3.58163 9.93284 2.86526 10.099 2.49386 10.336C2.17358 10.5403 2.07639 10.819 2.08735 11.044L26.9709 16.808H31.0042L57.206 11.744L57.352 12.0319C55.825 12.7339 51.5931 14.4046 46.8309 15.4955C43.8513 16.1781 41.5295 16.4154 39.9481 16.4682C39.1577 16.4946 38.5509 16.4749 38.1385 16.4414C37.9329 16.4247 37.7721 16.4042 37.6595 16.3834C37.6044 16.3732 37.5539 16.3617 37.5135 16.3483C37.5031 16.3449 37.4903 16.3404 37.4768 16.3345C37.4238 16.342 37.3445 16.3566 37.241 16.3781C37.0224 16.4236 36.717 16.4956 36.3745 16.5801C35.7441 16.7357 34.9967 16.9316 34.4543 17.0771V18.4968C35.6308 18.6047 37.3307 18.7914 38.8195 19.0211C39.6012 19.1417 40.3298 19.2749 40.8954 19.416C41.1779 19.4864 41.4251 19.5601 41.62 19.6372C41.8067 19.711 41.9763 19.7994 42.0663 19.9105C42.0799 19.9272 42.1141 19.9551 42.1878 19.9894C42.2595 20.0228 42.3566 20.0568 42.4799 20.0903C42.7265 20.1573 43.0572 20.2168 43.4519 20.2684C44.2399 20.3715 45.2566 20.4397 46.3076 20.4788C48.4159 20.5571 50.6204 20.5169 51.3546 20.4156C52.0936 20.3137 53.9396 19.8612 55.7791 19.3509C56.6956 19.0967 57.6049 18.8298 58.3663 18.5876C59.1321 18.344 59.7361 18.1293 60.0504 17.9798C60.2057 17.9059 60.5214 17.8141 60.9383 17.7096C61.3638 17.6029 61.9177 17.4776 62.5675 17.339C63.8675 17.0615 65.5581 16.729 67.3872 16.3825C71.0266 15.693 75.2199 14.9472 77.9887 14.4678C78.1385 14.3719 78.3309 14.2029 78.4469 13.9917C78.5687 13.7699 78.6049 13.5058 78.425 13.2205C78.3762 13.1431 78.3143 13.0943 78.2353 13.0619C78.1523 13.0279 78.0375 13.0068 77.8751 13.0042C77.5438 12.9989 77.0782 13.0703 76.423 13.192C76.229 13.228 76.0203 13.268 75.7961 13.311C74.5211 13.5556 72.7447 13.8964 70.3245 14.1419C67.4902 14.4293 64.6982 14.6523 62.9829 14.6917C62.5539 14.7016 62.1879 14.7001 61.9034 14.6847C61.7613 14.677 61.6359 14.6656 61.5313 14.6497C61.4308 14.6344 61.3328 14.6124 61.257 14.5768C61.1805 14.5409 61.077 14.4636 61.1008 14.3415C61.1191 14.2479 61.2082 14.182 61.2755 14.1409C61.4242 14.0499 61.6882 13.9508 62.059 13.8397C62.4479 13.7232 63.1217 13.5987 63.9941 13.4688C64.8711 13.3382 65.9627 13.2003 67.1958 13.0589C69.6623 12.7761 72.7017 12.4787 75.7373 12.1978C78.2297 11.9672 80.7175 11.7478 82.885 11.5567C86.0035 11.2818 88.459 11.0653 89.3111 10.9578C89.6716 10.9123 89.9102 10.8692 90.0526 10.8282C90.054 10.8278 90.0555 10.8274 90.0569 10.827C90.0398 10.8193 90.0204 10.8111 89.9987 10.8023C89.8587 10.7461 89.6537 10.6819 89.3906 10.6069C89.1885 10.5493 88.9557 10.4864 88.6996 10.4172C87.6376 10.1302 86.1746 9.73474 84.8335 9.16044C83.3224 8.5134 82.191 8.47611 80.7935 8.43006C80.709 8.42727 80.6236 8.42446 80.537 8.42147C79.0079 8.36875 77.1715 8.26234 74.3102 7.33891C71.5305 6.44183 68.1013 6.64387 65.6544 6.97593C64.4355 7.14136 63.47 7.33761 62.9626 7.44105L62.9502 7.44358C62.83 7.46809 62.7334 7.48778 62.667 7.50008C62.6337 7.50625 62.602 7.51172 62.577 7.5147C62.5672 7.51587 62.5447 7.51846 62.5199 7.51753L62.5194 7.51751C62.5107 7.51719 62.4737 7.51584 62.4337 7.49935C62.4104 7.48972 62.3737 7.46982 62.349 7.43255C62.3225 7.39248 62.3225 7.35173 62.3321 7.32106C62.3466 7.27439 62.3839 7.24709 62.3908 7.24206L62.3914 7.24164C62.4039 7.23241 62.4156 7.22591 62.4222 7.22244C62.4361 7.21508 62.4508 7.20876 62.4624 7.204C62.4868 7.19396 62.5194 7.18192 62.558 7.16826C62.6361 7.1406 62.7527 7.10136 62.9087 7.04925C63.5229 6.84418 63.9132 6.63945 64.1368 6.44544C64.3543 6.25666 64.4089 6.08394 64.3723 5.9216C64.3333 5.74919 64.1851 5.56019 63.9229 5.35926C63.663 5.16006 63.3074 4.96168 62.8866 4.76918C62.0635 4.39261 60.6648 4.13523 59.2567 3.9119C59.0016 3.87143 58.7461 3.83206 58.4949 3.79334C58.0612 3.72651 57.6402 3.66161 57.2548 3.59635C56.6474 3.49349 56.1088 3.38661 55.7284 3.2632C55.4172 3.16225 55.0887 3.1644 54.7134 3.24203C54.3335 3.32062 53.9201 3.47341 53.446 3.66302C53.3422 3.70455 53.2358 3.74771 53.1267 3.79194C52.2501 4.14757 51.201 4.57313 49.9135 4.78683C48.5268 5.01699 46.5579 5.75076 44.3685 6.61557C43.9835 6.76768 43.592 6.92366 43.1963 7.0813C41.3549 7.81497 39.4232 8.5846 37.6261 9.16759C37.3521 9.25645 37.1301 9.32301 36.9561 9.36882C36.7869 9.4134 36.6488 9.44233 36.549 9.44878C36.5066 9.45152 36.4299 9.4538 36.3602 9.4238C36.318 9.40563 36.2755 9.37412 36.2536 9.32664C36.233 9.28199 36.239 9.24093 36.2481 9.21337C36.2647 9.16344 36.3035 9.12225 36.3316 9.09552C36.364 9.06477 36.4048 9.03249 36.4505 8.99956C36.8046 8.74441 37.716 8.26617 38.8477 7.71338C41.124 6.60158 44.3756 5.14854 46.0974 4.49213C47.5029 3.9563 49.2049 3.64528 50.5702 3.39581C50.8926 3.33689 51.1963 3.2814 51.4728 3.2272C51.8378 3.15566 52.1535 3.0869 52.4065 3.01603C52.6646 2.94371 52.8357 2.8749 52.9283 2.81066C52.9727 2.77994 52.9881 2.75767 52.9932 2.74539C52.997 2.73645 52.9992 2.72449 52.988 2.70206C52.9594 2.64438 52.8567 2.54783 52.5979 2.41313C52.1019 2.15502 51.2828 1.93452 50.288 1.75398C49.2993 1.57454 48.1584 1.4382 47.0346 1.34063ZM90.1569 10.8831C90.1569 10.8831 90.1565 10.8828 90.1559 10.8821C90.1567 10.8828 90.157 10.8831 90.1569 10.8831ZM50.3763 1.44838C51.3788 1.63034 52.2565 1.8605 52.8148 2.15103C53.0831 2.29065 53.279 2.4325 53.3558 2.58708C53.3974 2.6708 53.4042 2.75844 53.3686 2.8438C53.3344 2.92581 53.2667 2.99254 53.1885 3.04672C53.0362 3.15231 52.8046 3.23699 52.5382 3.31163C52.2666 3.38772 51.9358 3.45939 51.5677 3.53154C51.2796 3.58802 50.9673 3.64515 50.6389 3.70524C49.2745 3.95485 47.6299 4.25573 46.2687 4.77468C44.5641 5.42454 41.3254 6.87144 39.0551 7.98032C38.2189 8.38873 37.5252 8.74602 37.0877 8.99891C37.2013 8.96508 37.3305 8.92474 37.4764 8.87743C39.2579 8.2995 41.1725 7.5367 43.0137 6.80316C43.4107 6.64502 43.8042 6.48823 44.1923 6.33495C46.3682 5.47546 48.3858 4.72008 49.8325 4.47997C51.065 4.27541 52.0668 3.86936 52.9458 3.5131C53.055 3.46884 53.1624 3.42534 53.268 3.3831C53.7411 3.19389 54.1884 3.02664 54.6136 2.93868C55.0434 2.84976 55.4644 2.83885 55.8781 2.97303C56.2225 3.08475 56.7299 3.18688 57.3374 3.28976C57.7198 3.35452 58.1339 3.41834 58.5645 3.48469C58.8165 3.52352 59.0741 3.56322 59.3343 3.60448C60.7265 3.8253 62.1941 4.09042 63.0842 4.49763C63.52 4.69702 63.9058 4.91011 64.1977 5.13382C64.4873 5.35579 64.7015 5.60113 64.7614 5.86633C64.8236 6.1416 64.7135 6.40975 64.4286 6.65693C64.3313 6.74137 64.2132 6.8239 64.0735 6.90462C64.5109 6.82691 65.0224 6.74364 65.5878 6.66692C68.0499 6.33278 71.5722 6.11681 74.4592 7.04853C77.2646 7.95388 79.0522 8.05648 80.5542 8.10826C80.6431 8.11133 80.7311 8.11421 80.8185 8.11707C82.2165 8.16286 83.4286 8.20256 85.0213 8.88458C86.3298 9.4449 87.7509 9.82924 88.8133 10.1165C89.0743 10.1871 89.3136 10.2519 89.5243 10.3119C89.7883 10.3872 90.0136 10.4569 90.1774 10.5227C90.2588 10.5554 90.3337 10.5905 90.3925 10.6291C90.4459 10.6642 90.5173 10.7221 90.534 10.8055C90.5538 10.9045 90.4881 10.9794 90.4217 11.0242C90.359 11.0664 90.2756 11.0976 90.1873 11.123C90.0075 11.1747 89.7374 11.2214 89.3732 11.2674C88.5128 11.3759 86.0371 11.5942 82.9037 11.8705C80.7388 12.0614 78.26 12.28 75.7831 12.5092C72.7484 12.79 69.7134 13.087 67.2524 13.3692C66.0218 13.5103 64.9364 13.6475 64.067 13.7769C63.1931 13.9071 62.5511 14.0275 62.1987 14.133C61.9166 14.2175 61.7254 14.2872 61.6071 14.342C61.6901 14.3546 61.7978 14.3647 61.9303 14.3719C62.1964 14.3863 62.548 14.3881 62.9715 14.3783C64.6661 14.3394 67.4419 14.1182 70.2743 13.8309C72.6714 13.5878 74.4266 13.2511 75.7012 13.0067C75.9265 12.9635 76.1367 12.9231 76.3329 12.8867C76.979 12.7667 77.4935 12.6846 77.883 12.6907C78.0809 12.6939 78.2616 12.7197 78.4169 12.7835C78.5763 12.8488 78.6956 12.9486 78.7786 13.0803C79.0204 13.4637 78.9687 13.8266 78.8094 14.1169C78.6528 14.4021 78.3913 14.621 78.1933 14.7388L78.1588 14.7593L78.1168 14.7665C75.3501 15.2454 71.1344 15.995 67.4791 16.6874C65.6512 17.0337 63.9648 17.3654 62.6703 17.6417C62.0228 17.7799 61.4751 17.9038 61.0574 18.0085C60.6311 18.1154 60.362 18.1972 60.2538 18.2486C59.9091 18.4126 59.2776 18.6355 58.5135 18.8786C57.7451 19.123 56.83 19.3916 55.9097 19.6469C54.0758 20.1555 52.1989 20.6174 51.4223 20.7245C50.6411 20.8322 48.3978 20.8703 46.2891 20.7919C45.2315 20.7526 44.1974 20.6837 43.3875 20.5778C42.9832 20.5249 42.6282 20.4619 42.3518 20.3869C42.2136 20.3493 42.0899 20.3074 41.9876 20.2598C41.8873 20.213 41.7944 20.1548 41.7338 20.08C41.7052 20.0448 41.6204 19.9876 41.4436 19.9177C41.275 19.8511 41.0496 19.7831 40.7768 19.715C40.232 19.5792 39.5201 19.4486 38.744 19.3288C37.193 19.0895 35.4064 18.8967 34.2346 18.7925L34.0589 18.7769V16.8524L34.193 16.8163C34.743 16.668 35.5684 16.4507 36.257 16.2808C36.6008 16.1959 36.9131 16.1222 37.1407 16.0749C37.2534 16.0514 37.3507 16.0333 37.4223 16.0238C37.4559 16.0194 37.4954 16.0153 37.5314 16.016C37.5467 16.0163 37.5819 16.0176 37.6199 16.03C37.6377 16.0357 37.6632 16.047 37.6869 16.0649C37.7012 16.0685 37.7216 16.073 37.7492 16.0781C37.8399 16.0948 37.9829 16.1136 38.1788 16.1295C38.5694 16.1613 39.1569 16.1808 39.9315 16.155C41.4799 16.1032 43.7705 15.8703 46.7212 15.1943C50.4112 14.349 53.7819 13.1521 55.7983 12.3388L31.0517 17.1215H26.9144L1.72784 11.2874L1.70846 11.189C1.64532 10.8686 1.74316 10.4125 2.24603 10.0917C2.7455 9.77304 3.59955 9.61699 4.96914 9.80865C5.35839 9.86312 5.89089 9.84867 6.53776 9.77431C7.18147 9.70031 7.92478 9.56869 8.72962 9.39614C10.3392 9.05106 12.1816 8.54523 13.9418 8.02016C15.7013 7.49531 17.375 6.95236 18.6469 6.53376C18.9313 6.44015 19.1961 6.3526 19.4372 6.27286C19.7344 6.1746 19.9958 6.08819 20.2138 6.01692C20.4114 5.95231 20.5751 5.89955 20.6992 5.86119C20.8164 5.82497 20.9144 5.79636 20.9695 5.78665C21.0305 5.77589 21.2801 5.71212 21.6955 5.60173C22.0641 5.50378 22.5508 5.37256 23.1233 5.21824L23.3085 5.16832C24.614 4.81644 26.3198 4.35736 28.0671 3.90314C29.814 3.44901 31.6042 2.99922 33.0782 2.66609C33.815 2.49956 34.475 2.36168 35.0121 2.26694C35.5423 2.17344 35.9729 2.11811 36.2402 2.12542C37.1512 2.15033 38.1713 1.88783 39.1694 1.58692C39.3596 1.5296 39.5501 1.47054 39.7383 1.41217C40.0362 1.31984 40.3284 1.22925 40.6046 1.15005C41.0572 1.02028 41.4893 0.914258 41.8734 0.872732C42.6241 0.791546 44.8195 0.832926 47.0776 1.02898C48.2106 1.12735 49.3677 1.26533 50.3763 1.44838ZM36.5025 9.13662C36.5025 9.13657 36.5037 9.13657 36.5058 9.13675C36.5035 9.13675 36.5024 9.13667 36.5025 9.13662Z" fill="#F5F5F5"/>
<path fill-rule="evenodd" clip-rule="evenodd" d="M50.275 1.91706L50.3081 1.81689C51.3072 1.99721 52.1649 2.22294 52.7012 2.50143C52.9647 2.63823 53.1285 2.76389 53.1889 2.88513C53.2201 2.94787 53.2239 3.00975 53.1991 3.06912C53.1747 3.12738 53.1247 3.17884 53.0583 3.22481C52.9267 3.31582 52.7166 3.39453 52.4546 3.46777C52.191 3.54148 51.8672 3.61157 51.5025 3.6829C51.2201 3.73814 50.9127 3.79423 50.5883 3.85342C49.2322 4.10086 47.5791 4.4025 46.2119 4.92257C44.8396 5.44456 42.4738 6.48191 40.4243 7.44166C39.3997 7.92145 38.4552 8.3814 37.7541 8.74743C37.4035 8.93051 37.1146 9.08962 36.9074 9.21569C36.8037 9.27878 36.7215 9.33296 36.6625 9.37728C36.6331 9.39944 36.6102 9.41853 36.5936 9.43454C36.5764 9.45112 36.5685 9.46196 36.5657 9.46768L36.4397 9.44274C36.4934 9.08065 36.7335 8.69348 37.0758 8.30615C37.4188 7.91805 37.8684 7.52542 38.3488 7.15194C39.0983 6.56924 39.9276 6.02957 40.5501 5.62447C40.7251 5.51058 40.8838 5.40733 41.0197 5.31675C41.1833 5.20775 41.4521 5.0966 41.7926 4.9844C42.1348 4.87168 42.5551 4.75611 43.0262 4.63958C43.9685 4.4065 45.1184 4.16851 46.261 3.94096C46.6483 3.86385 47.0346 3.78796 47.4118 3.71385C48.1487 3.5691 48.8508 3.43115 49.4575 3.30425C49.9159 3.20833 50.3187 3.11896 50.6397 3.03797C50.9626 2.95649 51.1967 2.8849 51.3222 2.82541C51.5272 2.72817 51.5857 2.63988 51.5826 2.56838C51.5792 2.49228 51.5063 2.40787 51.368 2.32026C51.095 2.1473 50.6271 1.99971 50.275 1.91706ZM51.2026 2.10872C51.2936 2.14988 51.3776 2.19361 51.4499 2.23939C51.5949 2.33123 51.7079 2.44108 51.7134 2.56475C51.7191 2.69302 51.6094 2.81 51.3895 2.91427C51.2494 2.98072 51.0016 3.05539 50.6795 3.13667C50.3554 3.21845 49.9501 3.30835 49.4909 3.40441C48.8834 3.53151 48.1795 3.66979 47.442 3.81468C47.065 3.88874 46.6792 3.96453 46.293 4.04143C45.1505 4.26895 44.0037 4.50633 43.0653 4.73847C42.596 4.85454 42.1799 4.96904 41.843 5.08004C41.5045 5.19156 41.2515 5.29778 41.1041 5.39599C40.9664 5.4877 40.8065 5.59178 40.6305 5.7063C40.0082 6.11132 39.1854 6.64676 38.4406 7.22584C37.9631 7.59703 37.5197 7.98467 37.1831 8.36552C36.9055 8.67968 36.7032 8.98626 36.6124 9.27298C36.6706 9.23179 36.7429 9.18508 36.8276 9.13356C37.0385 9.00525 37.3303 8.84456 37.682 8.66095C38.3856 8.29361 39.3322 7.8327 40.3576 7.3525C42.4081 6.39225 44.7778 5.35312 46.1551 4.82919C47.537 4.30355 49.2092 3.99855 50.5656 3.75116C50.888 3.69236 51.1925 3.63681 51.4711 3.58232C51.8348 3.5112 52.1535 3.44206 52.411 3.37008C52.6703 3.29761 52.8602 3.22415 52.9721 3.1468C53.0274 3.10859 53.06 3.07182 53.0747 3.03659C53.089 3.00248 53.0882 2.96561 53.0671 2.92312C53.0226 2.83391 52.8897 2.72322 52.6294 2.58805C52.2828 2.40811 51.7906 2.24859 51.2026 2.10872ZM57.7419 4.21522C54.8222 3.64906 53.1651 4.25797 52.7116 4.616L52.7089 4.61809L52.706 4.61993C52.6778 4.63759 52.6559 4.66322 52.6498 4.69588C52.6438 4.72837 52.6525 4.77399 52.6999 4.83295C52.7968 4.95336 53.0465 5.11776 53.5937 5.30898C53.7577 5.36629 54.012 5.41618 54.3361 5.45807C54.6589 5.4998 55.0465 5.53305 55.4742 5.55841C56.3295 5.60913 57.3422 5.62809 58.3126 5.62074C59.2831 5.61338 60.2096 5.5797 60.8928 5.52538C61.2348 5.49818 61.5135 5.46598 61.7057 5.42979C61.8023 5.4116 61.8733 5.39307 61.9188 5.37507C61.9416 5.36603 61.9545 5.35848 61.9609 5.35335C61.9615 5.35284 61.962 5.35238 61.9625 5.352C61.9619 5.31446 61.9537 5.28225 61.9357 5.25251C61.9171 5.22152 61.8861 5.19021 61.835 5.15743C61.7308 5.0905 61.5504 5.02193 61.2466 4.94032C60.6408 4.77759 59.577 4.57106 57.7419 4.21522ZM52.6216 4.54068C53.1217 4.1484 54.8313 3.54416 57.7731 4.11459C59.6045 4.46973 60.676 4.67762 61.2887 4.84222C61.5942 4.92428 61.794 4.9976 61.9176 5.07698C61.9804 5.11735 62.0253 5.16029 62.054 5.20794C62.0827 5.25568 62.0934 5.30513 62.0934 5.35637C62.0934 5.38573 62.0752 5.40913 62.0543 5.42592C62.0338 5.44249 62.0067 5.45612 61.9773 5.46774C61.9183 5.49108 61.8358 5.51179 61.736 5.53058C61.5352 5.56838 61.2497 5.60112 60.9059 5.62846C60.2175 5.68321 59.2867 5.71696 58.3138 5.72434C57.3409 5.73171 56.3243 5.71272 55.4644 5.66173C55.0344 5.63624 54.6428 5.6027 54.315 5.56032C53.9884 5.51811 53.7205 5.46657 53.5408 5.40376C52.988 5.21059 52.708 5.03589 52.5894 4.88859C52.5292 4.8137 52.5087 4.74331 52.5203 4.68089C52.5315 4.61992 52.5723 4.57245 52.6216 4.54068ZM2.24467 11.3109L27.0747 17.0495H31.1168L56.6378 12.1283H52.6653C52.0364 12.1283 50.2221 12.3032 47.8222 12.5671C45.4252 12.8306 42.4509 13.182 39.5068 13.5335C38.7904 13.619 38.0757 13.7045 37.3716 13.7888C35.1826 14.0508 33.0957 14.3006 31.3745 14.5C30.2371 14.6318 29.2591 14.7417 28.5167 14.8186C27.7766 14.8953 27.2653 14.9399 27.0654 14.9399C26.901 14.9399 26.5407 14.889 26.0318 14.8001C25.5195 14.7107 24.849 14.5812 24.059 14.4211C22.4787 14.1008 20.4184 13.6574 18.1857 13.1648C13.7218 12.18 8.56785 10.9984 5.1824 10.2103C3.85738 10.0257 3.10096 10.1871 2.68987 10.4488C2.29611 10.6994 2.20554 11.0509 2.24467 11.3109ZM2.60778 10.368C3.06166 10.0791 3.86468 9.92106 5.20874 10.1087L5.21234 10.1092L5.21584 10.11C8.60089 10.8981 13.7562 12.0801 18.2209 13.065C20.4532 13.5575 22.5126 14.0007 24.0915 14.3207C24.881 14.4807 25.5499 14.6099 26.06 14.699C26.5734 14.7886 26.9184 14.8363 27.0654 14.8363C27.2546 14.8363 27.7558 14.793 28.4997 14.7159C29.2411 14.6391 30.2183 14.5293 31.3556 14.3975C33.0765 14.1981 35.1631 13.9483 37.3522 13.6864C38.0562 13.6021 38.7708 13.5166 39.4873 13.431C42.4313 13.0796 45.4064 12.7281 47.8042 12.4645C50.1991 12.2011 52.0249 12.0247 52.6653 12.0247H57.183L57.1985 12.1268L31.1326 17.1531H27.056L2.12733 11.3917L2.12092 11.3592C2.06363 11.0691 2.15278 10.6577 2.60778 10.368ZM87.9009 10.2471L87.962 10.2639C88.1517 10.316 88.3341 10.3652 88.5066 10.4117C88.77 10.4828 89.0106 10.5477 89.2194 10.6072C89.563 10.7052 89.8313 10.7915 89.9795 10.8711C90.0172 10.8913 90.0497 10.9124 90.0743 10.9348C90.0988 10.957 90.1185 10.9834 90.1237 11.0137C90.1353 11.0806 90.0745 11.129 90.0024 11.1626C89.9271 11.1977 89.8141 11.2295 89.6638 11.2598C89.5124 11.2904 89.3186 11.3204 89.0786 11.3506C88.2264 11.4578 85.7731 11.6737 82.6646 11.9472C80.5126 12.1365 78.0466 12.3535 75.5803 12.5812C72.5646 12.8596 69.5474 13.1542 67.1002 13.4341C65.8766 13.5741 64.796 13.7104 63.9297 13.8391C63.0618 13.968 62.4133 14.0888 62.0511 14.197L62.0011 14.1013C63.4631 13.5801 65.901 12.8123 68.4654 12.2021C71.0276 11.5924 73.7248 11.1377 75.7017 11.2477C78.1528 11.3842 81.0304 11.3231 83.3288 11.2084C84.4778 11.1511 85.4813 11.0803 86.2135 11.0143C86.5797 10.9813 86.8774 10.9495 87.0913 10.9212C87.1983 10.907 87.2835 10.8939 87.3453 10.882C87.3763 10.8761 87.4004 10.8707 87.4181 10.8659C87.4346 10.8614 87.4414 10.8585 87.4427 10.8579C87.443 10.8578 87.4431 10.8578 87.443 10.8578C87.5363 10.8024 87.6291 10.6997 87.7083 10.588C87.7866 10.4776 87.8473 10.3647 87.879 10.2953L87.9009 10.2471ZM87.9792 10.3783C87.9429 10.4504 87.8887 10.5453 87.8225 10.6387C87.7414 10.7531 87.6377 10.8718 87.5215 10.9407C87.5046 10.9508 87.4818 10.9581 87.4606 10.9638C87.4376 10.9701 87.4091 10.9764 87.3761 10.9827C87.3099 10.9954 87.2213 11.009 87.1129 11.0234C86.8958 11.0521 86.5956 11.0841 86.2283 11.1172C85.4935 11.1835 84.4878 11.2544 83.337 11.3118C81.0359 11.4266 78.1519 11.488 75.6925 11.3511C73.7411 11.2425 71.0635 11.692 68.5031 12.3013C66.4003 12.8017 64.3825 13.4084 62.9213 13.8971C63.2081 13.8452 63.5381 13.7918 63.9055 13.7373C64.7744 13.6082 65.857 13.4717 67.0815 13.3316C69.5305 13.0514 72.5491 12.7567 75.5651 12.4783C78.0366 12.2501 80.5056 12.0329 82.6584 11.8435C85.762 11.5704 88.2086 11.3552 89.058 11.2483C89.296 11.2183 89.4855 11.1889 89.6315 11.1594C89.7786 11.1297 89.877 11.1008 89.9359 11.0734C89.998 11.0445 89.9941 11.0285 89.994 11.0278C89.9934 11.0243 89.9901 11.0161 89.9755 11.0028C89.961 10.9896 89.9384 10.9742 89.906 10.9568C89.7738 10.8858 89.5219 10.8036 89.175 10.7047C88.967 10.6454 88.7285 10.581 88.4662 10.5103C88.3117 10.4686 88.1489 10.4247 87.9792 10.3783ZM78.3962 13.2039L78.4548 13.2966C78.6745 13.6443 78.6283 13.9714 78.4824 14.2366C78.3375 14.5001 78.0937 14.7037 77.9117 14.8116L77.9003 14.8184L77.8864 14.8208C75.1368 15.2956 70.9469 16.0389 67.3138 16.7256C65.4971 17.069 63.82 17.3981 62.5319 17.6724C61.8878 17.8096 61.3415 17.933 60.9239 18.0374C60.5034 18.1426 60.2206 18.2269 60.0975 18.2854C59.7651 18.4432 59.1467 18.6615 58.3869 18.9026C57.6256 19.1442 56.7183 19.4099 55.8051 19.6627C53.981 20.1675 52.1262 20.6223 51.3671 20.7267C50.6063 20.8314 48.3902 20.8699 46.295 20.7922C45.2463 20.7533 44.2245 20.6852 43.4271 20.5811C43.0285 20.5291 42.6838 20.4678 42.4191 20.3961C42.2867 20.3602 42.1725 20.3213 42.081 20.2787C41.9902 20.2365 41.9173 20.1888 41.8727 20.1339C41.8239 20.0739 41.7116 20.0069 41.5326 19.9363C41.3564 19.8668 41.1252 19.7975 40.8509 19.7292C40.3027 19.5928 39.5897 19.4624 38.8167 19.3434C37.2711 19.1055 35.4921 18.914 34.3256 18.8105L34.2674 18.8053V17.0642L34.3118 17.0523C34.8577 16.9054 35.6767 16.6903 36.3594 16.5222C36.7007 16.4382 37.0087 16.3657 37.2318 16.3193C37.3431 16.2962 37.435 16.2793 37.4999 16.2707C37.5316 16.2666 37.5607 16.2639 37.5834 16.2643C37.5939 16.2646 37.6097 16.2655 37.6251 16.2705C37.6419 16.2759 37.672 16.2921 37.672 16.3243V16.3296L37.6706 16.3348C37.6303 16.4881 37.6926 16.731 38.0487 16.9391C38.4071 17.1485 39.065 17.3228 40.2107 17.3228C41.665 17.3228 42.8211 17.6724 43.7178 18.0203C43.9419 18.1072 44.1499 18.1941 44.342 18.2753C44.3772 18.2902 44.4119 18.3049 44.4461 18.3194C44.5984 18.3839 44.7397 18.4437 44.8715 18.4965C45.1974 18.6269 45.45 18.7072 45.645 18.7072C46.0668 18.7072 48.8292 18.5427 51.728 18.3325C54.6278 18.1222 57.6498 17.8671 58.5933 17.6869C59.1868 17.5735 60.8641 17.3022 62.9557 16.9639C64.2143 16.7603 65.6229 16.5324 67.0358 16.3001C68.9172 15.9908 70.8068 15.6734 72.3619 15.3945C73.9188 15.1153 75.1357 14.8756 75.6749 14.7215C76.539 14.4745 77.1641 14.1835 77.5938 13.9211C78.0248 13.6578 78.2564 13.4252 78.3377 13.2966L78.3962 13.2039ZM77.6738 14.0031C77.2326 14.2725 76.5954 14.5686 75.7194 14.8189C75.1709 14.9756 73.9452 15.2168 72.3908 15.4956C70.8345 15.7746 68.944 16.0922 67.0625 16.4016C65.6462 16.6344 64.2355 16.8626 62.9761 17.0663C60.8877 17.4041 59.2154 17.6746 58.624 17.7876C57.6688 17.97 54.6345 18.2258 51.74 18.4357C48.8444 18.6457 46.0744 18.8108 45.645 18.8108C45.4144 18.8108 45.1351 18.7181 44.8124 18.5889C44.6791 18.5356 44.536 18.475 44.3837 18.4104C44.3497 18.396 44.3152 18.3814 44.2803 18.3667C44.0885 18.2856 43.8821 18.1994 43.6602 18.1133C42.7728 17.769 41.6372 17.4264 40.2107 17.4264C39.0519 17.4264 38.3615 17.2506 37.9709 17.0224C37.6151 16.8145 37.5098 16.5634 37.5316 16.3716C37.5283 16.372 37.5249 16.3725 37.5213 16.3729C37.4626 16.3807 37.3755 16.3966 37.2651 16.4196C37.0449 16.4653 36.7392 16.5372 36.3984 16.6211C35.7353 16.7844 34.943 16.9922 34.3983 17.1384V18.7127C35.5675 18.8176 37.3171 19.007 38.8417 19.2417C39.6166 19.361 40.3351 19.4922 40.8902 19.6304C41.1676 19.6994 41.4061 19.7706 41.591 19.8436C41.7733 19.9154 41.9137 19.9928 41.9828 20.0779C42.0118 20.1136 42.0653 20.1513 42.1473 20.1894C42.2287 20.2272 42.334 20.2635 42.4615 20.2981C42.7164 20.3672 43.053 20.4273 43.4484 20.4789C44.2386 20.582 45.2547 20.6499 46.3011 20.6887C48.3962 20.7664 50.5995 20.7272 51.3446 20.6247C52.0914 20.5219 53.9358 20.0702 55.7619 19.5649C56.6737 19.3125 57.5792 19.0473 58.3381 18.8064C59.0985 18.5651 59.7078 18.3496 60.0301 18.1966C60.1688 18.1307 60.4671 18.043 60.8844 17.9386C61.3047 17.8335 61.853 17.7097 62.4979 17.5724C63.7878 17.2977 65.4662 16.9683 67.2833 16.6249C70.9114 15.9391 75.094 15.197 77.8444 14.722C78.0104 14.6211 78.231 14.434 78.3624 14.1952C78.4831 13.9759 78.5282 13.714 78.3883 13.4326C78.2649 13.5801 78.0336 13.7834 77.6738 14.0031Z" fill="#F5F5F5"/>
</svg>
