<svg width="112" height="28" viewBox="0 0 112 28" fill="none" xmlns="http://www.w3.org/2000/svg">
<path d="M24.995 25.2567L25.4478 25.2962C23.96 25.2272 22.4182 25.0792 20.8764 24.9314C24.208 25.7593 28.154 26.5873 30.7308 25.2567C31.0112 26.0452 34.2349 26.5184 34.3104 26.3409C34.9896 26.2325 35.6689 26.1243 36.3481 26.0849C35.8737 26.1243 35.4101 26.1538 34.9357 26.2327C35.4101 26.1932 35.8737 26.1243 36.3481 26.0849C40.7039 25.6513 45.4371 26.0849 50.3212 26.5185C53.0381 26.7354 60.402 27.09 63.1945 27.3463C63.5934 27.3857 63.9923 27.4151 64.402 27.4546C63.7228 27.3856 63.7228 27.3857 63.0543 27.3068C64.747 27.1294 66.2996 26.9424 67.7767 26.8439C67.5179 26.7354 67.464 26.6266 66.8494 26.4492L67.615 26.5185C68.3158 26.2327 69.9007 26.2624 70.6446 26.1244C70.4829 26.3018 71.0759 26.341 71.5826 26.3804L71.3778 26.2721C73.3508 26.3411 75.6473 26.2721 77.4263 26.2721C77.6743 26.2721 77.8576 26.341 77.9654 26.3804L79.6581 26.2721C79.5395 26.489 81.0705 26.489 80.2511 26.5975C81.5233 26.3412 82.8171 26.5283 84.0139 26.2327C88.3373 26.1932 92.9411 26.0157 97.4047 25.6215L97.2969 25.5527C98.871 25.3753 100.24 24.9413 102.149 25.0498C103.507 24.7245 105.448 24.5474 105.965 24.0743C107.539 23.9658 108.165 23.749 109.696 23.6012C109.297 23.3844 111.194 23.3152 110.429 23.1378C109.405 22.8519 109.351 23.0983 108.488 22.8519L108.51 22.9212C104.467 22.6649 100.434 22.4873 96.3373 22.4578C93.5988 22.6746 90.6554 22.5266 87.809 22.6055C84.7578 22.6745 81.4478 22.8222 78.8279 22.9996C78.2026 23.0686 77.7497 22.852 77.2214 22.7436C74.8171 22.852 71.7443 22.704 69.0274 22.8124C69.0813 22.8124 69.1352 22.8124 69.1675 22.8124C67.7228 22.8124 66.6338 22.5564 65.2214 22.5959C65.2214 22.6649 65.0166 22.6647 64.9088 22.7041C64.6608 22.4183 56.6069 23.1773 56.1001 22.99C55.96 22.99 55.809 22.9901 55.6473 23.0295C52.6608 22.8126 49.5988 22.1324 47.0328 22.093C46.4721 22.2014 45.8468 22.3099 45.3724 22.4578C44.9195 22.3099 44.8333 22.5662 44.2942 22.4972C42.9142 21.8467 42.0947 22.0634 42.8063 22.3196C41.6743 22.3591 40.5206 22.2804 39.5071 22.2508C39.0327 22.2902 38.5691 22.3196 38.0947 22.3196C37.6958 22.3591 37.4694 22.2509 37.2753 22.1031C36.2511 22.1425 36.5422 21.9945 35.4748 21.9255C35.216 21.7087 32.7686 22.1422 32.4559 22.0732L32.6284 22.0338C31.3885 21.9254 30.5476 21.4921 29.3508 21.4231C25.9654 21.0978 22.2672 21.0977 19.1513 20.8513C19.119 21.0682 19.8521 20.8514 19.8845 21.1372C18.0408 20.9894 16.1648 20.595 14.3211 20.4866C13.9869 20.4176 13.5664 20.2697 13.4263 20.2007C12.8333 20.0923 13.0813 20.2697 12.6392 20.2402L12.5853 20.0231C11.9384 20.171 11.6581 19.7376 11.0543 19.8065C11.022 19.8755 10.8063 19.8754 10.5799 19.8754C10.5799 19.6585 9.92224 19.8362 9.95458 19.6588C9.83598 19.6588 9.72816 19.6588 9.56644 19.6193C9.31846 19.6883 7.02197 20.1221 6.77399 20.1911L6.65539 20.1516C6.31038 20.1516 6.17021 20.2991 6.36428 20.3287L5.9438 20.2892H5.99771L5.57723 20.2498C5.51254 20.2104 5.4155 20.1022 5.54488 20.0332C5.2969 20.1022 5.03815 20.1022 4.79017 20.0727C5.44785 20.2501 6.27803 20.5063 6.95728 20.7527C6.67695 20.8217 6.15943 20.6444 5.85754 20.6444C5.49097 20.467 4.73625 20.3192 4.14326 20.1713C4.02466 20.1713 3.91684 20.4275 3.63652 20.2796C3.49636 20.1022 3.30229 20.2797 3.06509 20.1319C3.34542 20.0629 3.62574 20.1319 3.90606 20.1319C3.85215 19.9545 3.20526 19.9542 3.00041 19.8754C2.89259 19.9444 2.35351 19.8359 2.00849 19.8754C2.17022 19.698 1.72817 19.7278 1.5341 19.6193C1.30768 19.5799 1.14596 19.6586 1.23221 19.7276C1.16752 19.9445 2.15944 19.9051 1.82521 20.0924C1.73896 19.984 1.28611 19.9836 1.03813 19.9836C1.03813 20.0921 1.21064 20.0922 1.03813 20.1612C0.757811 20.1218 0.4775 20.2302 0.326557 20.1218C0.380465 20.0823 0.488277 20.1218 0.574531 20.1218C0.229517 20.0823 2.51524 19.5106 2.06241 19.55C2.181 19.6585 0.0354544 20.0924 0.261869 20.0924C0.466721 20.1614 0.100142 20.2696 0.326557 20.3484L0.574531 20.2402C0.887199 20.3091 1.00579 20.4965 0.887192 20.5655C0.380453 20.5261 2.35351 19.9149 1.91146 19.9938L2.08396 20.0626C1.88989 20.1316 1.40472 20.1315 1.21065 20.0231C1.21065 20.1315 0.951883 20.1713 0.736249 20.1713L0.671562 20.1319C0.46671 20.1713 0.143259 20.1318 0.283421 20.2796C1.53409 20.3486 -0.557553 21.3243 0.649994 21.4722C0.143255 21.1863 0.822505 21.2157 1.36159 21.2551C1.4155 21.3241 1.64192 21.472 2.04084 21.5804C2.37507 21.5804 2.23491 21.5115 2.2996 21.4327C2.49367 21.5017 2.83868 21.5808 2.78478 21.6892C3.04354 21.5414 3.20525 21.7975 3.51792 21.7975C3.79825 21.7581 3.49636 21.7286 3.69043 21.6497C4.11092 21.6892 4.68234 21.7581 5.01657 21.7975C5.13517 21.9453 5.52332 22.162 5.243 22.3394C4.61766 22.2704 5.49098 22.0535 4.84408 22.0535C5.1244 22.3393 4.27264 22.0932 4.14326 22.31C4.34811 22.4578 4.7686 22.4873 5.1244 22.4578L5.05971 22.4183C5.37238 22.4183 5.98693 22.3788 6.33194 22.566C6.24569 22.6744 6.39664 22.7436 6.17022 22.7436L6.5907 22.7831C6.64461 22.7437 6.69852 22.7138 6.56914 22.7138C6.77399 22.6448 6.96806 22.7141 7.12979 22.7831C7.1837 22.8915 9.41551 22.497 9.34003 22.566C9.6527 22.566 9.72816 22.7437 10.0193 22.6353C10.0516 22.5663 7.07587 22.8126 7.47479 22.7831C7.73355 22.9309 10.9681 22.4974 11.1513 22.6748C11.3778 22.6748 11.6581 22.6744 11.6042 22.566C11.9923 22.635 11.4856 22.7435 11.7659 22.8519C11.7659 22.8519 11.7443 22.8124 11.8306 22.8124L12.0893 22.9602C12.6823 22.8518 13.5772 23.1085 14.2026 22.9212C14.0301 23.0296 13.8036 23.2067 13.4047 23.2855L13.34 23.2167C13.2861 23.2561 12.9519 23.256 12.9519 23.3644C13.34 23.4728 13.6635 23.4728 14.0732 23.3644C14.1379 23.4038 14.2349 23.4333 14.2996 23.4727V23.4332C14.4398 23.5022 14.4182 23.5026 14.3643 23.542C14.3643 23.542 14.3427 23.542 14.3319 23.5815C14.5799 23.9067 15.8306 23.4729 16.5314 23.6503C16.7363 23.6109 16.553 23.611 16.8117 23.542C17.5233 23.6898 18.0193 23.8277 18.7632 23.9361C19.0112 23.8277 19.022 23.7587 18.7309 23.6108L19.2915 23.6796C18.7632 24.0049 20.3373 24.0743 19.7767 24.3996C19.9384 24.4686 20.2834 24.5078 20.5961 24.4684C20.6284 24.3994 20.6824 24.2514 21.0813 24.2514C21.6419 24.3992 21.5018 24.36 21.9546 24.4684C22.0624 24.5768 21.8899 24.616 21.9222 24.7244C22.6338 24.616 22.5368 25.0103 23.1945 25.0103C23.615 25.0103 24.4344 25.0106 24.4667 24.8332C25.0489 24.9613 25.0489 25.1089 24.995 25.2567Z" fill="#EF4E5D"/>
<path d="M1.09082 13.39V0.616699H2.66495L7.94796 10.7884L13.1986 0.616699H14.7943V13.3804H13.1555V4.08602L8.41158 13.39H7.48436L2.74041 4.08602V13.39H1.09082Z" fill="#B3E6FF"/>
<path d="M21.9648 13.6562C20.919 13.6562 20.0241 13.4397 19.2694 13.006C18.5147 12.5724 17.9324 11.9809 17.5227 11.222C17.113 10.4631 16.9082 9.58602 16.9082 8.59057C16.9082 7.59511 17.113 6.7079 17.5335 5.94899C17.9432 5.19008 18.5362 4.59891 19.2909 4.17511C20.0457 3.7513 20.9406 3.54419 21.9648 3.54419C23.0106 3.54419 23.9163 3.76118 24.671 4.19484C25.4257 4.6285 26.0079 5.21944 26.4176 5.97835C26.8273 6.73726 27.0214 7.60474 27.0214 8.60019C27.0214 9.59565 26.8166 10.4829 26.4069 11.2418C25.9971 12.0007 25.4149 12.5921 24.6602 13.0258C23.9055 13.4496 23.0106 13.6562 21.9648 13.6562ZM21.9648 12.1581C23.043 12.1581 23.8516 11.8232 24.3907 11.1628C24.9298 10.5025 25.1885 9.64516 25.1885 8.59057C25.1885 7.51626 24.919 6.65868 24.3799 6.00818C23.8408 5.36755 23.0322 5.04232 21.9648 5.04232C21.2317 5.04232 20.6279 5.19012 20.1643 5.49565C19.6899 5.80119 19.3448 6.21516 19.1076 6.74738C18.8704 7.27961 18.7627 7.89079 18.7627 8.59057C18.7627 9.66487 19.0322 10.5321 19.582 11.1826C20.1319 11.8331 20.9082 12.1581 21.9648 12.1581Z" fill="#B3E6FF"/>
<path d="M29.1543 13.3902V3.81047H30.6961V6.12672L30.4481 5.82113C30.5667 5.52545 30.7284 5.24941 30.9333 5.00301C31.1273 4.75661 31.3538 4.54952 31.6018 4.39182C31.8713 4.1947 32.184 4.03705 32.529 3.93849C32.874 3.83993 33.219 3.77099 33.5748 3.75128C33.9306 3.73157 34.2648 3.75134 34.5775 3.81047V5.28887C34.2109 5.21002 33.812 5.1804 33.3807 5.22968C32.9495 5.27896 32.5505 5.41711 32.1732 5.65366C31.839 5.88034 31.5802 6.14603 31.3969 6.45157C31.2136 6.7571 31.0842 7.10233 31.0087 7.467C30.9333 7.83167 30.9009 8.20609 30.9009 8.58061V13.3902H29.1543Z" fill="#B3E6FF"/>
<path d="M40.9397 13.6561C39.9154 13.6561 39.0097 13.4492 38.2442 13.0353C37.4787 12.6213 36.8858 12.0398 36.4545 11.2908C36.0232 10.5417 35.8184 9.66436 35.8184 8.66891C35.8184 7.62417 36.034 6.71765 36.4437 5.94889C36.8642 5.18012 37.4464 4.58895 38.2011 4.175C38.9558 3.76105 39.8399 3.55371 40.8534 3.55371C41.91 3.55371 42.8049 3.78032 43.5488 4.21398C44.2928 4.6575 44.8426 5.28846 45.22 6.11636C45.5973 6.94426 45.7483 7.91999 45.7052 9.05342H43.9585V8.4817C43.937 7.30884 43.6782 6.42211 43.1715 5.84061C42.6647 5.2591 41.9208 4.96329 40.9181 4.96329C39.8507 4.96329 39.0421 5.27887 38.4814 5.8998C37.9208 6.53058 37.6513 7.42723 37.6513 8.60009C37.6513 9.73353 37.9316 10.601 38.4814 11.2219C39.0421 11.8429 39.8292 12.158 40.8642 12.158C41.5542 12.158 42.158 12.0102 42.6647 11.7244C43.1715 11.4385 43.5812 11.0147 43.8723 10.4726L45.5327 10.9953C45.123 11.8429 44.5084 12.4931 43.689 12.9564C42.8696 13.4196 41.9639 13.6561 40.9397 13.6561ZM37.069 9.0438V7.77234H44.8103V9.0438H37.069Z" fill="#B3E6FF"/>
<path d="M55.862 13.6561C54.8808 13.6561 54.0506 13.4394 53.3498 12.9959C52.649 12.5523 52.1099 11.9513 51.7326 11.1825C51.3552 10.4138 51.1611 9.55617 51.1611 8.60014C51.1611 7.64411 51.3552 6.78652 51.7326 6.01776C52.1099 5.25885 52.649 4.65756 53.3498 4.21404C54.0506 3.77052 54.8808 3.55376 55.8512 3.55376C56.8431 3.55376 57.6733 3.77052 58.3417 4.21404C59.0102 4.65756 59.5277 5.25885 59.8727 6.01776C60.2177 6.77667 60.3902 7.64411 60.3902 8.60014C60.3902 9.55617 60.2177 10.4138 59.8727 11.1825C59.5277 11.9414 59.021 12.5523 58.3417 12.9959C57.6733 13.4394 56.8431 13.6561 55.862 13.6561ZM56.0776 12.2172C56.7784 12.2172 57.3606 12.0598 57.8134 11.7542C58.2663 11.4487 58.6005 11.0148 58.8161 10.4727C59.0318 9.9306 59.1396 9.30016 59.1396 8.61025C59.1396 7.91047 59.0318 7.2793 58.8053 6.73722C58.5897 6.19515 58.2555 5.7713 57.8134 5.46576C57.3714 5.16023 56.8107 5.01243 56.1207 5.01243C55.4091 5.01243 54.8161 5.17035 54.3633 5.4956C53.9105 5.82085 53.5547 6.24471 53.339 6.78679C53.1126 7.32887 53.0048 7.94004 53.0048 8.61025C53.0048 9.29031 53.1234 9.90101 53.3498 10.4529C53.5762 11.0049 53.9213 11.4389 54.3741 11.7542C54.8161 12.0499 55.3875 12.2172 56.0776 12.2172ZM59.1396 13.39V6.33346H58.9455V0.616699H60.6813V13.39H59.1396Z" fill="#B3E6FF"/>
<path d="M67.9367 13.6561C66.9125 13.6561 66.0068 13.4492 65.2413 13.0353C64.4758 12.6213 63.8828 12.0398 63.4515 11.2908C63.0203 10.5417 62.8154 9.66436 62.8154 8.66891C62.8154 7.62417 63.0311 6.71765 63.4408 5.94889C63.8613 5.18012 64.4435 4.58895 65.1982 4.175C65.9529 3.76105 66.837 3.55371 67.8505 3.55371C68.9071 3.55371 69.802 3.78032 70.5459 4.21398C71.2898 4.6575 71.8397 5.28846 72.217 6.11636C72.5944 6.94426 72.7454 7.91999 72.7022 9.05342H70.9556V8.4817C70.934 7.30884 70.6753 6.42211 70.1685 5.84061C69.6618 5.2591 68.9179 4.96329 67.9152 4.96329C66.8478 4.96329 66.0392 5.27887 65.4785 5.8998C64.9179 6.53058 64.6483 7.42723 64.6483 8.60009C64.6483 9.73353 64.9286 10.601 65.4785 11.2219C66.0392 11.8429 66.8262 12.158 67.8612 12.158C68.5513 12.158 69.1551 12.0102 69.6618 11.7244C70.1685 11.4385 70.5782 11.0147 70.8693 10.4726L72.5297 10.9953C72.12 11.8429 71.5055 12.4931 70.6861 12.9564C69.8667 13.4196 68.9502 13.6561 67.9367 13.6561ZM64.0661 9.0438V7.77234H71.8073V9.0438H64.0661Z" fill="#B3E6FF"/>
<path d="M73.6943 5.1215V3.82021H80.7132V5.1215H73.6943ZM80.7132 13.3903C80.0879 13.5086 79.4841 13.5583 78.8696 13.5385C78.2658 13.5188 77.7267 13.4101 77.2523 13.2031C76.7779 12.9961 76.4221 12.6808 76.1849 12.2373C75.98 11.8627 75.8615 11.4784 75.8507 11.0842C75.8291 10.6998 75.8291 10.2564 75.8291 9.76363V1.13965H77.5542V9.69433C77.5542 10.0886 77.5542 10.4237 77.565 10.6997C77.5757 10.9756 77.6404 11.2122 77.759 11.4191C77.9962 11.7937 78.3628 12.0207 78.8696 12.0799C79.3763 12.1489 79.9908 12.1289 80.7132 12.0303V13.3903Z" fill="#B3E6FF"/>
<path d="M85.8236 13.6562C85.0365 13.6562 84.3896 13.5282 83.8613 13.2621C83.333 12.9959 82.9341 12.6509 82.6645 12.2173C82.395 11.7836 82.2656 11.3106 82.2656 10.7981C82.2656 10.2954 82.3735 9.86191 82.5783 9.49724C82.7832 9.13257 83.085 8.82709 83.4624 8.57084C83.8505 8.32444 84.3034 8.12699 84.8317 7.98901C85.3276 7.86088 85.8883 7.75238 86.5028 7.66368C87.1174 7.57498 87.7427 7.4865 88.3788 7.40766C89.0149 7.32881 89.6079 7.2596 90.1686 7.19061L89.5433 7.51594C89.554 6.66832 89.3707 6.03787 88.9826 5.63377C88.5944 5.21982 87.926 5.01248 86.9664 5.01248C86.3303 5.01248 85.7805 5.14076 85.3061 5.41673C84.8317 5.68284 84.4974 6.10646 84.3033 6.69781L82.6645 6.24448C82.9125 5.40672 83.4085 4.7466 84.1308 4.26366C84.8532 3.78071 85.8128 3.54419 86.988 3.54419C87.9368 3.54419 88.7562 3.70162 89.4354 4.00715C90.1147 4.32254 90.6106 4.78595 90.9018 5.41673C91.0527 5.71241 91.1389 6.02778 91.1821 6.3826C91.2252 6.72756 91.236 7.09232 91.236 7.46685V13.3901H89.705V11.094L90.0608 11.3106C89.6618 12.0892 89.112 12.6806 88.4004 13.0748C87.6888 13.4592 86.837 13.6562 85.8236 13.6562ZM86.0823 12.3356C86.7077 12.3356 87.2468 12.237 87.6996 12.0301C88.1524 11.8231 88.519 11.5571 88.7993 11.222C89.0796 10.8869 89.2629 10.5219 89.3384 10.1277C89.4247 9.832 89.4785 9.50675 89.4893 9.14208C89.5001 8.77741 89.5109 8.50157 89.5109 8.2946L90.1147 8.53137C89.554 8.61022 88.9934 8.67894 88.4543 8.74793C87.9044 8.81693 87.3977 8.87602 86.9125 8.95487C86.4273 9.02386 85.9961 9.11282 85.6079 9.21138C85.3276 9.29023 85.0581 9.39872 84.8101 9.5367C84.5621 9.66483 84.3573 9.84201 84.2063 10.0391C84.0554 10.2362 83.9799 10.4928 83.9799 10.7884C83.9799 11.0447 84.0554 11.3007 84.1956 11.5373C84.3357 11.7738 84.5621 11.9611 84.8748 12.109C85.1874 12.2568 85.5864 12.3356 86.0823 12.3356Z" fill="#B3E6FF"/>
<path d="M93.9531 2.11477V0.479004H95.6782V2.11477H93.9531ZM93.9531 13.39V3.81021H95.6782V13.39H93.9531Z" fill="#B3E6FF"/>
<path d="M98.7832 13.39V0.350586H100.508V13.39H98.7832Z" fill="#B3E6FF"/>
<path d="M107.387 13.6467C106.136 13.6467 105.112 13.4 104.314 12.8974C103.516 12.3947 103.02 11.695 102.848 10.7982L104.616 10.5421C104.756 11.0645 105.079 11.4784 105.597 11.7741C106.104 12.0797 106.74 12.2275 107.495 12.2275C108.206 12.2275 108.767 12.0893 109.176 11.8232C109.586 11.5472 109.791 11.1825 109.791 10.7192C109.791 10.4531 109.726 10.2366 109.586 10.0691C109.446 9.90151 109.176 9.74383 108.745 9.59599C108.325 9.44815 107.678 9.27046 106.826 9.05363C105.899 8.82694 105.177 8.60029 104.637 8.35389C104.109 8.11735 103.732 7.83143 103.505 7.51603C103.279 7.20064 103.171 6.80646 103.171 6.34323C103.171 5.78144 103.344 5.28889 103.678 4.87494C104.012 4.45113 104.486 4.12589 105.09 3.88934C105.694 3.6528 106.395 3.53418 107.203 3.53418C108.001 3.53418 108.713 3.65255 109.338 3.87924C109.964 4.10592 110.47 4.44126 110.858 4.85521C111.247 5.26916 111.473 5.77181 111.538 6.33361L109.77 6.62909C109.683 6.11658 109.414 5.71251 108.95 5.41683C108.486 5.12115 107.904 4.96347 107.193 4.94376C106.513 4.92405 105.964 5.04216 105.543 5.27871C105.123 5.52511 104.907 5.85059 104.907 6.25468C104.907 6.49122 104.982 6.68821 105.144 6.85576C105.306 7.02331 105.597 7.17136 106.028 7.3192C106.46 7.46704 107.085 7.63436 107.904 7.82163C108.831 8.03846 109.554 8.26511 110.093 8.52136C110.632 8.77762 111.009 9.0732 111.236 9.40831C111.462 9.74341 111.581 10.1672 111.581 10.66C111.581 11.5865 111.203 12.3059 110.46 12.8382C109.716 13.3901 108.691 13.6467 107.387 13.6467Z" fill="#B3E6FF"/>
</svg>
