<svg width="98" height="10" viewBox="0 0 98 10" fill="none" xmlns="http://www.w3.org/2000/svg">
<path d="M1.76113 6.78409C1.55195 6.80693 1.35547 6.82978 1.35547 6.82978C1.35547 6.85262 1.36023 6.87928 1.3634 6.90213C1.5092 6.85643 1.63911 6.81835 1.76113 6.78027V6.78409Z" fill="#FFBA49"/>
<path d="M2.14205 5.84473C2.09926 5.84853 2.05646 5.85614 2.01367 5.85995C2.02793 5.87899 2.03113 5.89804 2.03905 5.91708C2.07075 5.89423 2.10243 5.86757 2.14046 5.84473H2.14205Z" fill="#FFBA49"/>
<path d="M1.3639 6.90479C1.40035 7.17514 1.57464 7.42647 1.37496 7.72348C1.15152 7.75014 0.703045 7.80346 0.478011 7.83011C0.257732 8.00528 0.48436 8.12712 0.487529 8.27563C0.26408 8.30228 0.0390349 8.32894 0.0406196 8.40129C-0.102008 8.61453 0.143613 8.71354 0.579418 8.70973C1.52551 7.76157 3.9819 7.17895 1.3639 6.90479Z" fill="#FFBA49"/>
<path d="M3.14069 6.10107C2.74767 6.14677 2.35304 6.19246 1.95844 6.23815C1.83958 6.42474 1.67635 6.61514 1.79996 6.77126C2.40851 6.57325 2.77937 6.38666 3.14069 6.10107Z" fill="#FFBA49"/>
<path d="M94.7594 9.55841C94.761 9.51271 94.7832 9.49367 94.9829 9.60029C94.9052 9.58506 94.8323 9.57364 94.7594 9.55841C94.7547 9.60029 94.7658 9.66502 94.6644 9.67264C95.4488 9.74499 96.3632 9.84779 97.2507 10.0001C97.3695 9.94299 97.4836 9.88589 97.5866 9.82877C95.3918 9.43656 93.1985 8.98343 91.3887 9.04055C92.6581 9.27663 93.536 9.33374 94.7578 9.55841H94.7594Z" fill="#FFBA49"/>
<path d="M97.7773 9.41395C97.8534 9.42918 97.9247 9.44059 98.0008 9.45583C97.8027 9.34921 97.7805 9.36825 97.7773 9.41395Z" fill="#FFBA49"/>
<path d="M58.5836 5.54281C57.2255 5.51235 56.0322 5.67228 54.8262 5.84744C57.384 5.81697 60.0051 5.88932 61.9591 5.77509C60.8387 5.69893 59.7151 5.62278 58.5836 5.54281Z" fill="#FFBA49"/>
<path d="M48.8301 6.52C50.5083 6.74086 51.8934 6.63042 53.2167 6.44384C51.8728 6.43622 50.5369 6.43242 49.2073 6.4248C49.0821 6.45527 48.9505 6.48192 48.8301 6.52Z" fill="#FFBA49"/>
<path d="M50.6934 6.14935C52.2306 6.23312 53.5332 6.04654 54.8216 5.84473C53.3748 5.89042 51.9596 5.97038 50.6934 6.14935Z" fill="#FFBA49"/>
<path d="M81.2801 2.35059C82.2991 2.29728 82.9156 2.29728 83.2642 2.32774C83.4211 2.24778 83.6303 2.15258 83.9108 2.03834C83.8522 2.03073 83.7888 2.0193 83.7302 2.01168C82.6811 1.98122 81.6177 1.93554 80.5417 1.87842C80.1011 1.90127 79.6796 1.93553 79.3262 2.0155C79.9775 2.12973 80.632 2.24016 81.2786 2.3544L81.2801 2.35059Z" fill="#FFBA49"/>
<path d="M83.2626 2.33008C81.9187 3.01168 84.6286 2.45193 83.2626 2.33008V2.33008Z" fill="#FFBA49"/>
<path d="M76.603 6.03193C76.5523 6.02432 76.5 6.01671 76.4477 6.0129C76.2988 6.0129 76.1451 6.00527 75.9961 6.00146C76.2021 6.01289 76.3986 6.02051 76.6015 6.03193H76.603Z" fill="#FFBA49"/>
<path d="M64.1185 2.48528C65.0075 2.53859 65.8997 2.56905 66.776 2.58048C64.9694 2.48909 63.1486 2.39388 61.6367 2.47385C61.8602 2.49669 62.0868 2.59191 62.3102 2.61095C62.7619 2.50433 63.4386 2.42054 64.1169 2.48147L64.1185 2.48528Z" fill="#FFBA49"/>
<path d="M83.6262 6.37715C82.4028 6.27814 81.1905 6.19438 79.9924 6.12203C78.7944 6.0611 77.6105 6.03445 76.4473 6.0078C75.2683 5.85929 74.1003 5.69935 72.9466 5.59654C71.793 5.49373 70.6535 5.40615 69.5331 5.33761C67.2939 5.18149 65.1307 5.20433 63.0848 5.31095C61.2829 5.41757 58.8091 5.3757 56.3353 5.3757C55.0992 5.36809 53.8615 5.429 52.7078 5.528C51.5542 5.63082 50.486 5.79076 49.5843 6.04208C49.971 6.09539 50.3402 6.12584 50.6968 6.14487C50.1691 6.21722 49.6715 6.30863 49.2071 6.42286C43.2722 6.46475 37.4483 6.52566 31.3882 6.6437C30.4897 6.6437 29.8162 6.90645 28.9176 6.9331C28.008 6.97499 27.1142 7.0207 26.2219 7.06258C26.2188 7.07781 26.2299 7.09685 26.2552 7.11209C24.4058 7.19967 22.5723 7.38624 20.7229 7.5576C19.7974 7.65279 18.8687 7.72896 17.9321 7.85081C16.9955 7.97647 16.051 8.10213 15.0954 8.22778C14.1985 8.3306 13.2999 8.39913 12.403 8.45625C11.506 8.5324 10.6074 8.60857 9.71206 8.68473C9.03854 8.74947 9.03377 8.45245 8.5837 8.41818C7.68356 8.31917 6.89593 8.22396 6.07979 8.16685C5.26364 8.12115 4.42058 8.10974 3.4111 8.15162C3.4111 8.15162 3.40792 8.00311 3.40634 7.92695C3.09731 7.98787 2.82 8.01834 2.5918 8.02215C3.53948 7.07399 5.99583 6.48758 3.37783 6.21723C3.52204 6.17153 3.65199 6.13345 3.7756 6.09537C3.79145 6.09537 3.80413 6.09537 3.81998 6.09156C3.81839 6.09156 3.81839 6.08777 3.8168 6.08396C4.42693 5.88595 4.79459 5.69936 5.15749 5.41377C4.76448 5.45947 4.36988 5.50516 3.97528 5.55085C4.04818 5.43661 4.09413 5.3262 4.05134 5.22719C4.08462 5.20434 4.1163 5.1815 4.15434 5.15484C4.32866 5.1358 4.47604 5.11675 4.47604 5.11675C4.53151 5.05202 4.57272 4.99109 4.60125 4.93017C5.11312 4.71312 5.77555 4.5075 6.26999 4.33614C6.76443 4.1686 7.09088 4.01628 6.93082 3.87919C6.68835 3.74211 5.93561 3.95156 5.08143 4.15337C5.02913 4.13053 4.9689 4.11148 4.90868 4.10006C6.03226 3.89443 4.89916 3.57837 5.57109 3.42606C6.47123 3.31944 7.3682 3.17094 8.26833 3.07955C11.9323 2.70258 15.021 2.41317 18.6199 1.92957C18.7784 1.91053 18.9369 1.89532 19.0938 1.87628C20.8401 1.6897 22.4883 1.58687 24.1998 1.5526C24.0905 1.60972 23.978 1.66302 23.8607 1.71633C25.2362 1.69349 26.615 1.68589 27.9921 1.51834C28.8368 1.41934 29.6814 1.31651 30.5293 1.21751C31.3771 1.14135 32.2297 1.0652 33.0871 0.989044C34.8049 0.855769 36.5513 0.714886 38.3532 0.711078C40.2422 0.684423 42.0963 0.653948 43.9584 0.627293C45.8205 0.589215 47.6889 0.551137 49.6081 0.509251C48.0392 0.604447 46.4735 0.722486 44.8649 0.718678C44.1439 0.692023 43.4244 0.657766 42.7255 0.661574C43.4498 0.699653 44.1597 0.722486 44.8649 0.718678C46.2532 0.775796 47.6604 0.84816 48.9884 0.829121C50.3164 0.836737 51.5652 0.74914 52.6397 0.455935C52.871 0.528284 52.8695 0.604458 53.0945 0.615882C53.8837 0.657768 54.6729 0.699638 55.4336 0.741524C56.1943 0.779603 56.9264 0.775802 57.6047 0.676797C57.6047 0.60064 58.283 0.650142 58.0595 0.486404C59.4129 0.520675 60.9913 0.60444 62.3447 0.596824C62.931 0.60444 63.5158 0.516871 64.1038 0.39502C65.3145 0.410251 66.5237 0.425484 67.736 0.444524C68.9483 0.48641 70.1638 0.528299 71.392 0.566378C73.8484 0.627303 76.3507 0.813888 78.9623 0.97001C80.2587 1.06901 81.7515 1.32793 83.0621 1.52594C81.1271 1.44598 79.1367 1.36601 77.113 1.28605C75.1574 0.962377 73.2826 0.69965 71.7311 0.920506C71.3698 0.947161 71.0117 0.970012 70.6519 0.996668C71.7407 1.03855 72.8262 1.08042 73.9038 1.12231C74.9815 1.17562 76.0528 1.23274 77.1145 1.28605C78.2698 1.47644 79.452 1.67446 80.6121 1.86866C80.5883 1.86866 80.5661 1.86866 80.5423 1.87247C79.6295 1.83058 78.7088 1.7925 77.7817 1.75062C76.0433 1.47264 74.3697 1.21751 72.9292 1.31651C72.7501 1.32794 72.5711 1.34698 72.3999 1.36983C72.0402 1.39649 71.6804 1.41934 71.3207 1.44599C71.9926 1.47265 72.6614 1.49928 73.3301 1.52213C73.9973 1.5564 74.6629 1.59068 75.3254 1.62876C76.1478 1.67065 76.9687 1.70873 77.7833 1.75062C78.2936 1.83439 78.8118 1.92197 79.3284 2.00955C79.273 2.02097 79.2159 2.0324 79.1652 2.04383C78.7104 2.05525 77.4283 2.75588 78.0987 3.07193C79.8324 3.28136 81.9147 3.54411 83.5645 3.71546C84.3901 3.80304 85.1064 3.88301 85.6167 3.93632C85.8718 3.96298 86.0747 3.99345 86.2157 4.0163C86.2855 4.02772 86.3393 4.03913 86.3758 4.04674C86.4122 4.05436 86.4312 4.06199 86.4312 4.0658C86.6468 4.37424 80.7008 3.84493 80.9242 3.95155C81.2555 4.03151 81.5883 4.11529 81.9195 4.19525C81.6025 4.20668 81.2919 4.2181 81.0067 4.24476C80.3316 4.21049 79.433 3.99726 78.9782 4.08865C77.3934 4.32092 75.5979 3.92489 73.7913 3.9782C72.6598 4.06198 71.3064 4.2105 69.9515 4.35139C69.9483 4.4999 69.2732 4.34756 69.4967 4.52272C68.8628 4.45037 68.1781 4.37041 67.5839 4.35518C66.9896 4.34756 66.484 4.4123 66.2083 4.6027C66.1766 4.6027 66.1465 4.6027 66.1164 4.6027C66.0276 4.59508 65.8993 4.60651 65.763 4.62935C63.6521 4.36281 62.1735 4.60651 60.2544 4.75502C59.5951 4.7436 58.9264 4.72074 58.237 4.67124C58.6871 4.70551 59.3606 4.82735 59.8122 4.78547C59.9612 4.77404 60.1102 4.76644 60.256 4.75502C61.9643 4.77406 63.5903 4.75882 65.2162 4.74359C65.3494 4.71312 65.5633 4.65982 65.7646 4.62935C65.8818 4.64459 65.9991 4.66363 66.1164 4.67886C66.1449 4.6522 66.1766 4.62554 66.2099 4.6027C66.5982 4.58747 67.0007 4.57985 67.4048 4.57604C67.8089 4.58366 68.2162 4.59127 68.6155 4.6027C69.4158 4.62174 70.186 4.63697 70.85 4.6027C73.3508 4.61412 76.0068 5.12438 78.5487 5.50897C77.2809 5.47089 76.029 5.43661 74.8008 5.40234C76.338 5.47469 77.7896 5.54324 79.1969 5.60798C79.414 5.63844 79.6279 5.67271 79.8419 5.70317L81.1905 5.91641C80.7706 5.82502 80.3553 5.72984 79.9433 5.63845C80.7848 5.67653 81.6152 5.71841 82.4329 5.75649C83.5613 5.84788 84.6991 5.95069 85.8417 6.06492C86.9843 6.20582 88.1317 6.35811 89.279 6.52566C91.5769 6.84171 93.8764 7.29866 96.1521 7.81272C96.0602 7.88507 95.954 7.9536 95.8367 8.02215C94.7385 7.82414 93.6403 7.61472 92.5912 7.4624C91.5421 7.30247 90.5389 7.24155 89.6356 7.27201C90.9034 7.50429 91.7845 7.51191 93.0079 7.7518C93.0048 7.79369 93.0159 7.85842 92.9129 7.86603C93.6973 7.93838 94.6133 8.04119 95.5023 8.19732C95.2123 8.3344 94.8859 8.46006 94.5626 8.58572C94.1078 8.64284 93.4359 8.50955 92.7592 8.44862C91.3012 8.22015 89.886 7.9993 88.4756 7.78225C87.0652 7.56139 85.6611 7.33292 84.2237 7.21107C82.9464 6.99783 81.6691 6.78459 80.3981 6.57135C79.1272 6.35811 77.8609 6.202 76.6074 6.03064C79.1034 6.1525 81.3981 6.26672 83.631 6.37715H83.6262ZM8.16693 6.01161C8.39672 5.95449 8.63442 5.89737 8.87213 5.83644C8.83568 5.82121 8.79924 5.80979 8.76438 5.79456C8.54727 5.8136 8.33333 5.90499 8.16693 6.01161ZM13.4235 5.60417C13.0368 5.60417 12.62 5.61559 12.1827 5.65367C11.7453 5.69556 11.2857 5.75267 10.8119 5.8174C9.86735 5.9621 8.86897 6.11823 7.8896 6.27054C7.8785 6.29339 7.87215 6.31244 7.87215 6.32767C8.69622 6.28197 9.61378 6.16772 10.5599 6.02683C11.506 5.88594 12.4822 5.7184 13.4235 5.60417ZM19.604 6.71605C19.5914 6.70844 19.5787 6.70082 19.5676 6.69321C19.5676 6.70463 19.5708 6.71606 19.5708 6.72749C19.5819 6.72749 19.5929 6.71986 19.604 6.71605ZM46.9869 3.99724C45.185 4.32091 42.9363 4.22192 40.6875 4.37042C40.0124 4.36281 39.3389 4.656 38.4388 4.64458C37.3136 4.7055 36.6401 4.8464 35.7399 4.93779L36.4151 5.07868C34.8398 5.02156 33.9413 5.47851 32.3692 5.34905C32.3692 5.4252 32.1457 5.5737 31.9207 5.57751C30.7987 5.65367 29.672 5.54705 28.775 5.72602C27.6514 5.83645 26.5294 5.87452 25.6308 6.04968C25.4058 6.05729 24.9589 6.29338 24.5088 6.38477C23.9621 6.43808 23.4122 6.4914 22.8655 6.54091C22.8908 6.55995 22.913 6.57897 22.9336 6.59801C23.3805 6.57516 23.8321 6.54469 24.2838 6.47234C25.6308 6.27053 27.2029 6.07633 28.5499 5.95448C30.2345 5.81359 31.8636 5.67271 33.4658 5.53944C35.0664 5.39855 36.6401 5.20815 38.2121 5.0863C38.8856 5.01776 39.5623 4.87685 40.2359 4.80831C41.2485 4.67504 42.3737 4.61413 43.4133 4.56082C44.4529 4.50751 45.4101 4.42753 46.0852 4.18763C46.3118 4.11909 46.7603 4.13434 46.9869 3.99345V3.99724ZM49.5257 0.855755C48.3371 0.958568 47.0836 1.04996 45.8475 1.07281C44.6114 1.10708 43.3927 1.07282 42.2707 1.03474C40.4657 1.0157 35.2851 1.41172 36.1884 2.32942C36.7463 1.90675 37.9554 1.72777 39.4324 1.63257C40.9094 1.5488 42.6526 1.52976 44.277 1.58688C45.9013 1.62877 47.4068 1.66303 48.41 1.57545C49.4131 1.48406 49.9123 1.30889 49.5241 0.855755H49.5257ZM68.3429 0.909071C67.3969 0.909071 66.4825 0.943341 65.4096 0.836721C66.3874 0.85576 67.3652 0.859569 68.3429 0.909071ZM58.7013 3.07574C59.4335 2.99959 60.1815 2.95009 60.9343 2.91963C61.6886 2.88917 62.4477 2.90439 63.2084 2.91201C64.7297 2.93485 66.2495 2.9577 67.7154 2.98055C69.9705 3.02624 72.4379 3.65454 74.4743 3.40702L74.4791 3.18237L74.2525 3.22807C73.4633 3.06814 72.8294 2.88916 72.1685 2.74827C72.2066 2.74827 72.2462 2.74446 72.2842 2.74065C72.2176 2.74065 72.1511 2.73305 72.0845 2.72924C71.6424 2.64166 71.1844 2.57691 70.6551 2.5731C70.4126 2.58072 70.1654 2.58454 69.9166 2.59216C67.1005 2.3713 64.1925 2.26086 61.6379 2.47791C60.0595 2.5731 58.7029 2.85489 57.1245 2.96151C57.573 2.99578 58.2481 3.11763 58.6997 3.07574H58.7013Z" fill="#FFBA49"/>
<path d="M79.4878 5.55907C80.4609 5.61238 81.4402 5.68853 82.4291 5.76469C83.193 5.78373 83.9521 5.80659 84.7096 5.82562C88.3276 6.02744 92.5367 6.9261 96.413 7.54678C96.535 7.35258 96.5571 7.13172 96.4256 6.87279C94.3274 6.33969 92.2244 5.92081 90.1183 5.61999C88.0122 5.30393 85.9077 4.96886 83.8047 4.59569C83.7714 4.59569 83.7381 4.59949 83.7048 4.60329C82.7984 4.68326 81.6161 4.57284 80.3785 4.44337C79.1408 4.3101 77.8445 4.2111 76.7161 4.23776C75.5862 4.3101 74.4594 4.29867 73.3311 4.29486C72.2027 4.30628 71.076 4.30628 69.9492 4.3634C70.7622 4.45098 71.5641 4.53477 72.3612 4.61854C72.759 4.65662 73.1568 4.6947 73.553 4.73658C73.9492 4.78228 74.3438 4.83178 74.7384 4.87747C76.3168 5.06787 77.8888 5.27729 79.4878 5.56288V5.55907Z" fill="#FFBA49"/>
<path d="M53.2168 6.44512C54.0963 6.45274 54.9822 6.43369 55.8728 6.46034C57.1137 6.46034 58.2848 6.44893 59.429 6.41846C60.5732 6.388 61.6872 6.35752 62.8156 6.33087C61.1627 6.22044 59.5019 6.11001 57.8268 5.99577C56.9885 5.97293 56.212 6.03005 55.4576 6.11763C54.7033 6.20521 53.9696 6.34231 53.2168 6.44512Z" fill="#FFBA49"/>
<path d="M64.6451 6.28123C64.0271 6.30027 63.4201 6.31548 62.8147 6.33452C65.2648 6.50588 67.6974 6.63154 70.122 6.83716L73.1172 6.95902L76.1124 7.13419L82.1043 7.49213C82.5576 7.53021 83.0076 7.56828 83.4561 7.60255C76.0442 6.33072 68.6419 5.33688 62.3267 5.75193C62.211 5.75955 62.081 5.76335 61.959 5.77097C64.9589 5.98421 67.9256 6.19744 70.8827 6.40687L67.7639 6.29645C66.7243 6.2698 65.6847 6.27742 64.6451 6.27742V6.28123Z" fill="#FFBA49"/>
<path d="M78.543 5.51407C78.7601 5.54834 78.9756 5.5788 79.1911 5.60926C79.4431 5.62069 79.6903 5.63212 79.9376 5.63973C79.787 5.60927 79.6349 5.5826 79.4859 5.55213C79.1706 5.5369 78.8552 5.52549 78.543 5.51025V5.51407Z" fill="#FFBA49"/>
<path d="M72.1741 2.74665C72.1472 2.74284 72.1187 2.73523 72.0902 2.72761C71.3786 2.68192 70.6528 2.63623 69.9222 2.59054C68.9127 2.61719 67.8589 2.59053 66.7812 2.5791C68.7305 2.68953 70.6591 2.84565 72.1741 2.74284V2.74665Z" fill="#FFBA49"/>
<path d="M65.9602 0.275679C65.7352 0.252832 65.2852 0.210934 65.0585 0.191895C64.9207 0.222357 64.7844 0.256628 64.6465 0.287091C64.8573 0.309938 65.0712 0.336598 65.2836 0.363253L65.9618 0.279491L65.9602 0.275679Z" fill="#FFBA49"/>
<path d="M52.6374 0.461591C53.6374 0.442551 54.6216 0.423526 55.593 0.404487C56.5645 0.400679 57.5248 0.396856 58.4757 0.38924C59.4265 0.381625 60.3695 0.374014 61.306 0.370206C62.2426 0.381629 63.1744 0.393063 64.1031 0.404487C64.2838 0.366408 64.466 0.324499 64.6467 0.286421C63.401 0.149338 62.1586 0.0351061 60.9415 0.00464323C59.7245 -0.0143961 58.5311 0.0236807 57.3869 0.145532C56.9353 0.187418 56.2554 0.362596 55.8053 0.328325C53.6707 0.263591 51.6359 0.412094 49.6074 0.514906C50.5773 0.495867 51.5551 0.48063 52.5566 0.461591C52.5851 0.461591 52.6121 0.461591 52.6406 0.461591H52.6374Z" fill="#FFBA49"/>
</svg>
