<svg width="30" height="30" viewBox="0 0 30 30" fill="none" xmlns="http://www.w3.org/2000/svg">
<circle cx="15" cy="15.001" r="15" fill="#FEFEFE"/>
<path d="M14.8879 19.461C14.3699 19.461 13.8869 19.356 13.4389 19.146C12.9956 18.9313 12.6153 18.6373 12.2979 18.264C11.9806 17.886 11.7543 17.452 11.6189 16.962L13.0259 16.584C13.1053 16.8826 13.2406 17.1416 13.4319 17.361C13.6279 17.5803 13.8566 17.7506 14.1179 17.872C14.3793 17.9886 14.6499 18.047 14.9299 18.047C15.2986 18.047 15.6323 17.9583 15.9309 17.781C16.2343 17.6036 16.4723 17.3656 16.6449 17.067C16.8223 16.7683 16.9109 16.4393 16.9109 16.08C16.9109 15.7113 16.8199 15.3776 16.6379 15.079C16.4606 14.7803 16.2203 14.5446 15.9169 14.372C15.6183 14.1946 15.2893 14.106 14.9299 14.106C14.5193 14.106 14.1716 14.1876 13.8869 14.351C13.6023 14.5143 13.3806 14.7033 13.2219 14.918L11.9479 14.47L12.2559 9.17098H17.6949V10.55H13.0049L13.5999 9.99698L13.3549 13.966L13.0679 13.595C13.3339 13.329 13.6513 13.126 14.0199 12.986C14.3886 12.846 14.7549 12.776 15.1189 12.776C15.7443 12.776 16.3019 12.9206 16.7919 13.21C17.2866 13.4993 17.6763 13.8936 17.9609 14.393C18.2456 14.8876 18.3879 15.45 18.3879 16.08C18.3879 16.7053 18.2269 17.2746 17.9049 17.788C17.5829 18.2966 17.1559 18.7026 16.6239 19.006C16.0919 19.3093 15.5133 19.461 14.8879 19.461Z" fill="black"/>
</svg>
