<svg width="134" height="81" viewBox="0 0 134 81" fill="none" xmlns="http://www.w3.org/2000/svg">
<path d="M103.864 73.7964C105.617 72.8309 106.802 72.109 107.639 71.6685C108.476 71.2185 108.958 71.0217 109.306 70.928C110.001 70.7405 110.151 70.9654 111.478 70.2529C110.309 71.1904 109.14 72.1185 107.971 73.009C106.786 73.7683 105.436 74.6026 104.101 75.3151C102.766 76.0369 101.439 76.6275 100.302 77.0306C99.1648 77.4337 98.2012 77.6774 97.6246 77.7617C97.0402 77.8555 96.8348 77.7898 97.1824 77.5274C97.4114 77.4055 98.3513 76.89 99.607 76.2151C100.863 75.5589 102.395 74.6401 103.864 73.7964Z" fill="#E16389"/>
<path d="M95.9093 79.7693C96.5964 79.5349 96.7227 79.5724 97.4019 79.3193C96.7543 79.7599 96.1067 80.1911 95.4512 80.613L95.9093 79.7693Z" fill="#E16389"/>
<path d="M116.556 65.8935C117.622 64.9561 118.68 63.9811 119.731 62.9874C120.102 62.6687 119.849 62.9688 119.517 63.3344C119.178 63.6906 118.767 64.1312 118.822 64.1218C120.039 63.1188 121.239 62.0689 122.432 60.9814C120.015 63.25 118.822 64.3655 118.112 65.0405C117.393 65.6873 117.14 65.8373 116.556 65.8935Z" fill="#E16389"/>
<path d="M120.559 14.6545C119.319 13.5952 119.825 13.7733 120.788 14.2982C121.744 14.8138 123.142 15.7419 123.671 16.0325C124.714 16.8949 125.677 17.8324 126.151 18.4136C126.633 18.9948 126.633 19.1822 125.788 18.5822C124.429 17.373 123.458 16.6512 122.652 16.0794C121.862 15.5169 121.238 15.1232 120.559 14.6545Z" fill="#E16389"/>
<path d="M130.882 45.0927C130.7 45.6177 130.203 46.602 129.524 47.6988C128.844 48.7956 130.258 50.0142 129.445 51.1672C128.631 52.3109 127.849 53.4265 127.344 54.2514C127.107 54.6264 126.925 54.917 126.83 55.1139C126.736 55.3014 126.72 55.3857 126.815 55.3482C127.154 55.1795 127.478 55.0295 128.292 54.0358C129.326 52.4328 128.11 50.9235 129.121 49.3393C131.095 46.5833 131.735 45.2521 131.901 45.0927C132.059 44.9052 131.688 45.8239 131.19 46.8176C130.7 47.8112 130.1 48.88 129.958 49.2456C129.887 49.4331 129.934 49.4424 130.171 49.1705C130.4 48.8987 130.827 48.3644 131.474 47.3426C132.541 45.4583 132.983 44.3053 133.283 43.2742C133.71 41.8962 133.844 40.8181 133.891 40.1806C133.899 40.0213 133.907 39.8807 133.915 39.7682C133.915 39.6557 133.915 39.5619 133.907 39.4963C133.899 39.3557 133.891 39.3088 133.868 39.3463C133.852 39.3744 133.828 39.4776 133.804 39.637C133.781 39.7963 133.733 40.0119 133.694 40.2743C133.591 40.7899 133.425 41.4837 133.165 42.1961C133.441 41.2587 133.607 40.3306 133.662 39.4682C133.725 38.6057 133.67 37.8183 133.575 37.1246C133.544 36.9559 133.52 36.7872 133.488 36.6185C133.457 36.4591 133.417 36.2997 133.378 36.1404C133.338 35.981 133.307 35.831 133.275 35.681C133.236 35.5311 133.196 35.3998 133.157 35.2591C133.078 34.9873 133.015 34.7155 132.928 34.4905C132.849 34.2561 132.778 34.0311 132.706 33.8155C132.564 33.3936 132.422 33.0281 132.296 32.6906C132.169 32.3625 132.059 32.0626 131.956 31.8001C131.751 31.2564 131.585 30.8533 131.451 30.4689C131.166 29.7283 130.985 29.1378 130.606 28.3878C130.227 27.6192 129.658 26.663 128.56 25.3224C127.044 23.532 128.363 22.7164 127.794 22.2758C127.225 21.8446 127.036 21.8446 126.996 21.9945C126.917 22.2851 127.415 23.157 126.633 22.6039C126.783 22.1821 124.074 18.9386 119.951 15.6201C118.917 14.7952 118.561 13.9609 117.384 13.1734C116.792 12.7891 116.184 12.3953 115.568 12.0391C114.944 11.6829 114.312 11.3736 113.68 11.0361C112.409 10.3705 111.113 9.76118 109.826 9.15186C108.531 8.57065 107.251 7.98004 105.996 7.47383C103.642 6.6114 101.217 5.7209 98.7294 4.83972C96.2337 3.94917 93.6747 3.11483 91.0368 2.34614C88.4067 1.58682 85.6978 0.940044 82.9335 0.518203C80.1692 0.0963613 77.3338 -0.128708 74.4589 0.0775258C73.2347 0.0681516 71.9158 0.0494717 70.5336 0.0307232C69.8386 0.00260046 69.1278 0.0681699 68.4012 0.0962927C67.6746 0.13379 66.9322 0.171282 66.1819 0.208779C65.8027 0.227528 65.4236 0.246331 65.0445 0.26508C64.6575 0.283828 64.2784 0.302545 63.8914 0.349416C63.1174 0.433784 62.3355 0.527563 61.5457 0.621306C60.7559 0.715049 59.9582 0.808722 59.1605 0.902465C58.3628 1.01496 57.5652 1.18376 56.7596 1.32438C56.7596 1.26813 56.7438 1.22122 56.7517 1.16497C56.5937 1.23997 56.5068 1.30555 56.5068 1.36179C55.3221 1.42741 53.7425 1.60553 52.0445 2.06486C50.3385 2.48671 48.4904 2.93674 46.7686 3.54607C43.3093 4.58661 40.3239 5.7865 39.7078 5.40215C39.3366 5.58027 38.9575 5.73958 38.5863 5.93644C32.9709 8.42999 38.5468 5.52401 35.285 6.67704C34.9612 6.82703 34.6294 6.96761 34.2898 7.1176C33.9502 7.26759 33.6106 7.43634 33.271 7.5957C32.5839 7.9238 31.873 8.24255 31.1701 8.56127C29.7485 9.16123 28.3269 9.90182 26.9842 10.5861C25.6336 11.2423 24.3857 12.0111 23.3116 12.7141C22.7746 13.0703 22.277 13.4172 21.8426 13.7453C21.4082 14.0921 21.037 14.4577 20.729 14.7858C20.3104 15.0014 20.8396 14.5889 20.421 14.7952L19.8997 16.2669C19.2205 16.7637 18.5571 17.3262 17.8779 17.8512C17.6488 18.273 16.8827 19.1542 17.6014 18.8823C17.1354 19.2292 16.701 19.6042 16.2272 20.0541C15.7533 20.5135 15.232 21.0009 14.5607 21.5164C13.7314 22.2101 13.2812 22.5383 13.0601 22.707C12.8389 22.857 12.8468 22.782 12.91 22.632C13.0443 22.3414 13.4392 21.7883 12.8231 22.2477C12.3098 22.7445 12.5467 23.2507 12.0254 23.7475C11.7648 24.0006 11.4963 24.2538 11.2356 24.5069C10.975 24.7881 10.7144 25.06 10.4537 25.3506C9.93247 25.9131 9.40332 26.4754 8.88205 27.0379C8.35288 27.6378 7.82372 28.266 7.30245 28.9503C6.26782 30.3189 5.24896 31.8281 4.3249 33.7124L3.98529 34.4248C3.87472 34.6685 3.77207 34.9311 3.6615 35.1842C3.44036 35.681 3.25078 36.2622 3.04543 36.8153C2.66633 37.9871 2.34249 39.2714 2.13715 40.7056C1.9239 42.1305 1.87654 43.7335 2.0108 45.2521C2.13717 46.7708 2.43731 48.1862 2.81641 49.4049C2.91119 49.7048 3.02176 49.9861 3.11654 50.2767C3.17182 50.4173 3.21917 50.5673 3.27446 50.6985L3.44033 51.0923C3.5509 51.3454 3.66147 51.6172 3.77994 51.8609L4.13536 52.564L4.317 52.9108L4.50654 53.2296L4.87777 53.8576C5.1305 54.2514 5.39111 54.617 5.64385 54.992C6.67848 56.4075 7.75262 57.5324 8.81095 58.5073C9.87717 59.4823 10.9355 60.3259 11.978 61.0571C11.9465 61.254 11.7648 61.8071 12.7284 62.4633C12.8468 62.5476 12.9732 62.632 13.1074 62.7258C13.2417 62.8008 13.376 62.8851 13.5182 62.9695C13.8025 63.1382 14.1026 63.3163 14.4185 63.5038C15.0583 63.8694 15.7533 64.2725 16.4878 64.61C17.2223 64.9568 17.9884 65.3506 18.7624 65.6693C19.5364 65.988 20.3104 66.3067 21.0607 66.6161C21.811 66.8973 21.0133 67.1504 21.6768 67.3941C22.3402 67.6378 22.9483 67.8347 23.4617 67.9941C27.5528 69.7471 32.031 70.7314 36.2564 71.4157C38.3652 71.7626 40.4186 72.0438 42.33 72.3344C44.2413 72.625 46.0183 72.9249 47.5742 73.328C45.7182 73.328 43.1751 72.9249 41.011 72.5218C39.929 72.3343 38.9417 72.1281 38.1835 72.0156C37.4174 71.8937 36.8803 71.8563 36.6987 71.9688L38.3968 72.5875C40.3239 73.0656 42.8276 73.6561 45.1259 74.0592C45.6945 74.1529 46.2553 74.2373 46.7923 74.3217C47.3294 74.3967 47.8507 74.4623 48.3324 74.5091C49.296 74.5935 50.1174 74.6404 50.6939 74.5467C48.5536 73.928 48.4193 73.5811 47.7164 73.2343C49.446 73.3186 49.7382 73.1686 51.8944 73.3092C53.474 73.478 55.1247 73.5904 56.3805 73.7685C57.6363 73.9092 58.505 74.0779 58.4971 74.2842C58.0627 74.3029 57.6204 74.3029 57.1781 74.2842C56.7359 74.2748 56.2857 74.2467 55.8434 74.1998C54.9588 74.1155 54.098 74.0217 53.3082 73.9655C53.008 74.1811 54.2717 74.406 55.8355 74.6216C56.6174 74.7435 57.4783 74.781 58.2602 74.8654C58.6551 74.9029 59.0263 74.931 59.3501 74.9591C59.6818 74.9872 59.974 75.006 60.211 75.0248C58.5524 74.4623 59.9345 74.0966 60.598 73.7685C60.9297 73.6092 61.0877 73.4499 60.6059 73.2906C60.3689 73.2062 59.9661 73.1218 59.3501 73.0374C58.734 72.9249 57.8969 72.8031 56.7911 72.6718H59.2316L61.6721 72.5968C62.6041 72.3718 62.0828 72.1843 60.9139 72.0249C59.745 71.8843 57.9285 71.6688 56.262 71.4719C55.4327 71.3407 54.635 71.2188 53.9716 71.0969C53.3081 70.9844 52.7948 70.8344 52.5026 70.7219C52.2182 70.6094 52.1629 70.5157 52.4552 70.4408C52.7395 70.3658 53.3555 70.347 54.4138 70.2813C55.2747 70.0564 54.1453 69.6627 56.9965 69.6158C56.2225 69.3908 55.0536 69.1939 53.9163 69.1096C52.779 68.9971 51.6812 68.9314 51.0335 68.9689C50.5044 68.7346 49.4934 68.4722 48.2613 68.2378C47.0214 68.0222 45.5761 67.7597 44.186 67.516C41.4059 67.0192 38.8628 66.4192 38.7443 65.8849C37.7334 65.7911 36.7856 65.6505 35.8931 65.5005C35.0007 65.3318 34.1635 65.1631 33.3658 64.9568C32.5681 64.7506 31.8019 64.5255 31.0674 64.2912C30.325 64.0381 29.6142 63.785 28.9034 63.5132C26.068 62.407 24.8518 61.1509 21.274 59.651C18.9994 58.6948 17.6804 58.048 16.9143 57.7574C16.5273 57.6167 16.2904 57.523 16.1482 57.4949C16.006 57.4667 15.9507 57.4949 15.9428 57.5605C15.927 57.8043 16.701 58.573 15.3742 58.1699C14.8134 57.8512 14.2606 57.523 13.7077 57.2043C13.1627 56.8668 12.6178 56.5574 12.0886 56.2012C11.0224 55.5356 10.7618 54.8139 9.814 54.064C8.86625 53.3234 8.00538 52.5078 7.26297 51.6735C6.88387 51.2704 6.55212 50.8204 6.2362 50.408C6.08614 50.183 5.94398 49.9673 5.80182 49.7611C5.65966 49.5549 5.5491 49.3299 5.42273 49.1143C5.37534 49.0206 5.32006 48.9174 5.27267 48.8237C5.22528 48.7205 5.1858 48.6175 5.13842 48.5237C5.05154 48.3269 4.96466 48.13 4.89358 47.9425C4.75932 47.5394 4.61715 47.1925 4.54607 46.8363C4.49868 46.6676 4.45916 46.4989 4.41967 46.3396C4.39598 46.1802 4.37231 46.0301 4.34862 45.8895C4.32492 45.7489 4.30122 45.6271 4.28542 45.5053C4.27752 45.3834 4.2696 45.2802 4.2617 45.1864C4.24591 44.999 4.24594 44.8678 4.24594 44.7834C4.25384 44.6991 4.26963 44.6709 4.28542 44.7084C4.30122 44.7458 4.33279 44.8303 4.36438 44.9802C4.38018 45.0552 4.40388 45.149 4.41967 45.2615C4.42757 45.3178 4.4355 45.374 4.4513 45.4396C4.46709 45.4958 4.48285 45.5615 4.50654 45.6365C4.36438 44.8116 4.30913 43.996 4.34862 43.1711C4.36441 42.9648 4.37231 42.7586 4.396 42.5523C4.4276 42.3461 4.45128 42.1398 4.48287 41.9242C4.56185 41.5118 4.64081 41.09 4.75928 40.6775C4.98042 39.8526 5.26477 39.0277 5.62018 38.259C5.78604 37.8653 5.9835 37.4996 6.17305 37.1246C6.3705 36.759 6.57581 36.4028 6.78116 36.0465C7.63414 34.6592 8.58194 33.4218 9.58498 32.3062C10.0747 31.7344 10.6196 31.2282 11.1409 30.7033L11.9307 29.9159C12.1913 29.6534 11.6937 29.3815 11.9701 29.1565C16.2745 25.2006 19.2837 22.0134 23.8645 19.2479L25.5862 18.2355L26.4471 17.7293L27.3159 17.27C28.4769 16.6607 29.63 16.0325 30.791 15.4419C31.9599 14.8889 33.1288 14.3451 34.2898 13.7921C34.8743 13.5015 35.4587 13.2765 36.0432 13.0328L37.8044 12.3016C42.5037 10.4174 47.2267 8.80496 51.9576 7.6988C53.8926 7.32383 55.796 7.07079 57.6678 6.71457C58.1338 6.6302 58.6077 6.53643 59.0737 6.44268C59.5397 6.37706 60.0056 6.31148 60.4716 6.24586C61.4036 6.11462 62.3355 5.98334 63.2596 5.8521C63.7256 5.78648 64.1837 5.71154 64.6496 5.67404L66.0397 5.58021C66.9717 5.52396 67.9036 5.47719 68.8356 5.44907C69.3015 5.44907 69.7675 5.40219 70.2414 5.43969C70.7074 5.46781 71.1813 5.50528 71.6472 5.53341C72.5871 5.6084 73.5349 5.71149 74.4826 5.8521L73.2189 5.66466C73.0373 5.55217 74.0088 5.47717 74.7828 5.42092C73.5191 5.22406 72.3028 5.0178 71.1418 4.81157C72.2712 4.83032 73.4085 4.84901 74.5458 4.86776H75.3988C75.6831 4.88651 75.9595 4.89593 76.236 4.91467C76.7967 4.95217 77.3496 4.95214 77.9103 4.99901C79.1582 4.67091 82.3648 4.9991 85.6504 5.67404C88.9438 6.32087 92.3083 7.26768 93.9195 7.32392C95.4675 7.83951 96.7391 8.27067 97.8053 8.67376C98.3345 8.87999 98.8163 9.05807 99.2586 9.22681C99.693 9.40492 100.088 9.57368 100.451 9.72367C101.889 10.3143 102.781 10.7643 103.674 11.1861C104.566 11.6173 105.458 12.0766 106.904 12.7609C108.349 13.4734 110.339 14.4014 113.412 15.9576C114.257 16.3138 115.047 16.6512 115.876 17.1012C116.705 17.5324 117.558 18.0293 118.419 18.5543C120.141 19.6136 121.144 20.8603 122.913 22.2664C124.674 23.6819 126.451 25.2662 128.149 27.0942C129.002 28.0035 129.832 28.9878 130.621 30.0377C131.411 31.0876 129.895 32.2219 130.55 33.4406C131.024 34.3218 131.443 35.2404 131.719 36.0935C131.798 36.2997 131.846 36.5153 131.909 36.7122C131.94 36.8153 131.964 36.909 131.996 37.0027C132.019 37.0965 132.035 37.1903 132.059 37.284C132.075 37.3684 132.098 37.4622 132.114 37.5465L132.138 37.6684L132.154 37.734L132.162 37.7809C132.169 37.9121 132.201 38.0246 132.201 38.1371C132.201 38.2402 132.217 38.3433 132.209 38.4276C132.201 38.512 132.201 38.5964 132.201 38.662C132.177 38.812 132.177 38.9245 132.146 39.0088C132.106 39.1776 132.075 39.2338 132.059 39.1307C132.035 39.4682 131.964 39.9182 131.822 40.4525C131.68 40.9868 131.459 41.5868 131.19 42.2055C130.653 43.4429 129.911 44.7272 129.105 45.9458C128.299 47.1738 129.705 48.3643 128.852 49.5361C128.426 50.1173 127.991 50.6985 127.573 51.2891C127.162 51.8609 126.712 52.5359 126.404 52.9577C125.709 53.9983 125.022 54.8794 124.437 55.62C123.853 56.3606 123.339 56.9606 122.929 57.4668C122.092 58.4605 121.618 59.051 121.444 59.3229C121.089 59.876 121.942 59.2385 123.347 57.8886C124.05 57.2137 124.88 56.3513 125.748 55.3482C125.962 55.0857 126.175 54.8326 126.396 54.5607C126.617 54.2888 126.815 54.0077 127.036 53.7171C127.265 53.3984 127.502 53.0796 127.731 52.7515C127.968 52.4328 128.205 52.1141 128.442 51.8047C129.381 50.5579 128.031 49.3767 128.837 48.2425C129.682 47.0707 130.377 45.9927 130.882 45.0927Z" fill="#E16389"/>
<path d="M0.0912616 50.5845C-0.0666979 50.3408 -0.0114083 50.6783 0.193939 51.3907C0.288715 51.7657 0.446657 52.1407 0.620412 52.6C0.794168 53.0781 1.00744 53.5093 1.23648 53.9968C1.29176 54.1186 1.35492 54.2405 1.41021 54.353C1.47339 54.4655 1.52866 54.578 1.59185 54.6811C1.71822 54.9061 1.84461 55.1311 1.96308 55.3561C2.21581 55.7967 2.47642 56.181 2.72916 56.5747C3.22673 57.2965 3.69274 57.9152 3.99286 58.2995L4.42724 58.7308C4.56941 58.8808 4.71156 58.9932 4.86162 59.1245C5.14595 59.3776 5.43819 59.6588 5.72252 59.8745C5.99105 60.0994 6.24376 60.3057 6.4807 60.5026C6.71764 60.6901 6.9388 60.8401 7.14415 60.9901C7.34949 61.14 7.53903 61.2712 7.72068 61.3837C7.89444 61.4868 8.06033 61.5806 8.2025 61.6744C8.49472 61.8431 8.73163 61.965 8.90538 62.04C9.07914 62.1056 9.20552 62.1337 9.2687 62.1243C9.40297 62.1056 9.3161 61.9462 9.03178 61.665C8.74745 61.365 8.26568 60.9431 7.61015 60.3713C7.08099 60.1651 5.6909 59.2089 4.1666 57.5403C3.77959 57.1466 3.40052 56.6404 3.01352 56.1623C2.63442 55.6186 2.25529 55.1123 1.89988 54.4843C1.17327 53.3218 0.52565 51.9625 0.0912616 50.5845Z" fill="#E16389"/>
<path d="M27.0415 9.58185L26.5439 10.3412L29.1108 8.86001C29.324 8.73815 29.5373 8.60701 29.7505 8.49452L30.3982 8.15694L31.6934 7.49141C31.6066 7.37891 30.9352 7.63198 30.0348 8.03507C29.5847 8.22256 29.0871 8.50382 28.5658 8.77567C28.0604 9.03815 27.5312 9.31937 27.0415 9.58185Z" fill="#E16389"/>
<path d="M75.9835 70.8352C73.4877 71.0508 71.7344 71.0789 69.9495 71.1164C68.1645 71.1445 66.348 71.2007 63.7021 71.332L64.7052 72.1757C69.8547 72.3913 75.2964 72.3537 81.4252 71.6788C85.5322 70.3289 74.0011 71.8476 75.9835 70.8352Z" fill="#E16389"/>
<path d="M65.1119 70.1233C69.6611 69.5421 74.6052 69.139 79.3835 68.6703C84.1618 68.2016 88.7584 67.7234 92.6048 66.7579C92.0598 66.2985 90.8277 66.158 89.1849 66.2048C87.5421 66.2705 85.5045 66.5142 83.3483 66.8423C79.036 67.4892 74.2735 68.3984 71.3592 68.314C70.3956 68.464 69.5348 68.5766 68.7134 68.6984C68.3027 68.7547 67.892 68.8108 67.4892 68.8671C67.0864 68.914 66.6757 68.9609 66.265 69.0077C65.8543 69.0546 65.4357 69.1015 64.9934 69.1484C64.559 69.1859 64.1089 69.2234 63.6271 69.2609C63.1532 69.2984 62.6556 69.3358 62.1185 69.3733C61.5894 69.3921 61.0208 69.4108 60.4205 69.4389C56.8664 69.7858 62.6872 70.1515 65.1119 70.1233Z" fill="#E16389"/>
<path d="M95.0402 67.505C96.0353 67.4488 97.1805 67.2613 97.7492 67.1676C98.46 66.9426 96.5961 66.9331 95.7431 66.8582C94.7479 66.9238 92.1811 67.5519 95.0402 67.505Z" fill="#E16389"/>
</svg>
