<svg width="160" height="26" viewBox="0 0 160 26" fill="none" xmlns="http://www.w3.org/2000/svg">
<g id="Group 6">
<g id="Group">
<path id="Vector" d="M0 25.486V0.531738H15.1214V4.70887H4.20294V10.9317H13.0285V15.0917H4.20294V25.4917H0V25.486Z" fill="white"/>
<path id="Vector_2" d="M18.2538 25.486V0.531738H34.4734V4.44602H22.4568V10.6003H32.3806V14.5146H22.4568V21.566H34.4734V25.4803H18.2538V25.486Z" fill="white"/>
<path id="Vector_3" d="M38.66 25.486V0.531738H54.8795V4.44602H42.8629V10.6003H52.7867V14.5146H42.8629V21.566H54.8795V25.4803H38.66V25.486Z" fill="white"/>
<path id="Vector_4" d="M74.6802 21.5542H63.3305V4.46853H74.479C74.8297 4.46853 75.5311 0.537109 75.3184 0.537109H59.0586V25.4914H74.7607C74.9734 25.4856 75.0309 21.5542 74.6802 21.5542Z" fill="white"/>
</g>
<g id="Group_2">
<path id="Vector_5" d="M149.03 25.4856C147.38 25.4856 145.994 25.1714 144.873 24.5485C143.752 23.9256 142.906 23.0571 142.337 21.9485C141.768 20.8399 141.48 19.5428 141.48 18.0685C141.48 16.6228 141.889 15.3371 142.711 14.2057C143.533 13.0742 144.729 12.3257 146.31 11.9714V12.8399C145.183 12.5028 144.292 11.8571 143.631 10.8971C142.975 9.93709 142.648 8.77138 142.648 7.39424C142.648 6.27424 142.912 5.18853 143.441 4.1371C143.97 3.08567 144.781 2.22282 145.867 1.54853C146.954 0.87425 148.345 0.537109 150.042 0.537109H160V25.4914H149.03V25.4856ZM155.745 14.3942H149.432C148.656 14.3942 147.983 14.5542 147.426 14.8685C146.868 15.1885 146.442 15.6114 146.155 16.1428C145.867 16.6742 145.718 17.2742 145.718 17.9428C145.718 18.6799 145.885 19.3199 146.212 19.8571C146.54 20.3942 147 20.8114 147.581 21.1028C148.161 21.3999 148.817 21.5428 149.553 21.5428H155.745V14.3942ZM155.745 4.43425H150.093C149.093 4.43425 148.317 4.72567 147.759 5.30281C147.201 5.87996 146.92 6.59996 146.92 7.46853C146.92 8.12567 147.058 8.67996 147.339 9.13138C147.621 9.58281 147.995 9.92566 148.472 10.1542C148.949 10.3828 149.49 10.5028 150.093 10.5028H155.745V4.43425Z" fill="white"/>
<path id="Vector_6" d="M135.413 25.4855L128.318 3.09124H129.261L122.074 25.4855H117.75L125.667 0.53125H131.825L139.742 25.4855H135.413ZM122.143 20.0798V16.1827H135.326V20.0798H122.143Z" fill="white"/>
<path id="Vector_7" d="M97.4477 23.8514C95.5158 22.4114 94.1647 20.4743 93.3827 18.0343L97.6202 16.8743C98.1089 18.4914 98.9368 19.7657 100.115 20.6857C101.288 21.6114 102.812 22.0743 104.686 22.0743C106.371 22.0743 107.78 21.6971 108.907 20.9485C110.034 20.2 110.879 19.1428 111.442 17.7828C112.006 16.4228 112.287 14.8343 112.287 13.0057C112.276 11.1828 111.988 9.58856 111.425 8.22856C110.861 6.86856 110.016 5.81714 108.895 5.06285C107.774 4.31428 106.371 3.93714 104.686 3.93714C102.812 3.93714 101.294 4.39428 100.115 5.31428C98.9426 6.23428 98.1089 7.50856 97.6202 9.13713L93.3827 7.97713C94.1589 5.53714 95.5158 3.59999 97.4477 2.16C99.3795 0.719998 101.789 0 104.686 0C107.199 0 109.349 0.548572 111.137 1.64C112.926 2.73143 114.3 4.25714 115.26 6.20571C116.22 8.15999 116.697 10.4228 116.697 13C116.697 15.5771 116.22 17.84 115.26 19.7943C114.3 21.7485 112.926 23.2685 111.137 24.36C109.349 25.4514 107.199 26 104.686 26C101.789 26.0057 99.3795 25.2914 97.4477 23.8514Z" fill="white"/>
<path id="Vector_8" d="M85.3464 25.4855V13.8398L74.7614 25.4855H69.4258L80.9537 12.7655L70.1617 0.53125H75.3249L85.3521 12.1084V0.53125H89.5551V25.4855H85.3464Z" fill="white"/>
</g>
</g>
</svg>
