<svg width="160" height="26" viewBox="0 0 160 26" fill="none" xmlns="http://www.w3.org/2000/svg">
<path d="M0 25.4855V0.53125H15.1214V4.70839H4.20294V10.9312H13.0285V15.0912H4.20294V25.4912H0V25.4855Z" fill="black"/>
<path d="M19.1211 25.4855V0.53125H35.3407V4.44553H23.324V10.5998H33.2478V14.5141H23.324V21.5655H35.3407V25.4798H19.1211V25.4855Z" fill="black"/>
<path d="M39.3398 25.4855V0.53125H55.5594V4.44553H43.5428V10.5998H53.4666V14.5141H43.5428V21.5655H55.5594V25.4798H39.3398V25.4855Z" fill="black"/>
<path d="M75.1802 21.5484H63.8305V4.46267H74.979C75.3297 4.46267 76.0311 0.53125 75.8184 0.53125H59.5586V25.4855H75.2607C75.4734 25.4798 75.5309 21.5484 75.1802 21.5484Z" fill="black"/>
<path d="M85.3464 24.9542V13.3086L74.7614 24.9542H69.4258L80.9537 12.2343L70.1617 0H75.3249L85.3521 11.5771V0H89.5551V24.9542H85.3464Z" fill="black"/>
<path d="M95.6196 23.8514C93.6878 22.4114 92.3366 20.4743 91.5547 18.0343L95.7921 16.8743C96.2808 18.4914 97.1088 19.7657 98.2874 20.6857C99.4604 21.6114 100.984 22.0743 102.858 22.0743C104.543 22.0743 105.952 21.6971 107.079 20.9485C108.205 20.2 109.051 19.1428 109.614 17.7828C110.178 16.4228 110.459 14.8343 110.459 13.0057C110.448 11.1828 110.16 9.58856 109.597 8.22856C109.033 6.86856 108.188 5.81714 107.067 5.06285C105.946 4.31428 104.543 3.93714 102.858 3.93714C100.984 3.93714 99.4661 4.39428 98.2874 5.31428C97.1145 6.23428 96.2808 7.50856 95.7921 9.13713L91.5547 7.97713C92.3309 5.53714 93.6878 3.59999 95.6196 2.16C97.5515 0.719998 99.9606 0 102.858 0C105.371 0 107.521 0.548572 109.309 1.64C111.098 2.73143 112.472 4.25714 113.432 6.20571C114.392 8.15999 114.869 10.4228 114.869 13C114.869 15.5771 114.392 17.84 113.432 19.7943C112.472 21.7485 111.098 23.2685 109.309 24.36C107.521 25.4514 105.371 26 102.858 26C99.9606 26.0057 97.5515 25.2914 95.6196 23.8514Z" fill="black"/>
<path d="M134.534 24.9542L127.439 2.55999H128.382L121.195 24.9542H116.871L124.788 0H130.946L138.863 24.9542H134.534ZM121.264 19.5485V15.6514H134.448V19.5485H121.264Z" fill="black"/>
<path d="M148.412 24.9485C146.762 24.9485 145.377 24.6342 144.256 24.0114C143.134 23.3885 142.289 22.52 141.72 21.4114C141.151 20.3028 140.863 19.0057 140.863 17.5314C140.863 16.0857 141.272 14.8 142.094 13.6686C142.916 12.5371 144.112 11.7886 145.693 11.4343V12.3028C144.566 11.9657 143.675 11.32 143.014 10.36C142.358 9.39999 142.03 8.23427 142.03 6.85713C142.03 5.73713 142.295 4.65142 142.824 3.59999C143.353 2.54857 144.164 1.68571 145.25 1.01143C146.337 0.337141 147.728 0 149.424 0H159.383V24.9542H148.412V24.9485ZM155.128 13.8571H148.815C148.039 13.8571 147.366 14.0171 146.808 14.3314C146.251 14.6514 145.825 15.0743 145.538 15.6057C145.25 16.1371 145.101 16.7371 145.101 17.4057C145.101 18.1428 145.267 18.7828 145.595 19.32C145.923 19.8571 146.383 20.2743 146.964 20.5657C147.544 20.8628 148.2 21.0057 148.936 21.0057H155.128V13.8571ZM155.128 3.89714H149.476C148.476 3.89714 147.7 4.18856 147.142 4.76571C146.584 5.34285 146.302 6.06285 146.302 6.93142C146.302 7.58856 146.44 8.14285 146.722 8.59427C147.004 9.0457 147.378 9.38855 147.855 9.61713C148.332 9.8457 148.872 9.9657 149.476 9.9657H155.128V3.89714Z" fill="black"/>
</svg>
