<svg width="370" height="370" viewBox="0 0 370 370" fill="none" xmlns="http://www.w3.org/2000/svg">
<g clip-path="url(#clip0_12_1014)">
<path d="M314.179 0H5.28894V370H314.179V0Z" fill="#EAF4FB"/>
<path d="M269.439 117.701H50.0311C47.1751 117.701 44.8594 115.385 44.8594 112.529C44.8594 109.673 47.1751 107.357 50.0311 107.357H269.439C272.295 107.357 274.611 109.673 274.611 112.529C274.611 115.385 272.295 117.701 269.439 117.701Z" fill="#333E48"/>
<path d="M236.851 154.875H50.0311C47.1751 154.875 44.8594 152.559 44.8594 149.703C44.8594 146.847 47.1751 144.531 50.0311 144.531H236.851C239.707 144.531 242.023 146.847 242.023 149.703C242.023 152.559 239.707 154.875 236.851 154.875Z" fill="#333E48"/>
<path d="M246.54 80.5289H50.0311C47.1751 80.5289 44.8594 78.2132 44.8594 75.3572C44.8594 72.5013 47.1751 70.1855 50.0311 70.1855H246.54C249.396 70.1855 251.712 72.5013 251.712 75.3572C251.712 78.2143 249.396 80.5289 246.54 80.5289Z" fill="#333E48"/>
<path d="M269.439 192.047H50.0311C47.1751 192.047 44.8594 189.731 44.8594 186.875C44.8594 184.019 47.1751 181.703 50.0311 181.703H269.439C272.295 181.703 274.611 184.019 274.611 186.875C274.611 189.731 272.295 192.047 269.439 192.047Z" fill="#333E48"/>
<path d="M251.385 229.22H50.0311C47.1751 229.22 44.8594 226.904 44.8594 224.048C44.8594 221.192 47.1751 218.876 50.0311 218.876H251.385C254.24 218.876 256.556 221.192 256.556 224.048C256.556 226.905 254.24 229.22 251.385 229.22Z" fill="#333E48"/>
<path d="M269.439 266.391H50.0311C47.1751 266.391 44.8594 264.076 44.8594 261.22C44.8594 258.364 47.1751 256.048 50.0311 256.048H269.439C272.295 256.048 274.611 258.364 274.611 261.22C274.611 264.076 272.295 266.391 269.439 266.391Z" fill="#333E48"/>
<path d="M159.736 303.565H50.0311C47.1751 303.565 44.8594 301.25 44.8594 298.394C44.8594 295.538 47.1751 293.222 50.0311 293.222H159.735C162.591 293.222 164.907 295.538 164.907 298.394C164.907 301.25 162.592 303.565 159.736 303.565Z" fill="#333E48"/>
<path d="M156.33 342.921C158.704 342.921 160.628 340.997 160.628 338.623C160.628 336.249 158.704 334.324 156.33 334.324C153.956 334.324 152.032 336.249 152.032 338.623C152.032 340.997 153.956 342.921 156.33 342.921Z" fill="#1E252B"/>
<path d="M343.021 173.623C354.999 173.623 364.71 163.912 364.71 151.934C364.71 139.955 354.999 130.245 343.021 130.245C331.043 130.245 321.332 139.955 321.332 151.934C321.332 163.912 331.043 173.623 343.021 173.623Z" fill="#61B4E4"/>
<path d="M172.498 291.784L203.169 322.455L358.213 167.41L327.543 136.739L172.498 291.784Z" fill="#1E252B"/>
<path d="M182.484 301.752L193.218 312.486L348.261 157.443L337.527 146.709L182.484 301.752Z" fill="#333E48"/>
<path d="M159.664 341.958L152.994 335.286L172.497 291.787L203.168 322.457L159.664 341.958Z" fill="#61B4E4"/>
</g>
<defs>
<clipPath id="clip0_12_1014">
<rect width="370" height="370" fill="white"/>
</clipPath>
</defs>
</svg>
