<svg width="238" height="20" viewBox="0 0 238 20" fill="none" xmlns="http://www.w3.org/2000/svg">
<path d="M216.798 3.88841C210.815 3.86356 205.308 4.20529 200.63 4.70851C192.581 5.22415 185.881 6.26781 179.838 7.60972C173.794 8.95784 168.374 10.598 162.901 12.6357L161.665 13.0954L161.57 13.928C161.483 14.7356 161.665 15.5431 162.088 16.2949C162.14 16.388 162.201 16.4812 162.253 16.5744C162.279 16.6179 162.313 16.6677 162.348 16.7112L162.477 16.8912C162.659 17.1149 162.84 17.3386 163.057 17.5498C163.48 17.9722 163.999 18.3389 164.518 18.7054L164.613 18.7737L164.665 18.811C164.682 18.8234 164.699 18.8358 164.725 18.8358L165.011 18.8607L165.59 18.9103C165.78 18.9227 165.97 18.9476 166.178 18.9538L166.792 18.9663C167.146 18.9725 167.509 18.9849 167.864 18.9911C168.114 18.9974 168.365 19.0036 168.616 18.9974C169.117 18.9974 169.627 18.9974 170.137 18.9974C170.397 18.9974 170.647 18.9974 170.907 18.9974C171.166 18.9912 171.426 18.9849 171.685 18.9787C172.204 18.9663 172.731 18.9538 173.258 18.9414C173.786 18.9228 174.322 18.898 174.858 18.8731C175.939 18.8359 177.028 18.7489 178.152 18.6867C178.714 18.6495 179.267 18.5936 179.846 18.5501C180.417 18.5004 180.988 18.4569 181.567 18.3886C182.146 18.3264 182.734 18.2643 183.322 18.2084C183.91 18.1338 184.506 18.0592 185.112 17.9846C190.904 17.1708 196.117 15.9532 200.812 14.4249C201.409 14.2261 201.971 14.0584 202.584 13.8285C202.887 13.7229 203.181 13.611 203.484 13.5054L203.933 13.3439L204.158 13.2632L204.27 13.2259L204.331 13.2072L204.409 13.1699C205.273 12.8158 205.982 12.3251 206.406 11.7412C206.847 11.1634 206.985 10.5049 206.873 9.87117C206.838 9.71586 206.812 9.55433 206.752 9.39901C206.691 9.24991 206.631 9.07599 206.561 8.95795C206.423 8.69081 206.25 8.45462 206.069 8.21854C205.697 7.7526 205.239 7.36123 204.763 6.99469C203.795 6.27403 202.705 5.70256 201.564 5.21798C199.282 4.25504 196.809 3.63377 194.302 3.18647C193.671 3.07464 193.04 2.98147 192.4 2.88828C191.751 2.80751 191.068 2.71427 190.455 2.677C189.823 2.6273 189.192 2.5776 188.561 2.5279C188.241 2.50305 187.93 2.47813 187.61 2.45328C187.29 2.42843 186.979 2.4161 186.659 2.39746C185.388 2.32912 184.109 2.24212 182.803 2.21106C182.155 2.19242 181.498 2.16751 180.832 2.14887C180.166 2.14266 179.501 2.14264 178.826 2.13643C176.137 2.14886 173.354 2.22969 170.492 2.52168C170.042 2.62108 169.489 2.75781 168.823 2.88828C168.495 2.95662 168.14 3.02485 167.76 3.09319C167.388 3.16774 166.99 3.25481 166.567 3.34178C166.143 3.42876 165.711 3.51569 165.244 3.60888C164.786 3.70828 164.31 3.8139 163.817 3.92572C163.575 3.98164 163.316 4.03135 163.065 4.09348C162.815 4.1556 162.555 4.21776 162.296 4.27988C161.777 4.40413 161.232 4.5283 160.688 4.66498C158.483 5.21169 156.106 5.87648 153.607 6.58471C152.362 6.93883 151.074 7.31159 149.76 7.68435C148.411 8.07574 147.079 8.49198 145.739 8.93307C144.399 9.37416 143.059 9.84011 141.728 10.3371C140.396 10.8341 139.074 11.3683 137.785 11.9647L137.483 12.1076L137.146 12.2754C136.921 12.3872 136.696 12.5053 136.48 12.6233C136.048 12.8594 135.633 13.1016 135.261 13.3563C134.509 13.8658 133.947 14.4001 133.636 14.953C133.48 15.2326 133.393 15.5121 133.393 15.8103C133.402 15.9594 133.428 16.1148 133.489 16.2577C133.549 16.4068 133.653 16.5496 133.765 16.6801C133.895 16.8106 134.025 16.9347 134.18 17.0403C134.249 17.1025 134.344 17.1336 134.431 17.1709L134.682 17.2827L134.932 17.3945C135.027 17.4318 135.123 17.4629 135.226 17.5002C135.425 17.5685 135.615 17.6368 135.823 17.7051C136.074 17.7486 136.316 17.7921 136.558 17.8293L136.93 17.8915L137.319 17.935C137.578 17.9661 137.829 17.9971 138.088 18.0282C138.356 18.0468 138.624 18.0717 138.883 18.0904C139.411 18.1401 139.956 18.1462 140.483 18.1648L140.682 18.1711L140.777 18.1773H140.855H141.131C141.322 18.1773 141.503 18.1773 141.685 18.1773C143.154 18.1586 144.555 18.0655 145.878 17.9288C148.532 17.6555 150.875 17.2082 152.846 16.7236C155.535 16.1397 157.817 15.4438 159.581 14.779C161.345 14.1143 162.59 13.4744 163.273 13.0519C163.619 12.8469 163.826 12.6854 163.895 12.6046C163.964 12.5239 163.904 12.5114 163.696 12.586C163.273 12.7289 162.279 13.1948 160.42 13.8534C162.071 13.2197 163.376 12.5922 164.414 11.9834C164.933 11.679 165.382 11.3684 165.763 11.0702C166.143 10.7657 166.454 10.4676 166.714 10.1818C167.224 9.59782 167.518 9.0448 167.63 8.52295C167.743 8.00109 167.699 7.51661 167.5 7.06931C166.653 5.29873 163.982 3.98168 157.705 3.50331L158.812 3.55913L159.858 3.59022C160.61 3.6275 161.371 3.67723 162.14 3.77663C161.872 3.7145 161.595 3.65858 161.327 3.60888C161.051 3.55918 160.774 3.50328 160.497 3.466C160.221 3.42251 159.936 3.37906 159.65 3.34178C159.512 3.32314 159.365 3.30445 159.227 3.28581L159.123 3.27338C159.14 3.27338 159.131 3.27338 159.131 3.27338L158.924 3.24228C158.639 3.1988 158.362 3.15533 158.068 3.11184C157.783 3.06836 157.489 3.0249 157.195 2.99384C156.901 2.96278 156.607 2.92556 156.304 2.8945C156.157 2.87586 156.002 2.86338 155.855 2.84475C155.699 2.83232 155.552 2.81986 155.397 2.80744C152.959 2.59 150.33 2.52788 147.52 2.65834C145.42 2.85093 143.353 3.10563 141.313 3.41625C139.411 3.54672 137.63 3.73315 135.935 3.93816C134.241 4.1556 132.624 4.3854 131.076 4.65254C127.973 5.1744 125.102 5.77087 122.232 6.4294C119.362 7.08793 116.483 7.81481 113.388 8.62245C112.618 8.82746 111.823 9.03247 111.019 9.2437C110.621 9.34931 110.197 9.46116 109.774 9.5792C109.35 9.69724 108.926 9.83384 108.503 9.97052C107.655 10.2501 106.808 10.5607 105.97 10.9211C105.131 11.2814 104.292 11.6977 103.497 12.2195C104.016 11.8841 104.491 11.6416 104.898 11.449C105.304 11.2564 105.632 11.1136 105.9 11.008C106.436 10.7967 106.696 10.7222 106.73 10.7222C106.817 10.7346 106.03 11.0578 105.079 11.5858C104.604 11.8468 104.093 12.1636 103.644 12.5177C103.194 12.8656 102.771 13.3004 102.563 13.6856C102.347 14.0708 102.33 14.4187 102.382 14.6237C102.442 14.8287 102.52 14.8971 102.546 14.7915C102.555 15.0089 102.667 15.3009 102.952 15.6053C103.238 15.9098 103.687 16.2079 104.24 16.4688C104.517 16.5869 104.802 16.7111 105.088 16.8105C105.235 16.8602 105.382 16.9161 105.529 16.9596L105.995 17.1025L106.125 17.1398C106.168 17.1522 106.212 17.1523 106.255 17.1647L106.514 17.2081C106.678 17.2329 106.843 17.2641 107.007 17.2889C107.327 17.32 107.647 17.3572 107.949 17.3883C108.555 17.4255 109.117 17.4691 109.583 17.4753C109.817 17.4815 110.033 17.4878 110.215 17.494C110.396 17.5002 110.552 17.5002 110.681 17.5002C111.183 17.5126 111.166 17.5374 110.301 17.5809C112.082 17.5809 113.82 17.4629 115.523 17.2951C116.379 17.2206 117.209 17.1026 118.03 16.9969C118.437 16.9348 118.852 16.8727 119.258 16.8105C119.457 16.7795 119.664 16.7485 119.863 16.7174C120.062 16.6801 120.261 16.6428 120.46 16.6117C123.65 16.0464 126.624 15.3133 129.304 14.4871C131.984 13.6546 134.396 12.7724 136.523 11.8592C137.578 11.3994 138.564 10.9335 139.437 10.424C139.878 10.1755 140.275 9.90215 140.647 9.62258C141.01 9.34302 141.365 8.99522 141.598 8.6411C141.883 8.01363 141.788 7.31161 141.218 6.77112L141.114 6.67162C141.079 6.64056 141.036 6.60956 141.002 6.57849C140.924 6.51637 140.846 6.45421 140.768 6.39209C140.587 6.28026 140.422 6.15599 140.224 6.0628L139.938 5.91371L139.644 5.78949C139.454 5.70251 139.247 5.64032 139.048 5.56577C137.993 5.22408 136.912 5.05012 135.866 4.9383C134.811 4.82647 133.791 4.77687 132.788 4.73339C130.8 4.67126 128.872 4.58425 126.97 4.54076C125.068 4.47242 123.183 4.45381 121.272 4.41654C120.321 4.40411 119.362 4.41032 118.385 4.4041C117.416 4.4041 116.431 4.39791 115.437 4.42276L114.347 4.64011C113.69 4.67117 112.964 4.69611 112.186 4.73339C111.408 4.77066 110.578 4.8079 109.722 4.85139C108.001 4.91973 106.16 5.02529 104.344 5.11227C103.428 5.14954 102.529 5.20544 101.647 5.25514C100.765 5.29863 99.909 5.34225 99.0876 5.38573C97.4536 5.48513 95.9925 5.56581 94.8426 5.6093C93.9781 5.67143 93.1049 5.75847 92.223 5.83302C91.3412 5.91378 90.442 5.98828 89.5342 6.08768C87.7273 6.28648 85.8771 6.4791 84.0097 6.74624C83.5428 6.80837 83.0759 6.87053 82.6004 6.93887C82.1336 7.001 81.6581 7.06923 81.1912 7.14378C80.2488 7.29288 79.3065 7.44196 78.3641 7.59107C77.4217 7.74638 76.4793 7.93902 75.537 8.10676C75.0701 8.19994 74.5946 8.27446 74.1277 8.38007L72.7271 8.68448L71.3265 8.99511C71.0931 9.04481 70.8597 9.10073 70.6349 9.16286L69.9519 9.34305L68.5772 9.6972C68.119 9.80903 67.6608 9.93941 67.2285 10.0823C65.4648 10.6601 63.8394 11.3684 62.3956 12.1947C61.6867 12.6109 61.021 13.0582 60.4936 13.5676C60.2428 13.8223 60.0181 14.0895 59.9057 14.3753C59.7846 14.661 59.7846 14.9654 59.9835 15.2139C60.1823 15.4686 60.5455 15.6551 60.9345 15.7855C61.142 15.8477 61.3322 15.9096 61.5483 15.9531L61.704 15.9904L61.7818 16.0091C61.8077 16.0153 61.8337 16.0153 61.8596 16.0153L62.1881 16.034C63.0959 16.0899 63.9951 16.1024 64.8856 16.0962C66.6493 16.1272 68.1104 16.0712 69.3121 15.9967C70.5225 15.9221 71.4822 15.829 72.2776 15.742C73.8684 15.5618 74.7934 15.3878 75.6753 15.2139C76.5571 15.0399 77.3785 14.8473 78.7531 14.574C80.1278 14.2882 82.0471 13.928 85.0558 13.2756C86.9838 12.9091 89.2403 12.3935 91.5314 11.7536C93.8225 11.1075 96.1827 10.3309 98.1798 9.40523C98.6813 9.17537 99.1395 8.92676 99.5718 8.67826C99.9954 8.42355 100.367 8.16261 100.678 7.89547C100.748 7.82714 100.817 7.76512 100.886 7.69678C100.938 7.63466 100.99 7.57872 101.042 7.51659C101.137 7.39234 101.214 7.27424 101.258 7.14378C101.361 6.88907 101.335 6.62195 101.214 6.39209C101.085 6.16222 100.877 5.95723 100.635 5.78949C100.583 5.746 100.506 5.70254 100.436 5.65905C100.367 5.61556 100.298 5.5721 100.229 5.53483C100.065 5.45407 99.9176 5.37322 99.762 5.29867C99.1309 5.00047 98.4824 4.7831 97.9724 4.59673C98.5862 4.77689 99.1568 4.95078 99.6496 5.14958C99.909 5.24277 100.116 5.35459 100.341 5.45399C100.531 5.5596 100.739 5.66522 100.877 5.77083C101.189 5.98206 101.431 6.21821 101.552 6.47293C101.673 6.72764 101.664 6.99477 101.578 7.23706C101.543 7.36131 101.465 7.47303 101.405 7.59107C101.318 7.70289 101.258 7.80852 101.145 7.92035C101.093 7.97626 101.042 8.03219 100.99 8.0881C100.929 8.14401 100.869 8.19372 100.817 8.24963C100.704 8.35525 100.575 8.45465 100.445 8.56026C99.9263 8.95786 99.3384 9.31197 98.7245 9.64124C97.4795 10.306 96.079 10.89 94.3239 11.4988C92.5602 12.0952 90.4247 12.7102 87.5976 13.3252C88.687 13.114 88.0645 13.3066 86.6552 13.6545C85.2374 13.9962 83.0154 14.4747 80.9491 14.8474C78.8828 15.2326 76.9721 15.5245 76.2459 15.6612C75.511 15.7916 75.9779 15.8042 78.6148 15.4811C81.416 15.0028 84.2517 14.4374 87.1048 13.7727C89.9492 13.1017 92.8196 12.3437 95.5689 11.387C96.9435 10.9086 98.2922 10.3805 99.5459 9.7468C100.168 9.42996 100.765 9.0883 101.292 8.6907L101.664 8.38629C101.776 8.27446 101.897 8.17505 102.001 8.05701C102.096 7.93897 102.209 7.82103 102.278 7.69678L102.399 7.51038L102.485 7.31775C102.719 6.80211 102.546 6.23057 102.114 5.77705C101.664 5.31732 101.007 4.9632 100.341 4.68364C98.9839 4.11829 97.4709 3.75797 95.9579 3.44735C95.5775 3.3728 95.2058 3.29196 94.8167 3.21741L93.6582 3.03737L93.0789 2.95031L92.491 2.88206L91.3239 2.75147C90.9348 2.71419 90.5458 2.6894 90.1481 2.65834C89.759 2.63349 89.37 2.59008 88.9723 2.57765C88.5832 2.55901 88.1942 2.54032 87.7965 2.52168L87.2086 2.49681L86.6206 2.48437C83.5082 2.40361 80.4304 2.49683 77.439 2.67078C74.4476 2.85094 71.5427 3.11807 68.7415 3.43491C65.9403 3.74554 63.2515 4.12453 60.6924 4.54698C61.0296 4.36682 59.5944 4.4786 57.1131 4.82029C54.6318 5.16198 51.1304 5.75215 47.3522 6.49765C43.5655 7.24316 39.502 8.13778 35.8622 8.99511C34.9544 9.21255 34.0726 9.42379 33.2166 9.6288C32.3694 9.84003 31.5567 10.0388 30.7959 10.2314C29.2742 10.6104 27.9082 10.9273 26.8362 11.213L26.1964 11.2317C25.2627 11.474 24.3722 11.7287 23.5163 12.0207C23.3001 12.0952 23.1013 12.1697 22.8765 12.2505C22.6517 12.3437 22.4183 12.4245 22.1935 12.5239C21.7439 12.7103 21.3289 12.9215 20.9312 13.139C20.5508 13.3688 20.1877 13.6111 19.8937 13.8782C19.5998 14.1454 19.3664 14.4435 19.228 14.7604C19.0897 15.0772 19.0724 15.419 19.1589 15.7544C19.1934 15.9222 19.2885 16.0837 19.375 16.2515C19.496 16.4068 19.5652 16.5869 19.79 16.6925C20.0061 16.7982 20.2482 16.8664 20.5076 16.9161C20.7669 16.9658 21.035 17.0032 21.3116 17.0218C21.8649 17.0715 22.4701 17.0838 23.0926 17.0652C23.7151 17.0528 24.3635 17.0156 25.0206 16.9659C25.1848 16.9534 25.3491 16.941 25.5134 16.9285C25.6604 16.9161 25.8073 16.9037 25.963 16.8912C26.2655 16.8602 26.5595 16.8354 26.8708 16.8043C29.3175 16.5496 31.9976 16.1706 35.0668 15.6612C38.7498 15.0896 42.3896 14.4373 45.943 13.7043C47.7154 13.3315 49.4791 12.9526 51.1822 12.4991C52.0468 12.2692 52.8681 11.9896 53.6463 11.6603C54.4157 11.331 55.1419 10.946 55.7471 10.4986C56.3437 10.0451 56.8538 9.52326 57.0613 8.92685C57.2774 8.33666 57.1909 7.70913 56.8451 7.15622C56.4993 6.6033 55.9287 6.13112 55.2976 5.7273C54.995 5.51608 54.6405 5.34217 54.2947 5.1558C53.9316 4.99427 53.5944 4.81409 53.214 4.6712C51.7442 4.06237 50.1794 3.60273 48.6231 3.20512C47.0583 2.80752 45.4934 2.47818 43.9459 2.19862C42.8046 1.97497 41.6548 1.83211 40.4876 1.61467C39.3032 1.42209 38.0755 1.26058 36.8392 1.17361C34.3665 0.987232 31.842 0.98722 29.378 1.16117C28.1417 1.23572 26.914 1.37229 25.7122 1.5214C25.1157 1.60837 24.5105 1.68303 23.9226 1.78864C23.6286 1.83834 23.3347 1.88804 23.0408 1.93774C22.7468 1.99365 22.4615 2.04958 22.1675 2.10549C21.009 2.32914 19.8937 2.59628 18.7957 2.87584C18.2597 3.02494 17.715 3.16781 17.1963 3.32313C16.6776 3.49086 16.1502 3.63377 15.6574 3.80772C13.643 4.47868 11.8014 5.23651 10.1761 6.03793C8.54204 6.83935 7.12416 7.67802 5.90512 8.49807C4.70338 9.33055 3.70049 10.132 2.87916 10.8713C2.47281 11.2441 2.11833 11.5981 1.7898 11.9212C1.4872 12.2567 1.20189 12.5612 0.951172 12.8346C2.57655 11.3373 4.40944 9.96432 6.42387 8.74045C6.9426 8.44225 7.43539 8.13167 7.98007 7.85831L8.77548 7.43575L9.59679 7.032L10.0031 6.83315L10.4268 6.64053L11.2654 6.26165L12.1213 5.90127L12.545 5.72108L12.9859 5.55333C17.6286 3.73306 22.7554 2.58384 27.8304 2.08683C30.3722 1.83833 32.914 1.76372 35.378 1.86312C36.6057 1.91903 37.8248 2.01842 39.0006 2.16752C39.2945 2.2048 39.5885 2.24826 39.8824 2.29175C40.1764 2.34145 40.4703 2.39114 40.7556 2.44084C41.3349 2.54024 41.9314 2.62112 42.5107 2.71431C44.8191 3.08706 47.0237 3.53437 49.0468 4.11835C49.5482 4.26745 50.0497 4.41034 50.5165 4.58429C51.0007 4.7396 51.4502 4.91967 51.8998 5.09983C52.773 5.47258 53.5684 5.87638 54.1996 6.3299C54.0526 6.22429 53.8797 6.13734 53.7154 6.05037C53.6376 6.00688 53.5511 5.96341 53.4733 5.91371C53.3869 5.87022 53.3004 5.83298 53.214 5.78949C53.0411 5.70872 52.8681 5.62788 52.6952 5.54711C52.5137 5.47256 52.3408 5.40432 52.1592 5.32977C52.0728 5.29249 51.9863 5.26148 51.8998 5.2242C51.8047 5.19314 51.7183 5.16198 51.6318 5.13092C51.4502 5.0688 51.2774 5.00664 51.1044 4.94452C50.75 4.82648 50.3955 4.72085 50.0583 4.61523C48.675 4.21142 47.3868 3.92565 46.211 3.68957C45.6231 3.57153 45.0525 3.47213 44.5078 3.37894C43.9632 3.29197 43.4358 3.21126 42.9343 3.1305C41.9141 2.9814 40.9285 2.86964 40.0294 2.73296C39.5712 2.66463 39.1389 2.62735 38.698 2.57765C38.2484 2.54659 37.8161 2.503 37.3579 2.47815C36.9083 2.45951 36.4501 2.42233 35.9833 2.41612C35.7498 2.40991 35.5077 2.40367 35.2743 2.39746C35.0322 2.39746 34.7901 2.39746 34.5394 2.39746C32.5509 2.40367 30.2598 2.51551 27.3808 2.87584C29.4299 2.7081 31.5048 2.67084 33.5452 2.73296C31.8852 2.75781 30.2252 2.86343 28.5826 3.04359C29.8621 3.03117 28.8679 3.18636 27.6834 3.38516C26.499 3.59639 25.1243 3.88223 25.522 3.91951C28.4097 3.50326 31.3751 3.31074 34.2887 3.36666C35.7498 3.39772 37.1936 3.49089 38.5856 3.65863L39.1043 3.72688C39.2772 3.74552 39.4501 3.77045 39.6403 3.80772C40.0207 3.86985 40.3752 3.932 40.7729 3.98791C41.551 4.09974 42.3551 4.21144 43.0726 4.32948C42.7787 4.27357 42.4934 4.22387 42.234 4.18038C41.9574 4.1369 41.6894 4.09343 41.4386 4.04994C40.9372 3.96918 40.4876 3.89472 40.1331 3.82638C39.3896 3.67728 38.9141 3.60259 38.5856 3.53426C37.9199 3.41 37.9112 3.36664 38.2743 3.35422C38.4645 3.34801 38.7326 3.3603 39.0611 3.37894C39.2254 3.39137 39.4069 3.39762 39.5971 3.41625C39.796 3.43489 40.0035 3.4598 40.2196 3.47844C41.0755 3.56541 42.1043 3.64611 42.8219 3.71444C44.3695 3.96294 45.8738 4.26125 47.3436 4.59673C48.8047 4.93221 50.2139 5.33599 51.4675 5.80814C51.2514 5.72117 50.9834 5.61556 50.6981 5.50374C50.4128 5.39191 50.0756 5.2925 49.7644 5.18067C49.4531 5.06884 49.1159 4.98189 48.8306 4.8887C48.6837 4.84521 48.554 4.80175 48.4243 4.76448C48.2946 4.7272 48.1822 4.69604 48.0871 4.66498C47.6981 4.54694 47.5684 4.49729 47.9401 4.55942C48.1303 4.59048 48.4502 4.64643 48.8998 4.75826C49.1246 4.81417 49.3926 4.87618 49.7038 4.95073C50.0064 5.0315 50.3436 5.13087 50.724 5.23649C51.5194 5.51605 52.3753 5.82671 53.1448 6.19946C53.9143 6.57221 54.5886 7.01956 54.9604 7.4855C55.0728 7.59733 55.1074 7.7154 55.1852 7.83344C55.2198 7.95148 55.2803 8.06333 55.2716 8.17516C55.2976 8.40503 55.2543 8.62859 55.116 8.86467C54.9777 9.09453 54.7788 9.32445 54.5022 9.54189C54.3811 9.65372 54.2082 9.75312 54.0612 9.85252C53.897 9.95192 53.7327 10.0451 53.5511 10.1321C53.9056 9.87734 54.2341 9.61641 54.4416 9.35548C54.6578 9.09456 54.7788 8.83987 54.8134 8.61001C54.8566 8.38014 54.7875 8.18756 54.6578 7.99497C54.6405 7.97012 54.6319 7.9452 54.6146 7.92035L54.5454 7.84588C54.5022 7.79618 54.4762 7.74648 54.4157 7.69678C54.3552 7.64708 54.3033 7.59739 54.2601 7.54769L54.0526 7.39859C54.1218 7.46072 54.2082 7.5165 54.2601 7.57241C54.312 7.62832 54.3638 7.69047 54.4244 7.74638C54.4589 7.80229 54.4935 7.85822 54.5368 7.91413C54.5713 7.97004 54.58 8.01975 54.6059 8.07566C54.6751 8.28689 54.6664 8.49192 54.554 8.71557C54.4416 8.94544 54.2169 9.19388 53.9056 9.42996C53.603 9.67225 53.1967 9.89594 52.7644 10.101C52.3321 10.3122 51.8393 10.4862 51.3465 10.654C51.0871 10.7285 50.8364 10.8092 50.5684 10.8775C50.3004 10.9459 50.0497 11.0143 49.7384 11.0826C48.554 11.3559 47.3263 11.5982 46.09 11.8343C43.6173 12.294 41.0928 12.7103 38.4905 13.1265C35.8881 13.5428 33.1994 13.9714 30.329 14.4311C29.1186 14.4497 27.9082 14.4497 26.7324 14.4311C26.2915 14.4746 25.8506 14.518 25.4096 14.5553L25.0206 14.5864L24.9601 14.5926C24.8823 14.5988 24.8044 14.6051 24.718 14.6051C24.6748 14.6051 24.6315 14.5988 24.597 14.5864C24.5624 14.5678 24.5537 14.543 24.5451 14.5181C24.5191 14.4684 24.5451 14.4125 24.5883 14.3691C24.6661 14.4001 24.7612 14.4124 24.865 14.4186C24.8823 14.4 24.9168 14.3877 24.9428 14.3815L24.9601 14.3753H24.9687C24.9687 14.3753 24.9341 14.3877 25.0725 14.338C25.4615 14.1889 25.9024 14.0522 26.3434 13.9155C27.2339 13.6422 28.2022 13.3936 29.2051 13.1575L30.7526 12.7973L31.5826 12.6046L32.404 12.412C35.793 11.5547 37.7296 11.0515 38.9573 10.6973C40.185 10.3432 40.7038 10.1444 41.2744 9.93943C46.5741 8.75904 51.7269 7.72774 53.9489 7.42953C51.8998 7.88305 49.8595 8.349 47.8364 8.83979C49.7557 8.48568 51.6837 8.15028 53.6117 7.83344C51.6232 8.15649 52.8076 7.88935 54.6578 7.52281C56.5079 7.15006 59.0498 6.70893 59.7414 6.55362C63.0008 6.07525 65.2141 5.81434 66.8222 5.64039C68.4216 5.46644 69.4591 5.37323 70.3236 5.30489C71.1882 5.23655 71.8971 5.18683 72.9173 5.13092C73.4274 5.10607 74.0067 5.06886 74.7243 5.03779C75.0788 5.01916 75.4678 5.00668 75.9001 4.98183C76.3324 4.9694 76.7992 4.95072 77.318 4.93208C81.563 4.60281 86.3008 4.57808 89.8109 4.90114C90.7014 4.95705 91.4881 5.07503 92.2144 5.14958C92.5688 5.19307 92.8974 5.24897 93.2 5.29245C93.5026 5.34215 93.7965 5.36698 94.0559 5.42289C94.566 5.52229 94.9983 5.59068 95.3095 5.62796C95.6294 5.67144 95.8455 5.69012 95.9147 5.66527C96.1308 5.72118 96.3556 5.77089 96.5372 5.8268C96.7274 5.88271 96.9349 5.93243 97.1164 5.99455L97.6525 6.16837L98.1366 6.34856C98.2749 6.41068 98.4306 6.47283 98.5516 6.52874L98.7245 6.61581C98.7505 6.62823 98.7937 6.64675 98.8023 6.65297L98.8456 6.68406C98.8715 6.7027 98.9147 6.7276 98.9407 6.74003L98.958 6.75868C98.9753 6.77111 98.9839 6.78342 98.9925 6.80206C99.0271 6.85797 99.0012 6.9201 98.9493 6.96359L98.932 6.97603C98.8974 7.00088 98.8628 7.03203 98.8283 7.06309C98.8023 7.09415 98.7505 7.12516 98.7072 7.16244C98.6554 7.19971 98.6208 7.23694 98.5602 7.27422C98.4392 7.34877 98.3441 7.42961 98.1971 7.51038L97.9983 7.6346L97.7735 7.75882C97.1683 8.08808 96.4507 8.41116 95.6726 8.71557C94.8945 9.01999 94.0732 9.30585 93.2259 9.5792C91.5227 10.1259 89.7158 10.6166 87.8829 11.0577C84.2085 11.9399 80.3958 12.6419 76.6263 13.1761C74.7416 13.4371 72.8655 13.6607 71.0153 13.8223C69.1738 13.9838 67.3496 14.0894 65.6118 14.108C64.6003 14.1515 63.5974 14.164 62.6636 14.1329L62.5772 14.1267C62.5512 14.1267 62.508 14.1205 62.5166 14.1267L62.508 14.1329C62.508 14.1329 62.4821 14.1391 62.4648 14.1391C62.4561 14.1391 62.4302 14.1391 62.4388 14.1453C62.4561 14.1515 62.361 14.1391 62.387 14.1453C62.4215 14.1143 62.2919 14.2385 62.2054 14.3069L62.1363 14.3628C62.119 14.3815 62.1017 14.3938 62.093 14.4062C62.0584 14.4373 62.0325 14.4622 61.9893 14.4871C61.9201 14.543 61.8423 14.5927 61.7472 14.6424C61.704 14.6734 61.6521 14.7044 61.5916 14.7355C61.5656 14.7479 61.531 14.7666 61.4965 14.779C61.4619 14.7915 61.4705 14.7915 61.4533 14.7977C61.4273 14.8101 61.3927 14.8226 61.3581 14.8288C61.3495 14.8288 61.3668 14.8288 61.3668 14.8288C61.3841 14.8226 61.41 14.8225 61.4273 14.8163C61.4705 14.8101 61.4965 14.8101 61.5483 14.8101C61.6261 14.8039 61.704 14.8039 61.7818 14.8101C61.825 14.8101 61.8423 14.8163 61.8942 14.8226C61.9547 14.8226 62.0066 14.8288 62.0584 14.835C62.1708 14.8474 62.2746 14.8597 62.3783 14.8784C62.4475 14.8846 62.5167 14.897 62.5945 14.9095L62.6982 14.9281L62.7501 14.9406L62.776 14.9468C62.776 14.9468 62.7674 14.953 62.7847 14.9406C62.802 14.9219 62.7933 14.9219 62.8279 14.8846C62.9144 14.7852 63.1132 14.6113 63.3553 14.4435C63.8567 14.0956 64.5052 13.7354 65.1882 13.4185C66.5628 12.7724 68.0239 12.2444 69.4159 11.884C70.2113 11.6914 70.998 11.505 71.7675 11.3186C72.1479 11.2192 72.5456 11.1447 72.9433 11.0639C73.3323 10.9832 73.7214 10.9025 74.1104 10.8217C74.4995 10.7409 74.8799 10.6601 75.2689 10.5793C75.658 10.511 76.0557 10.4364 76.4448 10.3681C77.2229 10.2252 78.001 10.0885 78.7877 9.94565C81.952 9.44243 85.1595 8.95164 88.7561 8.55404C90.5458 8.33039 92.4478 8.15646 94.4622 7.95144C95.4738 7.85204 96.5199 7.77753 97.6006 7.68435C98.1366 7.64086 98.6899 7.59739 99.2433 7.54769C99.8052 7.51041 100.376 7.47303 100.955 7.43575L99.5113 7.62838C102.883 7.31775 106.263 7.03194 109.661 6.8145C110.543 6.78965 111.39 6.77109 112.203 6.74624C113.024 6.72761 113.811 6.71513 114.572 6.6965C115.333 6.67786 116.076 6.65917 116.794 6.64053C117.511 6.6281 118.212 6.62201 118.903 6.60959C119.586 6.59716 120.261 6.5847 120.926 6.57228C121.584 6.56606 122.241 6.55983 122.889 6.55362C123.537 6.54741 124.177 6.54118 124.817 6.53496C125.457 6.53496 126.097 6.54118 126.745 6.54118C127.393 6.54739 128.042 6.5474 128.699 6.5474C129.356 6.55983 130.022 6.57851 130.696 6.59093C131.37 6.60957 132.079 6.6219 132.771 6.64675C133.454 6.67781 134.137 6.71521 134.794 6.77734C135.451 6.83946 136.091 6.93263 136.653 7.06309C136.791 7.09415 136.93 7.12517 137.059 7.16866C137.198 7.20593 137.31 7.24938 137.431 7.28666C137.543 7.33014 137.647 7.37361 137.751 7.4171L137.889 7.4855L137.924 7.50416L137.941 7.51659L137.976 7.53525C138.157 7.64086 138.296 7.78992 138.287 7.95766C138.278 8.03842 138.235 8.11911 138.174 8.19366C138.14 8.23094 138.123 8.2497 138.045 8.31804L138.002 8.36142C137.984 8.38005 137.95 8.39875 137.932 8.4236C137.881 8.46709 137.837 8.50433 137.777 8.54782C137.543 8.7342 137.241 8.93295 136.921 9.11933C136.601 9.31192 136.247 9.49217 135.892 9.67233C135.174 10.0264 134.414 10.3558 133.653 10.6664C132.892 10.9708 132.131 11.2565 131.379 11.5237C130.636 11.7846 129.892 12.0455 129.183 12.2629C126.356 13.1762 123.814 13.8099 121.584 14.3069C117.105 15.2884 113.846 15.7544 111.131 16.0651C110.88 16.0775 110.621 16.09 110.362 16.1024C110.102 16.1148 109.851 16.1084 109.583 16.1147C109.324 16.1209 109.056 16.1209 108.805 16.1084C108.555 16.096 108.287 16.0961 108.036 16.0837C107.785 16.0651 107.543 16.0464 107.292 16.0278L106.955 15.9842C106.869 15.9718 106.774 15.9719 106.704 15.9471L106.41 15.8662C106.289 15.8352 106.177 15.8042 106.073 15.7669L105.745 15.6612L105.468 15.5556C105.364 15.5183 105.304 15.4873 105.235 15.4562C105.166 15.4252 105.096 15.394 105.036 15.3568C104.906 15.2884 104.794 15.2077 104.699 15.1207C104.508 14.9468 104.396 14.7294 104.431 14.5119C104.448 14.2945 104.595 14.0957 104.776 13.9155C104.828 13.8721 104.863 13.8284 104.923 13.7787L105.114 13.6234L105.356 13.4496L105.624 13.2819C106.359 12.8346 107.24 12.4306 108.166 12.0765C109.091 11.7224 110.059 11.4242 111.019 11.1695C111.485 11.0515 112.021 10.9211 112.523 10.7968C113.033 10.6726 113.526 10.5545 114.019 10.4302C114.996 10.1942 115.947 9.97046 116.846 9.75302C115.315 10.1817 113.794 10.6166 112.272 11.0702C114.287 10.6042 116.292 10.163 118.315 9.7468C120.883 9.11933 122.872 8.68458 124.61 8.32426C126.347 7.97014 127.834 7.68437 129.425 7.39859C131.016 7.11281 132.71 6.82069 134.872 6.48521C137.033 6.15595 139.679 5.77702 143.172 5.43533C147.979 5.08743 151.376 5.10612 153.884 5.18067C154.506 5.21173 155.085 5.22408 155.604 5.25514C156.123 5.29242 156.607 5.31114 157.048 5.3422C157.489 5.37948 157.887 5.41048 158.267 5.43533C158.284 5.43533 158.673 5.47264 158.682 5.46642C158.768 5.47264 158.855 5.47265 158.941 5.47886C159.114 5.48507 159.278 5.4913 159.443 5.49752C160.714 5.57207 161.656 5.64043 162.702 5.83302C163.212 5.93863 163.748 6.06909 164.293 6.29274C164.57 6.39835 164.829 6.54119 165.097 6.70271C165.339 6.87045 165.581 7.06924 165.771 7.31153C166.212 8.06946 165.944 8.92684 165.261 9.68477C164.924 10.0637 164.492 10.424 164.008 10.7533C163.523 11.0826 162.97 11.387 162.374 11.6728C161.198 12.2505 159.892 12.7413 158.544 13.1761C157.195 13.611 155.777 13.9838 154.342 14.3069L154.774 14.3006C153.555 14.6796 152.483 14.9716 151.515 15.2014C150.546 15.4313 149.69 15.6115 148.861 15.7544C147.209 16.0464 145.705 16.2328 143.725 16.3446C143.483 16.3632 143.224 16.3695 142.956 16.3757C142.696 16.3881 142.419 16.3943 142.143 16.3943C141.866 16.4006 141.572 16.4006 141.27 16.4006C141.123 16.4006 140.967 16.4006 140.82 16.3943C140.708 16.3881 140.587 16.3881 140.466 16.3819C139.99 16.3695 139.471 16.3321 138.927 16.27C138.65 16.2389 138.373 16.2017 138.088 16.152C137.941 16.1333 137.803 16.1023 137.656 16.0713C137.587 16.0589 137.509 16.0402 137.431 16.0278C137.37 15.9967 137.301 15.9657 137.249 15.9284C137.137 15.8539 137.033 15.7668 136.981 15.6674C136.93 15.568 136.921 15.4499 136.955 15.3443C137.025 15.1207 137.215 14.9219 137.44 14.7293C137.906 14.3503 138.52 14.0086 139.203 13.667C139.298 13.6235 139.394 13.5738 139.48 13.5303C139.601 13.4744 139.731 13.4122 139.852 13.3563C140.111 13.2383 140.37 13.1202 140.639 13.0022C141.183 12.7661 141.754 12.5301 142.359 12.2878C143.569 11.8094 144.892 11.3187 146.345 10.8155L145.082 10.9459C147.088 10.3185 148.809 9.79031 150.417 9.30573C152.042 8.82737 153.564 8.35532 155.146 7.86453C155.941 7.62224 156.754 7.37361 157.601 7.11269C158.033 6.98844 158.466 6.85805 158.924 6.72759C159.149 6.66546 159.382 6.59708 159.616 6.52874C159.849 6.46662 160.091 6.40446 160.333 6.33612C162.279 5.80184 164.526 5.27382 167.302 4.83273C168.65 4.59666 170.751 4.35435 173.284 4.19282C175.818 4.02508 178.809 4.01895 181.913 4.12457C185.016 4.22397 188.276 4.46627 191.267 4.75826C194.241 5.1248 196.973 5.72117 199.109 6.4294C200.146 6.84564 201.089 7.29914 201.875 7.81478C202.264 8.0695 202.619 8.33666 202.922 8.61623C203.216 8.89579 203.466 9.1815 203.639 9.47349C203.674 9.54804 203.726 9.62265 203.752 9.69099L203.829 9.8959L203.873 10.101L203.89 10.3122C203.881 10.5856 203.777 10.859 203.561 11.095C203.345 11.3311 203.034 11.5174 202.68 11.6541C202.273 11.8094 201.824 11.9709 201.4 12.1263C200.561 12.4493 199.671 12.7226 198.832 13.0146C198.409 13.1637 197.976 13.2818 197.553 13.4185C197.129 13.549 196.714 13.6856 196.29 13.8098C194.596 14.3006 192.945 14.7542 191.267 15.1456C187.921 15.9408 184.558 16.5621 180.936 17.0032C177.313 17.4505 173.414 17.6803 169.048 17.6244C168.849 17.6182 168.642 17.612 168.443 17.6058C168.244 17.5933 168.045 17.5871 167.846 17.5809C167.44 17.5623 167.042 17.5436 166.645 17.5249C166.446 17.5187 166.255 17.5064 166.057 17.5002L165.91 17.494C165.875 17.4753 165.849 17.4504 165.815 17.4256C165.754 17.3759 165.685 17.3324 165.624 17.2827C165.382 17.0901 165.175 16.8913 164.985 16.6863C164.241 15.8601 163.947 14.9654 164.042 14.1329V14.1018L164.085 14.0894C165.356 13.6483 166.532 13.2445 167.596 12.8779C168.668 12.5238 169.662 12.2319 170.518 11.9709C170.95 11.8467 171.348 11.7286 171.72 11.623C172.091 11.5236 172.446 11.4491 172.757 11.3808C173.388 11.2503 173.89 11.1757 174.253 11.1633L172.515 11.623L176.371 11.1075L176.622 10.6973C177.365 10.542 178.152 10.3744 178.956 10.1942C179.362 10.1073 179.777 10.014 180.192 9.92077C180.616 9.84001 181.048 9.75309 181.48 9.67233C182.345 9.50459 183.227 9.33681 184.117 9.16286C185.008 9.00133 185.916 8.85846 186.815 8.71557C188.604 8.40495 190.403 8.19377 192.071 7.99497C192.901 7.88936 193.714 7.82717 194.483 7.77125C195.253 7.71534 195.979 7.67188 196.645 7.64081C201.365 6.94501 206.172 6.44807 211.04 6.14986C210.815 6.15608 210.59 6.15594 210.365 6.16837C210.141 6.18079 209.916 6.18704 209.682 6.19946C209.224 6.2181 208.757 6.23679 208.29 6.25543C207.824 6.27407 207.348 6.29275 206.873 6.30518C206.397 6.3176 205.913 6.33615 205.429 6.36721C203.501 6.48525 201.504 6.55986 199.532 6.74003L199.956 6.79584C198.071 6.95116 194.855 7.29286 191.604 7.74638C190.792 7.85821 189.97 7.97627 189.175 8.0881C188.976 8.11916 188.777 8.14409 188.578 8.16894C188.38 8.2 188.189 8.23101 187.991 8.26829C187.602 8.33041 187.221 8.39257 186.849 8.45469C186.106 8.57273 185.388 8.6908 184.731 8.7902C184.394 8.8399 184.083 8.89581 183.789 8.94551C183.486 8.99521 183.21 9.0449 182.942 9.09461L184.187 8.81492C184.601 8.72794 185.025 8.65345 185.449 8.56648L187.973 8.07566C182.077 9.00754 186.901 8.01362 188.535 7.69056C190.031 7.49797 191.293 7.33019 192.365 7.18109C192.633 7.14382 192.893 7.11281 193.135 7.08175C193.385 7.05068 193.619 7.02575 193.844 7.0009C194.293 6.94499 194.708 6.90151 195.097 6.85181C195.858 6.75862 196.489 6.67792 197.043 6.60337C197.596 6.53503 198.08 6.47909 198.538 6.42318C199.455 6.30514 200.276 6.19325 201.452 6.05037C202.04 5.99445 202.723 5.93852 203.544 5.87018C203.959 5.83912 204.4 5.80189 204.893 5.76461C205.386 5.73355 205.913 5.68391 206.501 5.66527C207.556 5.64663 209.086 5.61551 210.167 5.60308C211.247 5.60929 211.878 5.64666 211.135 5.69636C213.884 5.62181 218.899 5.68389 223.265 5.95724C223.809 5.97588 224.345 6.02553 224.864 6.0628C225.383 6.10008 225.884 6.13731 226.368 6.16837C227.337 6.24292 228.219 6.28644 228.971 6.36099C230.475 6.49146 231.478 6.54127 231.616 6.47293C232.083 6.54127 232.265 6.56612 232.68 6.62824C232.265 6.44187 231.573 6.2244 230.648 5.98211C229.723 5.74604 228.564 5.46028 227.181 5.23042C226.498 5.10617 225.755 4.98185 224.968 4.85139C224.579 4.78926 224.173 4.71468 223.758 4.66498C223.343 4.60907 222.91 4.55936 222.478 4.49723C221.596 4.39162 220.688 4.27977 219.737 4.16173C218.786 4.06233 217.792 3.98161 216.772 3.89463L216.798 3.88841Z" fill="#0090B2" stroke="#0090B2" stroke-width="1.44" stroke-miterlimit="10"/>
</svg>
