<svg width="99" height="44" viewBox="0 0 99 44" fill="none" xmlns="http://www.w3.org/2000/svg">
<path d="M2.95385 25.0475C-0.0423479 25.307 -0.134336 26.8491 0.194194 27.5878C0.160406 27.4797 0.218234 27.5337 0.719846 28.6147C1.34686 29.9658 0.522728 30.5063 0.457022 31.6954C0.391315 32.8844 1.04838 33.1547 1.96826 33.4789C2.88815 33.8032 6.17345 34.3437 7.22475 34.5599C8.27605 34.7761 24.6369 38.5054 26.9366 38.7216C29.2363 38.9377 38.6323 41.7482 40.5378 42.3427C42.0621 42.8184 46.6484 43.4057 48.751 43.6399C49.1891 43.8921 50.4594 44.2452 52.0363 43.6399C54.0075 42.8832 59.5268 42.0725 62.4836 41.532C65.4404 40.9916 72.8652 38.3432 74.1136 38.2351C75.362 38.127 81.407 37.5866 84.4295 36.1813C87.4519 34.7761 89.0289 35.6949 90.4744 35.9651C91.92 36.2354 94.2854 36.2354 95.1395 35.9651C95.9937 35.6949 99.3447 34.5599 98.3591 32.7763C97.5707 31.3495 98.0306 29.4074 98.3591 28.6147C98.1882 26.2941 96.9883 25.2773 95.1395 24.5673L94.287 28.6147L85.2196 27.9725L47.7671 35.9651C45.3573 35.4967 40.4195 34.5599 39.9464 34.5599C39.4733 34.5599 15.0876 28.2183 2.95385 25.0475Z" fill="#C18D5F"/>
<path d="M2.95385 25.0454C-0.0423479 25.3048 -0.134337 26.847 0.194194 27.5856C0.160406 27.4775 0.218234 27.5316 0.719846 28.6125C1.34686 29.9637 0.522728 30.5042 0.457022 31.6933C0.391315 32.8823 1.04838 33.1525 1.96826 33.4768C2.88815 33.8011 6.17346 34.3416 7.22475 34.5578C8.27605 34.774 24.6369 38.5033 26.9366 38.7194C29.2363 38.9356 38.6323 41.7461 40.5378 42.3406C42.0621 42.8163 46.6484 43.4036 48.751 43.6378C49.1891 43.89 50.4594 44.2431 52.0363 43.6378C54.0075 42.8811 59.5268 42.0704 62.4836 41.5299C65.4404 40.9894 72.8652 38.3411 74.1136 38.233C74.5827 38.1924 75.729 38.0907 77.1377 37.9051C78.6271 37.5661 81.816 36.5207 82.6571 35.0506C83.4981 33.5805 87.1689 33.7895 88.8991 34.0777C89.4242 34.1816 90.4744 34.0662 90.4744 32.7742C90.4744 31.4822 90.826 29.3063 91.0017 28.3799L85.2196 27.9704L47.7671 35.963C45.3573 35.4946 40.4195 34.5578 39.9464 34.5578C39.4733 34.5578 15.0876 28.2162 2.95385 25.0454Z" fill="#A87855"/>
<path d="M18.461 21.8642C17.5411 22.0803 6.69956 24.6746 2.95431 24.9989C2.25345 24.9989 0.917424 25.2151 1.18025 26.0799C1.50878 27.1608 15.4385 29.8632 16.9497 30.1334C18.461 30.4037 30.6166 32.3494 32.5221 33.3222C34.4276 34.2951 40.6696 34.3491 44.1521 35.8084C47.6186 37.2611 52.6477 36.5715 54.249 36.3519L54.2708 36.3489C55.5324 36.1759 63.6887 34.2591 67.6091 33.3222C69.1861 32.5295 73.1285 30.9549 76.2824 30.9982C80.2247 31.0522 82.6558 29.8632 84.1671 29.2146C85.6783 28.566 86.861 28.8363 91.1319 29.0525C95.4028 29.2687 97.0455 27.431 97.0455 27.1608C98.951 25.4313 93.2345 23.9179 91.6576 23.4856C87.9123 22.4587 87.0582 23.3775 84.4299 22.2425C82.3273 21.3345 75.8443 20.2427 72.8656 19.8103C71.4858 19.7923 68.0297 19.4428 65.2437 18.1889C61.7613 16.6215 55.3221 16.4594 52.6939 15.5946C50.0656 14.7299 49.1457 14.1894 45.0062 14.4056C40.8668 14.6218 40.4068 15.5946 39.9469 16.1892C39.4869 16.7837 39.7497 16.9458 36.9901 17.3782C34.2304 17.8106 19.3809 21.648 18.461 21.8642Z" fill="#E3C390"/>
<path d="M18.461 21.8639C17.5411 22.0801 6.69956 24.6744 2.95431 24.9986C2.25345 24.9986 0.917424 25.2148 1.18025 26.0796C1.50878 27.1605 15.4385 29.8629 16.9497 30.1332C18.461 30.4034 30.6166 32.3491 32.5221 33.322C34.4276 34.2948 40.6696 34.3489 44.1521 35.8082C47.6186 37.2608 52.6477 36.5712 54.249 36.3516L54.2708 36.3486C45.1376 34.8893 26.4508 30.9222 24.7687 26.7282C22.6661 21.4855 22.7318 21.8098 28.8425 20.5127C33.7311 19.475 36.3111 17.9905 36.9901 17.3779C34.2304 17.8103 19.3809 21.6477 18.461 21.8639Z" fill="#D7AB78"/>
<path fill-rule="evenodd" clip-rule="evenodd" d="M48.6866 43.5366C49.1246 43.7888 50.3949 44.1419 51.9719 43.5366C53.4872 42.9549 57.0992 42.3413 60.032 41.8431C60.9144 41.6932 61.7353 41.5537 62.4192 41.4287C64.0108 41.1378 66.8972 40.236 69.4179 39.4485C71.5798 38.7731 73.4728 38.1817 74.0491 38.1318C75.2976 38.0237 81.3425 37.4833 84.365 36.078C86.829 34.9324 88.3323 35.3314 89.5869 35.6644C89.8713 35.7398 90.1429 35.8119 90.41 35.8618C91.8555 36.1321 94.2209 36.1321 95.0751 35.8618C95.9293 35.5916 99.2803 34.4566 98.2947 32.673C97.5062 31.2462 97.9662 29.3041 98.2947 28.5114C98.0488 25.1737 95.6744 24.5331 92.302 23.6233C92.0701 23.5607 91.8336 23.4969 91.5927 23.4309C89.7947 22.9379 88.663 22.8933 87.6815 22.8547C86.6184 22.8128 85.7315 22.7779 84.365 22.1878C82.2624 21.2798 75.7794 20.188 72.8007 19.7556C71.4209 19.7376 67.9648 19.3881 65.1788 18.1342C63.1045 17.2006 59.981 16.7656 57.2388 16.3836C55.3774 16.1244 53.6916 15.8896 52.6289 15.5399C52.3076 15.4342 52.0118 15.3333 51.7326 15.2381C49.7276 14.5543 48.5747 14.1611 44.9413 14.3509C41.0594 14.5536 40.4134 15.4218 39.9687 16.0193C39.9392 16.059 39.9106 16.0975 39.882 16.1345C39.8215 16.2126 39.7736 16.2832 39.7296 16.3479C39.4389 16.7762 39.3224 16.9479 36.9252 17.3235C34.7246 17.6683 24.8364 20.1782 20.4538 21.2906C19.3404 21.5733 18.5824 21.7657 18.396 21.8095C18.3511 21.82 18.2825 21.8363 18.1922 21.8576C16.434 22.2737 6.45171 24.6358 2.8894 24.9442C-0.0340499 25.1974 -0.19261 26.6717 0.106589 27.4293C0.11169 27.4422 0.116925 27.4549 0.122281 27.4674C0.124743 27.4731 0.127229 27.4788 0.129741 27.4845C0.127777 27.4782 0.126122 27.4724 0.124846 27.4674C0.118781 27.4436 0.12128 27.4359 0.139781 27.4628C0.142738 27.4671 0.146103 27.4723 0.149908 27.4784C0.150234 27.4789 0.150563 27.4794 0.150895 27.48C0.152426 27.4825 0.154026 27.4851 0.155696 27.4879C0.213198 27.5839 0.354401 27.8627 0.655393 28.5114C1.05508 29.3727 0.865117 29.9045 0.657816 30.485C0.539909 30.8151 0.416391 31.161 0.392569 31.5921C0.326863 32.7811 0.983924 33.0514 1.90381 33.3756C2.56541 33.6089 4.45061 33.9539 5.84821 34.2098C6.39382 34.3096 6.86512 34.3959 7.1603 34.4566C7.37083 34.4999 8.19529 34.6841 9.39784 34.9527C14.2004 36.0255 25.033 38.4454 26.8721 38.6183C29.1719 38.8344 38.5678 41.6449 40.4733 42.2394C41.9977 42.7151 46.584 43.3024 48.6866 43.5366ZM0.132667 27.4253C-0.0124322 27.0602 -0.0497964 26.5255 0.285585 26.0454C0.636507 25.543 1.39936 25.095 2.89215 24.9657C4.76719 24.8034 8.41598 24.0732 11.709 23.3572C14.6809 22.711 17.3654 22.0758 18.1994 21.8784C18.2897 21.857 18.3583 21.8408 18.4033 21.8302C18.5898 21.7864 19.3483 21.5939 20.4623 21.3111C22.097 20.8962 24.4973 20.2869 26.9783 19.6682C31.1515 18.6276 35.552 17.5607 36.9301 17.3447C38.3088 17.1287 38.9381 16.9796 39.2796 16.8082C39.4519 16.7218 39.5511 16.6298 39.6361 16.522C39.676 16.4713 39.7129 16.417 39.7525 16.3587L39.759 16.3491C39.8012 16.2869 39.8471 16.2198 39.9041 16.1461C39.9329 16.1088 39.9617 16.0702 39.9912 16.0305C40.1987 15.7518 40.4471 15.4181 41.0455 15.1193C41.7302 14.7773 42.8752 14.4805 44.943 14.3725C47.0113 14.2645 48.2732 14.3456 49.3456 14.5611C50.1563 14.724 50.8589 14.9636 51.7212 15.2576C52.0007 15.353 52.297 15.454 52.6192 15.56C53.2788 15.777 54.1762 15.9496 55.204 16.1109C55.8386 16.2105 56.5241 16.306 57.2348 16.405C57.6752 16.4663 58.1253 16.529 58.579 16.5949C60.9531 16.9395 63.4293 17.3714 65.1662 18.1532C67.9558 19.4087 71.4145 19.7589 72.7982 19.7772C74.2873 19.9934 76.651 20.3742 78.9053 20.8144C81.1619 21.255 83.3049 21.7544 84.3528 22.2069C85.6718 22.7765 86.5469 22.8309 87.5587 22.8715C87.599 22.8731 87.6395 22.8747 87.6802 22.8763C88.661 22.9149 89.7898 22.9593 91.5844 23.4514C91.8255 23.5175 92.0622 23.5814 92.294 23.6439C93.8649 24.0677 95.2144 24.4318 96.2342 25.0361C97.4004 25.727 98.1363 26.7329 98.2682 28.5084C98.1035 28.9071 97.9071 29.5906 97.8496 30.353C97.792 31.1178 97.8741 31.964 98.2708 32.682C98.514 33.1221 98.4895 33.5211 98.3034 33.8772C98.1169 34.2341 97.7673 34.5489 97.3584 34.818C96.5405 35.3563 95.4925 35.7066 95.0657 35.8416C94.6435 35.9752 93.8429 36.0429 92.9643 36.0429C92.0867 36.0429 91.1361 35.9754 90.4158 35.8407C90.1499 35.791 89.88 35.7194 89.596 35.644C89.4954 35.6173 89.393 35.5902 89.2885 35.5633C88.8896 35.461 88.4606 35.3643 87.9818 35.3201C87.023 35.2318 85.8677 35.3546 84.3521 36.0592C82.8448 36.76 80.5816 37.2459 78.5368 37.5701C76.4929 37.8942 74.6704 38.0563 74.0464 38.1103C73.8875 38.1241 73.6327 38.1779 73.3045 38.2617C72.9756 38.3457 72.5712 38.4602 72.1122 38.5962C71.3348 38.8265 70.3998 39.1186 69.4086 39.4283C69.2292 39.4844 69.048 39.541 68.8655 39.5979C66.4828 40.3413 63.8895 41.1378 62.4135 41.4076C61.7299 41.5326 60.9092 41.672 60.0268 41.8219L59.8113 41.8585C58.8472 42.0223 57.8184 42.198 56.8202 42.3805C54.8251 42.7452 52.9495 43.1375 51.9608 43.517C50.3926 44.119 49.1322 43.7668 48.7016 43.5189C48.6982 43.5169 48.6943 43.5156 48.6901 43.5152C47.6391 43.3981 45.9672 43.1928 44.3677 42.9573C42.7673 42.7216 41.2421 42.4562 40.4826 42.2192C39.5296 41.9219 36.704 41.0705 33.829 40.2665C32.3916 39.8645 30.9416 39.4742 29.7071 39.1709C28.4733 38.8678 27.4527 38.6511 26.8751 38.5968C26.3023 38.5429 24.8505 38.2698 22.9762 37.8862C21.1027 37.5029 18.8093 37.0097 16.5548 36.5165C13.8523 35.9254 11.2054 35.3341 9.40519 34.9319C8.20219 34.6632 7.37731 34.4789 7.16668 34.4356C6.87129 34.3749 6.39935 34.2885 5.85333 34.1885C5.42733 34.1106 4.95622 34.0243 4.48869 33.9356C3.42002 33.7327 2.37144 33.517 1.91416 33.3558C1.45337 33.1933 1.06491 33.0464 0.798437 32.794C0.533274 32.5428 0.386159 32.1842 0.418824 31.593C0.442492 31.1647 0.564693 30.8226 0.682332 30.4932C0.727217 30.3675 0.771438 30.2437 0.809268 30.1177C0.946145 29.6617 0.995739 29.1842 0.679948 28.5036C0.429147 27.9632 0.289065 27.6789 0.215814 27.5432C0.197495 27.5093 0.183213 27.4844 0.172326 27.467C0.166891 27.4583 0.162155 27.4512 0.158064 27.4457C0.154312 27.4407 0.150034 27.4355 0.145334 27.4317C0.14367 27.4304 0.139316 27.4271 0.132667 27.4253Z" fill="#F5F5F5"/>
<path fill-rule="evenodd" clip-rule="evenodd" d="M1.63002 26.2369C1.63293 26.2315 1.64069 26.229 1.64733 26.2314C3.16917 26.7807 5.73788 27.6238 8.49765 28.3672C11.2576 29.1108 14.2077 29.7545 16.4927 29.9057C19.3523 30.095 21.7352 30.6222 23.8628 31.156C24.259 31.2555 24.6464 31.3551 25.0263 31.4528C26.6865 31.8798 28.2043 32.2702 29.7004 32.4461C31.4473 32.6513 33.0608 33.1243 34.582 33.5703C34.6643 33.5944 34.7463 33.6185 34.8281 33.6424C36.4218 34.1086 37.9146 34.5268 39.3577 34.5538C40.8061 34.5809 41.7609 34.933 42.6323 35.3049C42.7333 35.3481 42.8332 35.3914 42.9326 35.4346C43.6904 35.7636 44.419 36.08 45.4039 36.1753C45.6111 36.1954 45.8359 36.2196 46.0778 36.2457C48.4441 36.5009 52.4544 36.9334 57.8164 35.3651C60.7738 34.5002 63.3368 33.9461 65.3327 33.534C65.5847 33.4819 65.8277 33.4322 66.0612 33.3843C66.7527 33.2427 67.3617 33.1179 67.8796 33.0012C68.5726 32.8449 69.1011 32.7033 69.4447 32.5553C70.1359 32.2574 71.3198 31.9194 72.7737 31.5951C74.2279 31.2707 75.9531 30.9598 77.7276 30.7166C78.8994 30.5559 80.3864 30.242 81.9265 29.9168C82.7173 29.7499 83.5222 29.58 84.3055 29.4263C85.4596 29.2 86.5669 29.009 87.5133 28.9152C88.4589 28.8214 89.2462 28.8244 89.7587 28.9876C90.2658 29.1491 90.9909 29.2335 91.7919 29.236C92.5928 29.2386 93.4684 29.1593 94.2763 28.994C95.0844 28.8287 95.8236 28.5775 96.3524 28.2368C96.881 27.8962 97.1982 27.4669 97.1656 26.9445C97.1653 26.9385 97.1708 26.9334 97.1781 26.9331C97.1853 26.9328 97.1915 26.9374 97.1919 26.9433C97.225 27.4748 96.9017 27.9103 96.3686 28.2538C95.8358 28.5971 95.0926 28.8492 94.2827 29.015C93.4725 29.1807 92.5947 29.2602 91.7918 29.2576C90.9892 29.2551 90.2606 29.1706 89.7492 29.0078C89.2433 28.8467 88.4618 28.8429 87.5164 28.9367C86.5716 29.0303 85.4655 29.2211 84.3116 29.4474C83.5294 29.6008 82.7253 29.7705 81.9347 29.9374C80.3938 30.2627 78.9048 30.5771 77.7319 30.7379C75.9583 30.9811 74.2339 31.2918 72.7806 31.6159C71.327 31.9402 70.1455 32.2777 69.4569 32.5744C69.1105 32.7237 68.5795 32.8658 67.8866 33.022C67.3683 33.1388 66.7589 33.2637 66.0673 33.4054C65.8338 33.4532 65.591 33.5029 65.3391 33.5549C63.3435 33.967 60.7814 34.5209 57.8252 35.3855C52.4571 36.9555 48.4414 36.5224 46.0746 36.2671C45.8326 36.2411 45.608 36.2168 45.4008 36.1968C44.4108 36.101 43.6779 35.7827 42.9203 35.4537C42.8209 35.4105 42.7211 35.3672 42.6202 35.3241C41.7504 34.9529 40.7997 34.6024 39.3571 34.5754C37.9091 34.5483 36.4123 34.1288 34.8192 33.6627C34.7377 33.6389 34.6559 33.6149 34.5738 33.5908C33.0521 33.1448 31.4408 32.6724 29.6967 32.4675C28.1983 32.2914 26.678 31.9003 25.0176 31.4732C24.6379 31.3756 24.2509 31.276 23.8551 31.1767C21.7282 30.6431 19.3474 30.1164 16.4906 29.9273C14.2024 29.7759 11.2499 29.1314 8.48947 28.3878C5.72883 27.6441 3.15932 26.8008 1.63677 26.2512C1.63012 26.2488 1.6271 26.2424 1.63002 26.2369Z" fill="#F5F5F5"/>
<path d="M6.78809 23.7654C4.11342 23.3909 3.66327 24.4068 3.77253 24.9616L28.6837 30.7351H32.7481L58.8393 25.6898C57.3315 26.3833 53.1359 28.0408 48.4159 29.1227C42.5159 30.475 39.2381 30.0589 39.2381 29.9549C39.2381 29.8717 37.0529 30.4403 35.9604 30.7351V32.3995C38.2985 32.6075 43.0928 33.1693 43.5648 33.7518C44.1548 34.48 51.497 34.532 53.0048 34.324C54.5126 34.1159 60.4126 32.5035 61.7237 31.8794C62.7726 31.38 74.0482 29.3481 79.5548 28.3945C79.9045 28.1865 80.4988 27.6039 80.0793 26.9381C79.5548 26.1059 77.4571 27.1982 71.8193 27.7704C66.1815 28.3425 60.7404 28.6546 63.6904 27.7704C66.6404 26.8861 87.8804 25.2737 90.7649 24.9097C93.6493 24.5456 89.6504 24.2335 86.3726 22.8291C83.0948 21.4248 81.5215 22.8291 75.8837 21.0087C70.2459 19.1882 62.0515 21.8409 64.5426 21.0087C67.0337 20.1765 66.2471 19.2403 64.5426 18.4601C62.8382 17.6799 58.8393 17.4198 57.397 16.9517C55.9548 16.4836 54.3159 17.992 51.497 18.4601C48.6781 18.9282 43.5648 21.4248 39.2381 22.8291C34.9115 24.2335 44.417 19.7604 47.8259 18.4601C51.2348 17.1598 56.4137 17.2117 54.3159 16.1195C52.2181 15.0272 45.007 14.7151 43.5648 14.8712C42.1226 15.0272 39.8281 16.1715 37.927 16.1195C36.0259 16.0675 23.3737 19.6563 22.7837 19.7604C22.1937 19.8644 10.1314 24.2335 6.78809 23.7654Z" fill="#FEEED6"/>
<path d="M6.80371 23.8221C4.12904 23.4476 3.6789 24.4635 3.78816 25.0184L28.6993 30.7918H32.7638L58.8549 25.7465H54.3316C51.7896 25.7465 30.2579 28.5696 28.6993 28.5696C27.4524 28.5696 13.5827 25.4046 6.80371 23.8221Z" fill="#F4DAB4"/>
<path d="M47.8415 18.5168C51.2504 17.2165 56.4293 17.2684 54.3316 16.1762C53.8049 15.902 52.9559 15.6769 51.9568 15.4961C52.6659 15.663 53.8713 16.098 53.0204 16.5026C51.9568 17.0084 43.959 18.167 42.7135 18.9992C41.4679 19.8314 38.3585 21.7039 38.1506 23.1082C38.3587 22.6866 45.0884 19.5669 47.8415 18.5168Z" fill="#F4DAB4"/>
<path d="M63.706 27.8271C66.656 26.9428 87.896 25.3304 90.7805 24.9664C92.6947 24.7247 91.5775 24.506 89.6513 23.9758C89.5858 24.12 89.4022 24.4397 89.1924 24.5646C88.9302 24.7206 82.3091 25.2407 77.3924 24.9664C73.4591 24.7468 66.6293 26.782 63.706 27.8271Z" fill="#F4DAB4"/>
<path d="M79.5705 28.4512C79.9201 28.2432 80.5145 27.6606 80.0949 26.9949C79.9201 27.2723 79.1349 27.9519 77.3924 28.4512C75.2144 29.0754 62.1835 31.0662 60.2824 31.4303C58.3813 31.7944 48.1546 32.4562 47.3024 32.4562C46.4502 32.4562 44.7457 31.0662 41.8613 31.0662C39.5537 31.0662 39.1614 30.3631 39.2538 30.0116C39.2538 29.9284 37.0686 30.497 35.976 30.7918V32.4562C38.3141 32.6642 43.1084 33.226 43.5804 33.8085C44.1704 34.5367 51.5127 34.5887 53.0204 34.3807C54.5282 34.1726 60.4282 32.5602 61.7393 31.9361C62.7882 31.4367 74.0638 29.4048 79.5705 28.4512Z" fill="#F4DAB4"/>
<path d="M59.4302 17.8029C56.4933 17.2318 54.8074 17.8424 54.3316 18.219C54.1737 18.3183 54.1333 18.6133 55.2346 18.9992C56.6113 19.4816 63.706 19.3633 63.706 18.9992C63.706 18.6351 63.1013 18.5168 59.4302 17.8029Z" fill="#F4DAB4"/>
<path fill-rule="evenodd" clip-rule="evenodd" d="M52.1735 15.8367L52.1801 15.8169C53.1841 15.9947 54.039 16.2162 54.5701 16.4869C54.8339 16.6212 54.9862 16.7393 55.0406 16.8464C55.0679 16.9003 55.0705 16.9515 55.0498 17.0001C55.0292 17.0485 54.9859 17.0935 54.9235 17.1358C54.7991 17.2203 54.5959 17.2959 54.3335 17.3679C54.0707 17.4399 53.7471 17.5087 53.3806 17.5791C53.0981 17.6333 52.79 17.6884 52.4645 17.7467C51.1003 17.9909 49.4298 18.29 48.0486 18.8055C46.6662 19.3214 44.2849 20.346 42.2229 21.2935C41.192 21.7672 40.241 22.2216 39.5348 22.5834C39.1817 22.7643 38.89 22.9219 38.68 23.0473C38.5751 23.1099 38.4908 23.1644 38.4296 23.2095C38.399 23.2321 38.3743 23.2522 38.3558 23.2697C38.3371 23.2874 38.3251 23.302 38.3194 23.3135L38.294 23.3085C38.3466 22.961 38.5824 22.5854 38.9247 22.2054C39.2671 21.8252 39.7169 21.4396 40.199 21.0719C40.951 20.4982 41.7825 19.9672 42.4087 19.5674C42.5851 19.4548 42.7452 19.3525 42.8826 19.2627C43.0407 19.1594 43.3047 19.0516 43.6464 18.9411C43.9885 18.8305 44.4096 18.7169 44.8827 18.6021C45.829 18.3724 46.9844 18.1377 48.1338 17.9132C48.5229 17.8371 48.9112 17.7623 49.2906 17.6891C50.0321 17.5462 50.7391 17.4099 51.3496 17.2846C51.8111 17.1899 52.2173 17.1014 52.5414 17.0212C52.8658 16.9408 53.1069 16.869 53.239 16.8075C53.4512 16.7088 53.5306 16.6103 53.5264 16.5173C53.5222 16.4234 53.4327 16.3301 53.2909 16.2419C53.0081 16.0661 52.5292 15.9186 52.1735 15.8367ZM52.4699 15.8913C52.7688 15.976 53.0928 16.0926 53.3074 16.2259C53.4505 16.3149 53.5481 16.4133 53.5527 16.5166C53.5575 16.6208 53.4677 16.7249 53.2525 16.825C53.1175 16.8879 52.8737 16.9604 52.5494 17.0407C52.2246 17.1211 51.818 17.2096 51.3564 17.3044C50.7456 17.4297 50.0383 17.5661 49.2967 17.709C48.9174 17.7822 48.5291 17.857 48.1402 17.933C46.9909 18.1576 45.8361 18.3921 44.8906 18.6216C44.4178 18.7363 43.9976 18.8498 43.6565 18.96C43.3152 19.0703 43.0544 19.1771 42.8996 19.2783C42.7618 19.3684 42.6015 19.4708 42.4249 19.5836C41.7988 19.9834 40.9685 20.5135 40.2174 21.0865C39.736 21.4538 39.2874 21.8384 38.9463 22.2171C38.6207 22.5786 38.3937 22.934 38.3285 23.2635C38.3307 23.2613 38.333 23.259 38.3354 23.2568C38.3549 23.2383 38.3804 23.2176 38.4114 23.1947C38.4736 23.1488 38.5587 23.0939 38.664 23.031C38.8746 22.9053 39.167 22.7473 39.5203 22.5663C40.227 22.2042 41.1784 21.7497 42.2095 21.2759C44.2717 20.3283 46.6538 19.3034 48.0372 18.787C49.4213 18.2704 51.0957 17.9707 52.4599 17.7265C52.785 17.6683 53.0925 17.6133 53.3743 17.5592C53.7405 17.4889 54.0632 17.4203 54.3247 17.3486C54.5866 17.2768 54.7857 17.2022 54.9062 17.1204C54.9663 17.0797 55.0061 17.0376 55.0248 16.9937C55.0434 16.9501 55.0414 16.9038 55.0161 16.8539C54.9649 16.7532 54.8188 16.638 54.5557 16.504C54.0812 16.2622 53.3443 16.0591 52.4699 15.8913ZM59.682 18.1045C56.7342 17.5436 55.0459 18.1439 54.5722 18.5108L54.5712 18.5116C54.5338 18.5346 54.5035 18.5688 54.4952 18.6127C54.4869 18.6566 54.5004 18.7114 54.5533 18.7759C54.6594 18.9053 54.9228 19.0716 55.4755 19.2611C55.6468 19.3199 55.908 19.3698 56.235 19.4112C56.5618 19.4527 56.9533 19.4856 57.3844 19.5107C58.2466 19.5609 59.2668 19.5796 60.244 19.5723C61.2211 19.5651 62.1548 19.5318 62.8441 19.478C63.1889 19.4511 63.472 19.4191 63.6687 19.3828C63.7672 19.3646 63.8433 19.3454 63.8945 19.3255C63.9201 19.3156 63.9387 19.3057 63.9508 19.2962C63.9629 19.2866 63.9676 19.2781 63.9676 19.2705C63.9676 19.2269 63.9583 19.1875 63.9355 19.1504C63.9127 19.1132 63.876 19.0777 63.8199 19.0424C63.7072 18.9714 63.518 18.9019 63.2117 18.8211C62.5995 18.6598 61.5264 18.4554 59.682 18.1045ZM54.5541 18.4959C55.0372 18.1222 56.7361 17.5229 59.6882 18.0846C61.5319 18.4354 62.6066 18.64 63.2202 18.8018C63.5268 18.8826 63.7199 18.9531 63.8365 19.0265C63.895 19.0634 63.9345 19.1011 63.9593 19.1416C63.9841 19.1821 63.9939 19.2246 63.9939 19.2705C63.9939 19.2852 63.9847 19.2986 63.9696 19.3105C63.9547 19.3223 63.9332 19.3334 63.9062 19.3438C63.8523 19.3648 63.7739 19.3843 63.6748 19.4027C63.4764 19.4393 63.1918 19.4714 62.8468 19.4984C62.1564 19.5522 61.2218 19.5855 60.2442 19.5928C59.2666 19.6001 58.2456 19.5813 57.3824 19.5311C56.9508 19.506 56.5586 19.473 56.2308 19.4314C55.9033 19.3899 55.6393 19.3397 55.4648 19.2799C54.9111 19.09 54.6415 18.9216 54.531 18.7868C54.4756 18.7192 54.4598 18.6595 54.4691 18.6097C54.4785 18.5602 54.5125 18.5217 54.5541 18.4959ZM3.79752 25.1795L28.814 30.8526H32.8938L58.9975 25.9135H54.5629C53.9256 25.9135 52.096 26.0868 49.684 26.347C47.2726 26.6072 44.2804 26.954 41.319 27.3009C40.5983 27.3853 39.8794 27.4698 39.1712 27.5529C36.9693 27.8115 34.8703 28.058 33.1391 28.2549C31.995 28.3849 31.0116 28.4934 30.2651 28.5693C29.5192 28.6451 29.0089 28.6886 28.8121 28.6886C28.6538 28.6886 28.2975 28.6396 27.7838 28.5516C27.2694 28.4635 26.5956 28.3358 25.8011 28.1778C24.2121 27.8618 22.14 27.4243 19.8943 26.9381C15.4032 25.9659 10.2175 24.7993 6.81226 24.0214C5.47087 23.8378 4.69084 23.9957 4.25997 24.2649C3.83264 24.5318 3.7458 24.9099 3.79752 25.1795ZM4.24346 24.2489C4.68294 23.9744 5.47235 23.8171 6.81756 24.0014L6.81901 24.0016C10.2241 24.7794 15.4101 25.9462 19.9014 26.9184C22.147 27.4045 24.2189 27.842 25.8076 28.158C26.602 28.316 27.2755 28.4436 27.7895 28.5316C28.3041 28.6198 28.6573 28.6681 28.8121 28.6681C29.0068 28.6681 29.515 28.6249 30.2617 28.549C31.0079 28.4731 31.9912 28.3647 33.1352 28.2346C34.8665 28.0378 36.9655 27.7913 39.1675 27.5327C39.8757 27.4495 40.5945 27.3651 41.3151 27.2807C44.2765 26.9338 47.2688 26.5869 49.6804 26.3268C52.0914 26.0666 53.9233 25.893 54.5629 25.893H59.1072L59.1103 25.9132L32.8969 30.8731H28.8102L3.77404 25.1954L3.77275 25.189C3.71732 24.9136 3.80375 24.5236 4.24346 24.2489ZM90.038 24.1496L90.0503 24.1529C90.2419 24.2045 90.4255 24.2531 90.5991 24.2991C90.8637 24.3691 91.1048 24.4329 91.3145 24.4916C91.6615 24.5887 91.9247 24.6722 92.0674 24.7474C92.1032 24.7662 92.1319 24.7848 92.1526 24.8033C92.1732 24.8217 92.1864 24.8406 92.1898 24.8599C92.1969 24.8998 92.1618 24.9348 92.0933 24.9661C92.0241 24.9977 91.9163 25.0279 91.7664 25.0576C91.6163 25.0873 91.4231 25.1167 91.1825 25.1464C90.3264 25.2522 87.8614 25.465 84.7365 25.7347C82.5714 25.9216 80.0897 26.1359 77.6068 26.3608C74.5732 26.6356 71.5377 26.9264 69.0754 27.2028C67.8442 27.341 66.7564 27.4756 65.8839 27.6028C65.0111 27.73 64.3546 27.8497 63.9854 27.958L63.9753 27.9391C65.4442 27.4253 67.8942 26.6682 70.4712 26.0664C73.0478 25.4648 75.753 25.0181 77.7314 25.1261C80.2002 25.2609 83.0974 25.2006 85.4104 25.0873C86.5668 25.0307 87.5771 24.9608 88.3147 24.8956C88.6835 24.8629 88.984 24.8315 89.2004 24.8034C89.3087 24.7893 89.3957 24.7761 89.4596 24.7641C89.4916 24.7581 89.5176 24.7524 89.5376 24.7471C89.5579 24.7417 89.5706 24.737 89.5771 24.7332C89.6802 24.6732 89.7779 24.5655 89.8584 24.4541C89.9387 24.343 90.0009 24.2295 90.0336 24.1591L90.038 24.1496ZM90.054 24.1755C90.0198 24.2473 89.9589 24.3568 89.8813 24.4641C89.8005 24.576 89.7006 24.6869 89.5929 24.7496C89.5829 24.7554 89.5668 24.7609 89.5461 24.7664C89.5251 24.772 89.4982 24.7779 89.4658 24.784C89.401 24.7962 89.3133 24.8094 89.2048 24.8235C88.9877 24.8517 88.6867 24.8832 88.3177 24.9159C87.5796 24.9812 86.5689 25.0511 85.412 25.1077C83.0985 25.221 80.2 25.2814 77.7295 25.1465C75.7563 25.0388 73.055 25.4845 70.4788 26.086C68.0432 26.6548 65.7209 27.3624 64.2343 27.8719C64.621 27.7814 65.1817 27.6844 65.8791 27.5827C66.7521 27.4554 67.8402 27.3208 69.0716 27.1826C71.5343 26.9061 74.5701 26.6153 77.6037 26.3405C80.0877 26.1155 82.5701 25.9012 84.7352 25.7143C87.8591 25.4446 90.3228 25.2319 91.1784 25.1262C91.4185 25.0966 91.6109 25.0673 91.7599 25.0378C91.9092 25.0082 92.014 24.9786 92.0799 24.9485C92.1464 24.9181 92.1685 24.8895 92.1637 24.8627C92.1613 24.8486 92.1514 24.8334 92.1327 24.8167C92.1141 24.8001 92.0873 24.7826 92.0526 24.7643C91.9132 24.6909 91.6532 24.6081 91.3056 24.5108C91.096 24.4522 90.8553 24.3885 90.591 24.3185C90.4211 24.2736 90.2414 24.226 90.054 24.1755ZM80.4454 27.1075L80.4572 27.1258C80.67 27.4562 80.6256 27.7662 80.4838 28.019C80.3423 28.2714 80.1036 28.4671 79.9265 28.5702L79.9242 28.5715L79.9214 28.572C77.1553 29.0407 72.9405 29.7744 69.2854 30.4523C67.4579 30.7912 65.7704 31.1162 64.474 31.3871C63.8258 31.5225 63.2754 31.6444 62.8543 31.7478C62.4326 31.8513 62.1419 31.9358 62.0117 31.9965C61.6814 32.1503 61.0631 32.3647 60.2986 32.6028C59.5338 32.8409 58.6218 33.103 57.7038 33.3523C55.8682 33.8507 54.0066 34.2984 53.248 34.4009C52.4891 34.5033 50.265 34.5416 48.1575 34.4649C47.1036 34.4266 46.0781 34.3594 45.2788 34.2571C44.8792 34.2059 44.5357 34.1459 44.2734 34.0761C44.1422 34.0412 44.0309 34.0038 43.9429 33.9637C43.8551 33.9237 43.7896 33.8805 43.751 33.8339C43.6938 33.7648 43.5695 33.6945 43.3881 33.6244C43.2073 33.5544 42.9719 33.4852 42.6947 33.4176C42.1405 33.2823 41.4211 33.1532 40.6428 33.0357C39.0862 32.8005 37.2952 32.6114 36.121 32.5092L36.1093 32.5081V30.8555L36.1182 30.8532C36.6671 30.7083 37.4904 30.4961 38.1766 30.3303C38.5197 30.2474 38.8286 30.1761 39.0519 30.1306C39.1634 30.1079 39.254 30.0915 39.3168 30.0834C39.348 30.0794 39.3731 30.0773 39.3908 30.0776C39.3995 30.0778 39.4076 30.0786 39.4141 30.0806C39.4208 30.0828 39.4286 30.0875 39.4286 30.0959V30.097L39.4283 30.098C39.3831 30.2665 39.4559 30.5217 39.8289 30.7356C40.2024 30.9497 40.8772 31.1223 42.035 31.1223C43.4866 31.1223 44.6412 31.4646 45.5395 31.8066C45.764 31.8921 45.9726 31.9776 46.1657 32.0576C46.2011 32.0723 46.236 32.0868 46.2703 32.1011C46.4235 32.1647 46.5663 32.2241 46.6994 32.2764C47.0259 32.4046 47.2908 32.4888 47.5012 32.4888C47.9286 32.4888 50.7103 32.3262 53.6249 32.1188C56.5397 31.9113 59.5844 31.6593 60.5382 31.4805C61.1343 31.3688 62.8194 31.1014 64.9219 30.7677C66.1883 30.5667 67.6062 30.3416 69.0288 30.1121C70.9213 29.8068 72.8224 29.4934 74.3872 29.2181C75.9523 28.9427 77.1798 28.7055 77.726 28.5524C78.6 28.3073 79.2336 28.0181 79.6705 27.7563C80.1076 27.4944 80.347 27.2603 80.4337 27.1258L80.4454 27.1075ZM79.6866 27.7725C79.2474 28.0356 78.6114 28.3259 77.7349 28.5716C77.1869 28.7253 75.9576 28.9628 74.393 29.2381C72.828 29.5134 70.9267 29.8268 69.0342 30.1321C67.611 30.3618 66.1928 30.5868 64.9263 30.7879C62.8243 31.1215 61.1401 31.3888 60.5444 31.5004C59.5882 31.6796 56.541 31.9318 53.6273 32.1391C50.7134 32.3465 47.9301 32.5092 47.5012 32.5092C47.2836 32.5092 47.0134 32.4226 46.6875 32.2946C46.554 32.2422 46.4107 32.1826 46.2575 32.1189C46.2232 32.1047 46.1885 32.0903 46.1533 32.0757C45.9602 31.9956 45.752 31.9103 45.5279 31.825C44.6315 31.4837 43.4811 31.1428 42.035 31.1428C40.8745 31.1428 40.1932 30.9699 39.8132 30.752C39.4365 30.536 39.3565 30.2759 39.4012 30.0989C39.3988 30.0985 39.3952 30.0982 39.3901 30.0981C39.3751 30.0978 39.352 30.0996 39.3211 30.1036C39.2595 30.1115 39.17 30.1277 39.0586 30.1504C38.8359 30.1957 38.5274 30.2669 38.1845 30.3498C37.5023 30.5146 36.6844 30.7254 36.1356 30.8702V32.4899C37.3105 32.5924 39.0955 32.7811 40.6478 33.0156C41.4265 33.1332 42.147 33.2624 42.7026 33.3981C42.9804 33.4659 43.2173 33.5354 43.3999 33.6061C43.5819 33.6765 43.7118 33.7488 43.7732 33.8228C43.8086 33.8657 43.8702 33.9068 43.9563 33.9461C44.0422 33.9853 44.1517 34.0221 44.2819 34.0568C44.5423 34.126 44.8841 34.1858 45.2831 34.2369C46.0809 34.3391 47.1052 34.4061 48.1588 34.4445C50.2662 34.5212 52.4877 34.4828 53.2435 34.3807C53.9996 34.2786 55.8591 33.8315 57.6951 33.333C58.6129 33.0838 59.5244 32.8218 60.2888 32.5838C61.0534 32.3457 61.6699 32.1318 61.9982 31.9789C62.1315 31.9168 62.4253 31.8316 62.8464 31.7283C63.268 31.6248 63.8188 31.5028 64.4671 31.3673C65.7639 31.0963 67.4517 30.7713 69.2793 30.4324C72.9333 29.7547 77.1468 29.0212 79.9129 28.5525C80.0868 28.4508 80.3209 28.2584 80.4597 28.0108C80.5963 27.7672 80.6407 27.4703 80.4451 27.1531C80.3473 27.2933 80.1068 27.5206 79.6866 27.7725Z" fill="#F5F5F5"/>
<path d="M45.2015 27.6626C40.2416 28.4089 38.7752 24.2033 38.662 22.0071C39.1262 23.2742 40.866 25.556 44.1119 24.5468C44.7783 24.2536 45.201 23.3691 46.0822 24.8232C46.2042 25.0733 46.5018 25.4663 46.7167 25.038C46.9219 24.629 47.0818 23.6688 47.1444 23.1802C47.1467 23.1582 47.1494 23.1363 47.1525 23.1146C47.4366 22.8656 48.5696 22.6482 50.8286 23.7702C53.6523 25.1727 54.6576 27.5778 58.5258 26.122C62.3939 24.6662 67.6119 25.7198 69.8414 23.517C70.3065 23.0574 70.7688 22.7101 71.2094 22.4509C71.2891 22.0035 71.8225 21.554 72.0793 21.3852C72.6672 21.0531 73.8279 20.2609 73.7671 19.7493C73.6911 19.1097 72.2906 18.9696 77.0008 18.0787C81.7111 17.1878 77.7777 17.6287 78.5581 15.8095C79.3385 13.9903 81.3167 13.4014 81.6692 12.6403C81.6823 12.6119 81.6982 12.5861 81.7166 12.5627C81.7541 12.5151 81.8018 12.4776 81.8571 12.4491C82.0941 12.2737 82.4986 12.0401 82.9207 11.9913C83.576 11.9155 83.3362 11.2949 83.6256 10.469C83.8571 9.80827 85.5281 9.55264 86.3346 9.50742C85.7829 9.76341 85.4906 9.98764 85.3673 10.1956C84.7049 11.3125 88.9188 11.9591 83.9975 14.5322C82.0835 15.533 81.4058 16.1197 81.0918 16.6346C80.8226 17.0761 80.8207 17.4648 80.5363 18.0163C80.1406 18.7832 79.1984 19.865 76.2299 21.8418C68.6376 26.898 74.2527 24.3037 70.1621 26.2174C66.0715 28.1312 62.3825 26.9008 56.2045 29.4161C52.4479 30.9455 51.4839 29.6217 49.9115 28.5588C48.8979 27.8736 47.6316 27.2969 45.2015 27.6626Z" fill="#799235"/>
<path d="M56.2439 29.408C52.4873 30.9374 51.5233 29.6136 49.9509 28.5507C49.6593 28.3536 49.3468 28.1655 48.9917 28.0062C48.7451 27.8956 48.478 27.7988 48.1831 27.7227C47.9248 27.656 47.6453 27.605 47.3396 27.5743C47.3399 27.578 47.3374 27.5779 47.3319 27.5736C46.7434 27.5151 46.058 27.5316 45.241 27.6545C41.9315 28.1525 40.1774 26.4458 39.3429 24.6025C40.4213 25.1377 42.8784 26.2191 44.0794 26.2633C45.2803 26.3075 44.6278 25.132 44.1513 24.5387C45.3825 24.7584 47.3303 27.4778 47.3396 27.5743C47.6453 27.605 47.9248 27.656 48.1831 27.7227C47.2999 26.9988 46.6558 25.7389 46.4441 25.1994C46.5493 25.2483 46.6609 25.2199 46.7561 25.03C46.8006 24.9414 46.8429 24.8268 46.8826 24.6968C47.0261 24.227 47.1348 23.5549 47.1838 23.1722C47.1861 23.1502 47.1889 23.1283 47.192 23.1066C47.1894 23.1274 47.1867 23.1493 47.1838 23.1722C47.0014 24.873 48.9439 27.4581 49.9509 28.5507C49.8766 27.9251 48.0361 26.485 48.5026 25.7519C48.9691 25.0188 50.942 26.2496 52.5147 26.4406C54.0874 26.6317 53.0817 28.8845 54.7746 28.6888C56.1288 28.5322 57.9129 28.5455 58.6356 28.5717C59.7141 28.2565 60.7135 28.0472 61.6551 27.8933C61.7975 27.87 61.9386 27.848 62.0784 27.8271C64.2242 27.4508 68.2116 26.179 69.8807 23.509C70.3459 23.0494 70.8081 22.7021 71.2488 22.4429C72.4975 21.7081 73.573 21.68 74.0512 21.8022C74.2222 21.9985 74.1516 22.5542 72.5019 23.2059C70.8522 23.8577 71.2158 24.6513 71.6039 24.9667L71.8746 25.3817C72.0928 25.1941 71.2514 25.34 74.2214 23.2347C74.7475 22.444 74.164 20.5763 73.8065 19.7413C73.7305 19.1018 72.3299 18.9617 77.0402 18.0708C76.7651 19.4832 75.8162 22.4933 74.2214 23.2347C71.2514 25.34 72.0928 25.1941 71.8746 25.3817C71.7672 25.4741 71.4031 25.6472 70.2015 26.2094C67.5821 27.4348 65.1274 27.371 62.0784 27.8271C61.9277 27.8535 61.7861 27.8755 61.6551 27.8933C60.7135 28.0472 59.7141 28.2565 58.6356 28.5717C57.8797 28.7926 57.0848 29.0656 56.2439 29.408Z" fill="#6C8634"/>
<path d="M85.4066 10.1877C84.7443 11.3046 88.9581 11.9512 84.0368 14.5244C82.1229 15.5251 81.4452 16.1118 81.1312 16.6267C81.0633 15.5895 81.2755 13.4605 82.6667 13.242C84.2084 12.9999 82.5402 12.1096 81.8964 12.4413C81.8391 12.4837 81.7916 12.5227 81.756 12.5549C81.7934 12.5072 81.8412 12.4697 81.8964 12.4413C82.1335 12.2658 82.5379 12.0322 82.96 11.9834C83.6153 11.9077 83.3755 11.287 83.6649 10.4612C83.8965 9.80045 85.5674 9.54483 86.3739 9.4996C85.8222 9.75559 85.5299 9.97982 85.4066 10.1877Z" fill="#6C8634"/>
<path d="M82.0151 8.20506C83.091 9.06047 85.3514 9.5724 86.347 9.72144C85.5405 9.76666 83.8695 10.0223 83.638 10.6831C83.3486 11.509 83.5884 12.1297 82.9331 12.2055C82.4088 12.2661 81.9119 12.6117 81.729 12.777C81.7106 12.8003 81.6947 12.8261 81.6816 12.8545C81.3808 13.504 79.8963 14.0281 78.9824 15.2982C78.8252 15.5166 78.6849 15.7571 78.5704 16.024C77.79 17.8433 81.7234 17.4024 77.0131 18.2934C72.3028 19.1844 73.7034 19.3245 73.7793 19.9641C73.8401 20.4758 72.6794 21.268 72.0915 21.6002C71.8347 21.769 71.3013 22.2185 71.2216 22.6659C70.781 22.9252 70.3187 23.2725 69.8535 23.7321C67.6241 25.9351 62.406 24.8814 58.5378 26.3373C54.6695 27.7932 53.6642 25.3879 50.8405 23.9853C48.5815 22.8633 47.4485 23.0807 47.1643 23.3297C47.1086 23.7924 46.9433 24.825 46.7285 25.2533C46.5136 25.6816 46.216 25.2885 46.094 25.0385C45.2128 23.5842 44.7901 24.4688 44.1237 24.762C40.8778 25.7713 39.1379 23.4893 38.6737 22.2221C38.1842 18.1001 41.8325 13.8599 43.2375 17.2997C44.6424 20.7395 46.9136 17.9553 48.6302 15.1632C50.3469 12.3711 55.9124 11.2232 56.531 13.169C57.1496 15.1147 61.6006 11.5742 64.2218 11.2711C66.843 10.968 68.596 13.1428 71.1968 14.0668C73.7976 14.9909 72.695 11.3 74.8158 10.0461C76.9366 8.79227 80.6702 7.13579 82.0151 8.20506Z" fill="#B2AD4F"/>
<path d="M74.8762 10.0413C76.9971 8.78665 80.7312 7.12907 82.0762 8.19905C82.9069 8.85987 84.4436 9.31585 85.5593 9.55803C84.9139 9.71824 83.3441 9.92507 82.2271 9.47067C80.831 8.90267 80.8836 9.34633 79.0267 9.56115C77.1699 9.77597 77.9633 10.3965 76.5726 10.3411C75.1819 10.2858 75.5072 11.6265 74.893 12.0494C74.4017 12.3878 73.8661 11.901 73.6597 11.6153C73.9023 10.999 74.2477 10.4131 74.8762 10.0413Z" fill="#8CA449"/>
<path d="M64.2811 11.2671C66.9026 10.9638 68.6557 13.1401 71.2568 14.0647C71.1456 14.9936 71.2086 16.8311 72.3506 16.7498C73.7779 16.6482 75.7366 16.3581 76.2827 16.2949C76.5452 16.2645 77.2222 16.0229 77.881 15.7673C77.8034 15.8905 77.4563 16.2007 76.6893 16.4555C75.7306 16.7742 71.3879 17.5014 69.6442 17.2706C67.9005 17.0398 69.5047 15.6286 68.7992 14.3491C68.0937 13.0695 67.97 13.4271 67.5748 12.8961C67.1796 12.365 67.7893 13.3038 66.0709 13.2863C64.3526 13.2689 64.6842 12.7979 63.3616 12.3828C62.039 11.9677 61.3955 12.6102 61.046 12.9305C60.7663 13.1866 60.5086 12.8994 60.4147 12.7237C59.82 13.003 59.2451 13.2667 58.7278 13.4565C57.6558 13.8499 56.8309 13.9259 56.5896 13.1663C56.7939 15.4736 59.4174 19.8321 68.2764 18.8072C67.9442 18.9629 66.8775 19.3354 65.2677 19.5793C63.2555 19.8842 58.7597 19.3229 56.4565 17.6428C54.1533 15.9628 55.8289 14.6875 54.7327 13.3811C54.008 12.5175 53.3496 12.36 52.9845 12.4019C52.9215 12.4171 52.8584 12.4332 52.7952 12.4501C51.9649 12.6717 51.1149 13.0334 50.3747 13.5139C49.6803 13.9645 49.0825 14.5197 48.688 15.1618C48.3376 17.3411 48.9084 21.8698 53.994 22.5503C46.1296 23.4601 44.7315 19.1435 44.1138 19.0708C43.4962 18.9981 42.6393 17.3756 42.1884 16.8424C41.7376 16.3092 41.4874 17.9328 40.8916 17.5777C39.6484 16.8056 38.9328 20.3545 38.7305 22.2255C38.2409 18.1007 41.8896 13.8576 43.2947 17.2997C44.6998 20.7418 46.9712 17.9558 48.688 15.1618C49.0825 14.5197 49.6803 13.9645 50.3747 13.5139C51.1149 13.0334 51.9649 12.6717 52.7952 12.4501C52.8439 12.4283 52.9077 12.4107 52.9845 12.4019C54.6934 11.988 56.2762 12.18 56.5896 13.1663C56.8309 13.9259 57.6558 13.8499 58.7278 13.4565C59.2451 13.2667 59.82 13.003 60.4147 12.7237C61.7459 12.0984 63.1761 11.3949 64.2811 11.2671Z" fill="#8CA449"/>
<path d="M58.8221 26.3665C54.954 27.822 53.9488 25.4173 51.1252 24.015C51.7106 23.3853 52.2345 23.4814 54.1101 22.581C54.2944 22.4925 51.4623 21.245 52.3662 21.4141C53.27 21.5831 55.3736 20.2775 55.5238 19.1043C55.7641 17.2276 60.2373 19.6398 61.0742 19.6957C63.8641 19.882 66.6142 20.1991 69.0456 18.7656C70.132 18.1251 70.5864 17.291 72.8759 17.4585C73.8591 17.4364 77.5079 16.6997 78.7742 15.3869C80.4944 13.6035 79.8225 11.0878 80.736 10.9317C82.8193 10.5756 83.6536 10.0182 83.8103 9.78399L86.6299 9.75472C85.8234 9.79993 84.1525 10.0555 83.921 10.7161C83.6316 11.5419 83.8714 12.1624 83.2161 12.2382C82.6919 12.2988 82.195 12.6443 82.0121 12.8095C81.9937 12.8329 81.9778 12.8586 81.9647 12.887C81.6639 13.5364 80.1796 14.0604 79.2656 15.3301C79.1085 15.5484 78.9682 15.7888 78.8537 16.0557C78.0733 17.8746 82.0065 17.4338 77.2965 18.3245C72.5864 19.2153 73.9869 19.3554 74.0628 19.9948C74.1236 20.5064 72.963 21.2984 72.3751 21.6305C72.1183 21.7993 71.5849 22.2486 71.5052 22.696C71.0646 22.9552 70.6024 23.3024 70.1373 23.7619C67.9079 25.9644 62.6901 24.9109 58.8221 26.3665Z" fill="#8AA344"/>
<path fill-rule="evenodd" clip-rule="evenodd" d="M49.8838 28.3982C49.8957 28.4061 49.9075 28.4141 49.9193 28.4221C49.9221 28.424 49.9248 28.4258 49.9276 28.4277C50.1228 28.5599 50.3087 28.6961 50.4917 28.8302C51.7791 29.7734 52.9292 30.616 56.2123 29.2794C59.4758 27.9507 62.0448 27.6672 64.3453 27.4133C66.3998 27.1866 68.2402 26.9835 70.1699 26.0807C71.8943 25.274 71.8939 25.2684 71.8853 25.153C71.8734 24.9947 71.846 24.6298 76.2377 21.7052C79.2062 19.7283 80.1485 18.6465 80.5441 17.8796C80.6806 17.6149 80.752 17.3877 80.8192 17.1742C80.891 16.9457 80.9579 16.7329 81.0944 16.5065C81.0962 16.5036 81.0979 16.5008 81.0996 16.4979C81.1026 16.493 81.1057 16.4881 81.1087 16.4831C81.4267 15.9718 82.1097 15.3867 84.0053 14.3955C87.3198 12.6625 86.4906 11.8034 85.7981 11.0859C85.4624 10.7381 85.1588 10.4236 85.3751 10.0589C85.4947 9.85719 85.7733 9.64017 86.2934 9.39371C86.3095 9.38607 86.3258 9.37841 86.3424 9.37072C86.3248 9.37171 86.3067 9.3728 86.2882 9.37399C85.4634 9.42733 83.8599 9.68604 83.6334 10.3323C83.5353 10.6121 83.498 10.8684 83.4661 11.0879C83.4037 11.5162 83.3618 11.8045 82.9285 11.8546C82.5299 11.9007 82.147 12.1115 81.906 12.2826C81.8918 12.2927 81.8781 12.3026 81.8649 12.3124C81.8096 12.3409 81.7619 12.3784 81.7244 12.426C81.7224 12.4286 81.7203 12.4313 81.7183 12.434C81.7025 12.4552 81.6887 12.4784 81.677 12.5036C81.54 12.7993 81.1576 13.0691 80.6953 13.3952C79.9679 13.9082 79.043 14.5606 78.5659 15.6728C78.2289 16.4585 78.7711 16.8226 79.1165 17.0545C79.5708 17.3596 79.6845 17.4359 77.0086 17.942C73.2373 18.6553 73.3834 18.8873 73.6305 19.2798C73.692 19.3775 73.7598 19.4851 73.7749 19.6126C73.8357 20.1243 72.675 20.9164 72.0871 21.2485C71.8328 21.4157 71.3073 21.8581 71.2197 22.3011C71.2188 22.3055 71.218 22.3098 71.2172 22.3142C71.2143 22.3159 71.2114 22.3176 71.2086 22.3193C70.7705 22.578 70.3113 22.9237 69.8492 23.3803C68.5732 24.641 66.3183 24.8351 63.8978 25.0434C62.0891 25.1991 60.1879 25.3627 58.5336 25.9853C55.7535 27.0316 54.4522 26.0836 52.8918 24.9468C52.2811 24.5018 51.6307 24.028 50.8364 23.6335C48.5971 22.5213 47.4643 22.7253 47.1679 22.9714C47.1653 22.9736 47.1628 22.9757 47.1603 22.9779C47.1572 22.9996 47.1545 23.0215 47.1522 23.0435C47.1461 23.0906 47.1392 23.142 47.1314 23.197C47.0584 23.712 46.9099 24.5317 46.7245 24.9013C46.5096 25.3296 46.212 24.9366 46.09 24.6865C45.4049 23.5559 44.9969 23.839 44.5361 24.1588C44.4042 24.2503 44.268 24.3448 44.1197 24.4101C40.9267 25.4029 39.191 23.2109 38.6935 21.9331C38.6853 21.9119 38.6774 21.891 38.6698 21.8704C38.671 21.8925 38.6722 21.9148 38.6737 21.9373C38.8129 24.1507 40.2994 28.2647 45.2094 27.5259C47.6111 27.1644 48.8761 27.7236 49.8838 28.3982ZM38.6979 21.9981C38.7776 23.087 39.1787 24.6079 40.1377 25.789C41.1339 27.0161 42.7334 27.8782 45.2063 27.5061C46.4234 27.3229 47.3502 27.3756 48.1003 27.5605C48.8009 27.7332 49.3463 28.0209 49.8291 28.3379C49.3295 27.7835 48.6386 26.9088 48.081 25.9659C47.7865 25.4678 47.529 24.9505 47.3565 24.451C47.2227 24.0638 47.14 23.6869 47.131 23.338C47.1 23.5412 47.0595 23.7759 47.0115 24.0063C46.938 24.3586 46.8463 24.7032 46.7424 24.9103C46.6876 25.0196 46.6254 25.0808 46.5581 25.1026C46.4902 25.1246 46.4226 25.1049 46.3615 25.065C46.2405 24.9861 46.1338 24.8218 46.0724 24.6961C45.8529 24.3339 45.6632 24.1197 45.4929 24.0052C45.3236 23.8914 45.1732 23.8758 45.0293 23.9124C44.8837 23.9494 44.7436 24.0399 44.5962 24.1415C44.5801 24.1527 44.5639 24.1639 44.5476 24.1752C44.4159 24.2666 44.278 24.3623 44.1279 24.4284C44.1272 24.4287 44.1265 24.4289 44.1257 24.4291C42.497 24.9356 41.2442 24.6165 40.3405 24.0104C39.4934 23.4424 38.954 22.623 38.6979 21.9981ZM47.1515 23.1987C47.1387 23.5826 47.2241 24.0062 47.3755 24.4446C47.5474 24.9423 47.8042 25.4585 48.0983 25.9558C48.6751 26.9312 49.3948 27.8336 49.897 28.3829C49.9082 28.3905 49.9194 28.398 49.9305 28.4055C50.1275 28.5387 50.3148 28.6758 50.4989 28.8107L50.5035 28.8141C50.6862 28.9479 50.8657 29.0794 51.0489 29.203C51.4182 29.4521 51.8016 29.6682 52.2525 29.8037C53.1535 30.0745 54.3287 30.0246 56.2047 29.2608C59.2963 28.0021 61.7653 27.6807 63.9716 27.4346C64.096 27.4207 64.2196 27.4071 64.3423 27.3935C66.3974 27.1667 68.2347 26.964 70.1613 26.0626C71.1849 25.5838 71.5992 25.3878 71.7653 25.2838C71.8491 25.2313 71.8628 25.2061 71.8656 25.1857C71.8669 25.1766 71.8663 25.1681 71.8654 25.1563C71.865 25.1516 71.8646 25.1464 71.8643 25.1404C71.8632 25.1206 71.8635 25.0968 71.8712 25.0664C71.8865 25.0062 71.9304 24.9231 72.0448 24.7937C72.1595 24.6641 72.3461 24.4865 72.649 24.2373C73.255 23.739 74.3283 22.9526 76.2265 21.6885C79.1946 19.712 80.1331 18.6325 80.5262 17.8704C80.662 17.6072 80.7329 17.3815 80.8001 17.1679L80.8084 17.1415C80.8781 16.9201 80.9464 16.7105 81.0825 16.4875C81.0844 16.4843 81.0863 16.4811 81.0883 16.478C81.0566 15.9583 81.0946 15.1772 81.3107 14.4955C81.5295 13.8051 81.9322 13.2134 82.6335 13.1033C82.8258 13.0731 82.9673 13.0329 83.0668 12.9866C83.1665 12.9402 83.2228 12.8882 83.2466 12.8352C83.2701 12.7827 83.2626 12.7271 83.23 12.6709C83.1973 12.6145 83.1394 12.5582 83.0639 12.5058C82.9129 12.4011 82.6936 12.3138 82.4719 12.2734C82.2708 12.2368 82.0694 12.239 81.9158 12.3003C81.9024 12.3098 81.8894 12.3192 81.8769 12.3285C81.8764 12.3288 81.876 12.3291 81.8755 12.3294C81.875 12.3297 81.8746 12.3299 81.8742 12.3302C81.8211 12.3575 81.7757 12.3933 81.7402 12.4384C81.7228 12.4605 81.7077 12.485 81.6952 12.512C81.6049 12.7071 81.4116 12.8891 81.1642 13.0799C81.0272 13.1856 80.8716 13.2953 80.7062 13.412C80.5736 13.5055 80.4347 13.6035 80.2939 13.7075C79.6586 14.1767 78.9724 14.7761 78.5844 15.6807C78.488 15.9054 78.465 16.0938 78.488 16.2533C78.5111 16.4128 78.5804 16.545 78.6713 16.657C78.7624 16.7692 78.8749 16.8609 78.9839 16.9391C79.0335 16.9747 79.0822 17.0074 79.1278 17.038L79.141 17.0469C79.1902 17.0799 79.2355 17.1106 79.2732 17.1397C79.3107 17.1685 79.3421 17.1968 79.3624 17.225C79.3829 17.2536 79.3937 17.2846 79.3849 17.3173C79.3765 17.3491 79.3509 17.3773 79.311 17.4039C79.2708 17.4308 79.2134 17.4579 79.1363 17.4862C78.8286 17.5993 78.1893 17.739 77.0124 17.9617C75.835 18.1844 75.04 18.36 74.511 18.5082C74.2465 18.5823 74.0489 18.6494 73.9035 18.7118C73.7578 18.7744 73.6657 18.8318 73.6111 18.8858C73.5571 18.9391 73.5402 18.9884 73.5428 19.0368C73.5455 19.0868 73.5691 19.1389 73.6031 19.197C73.62 19.2259 73.6389 19.2555 73.6585 19.2867C73.678 19.3178 73.698 19.3503 73.7165 19.3842C73.7535 19.4521 73.7849 19.5268 73.7948 19.6103C73.8109 19.7458 73.7461 19.8965 73.6358 20.0491C73.525 20.2023 73.3659 20.3609 73.1873 20.5131C72.8302 20.8175 72.3923 21.0991 72.0976 21.2656C71.9704 21.3493 71.7744 21.5027 71.6005 21.6905C71.434 21.8703 71.2897 22.0794 71.2431 22.2875C72.4805 21.5692 73.5449 21.5418 74.0221 21.6638C74.0241 21.6643 74.0259 21.6654 74.0272 21.6669C74.0718 21.7181 74.1003 21.7924 74.0917 21.8849C74.0831 21.9773 74.0376 22.0874 73.9355 22.2109C73.7314 22.4578 73.2994 22.7604 72.474 23.0865C71.6501 23.4121 71.3327 23.7717 71.267 24.0859C71.2013 24.3999 71.386 24.6737 71.5786 24.8302C71.5829 24.8337 71.5836 24.84 71.5801 24.8443C71.5766 24.8486 71.5703 24.8492 71.566 24.8457C71.3705 24.6869 71.1794 24.4062 71.2473 24.0817C71.3152 23.7573 71.6409 23.3942 72.4666 23.068C73.2909 22.7423 73.7191 22.4412 73.92 22.1982C74.0204 22.0768 74.0636 21.9704 74.0717 21.883C74.0797 21.7972 74.0539 21.7293 74.0141 21.6823C73.5393 21.5623 72.4753 21.5905 71.2377 22.3138C71.2374 22.3151 71.2372 22.3164 71.237 22.3177C71.2359 22.3235 71.2325 22.3285 71.2274 22.3314C70.7883 22.5898 70.3274 22.936 69.8633 23.3945C69.3026 23.9486 68.5548 24.297 67.6898 24.5312C66.8249 24.7655 65.8413 24.8859 64.8078 24.9829C64.5085 25.0109 64.2051 25.0371 63.8991 25.0634C62.0902 25.2191 60.1922 25.3825 58.5407 26.004C57.5717 26.3687 56.7807 26.4921 56.0949 26.4492C55.4089 26.4063 54.8295 26.1971 54.2837 25.8988C53.8067 25.638 53.3547 25.3087 52.88 24.9629C52.812 24.9134 52.7436 24.8635 52.6746 24.8135C52.123 24.4137 51.5318 24.0012 50.8275 23.6514C49.6995 23.0911 48.854 22.866 48.256 22.8115C47.6649 22.7576 47.3188 22.8708 47.1792 22.9882C47.1765 23.0072 47.1742 23.0264 47.1721 23.0457L47.1721 23.0461C47.1661 23.093 47.1592 23.1441 47.1515 23.1987ZM81.9749 12.2594C82.1224 12.2187 82.3001 12.2218 82.4755 12.2537C82.6995 12.2945 82.9216 12.3828 83.0753 12.4894C83.1522 12.5427 83.2126 12.601 83.2474 12.661C83.2823 12.7211 83.2917 12.7835 83.2649 12.8434C83.2383 12.9027 83.1771 12.9574 83.0754 13.0047C82.9735 13.0521 82.8299 13.0927 82.6367 13.1231C81.9468 13.2314 81.5479 13.8135 81.3298 14.5015C81.1185 15.1681 81.0782 15.931 81.1067 16.4487C81.4342 15.9381 82.1293 15.3538 83.9959 14.3778C85.2257 13.7348 85.8814 13.2138 86.1859 12.778C86.3378 12.5605 86.4018 12.365 86.4067 12.1865C86.4116 12.0079 86.3574 11.8444 86.2699 11.691C86.1822 11.5373 86.0613 11.3943 85.9335 11.257C85.8844 11.2042 85.8341 11.152 85.7843 11.1004C85.7053 11.0186 85.6277 10.9381 85.5586 10.8589C85.4456 10.7295 85.3524 10.6001 85.3088 10.4665C85.2649 10.3317 85.272 10.1934 85.3578 10.0487C85.477 9.84767 85.7474 9.63532 86.2393 9.39739C85.8394 9.42621 85.2782 9.50087 84.7777 9.63996C84.5048 9.7158 84.2509 9.81055 84.0511 9.92693C83.851 10.0435 83.7079 10.1803 83.6524 10.3389C83.5805 10.5438 83.5415 10.7362 83.5131 10.9112C83.5032 10.9727 83.4945 11.0324 83.4861 11.0898C83.4708 11.1947 83.4566 11.292 83.4378 11.379C83.4085 11.514 83.367 11.6287 83.2893 11.7143C83.211 11.8006 83.0981 11.8551 82.9309 11.8744C82.567 11.9165 82.2153 12.0979 81.9749 12.2594Z" fill="#F5F5F5"/>
<path fill-rule="evenodd" clip-rule="evenodd" d="M80.6364 7.72307C81.2099 7.69847 81.6983 7.79558 82.0374 8.0654C82.5736 8.49216 83.3993 8.77851 84.2167 8.9768C84.9467 9.15391 85.6687 9.2605 86.1695 9.33443C86.2292 9.34324 86.2858 9.35159 86.3388 9.35954C86.3443 9.36036 86.3481 9.36546 86.3473 9.37093C86.3465 9.3764 86.3414 9.38017 86.3359 9.37934C86.2829 9.3714 86.2263 9.36306 86.1667 9.35425C85.6659 9.28033 84.9429 9.17361 84.212 8.99626C83.3942 8.79785 82.5647 8.5107 82.0249 8.08105C81.6914 7.81561 81.2087 7.71857 80.6373 7.74308C80.0662 7.76757 79.408 7.91347 78.725 8.13218C77.3591 8.56958 75.896 9.29764 74.8358 9.92505C74.3079 10.2375 73.9802 10.7019 73.7452 11.2093C73.5695 11.5886 73.4459 11.9911 73.3289 12.372C73.2893 12.501 73.2504 12.6276 73.2105 12.7499C73.0533 13.2322 72.8803 13.6495 72.5821 13.8875C72.2846 14.125 71.865 14.1825 71.2196 13.9555C71.1654 14.4193 71.1549 15.1027 71.2978 15.6616C71.3699 15.9436 71.4808 16.193 71.644 16.3667C71.8067 16.54 72.0219 16.6384 72.3042 16.6183C73.3779 16.5418 74.7521 16.3586 75.5997 16.2456C75.8787 16.2084 76.1007 16.1788 76.2362 16.1632C76.2417 16.1625 76.2467 16.1665 76.2473 16.172C76.248 16.1775 76.244 16.1824 76.2385 16.1831C76.1035 16.1987 75.882 16.2282 75.6033 16.2654C74.7558 16.3783 73.3802 16.5617 72.3057 16.6383C72.0171 16.6588 71.7961 16.5579 71.6293 16.3804C71.4629 16.2032 71.3509 15.9501 71.2784 15.6665C71.1342 15.1025 71.1454 14.4138 71.2002 13.9486C70.2397 13.6058 69.3942 13.0926 68.5788 12.5976C68.292 12.4235 68.0089 12.2517 67.7258 12.0903C66.6351 11.4685 65.5438 11.0014 64.2363 11.1527C63.5825 11.2284 62.8138 11.5063 62.0183 11.8508C61.5656 12.0469 61.1049 12.2641 60.6521 12.4776C60.3087 12.6396 59.9698 12.7994 59.6422 12.9463C58.8833 13.2865 58.1856 13.5571 57.6385 13.6204C57.3649 13.6521 57.1279 13.6321 56.9394 13.542C56.7711 13.4616 56.6425 13.3258 56.5612 13.1232C56.6884 14.2706 57.4021 15.887 59.1469 17.1068C60.9332 18.3556 63.8013 19.1893 68.2294 18.6767C68.2349 18.6761 68.2399 18.68 68.2406 18.6855C68.2412 18.691 68.2373 18.696 68.2318 18.6966C63.8003 19.2096 60.9269 18.3756 59.1354 17.1232C57.3446 15.8713 56.636 14.202 56.5332 13.0449C56.3798 12.5636 55.9206 12.2719 55.287 12.1498C54.6531 12.0276 53.8472 12.0758 53.0063 12.2722C51.3241 12.665 49.5062 13.6501 48.6497 15.0447C48.2204 15.7437 47.7562 16.4424 47.2795 17.0435C46.8029 17.6444 46.3133 18.1483 45.8329 18.4571C45.3524 18.7659 44.8795 18.8805 44.4378 18.6994C43.9967 18.5186 43.5899 18.044 43.2382 17.1822C42.8877 16.3231 42.3988 15.9469 41.8723 15.9253C41.3447 15.9036 40.7748 16.2378 40.2622 16.8102C39.2375 17.9548 38.4486 20.0449 38.693 22.1055C38.6937 22.111 38.6898 22.1159 38.6843 22.1166C38.6788 22.1172 38.6738 22.1133 38.6731 22.1078C38.428 20.0415 39.2187 17.9456 40.2473 16.7969C40.7614 16.2226 41.3366 15.8833 41.8731 15.9053C42.4106 15.9273 42.9048 16.3118 43.2568 17.1747C43.6077 18.0347 44.0118 18.5032 44.4454 18.6809C44.8785 18.8584 45.3443 18.7472 45.822 18.4402C46.2997 18.1332 46.7877 17.6313 47.2638 17.031C47.7398 16.4308 48.2034 15.7329 48.6326 15.0342C49.493 13.6334 51.3167 12.6462 53.0017 12.2527C53.8443 12.0559 54.6532 12.0072 55.2908 12.1301C55.9281 12.253 56.3964 12.5478 56.5527 13.0399C56.6293 13.2811 56.7648 13.4364 56.9481 13.524C57.1317 13.6117 57.3645 13.632 57.6362 13.6006C58.1797 13.5376 58.8748 13.2683 59.6339 12.928C59.9606 12.7815 60.2993 12.6218 60.6427 12.4599C61.0961 12.2461 61.5576 12.0285 62.0102 11.8325C62.806 11.4879 63.577 11.2089 64.2339 11.1329C65.548 10.9808 66.644 11.4506 67.7357 12.0729C68.0198 12.2349 68.3035 12.4071 68.5907 12.5814C69.4078 13.0774 70.2529 13.5904 71.2145 13.9324C71.8631 14.1631 72.2778 14.1048 72.5695 13.8718C72.8625 13.638 73.0341 13.2264 73.1914 12.7437C73.2311 12.622 73.2698 12.4959 73.3094 12.3671C73.4265 11.9859 73.5507 11.5815 73.727 11.2009C73.963 10.6913 74.293 10.223 74.8256 9.90782C75.8865 9.27991 77.3511 8.55111 78.7188 8.11311C79.4027 7.89412 80.0628 7.74767 80.6364 7.72307Z" fill="#F5F5F5"/>
<path fill-rule="evenodd" clip-rule="evenodd" d="M83.7007 9.51873C83.7053 9.5218 83.7066 9.52801 83.7035 9.5326C83.6633 9.59271 83.5806 9.67235 83.4473 9.76344C83.3139 9.85466 83.1292 9.95775 82.8845 10.0646C82.395 10.2782 81.6647 10.5068 80.6223 10.6851C80.3998 10.7231 80.2722 10.9047 80.1801 11.1897C80.1092 11.4091 80.0602 11.6872 80.0045 12.0028C79.9879 12.097 79.9706 12.1947 79.9521 12.2951C79.7908 13.1672 79.5283 14.2449 78.666 15.1392C78.3482 15.4687 77.8814 15.7617 77.3454 16.016C76.8092 16.2705 76.2031 16.4866 75.606 16.6623C74.4121 17.0136 73.253 17.2036 72.7602 17.2146L72.7592 17.2146L72.7592 17.2146C71.6158 17.1309 70.9317 17.2975 70.398 17.5643C70.1309 17.6978 69.9012 17.8565 69.6701 18.0222C69.6408 18.0432 69.6114 18.0643 69.582 18.0855C69.3794 18.2314 69.172 18.3808 68.9345 18.5209C66.6745 19.8537 64.1397 19.6757 61.5571 19.4942C61.3572 19.4802 61.157 19.4661 60.9566 19.4527C60.8506 19.4457 60.688 19.4014 60.4852 19.3338C60.282 19.266 60.0375 19.1744 59.7671 19.0721C59.7302 19.0581 59.6928 19.0439 59.655 19.0296C59.1383 18.8337 58.5387 18.6064 57.9553 18.4315C57.3289 18.2437 56.7226 18.1168 56.2583 18.1536C56.0263 18.172 55.8307 18.2311 55.6858 18.3431C55.5412 18.4549 55.4462 18.62 55.4164 18.8524C55.3786 19.1484 55.2177 19.4518 54.9846 19.7374C54.7514 20.0231 54.4453 20.2918 54.1159 20.5182C53.7864 20.7447 53.4332 20.9292 53.1056 21.0466C52.7783 21.1638 52.4753 21.2144 52.2468 21.1717C52.1904 21.1611 52.1493 21.1562 52.1212 21.1561C52.1072 21.156 52.097 21.1572 52.0901 21.1591C52.0829 21.1611 52.081 21.1635 52.0805 21.1644C52.0801 21.1651 52.0794 21.1671 52.0819 21.1723C52.0843 21.1775 52.0891 21.1841 52.0969 21.1923C52.1125 21.2085 52.1377 21.2287 52.1714 21.2522C52.3063 21.3464 52.5692 21.489 52.8555 21.6401C52.9264 21.6775 52.9986 21.7154 53.0707 21.7532C53.2893 21.8679 53.506 21.9815 53.6757 22.077C53.7885 22.1404 53.8809 22.196 53.9395 22.2386C53.9685 22.2598 53.9902 22.2784 54.0016 22.2937C54.0071 22.3012 54.0115 22.3094 54.0113 22.3178C54.0112 22.3275 54.0052 22.3343 53.997 22.3382C53.2216 22.7106 52.6769 22.9128 52.2637 23.0661C52.1769 23.0983 52.0959 23.1284 52.0198 23.1574C51.5817 23.3245 51.3061 23.4573 51.0149 23.7707C51.0111 23.7747 51.0048 23.7749 51.0007 23.7712C50.9966 23.7674 50.9964 23.7611 51.0001 23.757C51.2944 23.4403 51.5735 23.3062 52.0126 23.1387C52.0889 23.1096 52.1699 23.0795 52.2568 23.0473C52.6699 22.894 53.2137 22.6921 53.9883 22.3202C53.9914 22.3187 53.9913 22.3177 53.9913 22.3175L53.9913 22.3174C53.9913 22.3158 53.9903 22.3121 53.9855 22.3056C53.976 22.293 53.9566 22.2759 53.9277 22.2548C53.8701 22.2129 53.7786 22.1578 53.6659 22.0944C53.4965 21.9991 53.2802 21.8856 53.0616 21.771C52.9895 21.7332 52.9171 21.6952 52.8461 21.6577C52.5603 21.5069 52.2961 21.3637 52.1599 21.2686C52.1259 21.2449 52.0994 21.2238 52.0824 21.2061C52.074 21.1972 52.0674 21.1887 52.0637 21.1807C52.0599 21.1727 52.0583 21.1636 52.0627 21.1552C52.0669 21.1471 52.0753 21.1425 52.0846 21.1399C52.0941 21.1372 52.1064 21.136 52.1213 21.1361C52.1511 21.1362 52.1937 21.1414 52.2504 21.152C52.4738 21.1938 52.7728 21.1445 53.0988 21.0277C53.4246 20.9111 53.7762 20.7274 54.1045 20.5018C54.4327 20.2761 54.7373 20.0087 54.969 19.7247C55.2009 19.4407 55.3593 19.1407 55.3965 18.8498C55.4269 18.6129 55.5242 18.4427 55.6735 18.3273C55.8226 18.2121 56.0224 18.1522 56.2567 18.1337C56.7249 18.0966 57.3344 18.2245 57.961 18.4123C58.5451 18.5874 59.1454 18.815 59.662 19.0108C59.6998 19.0252 59.7373 19.0394 59.7742 19.0534C60.0447 19.1557 60.2888 19.2472 60.4915 19.3148C60.6945 19.3825 60.8548 19.4259 60.9579 19.4328C61.158 19.4461 61.3578 19.4602 61.5573 19.4742C64.1413 19.6556 66.6699 19.8332 68.9242 18.5037C69.1609 18.3641 69.3676 18.2152 69.5702 18.0693C69.5996 18.0481 69.629 18.027 69.6584 18.0059C69.8896 17.8402 70.1203 17.6806 70.3889 17.5464C70.9264 17.2777 71.6142 17.1108 72.7602 17.1946C73.2508 17.1835 74.4076 16.994 75.6003 16.6431C76.1967 16.4676 76.8018 16.2518 77.3367 15.998C77.8718 15.7441 78.3361 15.4524 78.6515 15.1253C79.5095 14.2355 79.7712 13.1628 79.9323 12.2914C79.9508 12.1916 79.968 12.0943 79.9845 12.0003C80.0403 11.6843 80.0897 11.4044 80.161 11.1835C80.2536 10.897 80.3847 10.7054 80.6189 10.6653C81.66 10.4873 82.3887 10.2591 82.8764 10.0462C83.1202 9.93982 83.3038 9.8373 83.436 9.74694C83.5683 9.65644 83.6487 9.57851 83.6868 9.52148C83.6899 9.51689 83.6961 9.51565 83.7007 9.51873Z" fill="#F5F5F5"/>
<path d="M19.3183 18.1542C13.8245 19.1185 12.2417 16.2829 12.1371 14.7446C12.6387 15.5969 14.542 17.052 18.1421 16.0537C18.882 15.7882 19.3579 15.1272 20.3192 16.0746C20.4517 16.2401 20.7773 16.4909 21.019 16.17C21.2498 15.8635 21.4358 15.1724 21.5095 14.8224C21.5123 14.8067 21.5155 14.791 21.5192 14.7754C21.8358 14.5748 23.0912 14.3214 25.5796 14.9129C28.6901 15.6522 29.7797 17.2591 34.0724 15.8911C38.3652 14.523 44.1276 14.8049 46.6146 13.0549C47.1335 12.6898 47.648 12.4042 48.1379 12.1825C48.2303 11.86 48.8246 11.496 49.1102 11.3543C49.7637 11.0682 51.0551 10.4072 50.9926 10.0518C50.9146 9.60762 49.3666 9.63256 54.5856 8.58837C59.8046 7.54418 55.4492 8.20247 56.3295 6.85097C57.2099 5.49947 59.4038 4.90952 59.8008 4.34175C59.8157 4.32059 59.8335 4.301 59.854 4.28291C59.8959 4.24599 59.9491 4.21535 60.0105 4.19039C60.2744 4.04579 60.7239 3.84536 61.1914 3.77366C61.917 3.66236 61.6575 3.24598 61.9854 2.63814C62.2478 2.15186 64.0986 1.82404 64.9913 1.72091C64.3785 1.95013 64.0531 2.13404 63.9147 2.29153C63.1715 3.13748 67.827 3.22111 62.3587 5.47C60.2321 6.3446 59.4769 6.81815 59.1247 7.20888C58.8227 7.54394 58.817 7.81811 58.4972 8.23205C58.0523 8.8077 56.9998 9.65365 53.6975 11.3096C45.2512 15.5449 51.4871 13.2199 46.944 14.9305C42.401 16.641 38.3316 16.0994 31.4737 18.4185C27.3037 19.8286 26.2497 18.9805 24.5202 18.37C23.4054 17.9765 22.0099 17.6817 19.3183 18.1542Z" fill="#539435"/>
<path d="M31.5194 18.4144C27.3494 19.8245 26.2954 18.9763 24.566 18.3658C24.2452 18.2526 23.9013 18.1476 23.51 18.0667C23.2382 18.0104 22.9436 17.9659 22.618 17.9382C22.333 17.914 22.0242 17.9028 21.6863 17.9081C21.6867 17.9107 21.6839 17.9108 21.6779 17.9083C21.0274 17.9191 20.269 17.9912 19.3641 18.15C15.6984 18.7934 13.7739 17.7451 12.868 16.5193C14.056 16.8013 16.764 17.3467 18.0921 17.2718C19.4202 17.1969 18.7093 16.4258 18.1879 16.0496C19.5478 16.0957 21.677 17.8409 21.6863 17.9081C22.0242 17.9028 22.333 17.914 22.618 17.9382C21.6479 17.5059 20.9471 16.6745 20.718 16.3128C20.834 16.338 20.9576 16.3081 21.0647 16.1659C21.1148 16.0994 21.1627 16.0149 21.2078 15.9198C21.3709 15.5758 21.4975 15.0924 21.5553 14.8183C21.5581 14.8026 21.5613 14.7869 21.5649 14.7713C21.562 14.7862 21.5587 14.8019 21.5553 14.8183C21.3375 16.0335 23.4622 17.6845 24.566 18.3658C24.4896 17.9313 22.467 17.0786 22.99 16.5205C23.5129 15.9625 25.6839 16.6559 27.4219 16.6517C29.1598 16.6475 28.0263 18.3246 29.9007 18.0371C31.4003 17.8071 33.3738 17.6589 34.1731 17.6135C35.369 17.296 36.4766 17.0602 37.5196 16.8685C37.6774 16.8395 37.8337 16.8115 37.9886 16.7844C40.3658 16.3296 44.7888 15.0807 46.6603 13.0509C47.1792 12.6857 47.6937 12.4001 48.1836 12.1784C49.5719 11.5501 50.7619 11.4352 51.2898 11.4791C51.4771 11.6024 51.3938 12.0004 49.5627 12.6057C47.7316 13.2109 48.1265 13.7383 48.5528 13.9263L48.8484 14.195C49.0915 14.0435 48.1593 14.2207 51.4646 12.4741C52.054 11.8701 51.426 10.6049 51.0384 10.0478C50.9603 9.6036 49.4123 9.62854 54.6313 8.58437C54.3137 9.60445 53.2358 11.8105 51.4646 12.4741C48.1593 14.2207 49.0915 14.0435 48.8484 14.195C48.7287 14.2696 48.3243 14.4239 46.9898 14.9264C44.0807 16.0217 41.3658 16.1936 37.9886 16.7844C37.8217 16.8164 37.6648 16.8444 37.5196 16.8685C36.4766 17.0602 35.369 17.296 34.1731 17.6135C33.3347 17.836 32.4529 18.0987 31.5194 18.4144Z" fill="#447D3F"/>
<path d="M63.9604 2.28762C63.2172 3.13356 67.8727 3.21719 62.4044 5.46604C60.2778 6.34063 59.5226 6.81417 59.1704 7.2049C59.1051 6.47964 59.3597 4.95989 60.9007 4.68297C62.6086 4.37608 60.7715 3.89577 60.0562 4.18646C59.9924 4.22143 59.9394 4.25314 59.8997 4.27897C59.9416 4.24205 59.9948 4.21141 60.0562 4.18646C60.32 4.04185 60.7696 3.84143 61.2371 3.76973C61.9627 3.65843 61.7032 3.24206 62.0311 2.63422C62.2934 2.14796 64.1443 1.82014 65.0369 1.71701C64.4242 1.94622 64.0988 2.13013 63.9604 2.28762Z" fill="#447D3F"/>
<path d="M60.2264 1.19011C61.4086 1.69816 63.9043 1.85941 65.0043 1.87652C64.1117 1.97966 62.2608 2.30751 61.9985 2.79383C61.6706 3.40173 61.93 3.81815 61.2044 3.92946C60.6239 4.0185 60.071 4.30609 59.867 4.43875C59.8465 4.45684 59.8287 4.47643 59.8139 4.4976C59.4751 4.98209 57.828 5.48275 56.8051 6.45891C56.6291 6.62678 56.4717 6.80871 56.3425 7.00703C55.4622 8.35865 59.8176 7.70031 54.5985 8.74459C49.3795 9.78888 50.9275 9.76393 51.0055 10.2082C51.068 10.5636 49.7766 11.2247 49.123 11.5108C48.8374 11.6525 48.2431 12.0165 48.1508 12.339C47.6609 12.5607 47.1463 12.8464 46.6274 13.2116C44.1404 14.9617 38.3779 14.6798 34.0851 16.0479C29.7923 17.4161 28.7028 15.8091 25.5922 15.0697C23.1037 14.4781 21.8483 14.7315 21.5317 14.9322C21.4657 15.2633 21.2732 16.0059 21.0315 16.3269C20.7898 16.6478 20.4642 16.397 20.3317 16.2315C19.3704 15.284 18.8945 15.945 18.1546 16.2106C14.5544 17.2089 12.6511 15.7537 12.1495 14.9014C11.6466 12.0385 15.7222 8.72665 17.2442 11.0277C18.7661 13.3288 21.3047 11.1652 23.2298 9.04502C25.155 6.92483 31.3226 5.62391 31.9886 6.94108C32.6547 8.25824 37.6117 5.36883 40.5142 4.9236C43.4167 4.47836 45.3355 5.85682 48.2039 6.27854C51.0724 6.70026 49.8873 4.19546 52.2451 3.1241C54.6029 2.05275 58.7487 0.555043 60.2264 1.19011Z" fill="#A4B24F"/>
<path d="M52.309 3.11699C54.667 2.04488 58.8132 0.546122 60.291 1.18163C61.2038 1.57413 62.8994 1.75979 64.1313 1.83192C63.4159 2.00192 61.6774 2.28652 60.4461 2.06486C58.907 1.7878 58.961 2.09595 56.9049 2.41155C54.8488 2.72714 55.7207 3.09453 54.1828 3.17841C52.6449 3.26229 52.9922 4.17883 52.3088 4.53131C51.7621 4.81329 51.1742 4.51746 50.9486 4.33429C51.2227 3.87825 51.6103 3.43465 52.309 3.11699Z" fill="#76A449"/>
<path d="M40.5772 4.91775C43.4799 4.4722 45.3988 5.85162 48.2676 6.27364C48.1358 6.93841 48.1884 8.22838 49.4523 8.07012C51.0323 7.87229 53.2016 7.49463 53.8064 7.4018C54.0971 7.35718 54.8482 7.12699 55.5794 6.88851C55.4923 6.98225 55.1055 7.23162 54.2547 7.47912C53.1912 7.7885 48.3803 8.68515 46.4536 8.67653C44.5269 8.66791 46.3147 7.53116 45.5463 6.69135C44.7779 5.85153 44.6376 6.1146 44.2054 5.77513C43.7732 5.43566 44.4389 6.04366 42.5382 6.18322C40.6375 6.32279 41.0088 5.96144 39.5495 5.78565C38.0903 5.60987 37.3725 6.11982 36.9828 6.37649C36.6711 6.58182 36.3887 6.40207 36.2864 6.28652C35.626 6.53601 34.9876 6.77275 34.4135 6.95231C33.224 7.32438 32.3108 7.45093 32.0509 6.93665C32.2553 8.54542 35.1166 11.3865 44.9262 9.88083C44.5573 10.02 43.3737 10.3769 41.5907 10.6911C39.3619 11.0839 34.3939 11.0856 31.8618 10.1047C29.3297 9.12372 31.1952 8.07647 29.9948 7.25225C29.2013 6.70744 28.4744 6.65456 28.0701 6.71638C28.0003 6.73269 27.9303 6.7496 27.8602 6.76709C26.9397 6.99673 25.9961 7.32689 25.1727 7.73108C24.4004 8.11021 23.7339 8.55449 23.2914 9.04207C22.8834 10.6096 23.4723 13.7521 29.0917 13.7824C20.3836 15.119 18.8774 12.1991 18.1948 12.2025C17.5123 12.2058 16.5795 11.1376 16.0858 10.8015C15.5921 10.4654 15.3001 11.6323 14.6443 11.4346C13.2763 11.0001 12.4515 13.5655 12.2101 14.9025C11.7072 12.0376 15.7831 8.72348 17.3052 11.0262C18.8273 13.3288 21.3661 11.1637 23.2914 9.04207C23.7339 8.55449 24.4004 8.11021 25.1727 7.73108C25.9961 7.32689 26.9397 6.99673 27.8602 6.76709C27.9143 6.74745 27.985 6.72938 28.0701 6.71638C29.9644 6.27354 31.7135 6.26898 32.0509 6.93665C32.3108 7.45093 33.224 7.32438 34.4135 6.95231C34.9876 6.77275 35.626 6.53601 36.2864 6.28652C37.7649 5.72799 39.3536 5.10556 40.5772 4.91775Z" fill="#76A449"/>
<path d="M34.3973 16.0405C30.1047 17.4083 29.0152 15.8017 25.9047 15.0625C26.5583 14.5668 27.1369 14.5883 29.2202 13.7879C29.425 13.7092 26.3037 13.0799 27.3019 13.1192C28.3002 13.1585 30.6395 12.0523 30.8167 11.2119C31.1002 9.86756 36.0259 11.1732 36.9512 11.1386C40.0358 11.0236 43.0751 11.0043 45.7782 9.77889C46.986 9.23138 47.4966 8.60318 50.0277 8.51906C51.1156 8.41669 55.159 7.57506 56.5721 6.53765C58.4917 5.12844 57.7721 3.41418 58.784 3.22343C61.0921 2.78839 62.0202 2.32172 62.1957 2.14277L65.3152 1.87311C64.4226 1.97622 62.5718 2.30398 62.3095 2.79016C61.9816 3.39788 62.241 3.81418 61.5154 3.92546C60.935 4.01448 60.382 4.30198 60.1781 4.43461C60.1576 4.45269 60.1398 4.47228 60.1249 4.49344C59.7862 4.9778 58.1392 5.47831 57.1163 6.4542C56.9404 6.62202 56.7829 6.80389 56.6537 7.00216C55.7735 8.3534 60.1287 7.69524 54.9098 8.73923C49.691 9.78321 51.239 9.75828 51.317 10.2024C51.3794 10.5577 50.0881 11.2186 49.4346 11.5046C49.149 11.6463 48.5547 12.0102 48.4623 12.3326C47.9725 12.5543 47.4579 12.8398 46.939 13.2049C44.4522 14.9546 38.6899 14.6727 34.3973 16.0405Z" fill="#76A449"/>
<path d="M36.6055 6.29111C36.6531 6.27311 36.7007 6.25507 36.7485 6.23701C38.1404 5.71001 39.5858 5.16281 40.7135 4.98946C42.1444 4.76949 43.3335 4.99796 44.5282 5.337C44.8362 5.42441 45.1455 5.51954 45.4598 5.6162C46.3317 5.88432 47.2419 6.16423 48.269 6.32403C48.2168 6.65916 48.2124 7.11071 48.3611 7.48146C48.4443 7.68908 48.5777 7.87623 48.782 7.99937C48.9867 8.1227 49.2512 8.17502 49.5841 8.13324C50.7753 7.98376 52.3027 7.73196 53.2411 7.57728C53.44 7.54448 53.6125 7.51605 53.7496 7.49388C53.0408 7.65447 51.9394 7.86892 50.7766 8.06224C49.1994 8.32445 47.5227 8.54542 46.569 8.54161C46.3322 8.54066 46.1582 8.52231 46.0321 8.49153C45.9055 8.46064 45.8353 8.41922 45.7963 8.3784C45.7243 8.30303 45.7236 8.18853 45.7796 7.99055C45.7961 7.93224 45.8151 7.87399 45.8353 7.81207C45.8487 7.77131 45.8625 7.72896 45.8765 7.68397C45.9104 7.57461 45.9426 7.45706 45.9585 7.33655C45.9906 7.09201 45.9558 6.83104 45.7379 6.59324C45.3478 6.1675 45.1095 6.01313 44.9073 5.92414C44.8471 5.89768 44.7948 5.87833 44.7457 5.8602C44.6274 5.81646 44.5283 5.77982 44.3852 5.66757C44.3323 5.62617 44.2897 5.59384 44.2555 5.57401C44.224 5.55582 44.1692 5.52958 44.1088 5.55417C44.0825 5.56488 44.0646 5.58189 44.0536 5.59405C44.0429 5.60576 44.0332 5.61923 44.0261 5.62905L44.0258 5.62948L44.0243 5.63154C44.0092 5.65246 43.9934 5.6743 43.9687 5.69933C43.869 5.80035 43.5905 5.98459 42.6471 6.0542C41.7029 6.12387 41.3339 6.06821 41.0229 5.97832C40.952 5.95782 40.8828 5.93502 40.8097 5.91098C40.5547 5.82708 40.2537 5.72806 39.6782 5.65909C38.9343 5.56996 38.375 5.65493 37.9498 5.79737C37.5512 5.93094 37.274 6.11416 37.0808 6.2418C37.0684 6.25003 37.0563 6.25803 37.0445 6.26576C36.9139 6.35172 36.7953 6.355 36.6992 6.3286C36.6654 6.31931 36.6339 6.30617 36.6055 6.29111ZM28.9986 6.62994C29.6489 6.51804 30.2556 6.46656 30.7608 6.48532C31.1133 6.4984 31.4113 6.54551 31.6387 6.62696C31.8589 6.7058 32.0012 6.81237 32.0717 6.93974C32.1891 7.79149 32.9963 8.9152 34.97 9.63893C36.7722 10.2997 39.5573 10.6328 43.7195 10.1278C43.1797 10.2631 42.4955 10.4143 41.6872 10.557C40.5819 10.752 38.7903 10.8513 36.9577 10.7794C35.1235 10.7074 33.2623 10.4642 32.0127 9.98136C31.3876 9.73977 31.0487 9.4993 30.8652 9.27098C30.685 9.0468 30.6462 8.82413 30.6463 8.59409C30.6463 8.50968 30.6514 8.42731 30.6567 8.34229C30.6588 8.30821 30.661 8.27369 30.6628 8.23845C30.6691 8.11833 30.6717 7.99345 30.6536 7.86885C30.6161 7.61152 30.4917 7.36684 30.1684 7.14526C29.7503 6.85873 29.3486 6.70393 28.9986 6.62994ZM20.308 11.7555C21.302 11.2721 22.3323 10.3214 23.2393 9.34972C23.1285 10.1299 23.2607 11.1479 23.9689 12.0207C24.6798 12.8967 25.9574 13.6096 28.1076 13.7984C24.4169 14.2477 22.1787 13.8744 20.7808 13.3685C20.0162 13.0919 19.4997 12.7744 19.1309 12.5256C19.0632 12.4799 18.9992 12.4355 18.9391 12.3939C18.8378 12.3238 18.7475 12.2613 18.6689 12.2125C18.5455 12.1358 18.4248 12.0749 18.3074 12.0756C18.1617 12.0763 17.9935 12.0195 17.8091 11.9185C17.6259 11.8181 17.4355 11.6791 17.2474 11.5267C17.0884 11.3978 16.9336 11.2615 16.7877 11.133C16.7611 11.1096 16.7349 11.0865 16.7089 11.0637C16.5425 10.9175 16.3868 10.7835 16.2572 10.6955C16.1813 10.6439 16.1034 10.6176 16.024 10.6167C15.9455 10.6159 15.8742 10.64 15.8104 10.6751C15.6919 10.7404 15.5814 10.8551 15.4798 10.9604C15.476 10.9644 15.4722 10.9683 15.4684 10.9722C15.3582 11.0865 15.2536 11.1932 15.1393 11.2617C15.0295 11.3274 14.9176 11.3539 14.7878 11.3151C14.4098 11.1956 14.0694 11.2854 13.7757 11.5003C13.4855 11.7126 13.2381 12.0481 13.0311 12.4305C12.7541 12.9423 12.5417 13.5522 12.395 14.1015C12.5022 12.9519 13.2507 11.8071 14.1771 11.0818C14.7407 10.6404 15.3585 10.3643 15.9199 10.3339C16.4748 10.3038 16.9788 10.5127 17.3375 11.0547C17.7298 11.6477 18.196 11.9636 18.7111 12.0569C19.2222 12.1495 19.7649 12.0197 20.308 11.7555ZM52.4722 3.17815C53.6483 2.64378 55.27 2.00324 56.7802 1.57562C57.5354 1.36177 58.2601 1.20195 58.8858 1.13469C59.5151 1.06704 60.0295 1.09485 60.3738 1.24254C60.8426 1.44365 61.5053 1.58916 62.1992 1.69346C62.6306 1.75831 63.0771 1.80765 63.5014 1.84433C63.2274 1.88945 62.9168 1.93199 62.5911 1.96318C61.9166 2.02775 61.1848 2.0429 60.5825 1.93492C59.8044 1.79542 59.4203 1.8022 58.9694 1.88696C58.8191 1.9152 58.6659 1.95087 58.4903 1.99172C58.138 2.0737 57.6959 2.17659 57.008 2.28233C55.9692 2.44201 55.6601 2.61641 55.4158 2.76605L55.4005 2.77541C55.2916 2.84218 55.203 2.89652 55.0565 2.94151C54.9009 2.98928 54.6762 3.02738 54.2952 3.0483C53.901 3.06996 53.6191 3.14525 53.4085 3.25701C53.1965 3.36951 53.0632 3.51547 52.9613 3.66669C52.9109 3.74138 52.8681 3.81763 52.828 3.88992L52.8176 3.90864C52.7809 3.97498 52.7463 4.03735 52.7081 4.09688C52.626 4.22495 52.5309 4.33335 52.3804 4.41089C52.1339 4.53796 51.8766 4.53622 51.6503 4.47917C51.4681 4.43321 51.31 4.3522 51.2017 4.2792C51.4653 3.86421 51.8343 3.46796 52.4722 3.17815Z" stroke="#F5F5F5" stroke-width="0.2" stroke-linecap="round" stroke-linejoin="round"/>
<path d="M30.0292 18.0981C31.0789 17.9368 32.3628 17.8154 33.3107 17.7416C32.7586 17.9024 32.1878 18.0812 31.5964 18.2812C29.5183 18.984 28.2278 19.1205 27.2471 19.0113C26.5129 18.9295 25.9516 18.7114 25.3495 18.4775C25.1585 18.4033 24.9634 18.3275 24.7573 18.2539C24.7319 18.1924 24.6872 18.1346 24.6386 18.0826C24.5715 18.0107 24.4833 17.9358 24.3858 17.8599C24.2786 17.7765 24.1508 17.6851 24.021 17.5922C23.9202 17.5201 23.8182 17.4472 23.7237 17.3764C23.4986 17.2079 23.3047 17.0441 23.1979 16.8937C23.1449 16.8192 23.1196 16.7565 23.116 16.7046C23.1127 16.6571 23.1268 16.6087 23.1756 16.5567C23.2784 16.4472 23.4767 16.3866 23.777 16.3731C24.072 16.3599 24.4394 16.3929 24.8516 16.4441C25.0402 16.4675 25.2379 16.4948 25.4413 16.5228C26.1196 16.6163 26.8608 16.7185 27.536 16.7166C27.9539 16.7154 28.181 16.8148 28.3236 16.9443C28.4624 17.0702 28.5339 17.2338 28.6139 17.4167C28.6192 17.4286 28.6244 17.4406 28.6297 17.4527C28.7131 17.6425 28.8116 17.853 29.0256 17.9881C29.2404 18.1239 29.5503 18.1717 30.0292 18.0981ZM48.6123 13.9685L48.7876 14.1277C48.7144 14.16 48.6071 14.2039 48.4503 14.2652C48.1681 14.3756 47.7339 14.5396 47.0662 14.7909C44.9331 15.594 42.9094 15.8982 40.6379 16.2397C40.624 16.2418 40.6102 16.2439 40.5963 16.246C41.2681 16.0528 41.972 15.8243 42.6647 15.5608C44.3014 14.9381 45.8895 14.1146 46.8424 13.0868C47.3534 12.7283 47.8599 12.4477 48.3419 12.2296C49.6896 11.6199 50.843 11.5008 51.3675 11.5357C51.3736 11.544 51.3748 11.5527 51.373 11.5642C51.3683 11.5936 51.3398 11.6545 51.2329 11.7444C51.0216 11.9222 50.5581 12.1682 49.6444 12.4703C49.1824 12.623 48.8551 12.7725 48.6316 12.9161C48.4099 13.0586 48.2792 13.2023 48.2305 13.3484C48.1792 13.502 48.2244 13.6393 48.3096 13.7455C48.3882 13.8435 48.5018 13.9178 48.6123 13.9685ZM52.0012 9.24953C52.5601 9.10541 53.3881 8.92189 54.5986 8.67792C54.4236 9.17867 54.0974 9.88939 53.6265 10.5646C53.1636 11.2282 52.5666 11.8496 51.8436 12.2084C51.9674 11.8993 51.9296 11.5258 51.8302 11.1778C51.6974 10.7124 51.4451 10.256 51.2485 9.97028C51.2299 9.89819 51.187 9.84044 51.1469 9.79606C51.1243 9.77101 51.1003 9.74789 51.0788 9.72753C51.0744 9.72336 51.0702 9.71934 51.0661 9.71545C51.0491 9.69947 51.0344 9.68557 51.0209 9.67173C50.9928 9.64298 50.9847 9.62844 50.9824 9.62354C50.9856 9.61785 50.9957 9.60495 51.0242 9.58486C51.0769 9.54786 51.1718 9.50179 51.3324 9.44522C51.4914 9.38921 51.7086 9.32497 52.0012 9.24953ZM50.981 9.62691C50.9809 9.62695 50.981 9.62642 50.9815 9.62535L50.981 9.62691ZM18.7637 16.291C18.7187 16.2433 18.6707 16.1969 18.6215 16.1524C19.2788 16.2619 19.9609 16.6181 20.5071 16.9916C20.8237 17.208 21.0903 17.4272 21.2747 17.6009C21.3504 17.6722 21.4112 17.7348 21.4555 17.7856C20.8757 17.8124 20.2165 17.8854 19.4553 18.0192C18.3146 18.2197 17.3467 18.2549 16.5289 18.1727C14.8994 18.0088 13.8627 17.3787 13.2348 16.6524C13.8324 16.7875 14.6717 16.9592 15.5242 17.0982C16.5158 17.2598 17.5346 17.3786 18.2108 17.3402C18.548 17.321 18.7787 17.2575 18.9153 17.1493C18.9861 17.0933 19.0322 17.0248 19.0521 16.9464C19.0717 16.8691 19.0639 16.7902 19.0408 16.7153C18.9955 16.5686 18.8865 16.421 18.7637 16.291Z" stroke="#F5F5F5" stroke-width="0.2" stroke-linecap="round" stroke-linejoin="round"/>
<path fill-rule="evenodd" clip-rule="evenodd" d="M24.5942 18.3251C24.6086 18.3301 24.623 18.3352 24.6374 18.3402C24.6406 18.3414 24.6438 18.3425 24.6469 18.3436C24.8614 18.4196 25.0657 18.4991 25.2668 18.5774C26.6821 19.1287 27.9465 19.6211 31.5909 18.3888C35.2136 17.1637 38.0581 16.7369 40.6054 16.3548C42.8802 16.0134 44.918 15.7077 47.0612 14.9007C48.9764 14.1796 48.976 14.1757 48.9675 14.0951C48.9559 13.9846 48.929 13.7297 53.8147 11.2798C57.117 9.62391 58.1695 8.77795 58.6144 8.20231C58.7679 8.00364 58.849 7.83717 58.9253 7.68071C59.0067 7.51357 59.0826 7.35786 59.2353 7.18652C59.2374 7.18406 59.2396 7.1816 59.2419 7.17914C59.2449 7.17577 59.248 7.17239 59.2511 7.16901C59.6072 6.78021 60.3676 6.30731 62.4759 5.44025C66.1587 3.92564 65.2495 3.39317 64.4902 2.9485C64.1221 2.73292 63.7893 2.53798 64.0319 2.26177C64.1643 2.11108 64.468 1.9362 65.0307 1.72058C65.0561 1.71086 65.082 1.70105 65.1084 1.69116C65.0816 1.69426 65.0539 1.69756 65.0254 1.70106C64.106 1.81414 62.3571 2.13672 62.1026 2.60838C61.9915 2.81433 61.9479 2.99829 61.9105 3.15586C61.8375 3.46336 61.7883 3.67032 61.3086 3.74391C60.8754 3.81035 60.4576 3.98731 60.1887 4.12798C60.1674 4.13912 60.147 4.15003 60.1277 4.16064C60.0663 4.1856 60.0131 4.21624 59.9712 4.25316C59.9687 4.25536 59.9663 4.25758 59.9638 4.25982C59.9464 4.27603 59.931 4.2934 59.918 4.312C59.7637 4.53263 59.3381 4.75662 58.8236 5.02734C58.0142 5.45328 56.985 5.99491 56.4467 6.82122C56.0665 7.40495 56.663 7.61376 57.0429 7.74675C57.5426 7.92167 57.6676 7.96543 54.7027 8.55862C50.5241 9.39467 50.6835 9.54533 50.9532 9.80018C51.0203 9.86363 51.0943 9.93353 51.1098 10.0221C51.1723 10.3774 49.8809 11.0385 49.2273 11.3246C48.9455 11.4644 48.3632 11.8206 48.259 12.1399C48.2576 12.1442 48.2563 12.1484 48.2551 12.1527C48.2521 12.1541 48.249 12.1554 48.246 12.1568C47.7589 12.3779 47.2474 12.6623 46.7317 13.0252C45.3084 14.0268 42.8121 14.3628 40.1325 14.7234C38.1302 14.993 36.0255 15.2763 34.1896 15.8613C31.1044 16.8446 29.6738 16.2911 27.9583 15.6275C27.2868 15.3677 26.5718 15.0911 25.6968 14.8831C23.23 14.2968 21.9749 14.5407 21.6448 14.7404C21.6419 14.7422 21.6391 14.7439 21.6363 14.7456C21.6327 14.7612 21.6295 14.7769 21.6267 14.7926C21.6199 14.8247 21.6122 14.8596 21.6037 14.8968C21.5185 15.266 21.3459 15.8618 21.1362 16.1402C20.8945 16.4611 20.5689 16.2103 20.4363 16.0448C19.689 15.3083 19.235 15.5439 18.7223 15.81C18.5755 15.8862 18.4239 15.9648 18.2593 16.0239C14.7121 17.0075 12.8122 15.6094 12.2773 14.7528C12.2693 14.74 12.2616 14.7274 12.2542 14.7148C12.2552 14.7294 12.2564 14.7441 12.2576 14.7589C12.3892 16.3065 13.9937 19.0796 19.4355 18.1244C22.0924 17.658 23.4864 17.9393 24.5942 18.3251ZM24.6027 18.307C24.6164 18.3118 24.6301 18.3166 24.6438 18.3214C24.863 18.3988 25.071 18.4798 25.2756 18.5595C25.8805 18.7951 26.4551 19.0189 27.2008 19.1024C28.1977 19.214 29.5005 19.0744 31.584 18.3699C35.0147 17.2097 37.7479 16.7652 40.1907 16.3968C40.3285 16.376 40.4654 16.3555 40.6015 16.3351C42.8768 15.9937 44.9126 15.6883 47.0538 14.8821C48.1902 14.4542 48.651 14.2792 48.8363 14.1909C48.8826 14.1688 48.9104 14.1528 48.927 14.1401C48.9434 14.1276 48.9468 14.12 48.9478 14.1154C48.9484 14.1126 48.9486 14.1094 48.9482 14.1046C48.9481 14.1022 48.9478 14.0997 48.9475 14.0966C48.9472 14.0937 48.9468 14.0903 48.9465 14.0867C48.9454 14.0715 48.9461 14.0531 48.9555 14.0294C48.9737 13.9838 49.024 13.9209 49.1512 13.82C49.2791 13.7186 49.487 13.5771 49.8244 13.3747C50.4991 12.97 51.6936 12.3209 53.8053 11.262C57.1078 9.60595 58.1565 8.76168 58.5983 8.18996C58.7506 7.9929 58.831 7.82795 58.9072 7.67155L58.9167 7.65215C58.9959 7.48972 59.0738 7.33533 59.2267 7.16566C59.2279 7.16436 59.2291 7.16304 59.2303 7.16173C59.2007 6.79731 59.2506 6.24432 59.4956 5.7455C59.7449 5.23796 60.1961 4.78644 60.9702 4.64734C61.1834 4.60903 61.3408 4.56809 61.4519 4.52645C61.5634 4.48462 61.6264 4.44269 61.653 4.40355C61.666 4.38433 61.67 4.36615 61.6673 4.34884C61.6644 4.33132 61.6544 4.31343 61.6369 4.29539C61.6018 4.25909 61.5387 4.22454 61.4553 4.19417C61.289 4.13358 61.0468 4.09132 60.8014 4.0824C60.5848 4.07453 60.3667 4.09268 60.1969 4.14648C60.1762 4.15727 60.1565 4.16786 60.1377 4.17816C60.137 4.17852 60.1363 4.17885 60.1356 4.17914C60.0757 4.2035 60.0246 4.2331 59.9847 4.2682C59.9653 4.28537 59.9485 4.30383 59.9346 4.3236C59.8833 4.39709 59.8036 4.46989 59.7032 4.54353C59.6026 4.61729 59.4801 4.69262 59.3422 4.77091C59.1896 4.85756 59.0167 4.94852 58.8328 5.0453C58.6853 5.12294 58.5306 5.20433 58.3736 5.29023C57.6655 5.67759 56.901 6.161 56.4637 6.83229C56.3554 6.99863 56.3296 7.1308 56.3528 7.23724C56.376 7.34381 56.4491 7.42916 56.5483 7.49988C56.6476 7.57063 56.771 7.62531 56.891 7.67092C56.9456 7.69165 56.9992 7.71039 57.0492 7.72793L57.0639 7.73306C57.1179 7.75199 57.1678 7.76964 57.2092 7.78676C57.2501 7.80369 57.285 7.8209 57.3077 7.83956C57.3192 7.84895 57.3291 7.85984 57.3345 7.87263C57.3402 7.88617 57.3404 7.90044 57.3346 7.91433C57.3291 7.92749 57.3187 7.93927 57.3053 7.95011C57.2917 7.96105 57.2739 7.97195 57.2519 7.98302C57.2079 8.00515 57.1448 8.02907 57.0596 8.05574C56.719 8.16238 56.0114 8.31724 54.7071 8.5782C53.4024 8.83923 52.5211 9.03337 51.9341 9.18467C51.6405 9.26032 51.4209 9.32518 51.2589 9.38225C51.0966 9.43942 50.9934 9.48835 50.9318 9.53171C50.8699 9.57525 50.8543 9.60989 50.8563 9.63813C50.8585 9.66866 50.8813 9.70078 50.9187 9.73912C50.9335 9.7543 50.9498 9.76966 50.9668 9.78578C50.9708 9.78957 50.9749 9.79339 50.979 9.79726C51.0002 9.81746 51.0223 9.83877 51.0426 9.86134C51.0832 9.90628 51.1189 9.95796 51.1297 10.019C51.1386 10.0699 51.123 10.1239 51.0912 10.1786C51.0593 10.2334 51.01 10.291 50.948 10.3498C50.8241 10.4676 50.6468 10.5933 50.448 10.7163C50.0504 10.9623 49.5635 11.1994 49.2362 11.3427C49.0943 11.4131 48.8757 11.5388 48.6812 11.6868C48.5839 11.7608 48.4931 11.8401 48.421 11.9206C48.3581 11.9908 48.3104 12.0609 48.2846 12.1284C49.6597 11.5128 50.8364 11.3998 51.3619 11.4435C51.3629 11.4435 51.3638 11.4438 51.3647 11.4441C51.3654 11.4444 51.3661 11.4447 51.3667 11.4451C51.4162 11.4777 51.4487 11.5294 51.4379 11.5981C51.4272 11.6657 51.375 11.7478 51.2612 11.8436C51.0334 12.0355 50.5533 12.2868 49.6375 12.5895C49.1802 12.7407 48.8624 12.8868 48.6495 13.0237C48.4365 13.1607 48.3297 13.2877 48.2923 13.4001C48.2551 13.5118 48.2859 13.6108 48.3525 13.694C48.4195 13.7776 48.5225 13.845 48.6282 13.8916C48.6333 13.8938 48.6357 13.8997 48.6335 13.9048C48.6314 13.9098 48.6254 13.9121 48.6203 13.9098C48.5129 13.8624 48.4066 13.7933 48.3369 13.7062C48.2668 13.6188 48.2334 13.5128 48.2731 13.3935C48.3126 13.2749 48.4237 13.1448 48.6383 13.0068C48.8531 12.8687 49.1726 12.722 49.6308 12.5705C50.5462 12.268 51.0232 12.0176 51.248 11.8283C51.3605 11.7336 51.4084 11.6553 51.418 11.5946C51.4272 11.5361 51.4008 11.4922 51.358 11.4631C50.8328 11.4202 49.6534 11.5342 48.2756 12.1545C48.2752 12.1558 48.2748 12.1572 48.2745 12.1585C48.2729 12.164 48.269 12.1685 48.2638 12.1709C47.775 12.3921 47.2615 12.6772 46.7436 13.0416C46.119 13.4811 45.2899 13.7923 44.3319 14.0336C43.3737 14.2749 42.2852 14.4466 41.1411 14.6063C40.8099 14.6525 40.474 14.6977 40.1353 14.7433C38.1329 15.0128 36.0302 15.2959 34.1961 15.8804C32.0466 16.5654 30.697 16.5061 29.495 16.1818C28.9699 16.0401 28.4732 15.8479 27.9512 15.646C27.8765 15.6171 27.8013 15.588 27.7254 15.5589C27.119 15.3257 26.4687 15.0871 25.6925 14.9025C24.4496 14.6071 23.5154 14.5229 22.853 14.5373C22.1991 14.5516 21.8123 14.6619 21.6542 14.7583C21.6514 14.771 21.6488 14.7837 21.6465 14.7965L21.6464 14.7971L21.6464 14.7971C21.6397 14.8288 21.6321 14.8634 21.6236 14.9002C21.6051 15.1715 21.6951 15.4627 21.8589 15.7591C22.044 16.0943 22.323 16.4352 22.6436 16.7597C23.2695 17.3933 24.0528 17.9636 24.6027 18.307ZM21.6013 14.9938C21.6065 15.2424 21.6952 15.5042 21.8412 15.7685C22.0277 16.1059 22.308 16.4483 22.6294 16.7736C23.2301 17.3817 23.9751 17.9313 24.521 18.2789C23.4223 17.9063 22.0287 17.6489 19.4316 18.1048C16.6882 18.5863 14.9251 18.1185 13.8355 17.342C12.784 16.5927 12.3567 15.5541 12.2812 14.7959C12.849 15.6635 14.7555 17.0163 18.2651 16.0432C18.2655 16.043 18.266 16.0429 18.2665 16.0427C18.4325 15.9832 18.5853 15.9038 18.7319 15.8277C18.75 15.8183 18.768 15.809 18.786 15.7997C18.9498 15.7151 19.1067 15.6383 19.2699 15.5989C19.4325 15.5597 19.6012 15.5577 19.7883 15.6233C19.9757 15.689 20.1828 15.823 20.4214 16.058C20.4892 16.1423 20.6064 16.249 20.7392 16.2938C20.8063 16.3165 20.8781 16.3236 20.9494 16.3032C21.0209 16.2827 21.0899 16.2353 21.1524 16.1524C21.2699 15.9964 21.3748 15.7444 21.4595 15.4893C21.5165 15.3173 21.5647 15.143 21.6013 14.9938ZM60.2838 4.10233C60.4394 4.06718 60.6216 4.0559 60.8018 4.06245C61.0486 4.07143 61.2931 4.11392 61.4619 4.17544C61.5462 4.20612 61.6128 4.24197 61.6513 4.28171C61.6707 4.30169 61.6835 4.32322 61.6871 4.34608C61.6908 4.36916 61.6851 4.39231 61.6697 4.41492C61.6395 4.45942 61.5714 4.50309 61.4593 4.54514C61.3467 4.58737 61.188 4.62857 60.9742 4.66699C60.2073 4.80481 59.7607 5.25164 59.5137 5.75454C59.2748 6.24099 59.2227 6.77985 59.2489 7.14154C59.6137 6.75169 60.385 6.27841 62.4679 5.42178C63.8349 4.85957 64.566 4.43387 64.9071 4.09949C65.0776 3.93246 65.1483 3.79049 65.1552 3.66782C65.1621 3.54575 65.1059 3.43805 65.0113 3.33845C64.9164 3.23861 64.7847 3.1488 64.6445 3.06319C64.5908 3.0304 64.5357 2.99809 64.4811 2.96612C64.3944 2.91533 64.3091 2.86538 64.2333 2.81562C64.1101 2.73463 64.0063 2.65067 63.9581 2.55784C63.9336 2.51072 63.9233 2.46096 63.9322 2.40848C63.941 2.35629 63.9685 2.3032 64.0166 2.24848C64.088 2.1672 64.2063 2.08053 64.3824 1.98577C64.5283 1.90728 64.7146 1.8228 64.9483 1.73098C64.5088 1.78788 63.9108 1.88796 63.3746 2.02543C63.0715 2.10311 62.7889 2.19257 62.566 2.29264C62.4546 2.34267 62.3586 2.39515 62.2825 2.44983C62.2063 2.50462 62.1513 2.56087 62.1204 2.61807C62.0394 2.7682 61.9947 2.9066 61.9618 3.03198C61.9503 3.0757 61.9402 3.11829 61.9304 3.1594C61.9124 3.2351 61.8956 3.30576 61.8738 3.36914C61.8396 3.46829 61.7921 3.55355 61.7052 3.62083C61.6188 3.68783 61.4952 3.73554 61.312 3.76364C60.9252 3.82298 60.5501 3.97123 60.2838 4.10233Z" fill="#F5F5F5"/>
<path fill-rule="evenodd" clip-rule="evenodd" d="M58.8093 1.03374C59.4431 0.965773 59.9816 0.991009 60.3536 1.15105C60.943 1.40463 61.8543 1.53356 62.7568 1.60111C63.5629 1.66144 64.3608 1.67274 64.9141 1.68058C64.98 1.68151 65.0425 1.6824 65.1011 1.68331C65.1067 1.6834 65.1112 1.68794 65.1112 1.69346C65.1112 1.69898 65.1068 1.70339 65.1012 1.7033C65.0426 1.70239 64.9802 1.7015 64.9142 1.70057C64.361 1.69273 63.5624 1.68142 62.7557 1.62104C61.8531 1.55349 60.9388 1.42444 60.3459 1.16937C59.9789 1.0115 59.4449 0.985737 58.8119 1.05362C58.1793 1.12146 57.4493 1.28265 56.6916 1.4973C55.1761 1.9266 53.5505 2.56942 52.3717 3.10559C51.3451 3.57255 50.9926 4.31166 50.6816 4.96393C50.6365 5.05839 50.5923 5.15103 50.5471 5.24076C50.3684 5.59519 50.1729 5.9048 49.8412 6.09879C49.5108 6.29201 49.047 6.3696 48.3338 6.26591C48.2696 6.59731 48.2519 7.07865 48.4041 7.45858C48.4808 7.65007 48.6005 7.8153 48.7788 7.92298C48.957 8.03064 49.1948 8.08145 49.5091 8.04208C50.6978 7.89318 52.2199 7.64247 53.1586 7.48785C53.4675 7.43697 53.7132 7.39649 53.8631 7.37348C53.8686 7.37263 53.8738 7.37638 53.8747 7.38183C53.8757 7.38729 53.872 7.39239 53.8666 7.39323C53.717 7.4162 53.4715 7.45664 53.1628 7.50748C52.2242 7.66208 50.7011 7.91296 49.512 8.06191C49.1943 8.10171 48.9516 8.05058 48.7685 7.94C48.5855 7.82944 48.4633 7.66014 48.3854 7.46564C48.2313 7.08113 48.2494 6.59617 48.3138 6.26297C47.2558 6.10625 46.3263 5.81949 45.4297 5.54283C45.114 5.44542 44.8023 5.34927 44.4906 5.26049C43.29 4.91859 42.0861 4.68542 40.6368 4.90798C39.9121 5.01927 39.0587 5.28338 38.1753 5.59663C37.6727 5.77487 37.161 5.96881 36.6579 6.15947C36.2766 6.30399 35.9002 6.44663 35.5366 6.57911C34.6939 6.88614 33.9201 7.13837 33.3152 7.23126C33.0128 7.2777 32.7517 7.28446 32.5449 7.23782C32.3578 7.1956 32.2145 7.10946 32.1259 6.96908C32.2534 7.76433 33.0249 8.84276 34.9476 9.54989C36.9124 10.2726 40.0784 10.6068 44.9825 9.8537C44.988 9.85286 44.9932 9.8566 44.9941 9.86205C44.9951 9.86751 44.9914 9.87261 44.986 9.87346C40.0801 10.6268 36.9103 10.293 34.9409 9.56862C32.973 8.84484 32.2024 7.73046 32.0986 6.92075C32.0167 6.75993 31.8505 6.63787 31.6164 6.55216C31.3816 6.46621 31.0796 6.4173 30.7292 6.40224C30.0283 6.37211 29.1356 6.47745 28.2031 6.69039C27.2707 6.9033 26.299 7.22369 25.4403 7.62337C24.5814 8.02311 23.8362 8.50185 23.3561 9.03116C22.3933 10.0925 21.2762 11.166 20.2086 11.6858C19.6748 11.9458 19.1523 12.0678 18.6672 11.9795C18.1818 11.8912 17.7354 11.5926 17.3537 11.0148C16.9753 10.4421 16.4388 10.2189 15.8538 10.2504C15.2682 10.2819 14.6336 10.5688 14.0613 11.0176C12.9165 11.9156 12.026 13.4579 12.2767 14.8861C12.2776 14.8916 12.274 14.8967 12.2685 14.8975C12.263 14.8984 12.2578 14.8946 12.2568 14.8892C12.0045 13.4511 12.9006 11.9024 14.0486 11.0019C14.6228 10.5515 15.2612 10.2622 15.8523 10.2304C16.444 10.1986 16.9878 10.4249 17.3705 11.0041C17.7498 11.5782 18.1916 11.8727 18.6705 11.9599C19.1497 12.047 19.6677 11.9268 20.1995 11.6679C21.2633 11.1499 22.3783 10.0789 23.341 9.01762C23.8236 8.48558 24.5714 8.0055 25.4314 7.60524C26.2916 7.2049 27.2646 6.88409 28.1982 6.6709C29.1318 6.45772 30.0264 6.35204 30.7296 6.38226C31.0812 6.39737 31.3855 6.44648 31.623 6.53342C31.8605 6.62033 32.0325 6.74553 32.1174 6.91363C32.1989 7.07502 32.3462 7.17258 32.549 7.21833C32.7522 7.26416 33.0104 7.25779 33.3118 7.2115C33.9145 7.11895 34.6865 6.86738 35.5293 6.56032C35.8923 6.42808 36.2686 6.28549 36.6499 6.14096C37.1534 5.95017 37.6657 5.756 38.1682 5.57779C39.0517 5.26447 39.9066 4.99981 40.6333 4.88822C42.0868 4.66503 43.2939 4.89902 44.4957 5.24128C44.8083 5.3303 45.1205 5.4266 45.4364 5.52409C46.3357 5.80156 47.2662 6.08864 48.327 6.24477C49.043 6.35014 49.5042 6.27243 49.8307 6.08152C50.1573 5.89053 50.3507 5.58533 50.5291 5.23152C50.5741 5.14219 50.6181 5.04981 50.6631 4.95547C50.9742 4.30301 51.3296 3.55746 52.363 3.08739C53.5424 2.55093 55.169 1.90771 56.6857 1.47807C57.444 1.26325 58.1752 1.10175 58.8093 1.03374Z" fill="#F5F5F5"/>
<path fill-rule="evenodd" clip-rule="evenodd" d="M62.1835 2.02817C62.1876 2.03205 62.1877 2.03838 62.1839 2.04229C62.1388 2.08821 62.0468 2.15153 61.8988 2.2274C61.7505 2.30339 61.5455 2.3923 61.2739 2.48916C60.7308 2.68288 59.9212 2.90852 58.7667 3.12621C58.5175 3.17321 58.3749 3.31366 58.2711 3.52131C58.1908 3.68191 58.1341 3.88173 58.0695 4.10906C58.0502 4.17706 58.0302 4.24752 58.0087 4.32013C57.8218 4.94999 57.521 5.7335 56.5587 6.44019C56.2043 6.70045 55.6857 6.94805 55.0906 7.17464C54.4953 7.4013 53.823 7.60715 53.161 7.78372C51.8372 8.13684 50.5537 8.37309 50.0089 8.42437L50.0083 8.42443L50.0083 8.42441C48.7436 8.46646 47.9843 8.64447 47.3905 8.88006C47.0936 8.9979 46.8378 9.13022 46.5806 9.26745C46.5479 9.28486 46.5153 9.30235 46.4825 9.3199C46.2571 9.44065 46.0263 9.56422 45.7624 9.68392C43.2511 10.8227 40.4502 10.9211 37.5947 11.0214C37.3738 11.0291 37.1525 11.0369 36.931 11.0452C36.8144 11.0495 36.6354 11.0328 36.4116 11.003C36.1877 10.9732 35.9181 10.9302 35.6199 10.8819C35.5792 10.8753 35.538 10.8686 35.4962 10.8619C34.9265 10.7694 34.2652 10.6621 33.6214 10.5904C32.9302 10.5133 32.26 10.4773 31.7451 10.5444C31.4876 10.5779 31.2698 10.6371 31.1077 10.7293C30.9459 10.8213 30.8401 10.946 30.8054 11.1107C30.7604 11.3242 30.5788 11.5528 30.3186 11.7745C30.0581 11.9965 29.7171 12.2128 29.3508 12.4015C28.9844 12.5902 28.5923 12.7513 28.2292 12.8629C27.8663 12.9744 27.5316 13.0365 27.2804 13.0266C27.2181 13.0242 27.1723 13.0243 27.1408 13.0268C27.1251 13.028 27.1133 13.0297 27.105 13.0319C27.0984 13.0336 27.0951 13.0353 27.0937 13.0363C27.0937 13.0364 27.0938 13.0365 27.0939 13.0366C27.096 13.0393 27.1008 13.0433 27.1095 13.0485C27.1264 13.0585 27.1541 13.0705 27.1913 13.0841C27.3397 13.1386 27.6293 13.216 27.9445 13.2972C28.0226 13.3173 28.1022 13.3376 28.1816 13.3579C28.4223 13.4195 28.661 13.4804 28.8477 13.5327C28.9719 13.5675 29.0735 13.5985 29.1378 13.6234C29.1697 13.6357 29.1936 13.6469 29.2063 13.6569C29.2096 13.6595 29.2126 13.6623 29.2148 13.6654C29.217 13.6685 29.2188 13.6725 29.2187 13.6772C29.2183 13.6872 29.2095 13.6923 29.2027 13.6949C28.3416 14.0259 27.7374 14.2165 27.2789 14.3611C27.1826 14.3915 27.0927 14.4199 27.0082 14.4471C26.5216 14.6037 26.2149 14.7219 25.8895 14.9688C25.8851 14.9721 25.8788 14.9712 25.8753 14.9668C25.8719 14.9624 25.8727 14.9562 25.877 14.9529C26.2052 14.7038 26.5146 14.5848 27.0016 14.428C27.0862 14.4008 27.1761 14.3724 27.2725 14.342C27.731 14.1974 28.3346 14.007 29.1951 13.6763C29.196 13.6759 29.1967 13.6756 29.1973 13.6754C29.1965 13.6746 29.1955 13.6736 29.194 13.6725C29.184 13.6646 29.1629 13.6543 29.1309 13.6419C29.0676 13.6175 28.9668 13.5867 28.8426 13.5519C28.6561 13.4997 28.4178 13.4388 28.1771 13.3773C28.0977 13.357 28.018 13.3366 27.9398 13.3165C27.625 13.2354 27.3342 13.1578 27.1846 13.1028C27.1472 13.0891 27.1181 13.0766 27.0994 13.0656C27.0902 13.0601 27.0826 13.0545 27.078 13.0485C27.0756 13.0454 27.0735 13.0416 27.0731 13.0372C27.0726 13.0324 27.074 13.0281 27.0767 13.0246C27.0815 13.0185 27.0902 13.0149 27.0995 13.0125C27.1095 13.01 27.1226 13.0081 27.1389 13.0068C27.1715 13.0043 27.2182 13.0042 27.2808 13.0067C27.5287 13.0164 27.8608 12.955 28.2229 12.8438C28.5848 12.7326 28.9758 12.5719 29.3412 12.3837C29.7067 12.1955 30.0462 11.98 30.3053 11.7592C30.5648 11.5382 30.7421 11.3131 30.7857 11.1063C30.8218 10.9348 30.932 10.806 31.0975 10.7119C31.2627 10.6179 31.4834 10.5583 31.7421 10.5246C32.2595 10.4572 32.9317 10.4934 33.6232 10.5705C34.2676 10.6423 34.9293 10.7497 35.499 10.8422C35.5407 10.8489 35.582 10.8556 35.6228 10.8622C35.921 10.9105 36.1903 10.9534 36.4139 10.9832C36.6378 11.013 36.8152 11.0295 36.9299 11.0252C37.1511 11.017 37.3721 11.0092 37.5928 11.0014C40.4492 10.9011 43.2462 10.8028 45.7537 9.66573C46.017 9.54632 46.2471 9.42307 46.4726 9.30231C46.5054 9.28476 46.5381 9.26725 46.5708 9.24982C46.8281 9.11253 47.0847 8.97977 47.3827 8.8615C47.979 8.62489 48.7406 8.44659 50.0069 8.40447C50.5503 8.35327 51.8324 8.11733 53.1554 7.76443C53.817 7.58797 54.4886 7.38231 55.083 7.15598C55.6776 6.92959 56.1943 6.68274 56.5465 6.42406C57.504 5.7209 57.8031 4.94196 57.9894 4.31414C58.0107 4.24229 58.0305 4.17231 58.0498 4.10458C58.1144 3.87681 58.1718 3.67454 58.253 3.51215C58.3589 3.30051 58.5058 3.15501 58.7626 3.10659C59.9163 2.88904 60.7249 2.66364 61.2668 2.47035C61.5377 2.3737 61.7419 2.28512 61.8892 2.20962C62.0368 2.13399 62.1265 2.07182 62.1693 2.02822C62.1731 2.02431 62.1795 2.02428 62.1835 2.02817ZM29.1992 13.6742C29.1992 13.6741 29.1992 13.6742 29.1991 13.6743L29.1992 13.6742Z" fill="#F5F5F5"/>
</svg>
