<svg width="253" height="28" viewBox="0 0 253 28" fill="none" xmlns="http://www.w3.org/2000/svg">
<path d="M232.003 5.09448C225.6 5.05886 219.706 5.54874 214.7 6.27013C206.086 7.00933 198.915 8.50546 192.448 10.4292C185.98 12.3618 180.178 14.713 174.321 17.6342L172.998 18.2932L172.897 19.4867C172.804 20.6445 172.998 21.8021 173.452 22.8797C173.507 23.0133 173.572 23.1468 173.628 23.2804C173.655 23.3428 173.692 23.4142 173.729 23.4765L173.868 23.7346C174.062 24.0553 174.257 24.3759 174.488 24.6787C174.941 25.2843 175.497 25.8099 176.052 26.3353L176.154 26.4332L176.209 26.4867C176.228 26.5045 176.246 26.5223 176.274 26.5223L176.579 26.558L177.199 26.6291C177.403 26.6469 177.606 26.6826 177.828 26.6915L178.485 26.7093C178.865 26.7182 179.253 26.7361 179.633 26.745C179.901 26.7539 180.169 26.7628 180.438 26.7539C180.974 26.7539 181.52 26.7539 182.066 26.7539C182.344 26.7539 182.612 26.7539 182.889 26.7539C183.167 26.745 183.445 26.7361 183.722 26.7271C184.277 26.7093 184.842 26.6915 185.406 26.6737C185.971 26.6469 186.544 26.6114 187.118 26.5758C188.275 26.5224 189.44 26.3976 190.643 26.3086C191.245 26.2552 191.837 26.175 192.457 26.1127C193.067 26.0414 193.678 25.9791 194.298 25.8811C194.918 25.7921 195.547 25.703 196.176 25.6228C196.806 25.5159 197.444 25.409 198.092 25.3021C204.291 24.1354 209.87 22.3899 214.895 20.199C215.533 19.914 216.134 19.6736 216.791 19.3441C217.115 19.1926 217.43 19.0323 217.754 18.8809L218.235 18.6494L218.475 18.5337L218.596 18.4802L218.66 18.4535L218.744 18.4C219.669 17.8923 220.428 17.1889 220.881 16.3518C221.353 15.5235 221.501 14.5795 221.381 13.6711C221.344 13.4484 221.316 13.2168 221.251 12.9942C221.186 12.7804 221.122 12.5311 221.048 12.3619C220.9 11.9789 220.714 11.6404 220.52 11.3019C220.122 10.634 219.632 10.0729 219.123 9.54747C218.087 8.51438 216.921 7.69515 215.7 7.00048C213.257 5.62005 210.611 4.72944 207.927 4.08821C207.252 3.9279 206.576 3.79433 205.892 3.66074C205.198 3.54496 204.467 3.41129 203.81 3.35786C203.134 3.28661 202.459 3.21537 201.783 3.14412C201.441 3.1085 201.108 3.07277 200.766 3.03714C200.423 3.00152 200.09 2.98385 199.748 2.95713C198.388 2.85916 197.018 2.73444 195.621 2.68991C194.927 2.66319 194.224 2.62748 193.512 2.60076C192.799 2.59185 192.087 2.59184 191.365 2.58293C188.487 2.60074 185.508 2.71662 182.445 3.13521C181.964 3.2777 181.372 3.47371 180.66 3.66074C180.308 3.7587 179.929 3.85652 179.521 3.95449C179.124 4.06136 178.698 4.18617 178.245 4.31086C177.791 4.43554 177.329 4.56016 176.829 4.69375C176.339 4.83625 175.83 4.98766 175.302 5.14797C175.043 5.22812 174.766 5.29939 174.497 5.38845C174.229 5.47751 173.951 5.56661 173.674 5.65567C173.119 5.83379 172.536 6.0118 171.953 6.20773C169.593 6.99145 167.049 7.94447 164.375 8.95975C163.042 9.46739 161.664 10.0018 160.257 10.5361C158.814 11.0972 157.389 11.6939 155.955 12.3262C154.521 12.9586 153.087 13.6265 151.662 14.339C150.237 15.0515 148.821 15.8173 147.442 16.6723L147.119 16.8771L146.758 17.1176C146.517 17.2779 146.277 17.4471 146.045 17.6163C145.583 17.9548 145.138 18.302 144.741 18.6672C143.936 19.3975 143.334 20.1635 143.001 20.9561C142.835 21.3569 142.742 21.7575 142.742 22.185C142.751 22.3988 142.779 22.6216 142.844 22.8264C142.909 23.0402 143.02 23.245 143.14 23.432C143.279 23.619 143.417 23.797 143.584 23.9484C143.658 24.0374 143.76 24.0821 143.852 24.1356L144.121 24.2958L144.389 24.4561C144.491 24.5095 144.593 24.5542 144.704 24.6076C144.916 24.7056 145.12 24.8034 145.342 24.9014C145.61 24.9637 145.869 25.026 146.129 25.0795L146.526 25.1686L146.943 25.231C147.22 25.2755 147.489 25.32 147.766 25.3645C148.053 25.3912 148.34 25.4269 148.618 25.4537C149.182 25.5249 149.765 25.5337 150.329 25.5604L150.542 25.5693L150.644 25.5782H150.727H151.023C151.227 25.5782 151.421 25.5782 151.615 25.5782C153.188 25.5515 154.687 25.418 156.103 25.2221C158.944 24.8302 161.451 24.189 163.561 23.4944C166.438 22.6572 168.881 21.6596 170.768 20.7067C172.656 19.7538 173.988 18.8364 174.719 18.2308C175.089 17.9369 175.312 17.7054 175.386 17.5896C175.46 17.4738 175.395 17.456 175.173 17.5629C174.719 17.7677 173.655 18.4357 171.666 19.3797C173.433 18.4713 174.83 17.5718 175.941 16.699C176.496 16.2626 176.977 15.8173 177.384 15.3898C177.791 14.9535 178.124 14.526 178.402 14.1164C178.948 13.2792 179.262 12.4864 179.383 11.7383C179.503 10.9902 179.457 10.2957 179.244 9.65445C178.337 7.11624 175.478 5.22818 168.761 4.54242L169.945 4.62244L171.065 4.66701C171.87 4.72045 172.684 4.79174 173.507 4.93423C173.22 4.84517 172.924 4.765 172.637 4.69375C172.341 4.62251 172.045 4.54237 171.749 4.48893C171.453 4.42659 171.148 4.36429 170.842 4.31086C170.694 4.28414 170.537 4.25734 170.389 4.23062L170.278 4.2128C170.297 4.2128 170.287 4.2128 170.287 4.2128L170.065 4.16822C169.76 4.10588 169.464 4.04357 169.149 3.98123C168.844 3.91889 168.529 3.8566 168.215 3.81207C167.9 3.76754 167.586 3.71418 167.262 3.66965C167.104 3.64293 166.938 3.62505 166.781 3.59833C166.614 3.58052 166.457 3.56266 166.29 3.54485C163.681 3.23314 160.868 3.14409 157.861 3.33111C155.613 3.6072 153.401 3.97232 151.218 4.41762C149.182 4.60464 147.276 4.8719 145.462 5.1658C143.649 5.47751 141.919 5.80694 140.262 6.1899C136.941 6.938 133.869 7.79307 130.797 8.7371C127.725 9.68114 124.644 10.7232 121.331 11.8809C120.508 12.1748 119.657 12.4687 118.796 12.7715C118.37 12.9229 117.917 13.0833 117.464 13.2525C117.01 13.4217 116.557 13.6175 116.104 13.8135C115.197 14.2142 114.29 14.6596 113.392 15.1761C112.495 15.6927 111.597 16.2894 110.746 17.0375C111.301 16.5566 111.81 16.2091 112.245 15.933C112.68 15.6569 113.032 15.4521 113.318 15.3007C113.892 14.9979 114.17 14.8911 114.207 14.8911C114.299 14.9089 113.457 15.3721 112.439 16.1291C111.931 16.5032 111.385 16.9574 110.904 17.465C110.422 17.9637 109.969 18.5871 109.747 19.1392C109.516 19.6914 109.497 20.1901 109.553 20.484C109.617 20.7779 109.701 20.8759 109.728 20.7245C109.738 21.0362 109.858 21.4549 110.163 21.8913C110.469 22.3277 110.95 22.755 111.542 23.1291C111.838 23.2983 112.143 23.4765 112.449 23.619C112.606 23.6902 112.763 23.7704 112.921 23.8327L113.42 24.0375L113.559 24.091C113.605 24.1088 113.652 24.1089 113.698 24.1267L113.975 24.1889C114.151 24.2245 114.327 24.2691 114.503 24.3047C114.845 24.3493 115.188 24.4026 115.511 24.4472C116.159 24.5006 116.76 24.5631 117.26 24.572C117.51 24.5809 117.741 24.5898 117.936 24.5987C118.13 24.6076 118.296 24.6076 118.435 24.6076C118.972 24.6254 118.953 24.661 118.028 24.7233C119.934 24.7233 121.794 24.5541 123.617 24.3137C124.533 24.2068 125.421 24.0376 126.3 23.8862C126.735 23.7971 127.179 23.708 127.614 23.619C127.827 23.5744 128.049 23.53 128.262 23.4855C128.474 23.432 128.687 23.3784 128.9 23.3339C132.314 22.5235 135.497 21.4726 138.365 20.2881C141.234 19.0947 143.815 17.8301 146.092 16.5209C147.22 15.8619 148.275 15.1939 149.21 14.4636C149.682 14.1074 150.107 13.7155 150.505 13.3147C150.894 12.9139 151.273 12.4153 151.523 11.9077C151.828 11.0082 151.726 10.0018 151.116 9.22698L151.005 9.08434C150.968 9.03981 150.921 8.99537 150.884 8.95084C150.801 8.86178 150.718 8.77268 150.635 8.68362C150.44 8.52331 150.264 8.34516 150.052 8.21157L149.746 7.99784L149.432 7.81976C149.228 7.69508 149.006 7.60592 148.793 7.49905C147.664 7.00922 146.508 6.75985 145.388 6.59954C144.259 6.43923 143.168 6.36813 142.094 6.30579C139.966 6.21673 137.903 6.09199 135.867 6.02965C133.832 5.93168 131.815 5.90501 129.77 5.85157C128.752 5.83376 127.725 5.84265 126.679 5.83375C125.643 5.83375 124.588 5.82486 123.524 5.86049L122.358 6.17207C121.655 6.2166 120.878 6.25235 120.045 6.30579C119.212 6.35922 118.324 6.41261 117.408 6.47495C115.567 6.57292 113.596 6.72425 111.653 6.84893C110.672 6.90237 109.71 6.9825 108.766 7.05375C107.822 7.11609 106.906 7.17862 106.027 7.24096C104.279 7.38346 102.715 7.49911 101.484 7.56145C100.559 7.65051 99.6245 7.77529 98.6807 7.88216C97.7369 7.99794 96.7746 8.10474 95.8031 8.24723C93.8693 8.53222 91.8892 8.80836 89.8906 9.19132C89.391 9.28038 88.8913 9.36949 88.3825 9.46745C87.8828 9.55651 87.3739 9.65433 86.8743 9.7612C85.8657 9.97495 84.8572 10.1887 83.8486 10.4024C82.8401 10.6251 81.8316 10.9012 80.823 11.1417C80.3234 11.2753 79.8145 11.3821 79.3148 11.5335L77.8159 11.9699L76.3169 12.4152C76.0671 12.4864 75.8173 12.5666 75.5767 12.6556L74.8458 12.914L73.3746 13.4217C72.8842 13.582 72.3938 13.7689 71.9312 13.9737C70.0436 14.802 68.3041 15.8174 66.7589 17.0019C66.0002 17.5986 65.2877 18.2398 64.7233 18.9701C64.455 19.3352 64.2144 19.7182 64.0941 20.1279C63.9646 20.5376 63.9646 20.9738 64.1774 21.3301C64.3902 21.6952 64.7788 21.9625 65.1952 22.1496C65.4173 22.2386 65.6208 22.3275 65.8521 22.3898L66.0187 22.4433L66.102 22.4701C66.1297 22.479 66.1575 22.479 66.1852 22.479L66.5368 22.5057C67.5084 22.5859 68.4707 22.6038 69.4237 22.5949C71.3112 22.6394 72.8749 22.5591 74.1611 22.4522C75.4564 22.3454 76.4835 22.2118 77.3347 22.0872C79.0372 21.8289 80.0273 21.5794 80.971 21.3301C81.9148 21.0807 82.7938 20.8046 84.265 20.4127C85.7362 20.0031 87.7903 19.4866 91.0102 18.5515C93.0736 18.0261 95.4885 17.2869 97.9405 16.3696C100.392 15.4434 102.918 14.3301 105.056 13.0031C105.592 12.6736 106.083 12.3172 106.545 11.961C106.999 11.5958 107.397 11.2218 107.73 10.8388C107.804 10.7408 107.878 10.6519 107.952 10.554C108.007 10.4649 108.063 10.3847 108.118 10.2957C108.22 10.1175 108.304 9.94823 108.35 9.7612C108.461 9.39606 108.433 9.01314 108.304 8.68362C108.165 8.35409 107.943 8.06022 107.684 7.81976C107.628 7.75742 107.545 7.69511 107.471 7.63277C107.397 7.57043 107.323 7.50813 107.249 7.45469C107.073 7.33892 106.916 7.22303 106.749 7.11615C106.074 6.68867 105.38 6.37706 104.834 6.10988C105.491 6.36816 106.101 6.61743 106.629 6.90242C106.906 7.03601 107.128 7.19631 107.369 7.3388C107.573 7.49021 107.795 7.64162 107.943 7.79302C108.276 8.09582 108.535 8.43436 108.664 8.79951C108.794 9.16465 108.785 9.54759 108.692 9.89492C108.655 10.073 108.572 10.2332 108.507 10.4024C108.415 10.5627 108.35 10.7141 108.229 10.8745C108.174 10.9546 108.118 11.0348 108.063 11.1149C107.998 11.1951 107.933 11.2663 107.878 11.3465C107.758 11.4979 107.619 11.6404 107.48 11.7918C106.925 12.3618 106.296 12.8694 105.639 13.3414C104.306 14.2944 102.807 15.1315 100.929 16.0043C99.0416 16.8593 96.7561 17.7409 93.7305 18.6226C94.8963 18.3198 94.2302 18.5959 92.722 19.0947C91.2045 19.5845 88.8266 20.2704 86.6152 20.8048C84.4038 21.3569 82.3589 21.7753 81.5817 21.9713C80.7952 22.1583 81.2949 22.1763 84.117 21.7132C87.1148 21.0274 90.1497 20.217 93.2031 19.264C96.2472 18.3022 99.3191 17.2156 102.261 15.8441C103.733 15.1583 105.176 14.4012 106.518 13.4928C107.184 13.0386 107.822 12.5488 108.387 11.9788L108.785 11.5424C108.905 11.3821 109.034 11.2396 109.146 11.0704C109.247 10.9011 109.368 10.7321 109.442 10.554L109.571 10.2867L109.664 10.0106C109.913 9.2714 109.728 8.45207 109.266 7.80193C108.785 7.14289 108.081 6.63524 107.369 6.23447C105.916 5.42403 104.297 4.90749 102.678 4.46219C102.271 4.35532 101.873 4.23943 101.457 4.13256L100.217 3.87447L99.5967 3.74967L98.9675 3.65182L97.7184 3.46461C97.302 3.41118 96.8857 3.37564 96.4601 3.33111C96.0437 3.29549 95.6273 3.23325 95.2017 3.21544C94.7853 3.18872 94.3689 3.16192 93.9433 3.13521L93.3142 3.09955L92.685 3.08172C89.354 2.96594 86.06 3.09957 82.8586 3.34894C79.6572 3.60721 76.5483 3.99015 73.5504 4.44436C70.5525 4.88966 67.6749 5.43296 64.9361 6.03857C65.297 5.78029 63.761 5.94055 61.1055 6.43038C58.45 6.92021 54.7027 7.76623 50.6592 8.83495C46.6065 9.90367 42.2578 11.1861 38.3624 12.4152C37.3909 12.7269 36.4471 13.0297 35.5311 13.3236C34.6243 13.6264 33.7546 13.9114 32.9403 14.1875C31.3118 14.7307 29.8499 15.185 28.7026 15.5947L28.0179 15.6214C27.0186 15.9687 26.0656 16.3339 25.1495 16.7525C24.9182 16.8594 24.7054 16.9661 24.4648 17.0819C24.2243 17.2155 23.9744 17.3314 23.7339 17.4739C23.2527 17.7411 22.8086 18.0439 22.383 18.3556C21.9759 18.6851 21.5872 19.0324 21.2727 19.4154C20.9581 19.7983 20.7083 20.2257 20.5602 20.6799C20.4122 21.1342 20.3936 21.6241 20.4862 22.105C20.5232 22.3455 20.625 22.5771 20.7175 22.8175C20.847 23.0402 20.9211 23.2984 21.1616 23.4498C21.3929 23.6012 21.652 23.6991 21.9296 23.7703C22.2072 23.8415 22.494 23.8951 22.7901 23.9218C23.3823 23.9931 24.03 24.0108 24.6962 23.984C25.3624 23.9662 26.0563 23.9129 26.7595 23.8416C26.9353 23.8238 27.1111 23.8059 27.2869 23.7881C27.4442 23.7703 27.6015 23.7525 27.768 23.7346C28.0919 23.6901 28.4065 23.6546 28.7396 23.6101C31.3581 23.2449 34.2264 22.7016 37.5111 21.9713C41.4528 21.1519 45.3482 20.2169 49.151 19.166C51.0478 18.6316 52.9354 18.0884 54.7582 17.4383C55.6834 17.1087 56.5624 16.7079 57.3952 16.2359C58.2187 15.7639 58.9959 15.2118 59.6436 14.5706C60.282 13.9204 60.8279 13.1723 61.05 12.3173C61.2813 11.4713 61.1888 10.5717 60.8187 9.77903C60.4486 8.9864 59.8379 8.3095 59.1625 7.73061C58.8386 7.42781 58.4592 7.17851 58.0891 6.91133C57.7005 6.67978 57.3397 6.42148 56.9326 6.21664C55.3596 5.34386 53.6849 4.68493 52.0194 4.11495C50.3446 3.54497 48.6699 3.07285 47.0137 2.67208C45.7923 2.35146 44.5617 2.14668 43.3126 1.83497C42.045 1.55888 40.7311 1.32736 39.4079 1.20268C36.7617 0.935498 34.0599 0.935481 31.4229 1.18485C30.0997 1.29172 28.7859 1.4875 27.4997 1.70125C26.8613 1.82593 26.2136 1.93296 25.5844 2.08436C25.2698 2.15561 24.9552 2.22685 24.6407 2.2981C24.3261 2.37825 24.0207 2.45842 23.7061 2.53858C22.4663 2.85919 21.2727 3.24214 20.0976 3.64291C19.5239 3.85665 18.941 4.06146 18.3858 4.28411C17.8307 4.52457 17.2662 4.72944 16.7388 4.97881C14.583 5.94065 12.6121 7.02704 10.8726 8.17591C9.12388 9.32479 7.60643 10.5271 6.3018 11.7026C5.01568 12.896 3.94237 14.045 3.06336 15.1048C2.62848 15.6392 2.24911 16.1467 1.89751 16.6099C1.57367 17.0908 1.26833 17.5274 1 17.9192C2.73951 15.7729 4.70109 13.8046 6.85697 12.0501C7.41213 11.6226 7.93953 11.1774 8.52245 10.7855L9.37371 10.1798L10.2527 9.60096L10.6876 9.31591L11.1409 9.03977L12.0385 8.49662L12.9545 7.98001L13.4079 7.7217L13.8798 7.48122C18.8485 4.87177 24.3353 3.22431 29.7666 2.51183C32.4869 2.15559 35.2072 2.04862 37.8442 2.19112C39.1581 2.27127 40.4628 2.41376 41.7211 2.6275C42.0357 2.68094 42.3503 2.74324 42.6649 2.80558C42.9795 2.87683 43.2941 2.94807 43.5994 3.01932C44.2193 3.16181 44.8578 3.27775 45.4777 3.41134C47.9482 3.9457 50.3076 4.58694 52.4727 5.4241C53.0094 5.63785 53.5461 5.84269 54.0457 6.09205C54.5639 6.3147 55.045 6.57283 55.5261 6.8311C56.4606 7.36546 57.3119 7.94433 57.9873 8.59447C57.83 8.44307 57.645 8.31843 57.4692 8.19374C57.3859 8.1314 57.2934 8.06909 57.2101 7.99784C57.1176 7.9355 57.0251 7.8821 56.9326 7.81976C56.7475 7.70398 56.5624 7.58808 56.3774 7.47231C56.1831 7.36543 55.998 7.2676 55.8037 7.16073C55.7112 7.10729 55.6186 7.06283 55.5261 7.0094C55.4243 6.96487 55.3318 6.92021 55.2393 6.87568C55.045 6.78662 54.8599 6.69751 54.6749 6.60845C54.2955 6.43924 53.9162 6.28781 53.5553 6.13641C52.0749 5.55752 50.6962 5.14785 49.4379 4.80943C48.8087 4.64021 48.198 4.49772 47.6151 4.36413C47.0322 4.23944 46.4677 4.12375 45.9311 4.00798C44.8393 3.79423 43.7845 3.63402 42.8222 3.43809C42.3318 3.34012 41.8692 3.28669 41.3973 3.21544C40.9161 3.17091 40.4535 3.10843 39.9631 3.0728C39.482 3.04609 38.9916 2.99278 38.4919 2.98387C38.2421 2.97497 37.983 2.96604 37.7332 2.95713C37.4741 2.95713 37.2151 2.95713 36.9467 2.95713C34.8186 2.96604 32.3666 3.12636 29.2855 3.64291C31.4784 3.40245 33.699 3.34903 35.8827 3.43809C34.1062 3.47371 32.3296 3.62511 30.5716 3.88339C31.941 3.86558 30.877 4.08805 29.6093 4.37304C28.3417 4.67585 26.8705 5.08562 27.2962 5.13905C30.3866 4.54235 33.5602 4.26636 36.6784 4.34652C38.2421 4.39105 39.7873 4.52461 41.277 4.76507L41.8321 4.86291C42.0172 4.88963 42.2023 4.92537 42.4058 4.97881C42.8129 5.06787 43.1923 5.15696 43.6179 5.23711C44.4506 5.39742 45.3112 5.55756 46.0791 5.72677C45.7645 5.64662 45.4592 5.57538 45.1816 5.51303C44.8855 5.45069 44.5987 5.38839 44.3304 5.32604C43.7937 5.21027 43.3126 5.10352 42.9332 5.00555C42.1375 4.79181 41.6286 4.68474 41.277 4.58678C40.5645 4.40866 40.5553 4.3465 40.9439 4.32869C41.1475 4.31978 41.4343 4.33741 41.7859 4.36413C41.9617 4.38194 42.156 4.3909 42.3596 4.41762C42.5724 4.44433 42.7944 4.48004 43.0258 4.50676C43.9418 4.63145 45.0428 4.74712 45.8108 4.84509C47.467 5.20132 49.077 5.62896 50.65 6.10988C52.2137 6.59081 53.7218 7.16965 55.0635 7.84651C54.8322 7.72182 54.5454 7.57043 54.24 7.41012C53.9347 7.24981 53.5738 7.1073 53.2407 6.94699C52.9076 6.78668 52.5468 6.66203 52.2414 6.52844C52.0841 6.4661 51.9453 6.4038 51.8065 6.35036C51.6678 6.29693 51.5475 6.25226 51.4457 6.20773C51.0293 6.03851 50.8905 5.96733 51.2884 6.05639C51.492 6.10092 51.8343 6.18114 52.3154 6.34145C52.556 6.4216 52.8429 6.5105 53.176 6.61737C53.4998 6.73315 53.8607 6.87561 54.2678 7.02701C55.119 7.42778 56.035 7.87312 56.8585 8.40748C57.682 8.94184 58.4037 9.58313 58.8016 10.2511C58.9219 10.4114 58.9589 10.5807 59.0422 10.7499C59.0792 10.9191 59.144 11.0794 59.1347 11.2397C59.1625 11.5693 59.1162 11.8898 58.9681 12.2282C58.8201 12.5577 58.6073 12.8873 58.3112 13.199C58.1817 13.3593 57.9966 13.5018 57.8393 13.6443C57.6635 13.7868 57.4877 13.9204 57.2934 14.045C57.6728 13.6799 58.0244 13.3058 58.2464 12.9318C58.4777 12.5577 58.6073 12.1926 58.6443 11.8631C58.6906 11.5336 58.6165 11.2575 58.4777 10.9814C58.4592 10.9458 58.45 10.9101 58.4315 10.8745L58.3574 10.7677C58.3112 10.6964 58.2834 10.6252 58.2187 10.554C58.1539 10.4827 58.0984 10.4115 58.0521 10.3402L57.8301 10.1265C57.9041 10.2155 57.9966 10.2955 58.0521 10.3757C58.1076 10.4558 58.1632 10.5449 58.2279 10.6251C58.2649 10.7052 58.3019 10.7854 58.3482 10.8655C58.3852 10.9457 58.3945 11.0169 58.4222 11.0971C58.4962 11.3999 58.487 11.6938 58.3667 12.0144C58.2464 12.344 58.0059 12.7001 57.6728 13.0385C57.3489 13.3859 56.914 13.7066 56.4514 14.0005C55.9888 14.3033 55.4614 14.5528 54.934 14.7932C54.6564 14.9001 54.3881 15.0157 54.1012 15.1137C53.8144 15.2117 53.546 15.3097 53.213 15.4077C51.9453 15.7995 50.6314 16.1468 49.3083 16.4853C46.662 17.1443 43.9603 17.7411 41.1752 18.3378C38.3902 18.9345 35.5126 19.5489 32.4407 20.2079C31.1453 20.2346 29.8499 20.2346 28.5915 20.2079C28.1197 20.2702 27.6478 20.3325 27.1759 20.386L26.7595 20.4306L26.6948 20.4395C26.6115 20.4484 26.5282 20.4573 26.4356 20.4573C26.3894 20.4573 26.3431 20.4484 26.3061 20.4306C26.2691 20.4038 26.2599 20.3683 26.2506 20.3327C26.2229 20.2615 26.2506 20.1813 26.2969 20.119C26.3801 20.1635 26.4819 20.1812 26.593 20.1901C26.6115 20.1634 26.6485 20.1457 26.6762 20.1368L26.6948 20.1279H26.704C26.704 20.1279 26.667 20.1457 26.815 20.0744C27.2314 19.8607 27.7033 19.6648 28.1752 19.4689C29.1282 19.077 30.1645 18.7206 31.2378 18.3821L32.894 17.8657L33.7823 17.5896L34.6613 17.3135C38.2884 16.0844 40.361 15.363 41.6748 14.8554C42.9887 14.3478 43.5439 14.0628 44.1546 13.7689C49.8265 12.0768 55.3411 10.5983 57.719 10.1708C55.5261 10.821 53.3425 11.4889 51.1774 12.1925C53.2315 11.6849 55.2948 11.2041 57.3582 10.7499C55.23 11.213 56.4977 10.83 58.4777 10.3046C60.4578 9.77021 63.1781 9.13783 63.9183 8.91518C67.4066 8.22942 69.7753 7.85539 71.4963 7.60603C73.208 7.35666 74.3183 7.22303 75.2436 7.12507C76.1689 7.0271 76.9276 6.95583 78.0194 6.87568C78.5653 6.84005 79.1853 6.7867 79.9533 6.74217C80.3326 6.71546 80.749 6.69756 81.2116 6.66194C81.6742 6.64413 82.1739 6.61734 82.7291 6.59062C87.2721 6.11861 92.3426 6.08316 96.0992 6.54627C97.0522 6.62642 97.8942 6.79555 98.6714 6.90242C99.0508 6.96476 99.4024 7.0449 99.7263 7.10724C100.05 7.17849 100.365 7.21408 100.642 7.29423C101.188 7.43673 101.651 7.53476 101.984 7.5882C102.326 7.65054 102.558 7.67731 102.632 7.64169C102.863 7.72184 103.103 7.7931 103.298 7.87325C103.501 7.9534 103.723 8.02467 103.918 8.11373L104.491 8.3629L105.01 8.62121C105.158 8.71027 105.324 8.79937 105.454 8.87952L105.639 9.00433C105.666 9.02214 105.713 9.04869 105.722 9.0576L105.768 9.10217C105.796 9.12889 105.842 9.16459 105.87 9.1824L105.889 9.20915C105.907 9.22696 105.916 9.24461 105.926 9.27133C105.963 9.35149 105.935 9.44055 105.879 9.5029L105.861 9.52073C105.824 9.55635 105.787 9.601 105.75 9.64553C105.722 9.69006 105.666 9.73451 105.62 9.78795C105.565 9.84138 105.528 9.89476 105.463 9.9482C105.333 10.0551 105.232 10.171 105.074 10.2867L104.861 10.4648L104.621 10.6429C103.973 11.1149 103.205 11.5781 102.373 12.0144C101.54 12.4508 100.661 12.8606 99.754 13.2525C97.9312 14.0362 95.9974 14.7397 94.0359 15.372C90.1035 16.6367 86.023 17.643 81.9888 18.4089C79.9717 18.7829 77.9639 19.1036 75.9838 19.3351C74.013 19.5667 72.0607 19.7181 70.2009 19.7448C69.1183 19.8071 68.045 19.825 67.0457 19.7804L66.9532 19.7715C66.9255 19.7715 66.8792 19.7626 66.8884 19.7715L66.8792 19.7804C66.8792 19.7804 66.8514 19.7894 66.8329 19.7894C66.8237 19.7894 66.7959 19.7894 66.8052 19.7983C66.8237 19.8072 66.7219 19.7894 66.7496 19.7983C66.7867 19.7537 66.6479 19.9319 66.5554 20.0298L66.4813 20.1101C66.4628 20.1368 66.4443 20.1544 66.4351 20.1722C66.398 20.2168 66.3703 20.2525 66.324 20.2881C66.25 20.3683 66.1667 20.4395 66.065 20.5108C66.0187 20.5553 65.9632 20.5998 65.8984 20.6443C65.8707 20.6621 65.8336 20.6889 65.7966 20.7067C65.7596 20.7245 65.7689 20.7245 65.7504 20.7334C65.7226 20.7512 65.6856 20.7691 65.6486 20.778C65.6393 20.778 65.6578 20.778 65.6578 20.778C65.6763 20.7691 65.7041 20.7691 65.7226 20.7602C65.7689 20.7513 65.7966 20.7513 65.8521 20.7513C65.9354 20.7424 66.0187 20.7424 66.102 20.7513C66.1482 20.7513 66.1667 20.7602 66.2222 20.7691C66.287 20.7691 66.3425 20.778 66.398 20.7869C66.5183 20.8047 66.6294 20.8224 66.7404 20.8491C66.8144 20.858 66.8885 20.8759 66.9717 20.8937L67.0828 20.9204L67.1383 20.9383L67.166 20.9472C67.166 20.9472 67.1568 20.9561 67.1753 20.9383C67.1938 20.9115 67.1845 20.9115 67.2215 20.858C67.3141 20.7155 67.5269 20.4662 67.7859 20.2257C68.3226 19.727 69.0166 19.2105 69.7475 18.7563C71.2187 17.8301 72.7824 17.0731 74.2721 16.5566C75.1233 16.2805 75.9653 16.0132 76.7888 15.746C77.1959 15.6035 77.6216 15.4967 78.0472 15.3809C78.4636 15.2652 78.8799 15.1495 79.2963 15.0337C79.7127 14.9179 80.1198 14.802 80.5362 14.6862C80.9525 14.5883 81.3782 14.4813 81.7945 14.3834C82.6273 14.1785 83.46 13.9826 84.302 13.7778C87.6885 13.0564 91.1212 12.3529 94.9704 11.7829C96.8857 11.4623 98.9213 11.2129 101.077 10.919C102.16 10.7765 103.279 10.6697 104.436 10.5361C105.01 10.4738 105.602 10.4115 106.194 10.3402C106.795 10.2868 107.406 10.2332 108.026 10.1798L106.481 10.4559C110.089 10.0106 113.707 9.60087 117.343 9.28916C118.287 9.25354 119.194 9.22694 120.064 9.19132C120.943 9.1646 121.785 9.14672 122.599 9.12C123.413 9.09328 124.209 9.06649 124.977 9.03977C125.745 9.02196 126.494 9.01322 127.235 8.99541C127.965 8.9776 128.687 8.95974 129.4 8.94192C130.103 8.93302 130.806 8.92409 131.5 8.91518C132.194 8.90627 132.879 8.89734 133.563 8.88844C134.248 8.88844 134.933 8.89735 135.627 8.89735C136.321 8.90626 137.015 8.90626 137.718 8.90626C138.421 8.92408 139.133 8.95086 139.855 8.96867C140.577 8.99539 141.336 9.01306 142.076 9.04868C142.807 9.09321 143.538 9.14683 144.241 9.23589C144.944 9.32495 145.629 9.45851 146.23 9.64553C146.378 9.69006 146.526 9.73452 146.665 9.79686C146.813 9.8503 146.934 9.91259 147.063 9.96602C147.183 10.0284 147.294 10.0907 147.405 10.153L147.553 10.2511L147.59 10.2778L147.609 10.2957L147.646 10.3224C147.84 10.4738 147.988 10.6875 147.979 10.9279C147.97 11.0437 147.924 11.1594 147.859 11.2663C147.822 11.3197 147.803 11.3466 147.72 11.4446L147.674 11.5067C147.655 11.5335 147.618 11.5603 147.6 11.5959C147.544 11.6582 147.498 11.7116 147.433 11.774C147.183 12.0411 146.859 12.3261 146.517 12.5932C146.175 12.8693 145.795 13.1277 145.416 13.386C144.648 13.8936 143.834 14.3657 143.02 14.811C142.205 15.2474 141.391 15.657 140.586 16.04C139.79 16.414 138.995 16.788 138.236 17.0997C135.21 18.4089 132.49 19.3174 130.103 20.0298C125.31 21.437 121.822 22.105 118.916 22.5503C118.648 22.5681 118.37 22.586 118.093 22.6038C117.815 22.6216 117.547 22.6125 117.26 22.6214C116.983 22.6303 116.696 22.6303 116.427 22.6125C116.159 22.5947 115.872 22.5948 115.604 22.577C115.336 22.5503 115.076 22.5235 114.808 22.4968L114.447 22.4344C114.355 22.4166 114.253 22.4168 114.179 22.3811L113.864 22.2652C113.735 22.2207 113.615 22.1763 113.504 22.1228L113.152 21.9713L112.856 21.8199C112.745 21.7665 112.68 21.7221 112.606 21.6775C112.532 21.633 112.458 21.5883 112.393 21.5349C112.254 21.4369 112.134 21.3212 112.032 21.1966C111.829 20.9472 111.708 20.6355 111.746 20.3238C111.764 20.0121 111.921 19.7271 112.116 19.4689C112.171 19.4065 112.208 19.344 112.273 19.2727L112.476 19.0501L112.736 18.8009L113.022 18.5604C113.809 17.9192 114.753 17.3401 115.743 16.8325C116.733 16.3249 117.769 15.8974 118.796 15.5323C119.296 15.3631 119.869 15.1762 120.406 14.998C120.952 14.8199 121.479 14.6506 122.007 14.4725C123.052 14.1341 124.07 13.8134 125.032 13.5017C123.395 14.1162 121.766 14.7397 120.138 15.3898C122.294 14.7219 124.44 14.0895 126.605 13.4928C129.353 12.5933 131.482 11.97 133.341 11.4535C135.201 10.9458 136.793 10.5362 138.495 10.1265C140.198 9.71681 142.011 9.29804 144.324 8.81712C146.637 8.3451 149.469 7.80189 153.207 7.31206C158.351 6.81332 161.988 6.84012 164.671 6.94699C165.337 6.99152 165.957 7.00922 166.512 7.05375C167.067 7.10719 167.586 7.13403 168.057 7.17856C168.529 7.23199 168.955 7.27644 169.362 7.31206C169.381 7.31206 169.797 7.36554 169.806 7.35663C169.899 7.36554 169.991 7.36556 170.084 7.37446C170.269 7.38337 170.445 7.3923 170.62 7.40121C171.981 7.50808 172.989 7.60608 174.109 7.88216C174.655 8.03357 175.228 8.22058 175.811 8.5412C176.107 8.6926 176.385 8.89736 176.672 9.12891C176.931 9.36938 177.19 9.65435 177.393 10.0017C177.865 11.0882 177.578 12.3173 176.847 13.4038C176.487 13.9471 176.024 14.4636 175.506 14.9356C174.988 15.4076 174.396 15.844 173.757 16.2537C172.499 17.082 171.102 17.7855 169.658 18.4089C168.215 19.0323 166.697 19.5667 165.161 20.0298L165.624 20.0209C164.319 20.5642 163.172 20.9827 162.136 21.3122C161.099 21.6418 160.183 21.9002 159.295 22.105C157.528 22.5236 155.918 22.7907 153.799 22.951C153.54 22.9777 153.262 22.9867 152.976 22.9956C152.698 23.0134 152.402 23.0223 152.106 23.0223C151.81 23.0312 151.495 23.0312 151.171 23.0312C151.014 23.0312 150.847 23.0312 150.69 23.0223C150.57 23.0134 150.44 23.0134 150.311 23.0045C149.802 22.9867 149.247 22.9331 148.664 22.844C148.368 22.7995 148.072 22.7461 147.766 22.6749C147.609 22.6482 147.461 22.6037 147.304 22.5592C147.23 22.5414 147.146 22.5146 147.063 22.4968C146.998 22.4523 146.924 22.4078 146.869 22.3544C146.748 22.2475 146.637 22.1227 146.582 21.9802C146.526 21.8377 146.517 21.6685 146.554 21.5171C146.628 21.1964 146.832 20.9115 147.072 20.6354C147.572 20.0921 148.229 19.6023 148.96 19.1125C149.062 19.0501 149.163 18.9789 149.256 18.9166C149.385 18.8364 149.524 18.7473 149.654 18.6672C149.931 18.498 150.209 18.3287 150.496 18.1595C151.079 17.8211 151.689 17.4827 152.337 17.1354C153.632 16.4496 155.048 15.7462 156.603 15.0248L155.252 15.2118C157.398 14.3123 159.24 13.5551 160.961 12.8605C162.7 12.1747 164.329 11.498 166.022 10.7944C166.873 10.4471 167.743 10.0907 168.65 9.71663C169.112 9.53851 169.575 9.3516 170.065 9.16457C170.306 9.07551 170.556 8.97749 170.805 8.87952C171.055 8.79046 171.314 8.70135 171.573 8.60338C173.655 7.83747 176.061 7.08053 179.031 6.44821C180.475 6.10978 182.723 5.76242 185.434 5.53086C188.145 5.2904 191.346 5.28162 194.668 5.43302C197.99 5.57552 201.478 5.92287 204.68 6.34145C207.863 6.8669 210.786 7.72182 213.072 8.7371C214.182 9.3338 215.191 9.98392 216.033 10.7231C216.449 11.0883 216.828 11.4713 217.152 11.872C217.467 12.2728 217.735 12.6824 217.92 13.1009C217.957 13.2078 218.013 13.3148 218.04 13.4127L218.124 13.7065L218.17 14.0005L218.189 14.3033C218.179 14.6952 218.068 15.0871 217.837 15.4255C217.606 15.7639 217.273 16.031 216.893 16.227C216.458 16.4496 215.977 16.6812 215.524 16.9038C214.626 17.3669 213.673 17.7587 212.776 18.1773C212.322 18.3911 211.86 18.5604 211.406 18.7563C210.953 18.9434 210.509 19.1392 210.055 19.3173C208.242 20.0209 206.475 20.6711 204.68 21.2322C201.099 22.3722 197.499 23.2628 193.623 23.8951C189.746 24.5363 185.573 24.8659 180.9 24.7857C180.687 24.7768 180.465 24.7679 180.252 24.759C180.04 24.7411 179.827 24.7322 179.614 24.7233C179.179 24.6966 178.754 24.6698 178.328 24.6431C178.115 24.6342 177.912 24.6165 177.699 24.6076L177.541 24.5987C177.504 24.572 177.477 24.5363 177.44 24.5007C177.375 24.4294 177.301 24.3671 177.236 24.2958C176.977 24.0197 176.755 23.7348 176.551 23.4409C175.756 22.2564 175.441 20.9738 175.543 19.7804V19.7359L175.589 19.718C176.949 19.0857 178.208 18.5069 179.346 17.9814C180.493 17.4738 181.557 17.0552 182.473 16.6812C182.936 16.5031 183.361 16.3338 183.759 16.1824C184.157 16.0399 184.536 15.9331 184.87 15.8351C185.545 15.6481 186.082 15.5412 186.47 15.5234L184.61 16.1824L188.737 15.4433L189.006 14.8554C189.801 14.6328 190.643 14.3925 191.504 14.1342C191.939 14.0095 192.383 13.8757 192.827 13.7422C193.28 13.6264 193.743 13.5018 194.206 13.386C195.131 13.1455 196.075 12.905 197.028 12.6556C197.981 12.4241 198.952 12.2193 199.914 12.0144C201.83 11.5691 203.754 11.2664 205.54 10.9814C206.428 10.83 207.298 10.7409 208.122 10.6607C208.945 10.5806 209.722 10.5183 210.435 10.4737C215.487 9.47626 220.631 8.76386 225.84 8.33638C225.6 8.34528 225.359 8.34509 225.119 8.3629C224.878 8.38072 224.638 8.38967 224.388 8.40748C223.897 8.4342 223.398 8.46099 222.898 8.48771C222.398 8.51443 221.89 8.54122 221.381 8.55903C220.872 8.57684 220.354 8.60343 219.835 8.64796C217.772 8.81717 215.635 8.92413 213.525 9.1824L213.979 9.26242C211.961 9.48507 208.519 9.97492 205.04 10.6251C204.171 10.7854 203.292 10.9546 202.44 11.1149C202.228 11.1595 202.015 11.1952 201.802 11.2308C201.589 11.2754 201.386 11.3198 201.173 11.3732C200.756 11.4623 200.349 11.5514 199.951 11.6405C199.156 11.8097 198.388 11.9789 197.685 12.1214C197.324 12.1927 196.991 12.2728 196.676 12.3441C196.352 12.4153 196.056 12.4866 195.769 12.5578L197.102 12.1569C197.546 12.0322 197.999 11.9254 198.452 11.8007L201.154 11.0971C194.844 12.433 200.007 11.0082 201.756 10.545C203.356 10.269 204.707 10.0284 205.855 9.81469C206.141 9.76126 206.419 9.71681 206.678 9.67228C206.946 9.62775 207.196 9.59201 207.437 9.55639C207.918 9.47623 208.362 9.4139 208.779 9.34265C209.593 9.20906 210.268 9.09337 210.86 8.9865C211.453 8.88853 211.971 8.80834 212.461 8.72819C213.442 8.55898 214.321 8.39858 215.579 8.19374C216.208 8.11359 216.939 8.0334 217.818 7.93544C218.263 7.89091 218.734 7.83754 219.262 7.7841C219.789 7.73957 220.354 7.6684 220.983 7.64169C222.112 7.61497 223.749 7.57035 224.906 7.55254C226.063 7.56145 226.738 7.61501 225.942 7.68626C228.885 7.57939 234.251 7.66838 238.924 8.06024C239.507 8.08696 240.08 8.15814 240.636 8.21157C241.191 8.26501 241.727 8.31837 242.245 8.3629C243.282 8.46978 244.226 8.53217 245.031 8.63904C246.641 8.82607 247.714 8.89747 247.862 8.79951C248.362 8.89747 248.556 8.9331 249 9.02216C248.556 8.75498 247.816 8.44323 246.826 8.0959C245.836 7.75747 244.596 7.34783 243.115 7.01831C242.384 6.84019 241.589 6.66198 240.747 6.47495C240.33 6.38589 239.895 6.27897 239.451 6.20773C239.007 6.12757 238.544 6.05631 238.082 5.96725C237.138 5.81585 236.166 5.6555 235.149 5.48629C234.131 5.34379 233.067 5.22808 231.975 5.10339L232.003 5.09448Z" fill="#EF4E5D" stroke="#F05867" stroke-width="1.44" stroke-miterlimit="10"/>
</svg>
