<svg width="65" height="40" viewBox="0 0 65 40" fill="none" xmlns="http://www.w3.org/2000/svg">
<path d="M53.1367 4.85962C53.2502 4.80321 53.3636 4.74676 53.3636 4.74676C53.3462 4.72984 53.3287 4.71858 53.3113 4.70166C53.2502 4.76371 53.1891 4.8145 53.1367 4.85962Z" fill="#0090B2"/>
<path d="M53.4922 5.51116L53.562 5.47711C53.5446 5.47144 53.5271 5.4544 53.5097 5.44873C53.5097 5.47141 53.5009 5.49415 53.4922 5.51116Z" fill="#0090B2"/>
<path d="M53.2952 4.7077C53.1034 4.5506 52.8419 4.43276 52.7809 4.20833C52.9029 4.14662 53.147 4.02321 53.269 3.9615C53.2952 3.81001 53.0773 3.7819 52.9901 3.69212C53.1121 3.63041 53.2341 3.56873 53.1906 3.52384C53.147 3.36674 52.9378 3.35551 52.6676 3.43967C52.6676 4.21395 51.5083 5.06678 53.2952 4.7077Z" fill="#0090B2"/>
<path d="M52.7119 5.55388L53.3577 5.23403C53.314 5.09937 53.2966 4.94794 53.1308 4.875C52.8777 5.11626 52.7643 5.307 52.7119 5.55388Z" fill="#0090B2"/>
<path d="M22.9963 21.2725C22.3164 21.8111 21.5407 22.288 20.7475 22.7537C19.9456 23.2082 19.135 23.6514 18.3767 24.1115C18.089 24.291 17.7665 24.4425 17.4353 24.594C17.1041 24.7399 16.7554 24.8745 16.4242 25.0204C15.7531 25.3066 15.1255 25.604 14.6897 26.0248L14.8117 26.1706L14.8989 26.0696C15.3783 25.9013 15.8141 25.8228 16.2412 25.6994C16.2237 25.7106 16.2063 25.7274 16.1889 25.7386C16.2237 25.7218 16.2586 25.6994 16.3022 25.6825C16.5811 25.5984 16.8513 25.4917 17.1302 25.3234C17.2523 25.2393 17.3743 25.1607 17.4963 25.0766C18.2721 24.6838 19.0565 24.2855 19.7974 23.8703C20.5383 23.4551 21.2356 23.0174 21.8196 22.5461C22.5866 22.0019 23.1357 21.424 23.894 20.8853C23.6413 20.9863 23.2142 21.1098 22.9963 21.2725ZM19.2744 25.6208C19.7538 25.3066 20.2158 25.0092 20.8346 24.7399C20.3117 25.0316 19.7974 25.3291 19.2744 25.6208ZM29.1848 19.9371C30.3266 19.118 31.7212 18.3437 33.0112 17.7826C33.5168 17.547 34.4233 17.014 35.0683 16.5034C35.7133 15.9928 36.0968 15.499 35.5738 15.3419C35.4605 16.1443 33.386 17.1317 31.5818 18.0014C29.7688 18.8655 28.2347 19.6117 29.1848 19.9371ZM28.6444 17.2664C29.0366 16.9186 29.5422 16.5931 30.1 16.2733C30.6579 15.9479 31.2593 15.6337 31.8345 15.2915C32.2093 15.1119 32.4011 14.7528 32.8979 14.5172C33.4819 14.1749 33.7608 13.9 34.2141 13.6195L33.7521 13.7093C34.6673 13.3333 34.894 12.8227 35.8527 12.4973C35.8092 12.4524 35.8353 12.301 35.9661 12.2393C36.5413 11.8914 37.2561 11.6837 37.657 11.3527C38.2323 11.0048 38.8511 10.7075 39.2521 10.3708C39.3741 10.3091 39.4874 10.051 39.6879 9.88832C39.9755 9.72 40.2632 9.5629 40.5508 9.40019C40.5246 9.39458 40.4985 9.38896 40.4811 9.38335C40.237 9.50117 39.9842 9.63026 39.7751 9.78175C39.1301 10.2362 38.3456 10.7468 37.657 11.1564C35.8876 12.1551 34.3274 13.1706 32.7672 14.1862C32.436 14.4106 32.1571 14.6799 31.8258 14.9043C30.8845 15.6225 29.4637 16.2284 29.0279 16.9017C28.932 17.0027 28.6793 17.1149 28.6444 17.2664ZM42.3464 8.51934C42.3551 8.51934 42.3725 8.51935 42.3812 8.52496L42.3551 8.50249C42.3638 8.5081 42.3551 8.51373 42.3464 8.51934ZM46.7132 7.79554C47.6458 7.45889 48.6482 6.79684 49.6593 6.19088C49.6506 6.17405 49.6418 6.16279 49.6331 6.15156C48.6831 6.56115 47.6894 7.22324 46.7132 7.79554ZM49.6506 6.4097C49.546 6.49386 49.4327 6.578 49.3281 6.66778C49.3629 6.66778 49.3891 6.66778 49.424 6.66778C49.546 6.61167 49.6157 6.5107 49.6506 6.4097ZM8.42269 27.1581C9.765 26.4736 11.0201 25.733 12.2143 25.0093C12.8941 24.7287 13.5566 24.4257 14.2016 24.1227C14.8466 23.8197 15.4741 23.5168 16.0843 23.2026C17.2871 22.5685 18.4028 21.9009 19.3877 21.1996C20.2332 20.5543 21.5668 19.8586 22.8394 19.1124C24.1119 18.3605 25.3497 17.5638 25.9947 16.7278C25.7593 16.8064 25.5414 16.8961 25.3409 16.9859C25.5763 16.7839 25.7767 16.582 25.9598 16.38C29.1151 14.6855 32.2442 13.0472 35.5913 11.4369C36.0881 11.1956 36.3234 10.8758 36.8115 10.6401C37.3084 10.3877 37.7878 10.1408 38.2759 9.89394C38.2671 9.88272 38.2497 9.87709 38.2236 9.87148C40.2022 8.82227 42.111 7.75068 44.0635 6.5612C45.0048 6.02819 46.042 5.58488 47.027 5.09675C47.3931 4.91159 47.5848 5.09681 47.8812 5.01826C49.1014 4.76016 50.0341 4.5694 51.2369 4.10932C51.2369 4.10932 51.3328 4.19909 51.3764 4.24397C51.5333 4.14298 51.6902 4.07003 51.8296 4.01953C51.8296 4.79381 50.6617 5.64665 52.4659 5.28756C52.4049 5.34367 52.3439 5.39417 52.2916 5.43906C52.2829 5.44467 52.2742 5.44461 52.2654 5.45022C52.2654 5.45022 52.2742 5.45023 52.2742 5.45584C52.0214 5.6971 51.9081 5.88791 51.8558 6.13478C52.0737 6.02818 52.2916 5.92154 52.5095 5.81493C52.5356 5.8991 52.5705 5.97765 52.6664 6.02814C52.6577 6.05059 52.6577 6.07303 52.6489 6.09547C52.5531 6.14036 52.4746 6.18526 52.4746 6.18526C52.4834 6.23576 52.4921 6.28064 52.5095 6.32553C52.1434 6.80244 51.3589 7.34668 51.725 7.44767C51.9604 7.48134 52.2829 7.18959 52.6925 6.89783C52.7361 6.90344 52.7884 6.90344 52.832 6.89783C52.2655 7.25131 53.1632 7.21763 52.8407 7.44206C52.3439 7.68893 51.8994 7.97508 51.4025 8.22196C49.3891 9.22066 47.733 10.1015 45.8939 11.2181C45.8154 11.2686 45.7282 11.3134 45.6498 11.3639C44.7433 11.8914 43.8456 12.3458 42.8606 12.7722C42.8868 12.7105 42.9216 12.6488 42.9565 12.5927C42.172 12.935 41.3963 13.294 40.699 13.7317C39.0167 14.8257 37.3171 15.9086 35.3559 16.913C34.3187 17.4291 33.3163 17.9565 32.3227 18.4952C31.329 19.0338 30.3353 19.5837 29.333 20.1672C30.1174 19.651 30.9019 19.1461 31.7735 18.6972C32.1832 18.512 32.5841 18.3213 32.9677 18.1305C32.5493 18.3044 32.1571 18.5008 31.7735 18.6972C30.1872 19.4041 28.5398 20.0998 27.7466 21.0873C27.581 21.1097 27.5374 21.0593 27.4067 21.121C26.5089 21.5306 25.5763 21.8953 24.9836 22.4283C25.0272 22.4732 24.6436 22.6471 24.8615 22.6864C24.1294 23.0792 23.2316 23.4831 22.543 23.9264C22.238 24.1059 21.9852 24.3471 21.7498 24.6052C21.1048 24.9755 20.4686 25.3403 19.8323 25.7106C19.5098 25.8958 19.1873 26.0809 18.8648 26.2661C18.5335 26.4512 18.2111 26.6307 17.8798 26.8159C17.2174 27.1806 16.5462 27.5509 15.8751 27.9324C15.1865 28.3027 14.4892 28.673 13.7658 29.0546C13.3997 29.2341 12.9987 29.4192 12.5891 29.5932C12.1794 29.7671 11.7523 29.9355 11.3601 30.0926C12.3886 29.4754 13.4433 28.8526 14.5328 28.241C15.7269 27.8034 16.8077 27.3264 17.4963 26.7036C17.6619 26.569 17.8362 26.44 18.0106 26.3109C17.4266 26.6363 16.8426 26.9562 16.2586 27.2816C15.971 27.4443 15.6833 27.607 15.3957 27.7641C15.1081 27.9268 14.8204 28.0839 14.5328 28.241C13.8355 28.5047 13.1033 28.7572 12.4147 29.0377C12.4235 29.0265 12.4322 29.0209 12.4496 29.0096C12.9377 28.7291 13.4258 28.443 13.9226 28.168C14.4456 27.9717 14.9599 27.7754 15.4218 27.5565C15.8838 27.3377 16.3022 27.1021 16.6421 26.8384C16.7293 26.771 16.8077 26.7036 16.8862 26.6363C17.0518 26.5017 17.2261 26.3726 17.4004 26.2436C16.677 26.642 15.9623 27.0402 15.2475 27.4386C14.803 27.6855 14.3585 27.9268 13.9226 28.1736C13.6089 28.2859 13.2951 28.4037 12.9813 28.516C12.9987 28.4935 13.0249 28.4654 13.0423 28.4373C13.2689 28.2802 13.5304 27.4107 13.0074 27.4275C12.5019 27.6407 11.9528 27.8875 11.4211 28.1399C10.8807 28.3924 10.3577 28.6393 9.88702 28.8581C8.95438 29.3014 8.2658 29.6325 8.24837 29.61C7.96074 29.4641 11.2729 27.8146 11.0986 27.8146C10.8894 27.8707 10.6715 27.9323 10.4623 27.9941C10.6192 27.8818 10.7674 27.7697 10.8894 27.6519C11.2468 27.4387 11.8133 27.2703 11.9964 27.0683C12.6675 26.4007 13.8093 26.0697 14.681 25.4301C15.2039 25.0093 15.8141 24.4874 16.4242 23.9656C16.337 23.8702 16.7729 23.7524 16.555 23.7131C17.2784 23.3989 18.1239 23.0287 18.1762 22.6191L18.2198 22.5854C18.2721 22.5629 18.3331 22.5181 18.3854 22.462C19.0129 22.2207 19.4749 21.9458 19.8933 21.6428C20.3117 21.3398 20.6865 21.0144 21.1484 20.6833C21.4971 20.4926 21.8632 20.3074 22.2554 20.1335C22.0026 20.2457 21.5755 20.3691 21.3663 20.5318C21.2966 20.5823 21.2269 20.6328 21.1571 20.6833C20.2506 21.1771 19.4488 21.7157 18.612 22.2207C18.5597 22.2824 18.4813 22.3778 18.3941 22.462C18.3244 22.49 18.2546 22.5125 18.1849 22.5405C18.1849 22.5686 18.1849 22.591 18.1849 22.6191C17.4266 23.1409 16.4678 23.6346 15.8228 24.0947C15.1778 24.4818 14.4543 24.8185 13.7047 25.1327C12.9551 25.4469 12.1707 25.7274 11.4211 26.0191C12.0922 25.632 12.746 25.2505 13.3648 24.8634C12.5542 25.3178 11.7785 25.7442 11.0376 26.1706C10.9068 26.2211 10.7848 26.2717 10.6628 26.3221L9.87831 26.6475C10.1398 26.569 10.3926 26.4849 10.6541 26.4007C10.2182 26.6588 9.78243 26.9168 9.34661 27.1693C8.11762 27.8089 6.84505 28.4373 5.50274 28.9984C4.84031 29.2846 4.16045 29.5595 3.48058 29.8232C2.792 30.0756 2.09469 30.3169 1.38867 30.547C1.39739 30.4684 1.41483 30.3843 1.44098 30.3001C2.0947 30.0476 2.74841 29.8007 3.34983 29.537C3.94253 29.2621 4.49166 28.9704 4.91876 28.6394C4.16044 28.9255 3.71592 29.2117 2.99247 29.4922C2.97504 29.4642 2.93145 29.4249 2.98375 29.3856C2.55665 29.6101 2.0424 29.8625 1.51942 30.0701C1.59787 29.8794 1.69375 29.683 1.78963 29.4866C1.98138 29.2902 2.39105 29.1444 2.75713 28.948C4.41322 28.2074 6.06931 27.6295 7.64695 26.8327C8.39655 26.541 9.16357 26.266 9.90445 25.9631C10.6453 25.6657 11.3862 25.3627 12.1097 25.0597C10.7935 25.7779 9.58196 26.468 8.42269 27.1581Z" fill="#0090B2"/>
<path d="M25.7149 6.26343C28.6446 9.74162 30.6273 14.4397 33.557 17.8839C33.9995 18.4002 34.4509 18.9109 34.8935 19.4385C35.3272 19.9662 35.7609 20.4939 36.2034 21.0273C36.6371 21.5607 37.0708 22.094 37.4868 22.633C37.9205 23.1664 38.3454 23.7055 38.7791 24.2388L39.4075 25.0445C39.6199 25.3112 39.8412 25.5722 40.0537 25.8389C40.4785 26.3722 40.9122 26.9 41.3371 27.4276C41.7708 27.944 42.2133 28.466 42.6382 28.9766C42.8595 29.232 43.063 29.493 43.2843 29.7427C43.5056 29.9924 43.7268 30.2419 43.9481 30.4859C43.6118 30.6277 42.8152 30.5086 42.9391 30.9114C43.6206 32.4491 42.9657 32.7498 42.3018 33.0392C41.9655 33.1867 41.399 32.0236 41.3636 32.5059C40.9122 31.9952 40.2572 31.337 39.797 30.9455C39.3544 30.5483 39.08 30.4236 39.3456 31.0137C39.3013 31.5016 40.868 32.7159 40.6644 33.2719C40.4697 33.8337 39.3544 33.3627 39.1685 33.9187C39.4695 34.2705 40.1333 34.9458 40.4608 35.2862C40.4608 35.7742 39.142 35.3883 39.4695 35.7344C39.6376 36.0294 39.8501 36.3302 40.1068 36.6366C40.3634 36.9487 40.6467 37.2607 40.983 37.5728C41.638 38.2026 42.3815 38.8552 43.0807 39.5247C42.9214 39.6042 42.8506 39.7629 42.709 39.8367C42.6382 39.8708 42.5497 39.8821 42.4346 39.8537C42.3107 39.8197 42.1514 39.7403 41.9389 39.5871C38.7083 36.699 35.7609 33.6407 33.079 30.4859C30.3971 27.3368 27.9719 24.0913 25.7061 20.8287C23.449 17.5661 21.3425 14.2865 19.2979 11.041C17.2533 7.79544 15.2529 4.57822 13.2172 1.42913C12.4117 -0.0574721 13.8545 0.770969 15.129 1.67314C14.7042 1.37242 15.2352 1.19653 14.8104 0.895801C15.3415 0.719905 16.7311 1.13979 17.8906 2.52993C17.6516 2.16679 17.3949 1.80931 17.1471 1.44617C17.0763 1.02629 17.6781 1.27026 18.0322 1.15111C18.28 1.51424 18.5278 1.87741 18.7137 1.82067C18.8907 1.76393 19.2448 1.64476 19.4218 1.58802C19.174 1.22488 18.6695 0.498637 18.4216 0.135498C18.6695 0.498637 18.9261 0.861737 19.1032 0.804997C19.2802 0.748256 19.6342 0.629082 19.8113 0.572341C20.5016 1.24188 20.8645 2.46181 21.5372 3.13702L22.0683 2.96684C21.7585 2.17247 20.8557 1.12843 20.3423 0.396482C20.776 0.70288 20.953 0.646134 21.3071 0.532654C21.7762 1.05467 22.0506 1.63345 22.3781 2.20086C22.6967 2.76826 23.0773 3.3186 23.6969 3.78955C23.4579 3.42074 23.2101 3.05195 22.9711 2.68314C23.3163 2.79662 23.6084 3.0122 23.865 3.28455C24.1129 3.55691 24.3342 3.89172 24.5377 4.24918C24.9183 4.95844 25.2724 5.74141 25.7149 6.26343Z" fill="#0090B2"/>
<path d="M39.2188 19.011C41.3306 18.8375 43.5045 19.0283 45.563 19.0283C47.1513 19.0283 48.7662 19.5142 50.2569 19.2597L50.3012 19.0804L50.1326 19.1209C49.6002 19.0226 49.1921 18.8837 48.7573 18.7796C48.7839 18.7796 48.8105 18.7738 48.8372 18.7738C48.7928 18.7738 48.7484 18.768 48.6952 18.768C48.4024 18.7044 48.0918 18.6582 47.7192 18.664C47.5417 18.6697 47.3731 18.6813 47.1956 18.6871C45.2436 18.5714 43.2383 18.4268 41.3927 18.5946C40.2658 18.6408 39.2632 18.8259 38.1363 18.878C38.4468 18.9184 38.8994 19.0341 39.2188 19.011ZM46.4326 17.3858C45.7671 17.4031 45.1194 17.4146 44.3918 17.3279C45.0661 17.351 45.7494 17.3684 46.4326 17.3858ZM33.3271 16.952C31.6412 17.004 29.8134 16.8941 28.2961 16.657C27.0716 16.5008 23.4426 16.414 23.8418 17.1891C24.7913 16.6454 27.3289 16.9577 29.5472 17.218C31.7655 17.4783 33.6643 17.6865 33.3271 16.952ZM30.8693 19.277C29.5561 19.4158 28.0122 19.2308 26.4416 19.1556C25.9802 19.0977 25.4479 19.277 24.8356 19.196C24.0459 19.1555 23.5579 19.2192 22.919 19.196L23.3449 19.3696C22.289 19.1729 21.5615 19.4448 20.5233 19.1903C20.5056 19.2481 20.3192 19.3465 20.1595 19.3291C19.3698 19.2886 18.6422 19.0746 17.9856 19.1093C17.1959 19.0688 16.4329 18.9705 15.7851 19.0052C15.6343 18.9878 15.2705 19.1208 14.9422 19.1382C14.5607 19.1151 14.1791 19.0804 13.7976 19.0457C13.8064 19.0631 13.8242 19.0804 13.8331 19.0977C14.1347 19.1382 14.4453 19.1729 14.7736 19.1787C15.7319 19.1845 16.841 19.2019 17.7816 19.2655C20.124 19.4448 22.3512 19.4852 24.5694 19.5199C25.0486 19.5199 25.5455 19.4621 26.0246 19.4621C27.4798 19.4043 29.1568 19.6703 30.1949 19.3696C30.3724 19.3349 30.6829 19.3753 30.8693 19.277ZM11.5793 18.7565L11.5616 18.7334C11.5616 18.7449 11.5616 18.7507 11.5527 18.7622C11.5616 18.7565 11.5704 18.7565 11.5793 18.7565ZM7.74616 16.9866C6.72577 16.7495 5.29721 16.6916 3.93076 16.5991C3.92189 16.6165 3.90414 16.6281 3.90414 16.6396C5.01327 16.8478 6.44183 16.8941 7.74616 16.9866ZM4.1792 16.443C4.34779 16.443 4.51637 16.4314 4.68496 16.4256C4.66721 16.4083 4.6406 16.3909 4.62285 16.3736C4.48089 16.3562 4.32117 16.3909 4.1792 16.443ZM56.2107 21.2493C54.4982 21.2146 52.8034 21.2204 51.153 21.2493C47.9144 20.9081 44.7556 20.6883 41.8275 20.8445C39.2277 21.0295 34.9509 20.3933 32.218 21.0295C32.4753 21.0873 32.7237 21.1278 32.9722 21.1567C32.5906 21.1914 32.218 21.2435 31.8719 21.3129C27.746 21.0179 23.7087 20.6478 19.5562 20.1157C18.9439 20.0405 18.4293 20.1504 17.8082 20.0752C17.1782 20.0058 16.566 19.9364 15.9537 19.8728C15.9448 19.8843 15.9537 19.9017 15.9626 19.9133C13.4072 19.6588 10.8783 19.4447 8.19868 19.2886C6.94759 19.1845 5.74085 18.9589 4.5075 18.7912C4.0461 18.7276 4.11709 18.4962 3.83316 18.3979C2.69741 17.941 1.85447 17.5824 0.505769 17.2758C0.505769 17.2758 0.541259 17.1601 0.559005 17.1023C0.337179 17.0907 0.150842 17.0676 0 17.0271C0.869557 16.4661 2.62643 16.4603 0.993789 15.7663C1.10026 15.7605 1.189 15.7547 1.2866 15.7489C1.29547 15.7489 1.30435 15.7489 1.31322 15.7547V15.7489C1.76574 15.7084 2.04967 15.6275 2.36023 15.4713C2.09404 15.4366 1.82784 15.3961 1.55278 15.3614C1.63264 15.2862 1.68588 15.211 1.68588 15.1243C1.7125 15.1127 1.73911 15.1011 1.77461 15.0895C1.88996 15.1069 1.99643 15.1185 1.99643 15.1185C2.04967 15.078 2.09404 15.0375 2.12954 14.997C2.91036 14.8467 4.06385 14.864 3.92188 14.5921C3.79766 14.4475 3.24754 14.4823 2.64417 14.4765C2.61755 14.4476 2.58206 14.4244 2.54657 14.4013C3.3274 14.4476 2.67966 13.9906 3.14993 13.9964C3.76217 14.0831 4.39215 14.1005 5.00439 14.1873C7.48884 14.5285 9.6095 14.7483 12.1117 14.8987C12.2182 14.9045 12.3335 14.9161 12.44 14.9219C13.6467 15.0028 14.7736 15.1416 15.9182 15.3383C15.8295 15.3672 15.7408 15.3961 15.652 15.4193C16.5748 15.5812 17.5065 15.7142 18.4737 15.7431C20.8428 15.8067 23.2118 15.8646 25.6786 16.1133C28.2606 16.3909 30.7717 16.5702 33.4425 16.6917C32.3333 16.6917 31.2419 16.6801 30.1328 16.5876C29.6448 16.524 29.1568 16.4603 28.6776 16.4141C29.1657 16.495 29.6448 16.5471 30.1328 16.5876C32.0139 16.8421 33.9393 17.1544 35.5542 16.7784C35.6962 16.8478 35.6785 16.9057 35.8382 16.923C36.9118 17.0503 37.9677 17.2411 38.9526 17.1139C38.9703 17.056 39.4318 17.1081 39.3075 16.9751C40.2481 17.0213 41.3217 17.1544 42.2711 17.1428C42.6793 17.1486 43.1052 17.085 43.5488 16.9924C46.9295 17.0618 50.2746 17.1139 53.9037 17.2122C54.7998 17.2527 55.8202 17.3626 56.7164 17.4609C55.35 17.5129 53.948 17.5246 52.5372 17.5188C51.2151 17.3279 49.9374 17.1833 48.8017 17.3626C48.5443 17.3915 48.287 17.4147 48.0208 17.4378C49.5381 17.4783 51.0466 17.5072 52.5283 17.5188C53.3092 17.6345 54.1077 17.7617 54.8974 17.8542C54.8797 17.8542 54.8619 17.86 54.8442 17.86C54.2053 17.8658 53.5576 17.8658 52.9099 17.8658C51.7298 17.6923 50.594 17.565 49.5559 17.6634C49.4228 17.6749 49.2986 17.6923 49.1743 17.7096C48.917 17.7385 48.6508 17.7617 48.3935 17.7848C49.3252 17.8079 50.2568 17.8311 51.1885 17.8484C51.7653 17.86 52.3331 17.8658 52.9099 17.8658C53.2559 17.9178 53.602 17.9699 53.9569 18.022C53.9125 18.0335 53.877 18.0451 53.8327 18.0566C53.5044 18.0798 52.4662 18.6755 52.8744 18.9011C54.0634 19.0284 55.5008 19.1093 56.6454 19.1671C57.79 19.225 58.633 19.2655 58.6241 19.2944C58.7128 19.5489 54.578 19.41 54.7111 19.4852C54.9329 19.5373 55.1548 19.5835 55.3766 19.6298C55.1459 19.6529 54.9241 19.6819 54.7111 19.7166C54.232 19.7224 53.6375 19.6009 53.2914 19.6819C52.1202 19.9133 50.9223 19.6588 49.6269 19.7513C48.8105 19.8381 47.8256 19.9711 46.8319 20.0983C46.7964 20.214 46.3527 20.1041 46.4769 20.2371C45.6074 20.1388 44.6047 20.0231 44.1344 20.3181H44.0724C44.0102 20.3123 43.9215 20.3181 43.815 20.3355C42.3865 20.1041 41.2862 20.3181 39.9109 20.3875C39.4495 20.3644 38.9881 20.3297 38.5178 20.2719C38.8284 20.3066 39.272 20.4222 39.5915 20.3991C39.6979 20.3933 39.8044 20.3875 39.9109 20.3875C41.0999 20.4511 42.2623 20.4223 43.4069 20.4223C43.5045 20.3991 43.6731 20.3586 43.815 20.3355C43.8949 20.3471 43.9747 20.3586 44.0546 20.3759C44.0812 20.3528 44.1078 20.3355 44.1344 20.3123C45.2436 20.2661 46.4592 20.3413 47.4175 20.2777C49.1832 20.2719 50.9756 20.5784 52.7147 20.8039C51.8185 20.8039 50.9312 20.8155 50.0616 20.8329C51.1442 20.8502 52.1645 20.8618 53.1494 20.856C53.3003 20.8734 53.4423 20.8907 53.5931 20.9081L54.5159 21.0121C54.232 20.9543 53.9569 20.9023 53.673 20.856C54.2674 20.8503 54.8531 20.8444 55.4298 20.8271C58.5886 20.8965 61.8184 21.0931 64.924 21.5153C64.8441 21.579 64.7554 21.6426 64.6578 21.7062C63.1405 21.579 61.6321 21.4228 60.3189 21.6021C61.1884 21.6946 61.8184 21.6599 62.6613 21.7351C62.6525 21.7698 62.6436 21.8161 62.5726 21.8335C63.1316 21.8219 63.7705 21.8277 64.3827 21.8739C64.152 22.007 63.8858 22.1342 63.6374 22.2615C63.3002 22.3482 62.8299 22.2961 62.3597 22.3077C60.3277 22.192 58.4467 21.9607 56.4414 21.8855C54.6934 21.6715 52.9454 21.4575 51.224 21.2725C53.0075 21.2898 54.6224 21.2956 56.2107 21.2493Z" fill="#0090B2"/>
</svg>
