<svg width="46" height="26" viewBox="0 0 46 26" fill="none" xmlns="http://www.w3.org/2000/svg">
<path d="M3.99518 21.623C3.96497 21.6378 3.94231 21.6525 3.91211 21.6672C4.02536 21.6574 4.01783 21.6427 3.99518 21.623Z" fill="#0090B2"/>
<path d="M36.3385 1.08012C36.1799 0.98788 35.9761 0.919914 35.9006 0.774279C35.9761 0.725733 36.1195 0.628631 36.195 0.580086C36.1875 0.478141 36.0365 0.468448 35.9534 0.415048C36.0289 0.366503 36.1044 0.317953 36.0591 0.288826C36.0063 0.186881 35.8553 0.191712 35.6816 0.26453C35.8251 0.788818 35.1682 1.4345 36.3385 1.08012Z" fill="#0090B2"/>
<path d="M36.2578 1.19672C36.3258 1.15279 36.3937 1.10884 36.3937 1.10884C36.3786 1.09908 36.3635 1.08935 36.3484 1.08447C36.3107 1.12352 36.2805 1.15767 36.2578 1.19672Z" fill="#0090B2"/>
<path d="M36.6006 1.61225L36.6459 1.58279C36.6308 1.57788 36.6157 1.57302 36.6081 1.56812C36.6006 1.58283 36.6006 1.59753 36.6006 1.61225Z" fill="#0090B2"/>
<path d="M36.0728 1.69248L36.4654 1.43518C36.4126 1.34294 36.3748 1.24587 36.2465 1.20703C36.1106 1.38665 36.0577 1.52258 36.0728 1.69248Z" fill="#0090B2"/>
<path d="M11.2946 18.1865C11.2115 18.2302 11.136 18.2691 11.0605 18.3127C10.985 18.371 10.9095 18.4341 10.834 18.4924C10.8944 18.4632 10.9472 18.4389 11.0077 18.4098C11.0983 18.3321 11.1964 18.2593 11.2946 18.1865Z" fill="#0090B2"/>
<path d="M18.4135 14.2747C18.0439 14.6776 17.5914 15.0514 17.1238 15.4106C16.6563 15.7699 16.1661 16.1146 15.7287 16.4738C15.5552 16.6097 15.3667 16.736 15.1631 16.8573C14.9594 16.9787 14.7483 17.0903 14.5447 17.2068C14.1374 17.4398 13.7528 17.6826 13.5266 17.9884L13.6397 18.0758L13.6849 18.003C13.9866 17.8622 14.2732 17.7796 14.5371 17.668C14.5296 17.6777 14.5145 17.6874 14.5069 17.6971C14.5296 17.6826 14.5522 17.668 14.5748 17.6534C14.7483 17.5806 14.9217 17.4932 15.0801 17.3622C15.148 17.299 15.2158 17.2359 15.2913 17.1728C15.7588 16.8621 16.2264 16.5417 16.6638 16.2165C17.1012 15.8912 17.5085 15.5563 17.8252 15.1971C18.2551 14.7844 18.5341 14.3621 18.964 13.9495C18.8056 14.0417 18.5341 14.1533 18.4135 14.2747ZM16.5959 17.435C16.8674 17.1923 17.1389 16.9641 17.516 16.7456C17.2144 16.9738 16.9051 17.202 16.5959 17.435ZM22.4331 12.9931C23.0741 12.3668 23.9037 11.76 24.688 11.3037C24.9896 11.1095 25.5251 10.6969 25.8795 10.3134C26.234 9.92986 26.415 9.57066 26.0304 9.5027C26.0832 10.0464 24.8313 10.8425 23.7453 11.5416C22.6518 12.2358 21.7166 12.8329 22.4331 12.9931ZM21.611 11.2309C21.8222 10.9687 22.1163 10.7212 22.4406 10.4736C22.7649 10.2212 23.1269 9.96875 23.4662 9.70175C23.6925 9.56097 23.7604 9.30364 24.0696 9.11432C24.4089 8.84732 24.5522 8.64832 24.8162 8.42501L24.5145 8.51236C25.0801 8.20167 25.148 7.84246 25.7513 7.56575C25.7136 7.53662 25.7061 7.43468 25.7815 7.38613C26.1209 7.11914 26.5734 6.92977 26.7921 6.68219C27.1239 6.41519 27.501 6.1725 27.7197 5.92492C27.7951 5.87637 27.8252 5.69676 27.9308 5.57055C28.0967 5.43947 28.2702 5.3181 28.4361 5.19188C28.421 5.19188 28.3984 5.18701 28.3833 5.18216C28.2325 5.27925 28.0892 5.37635 27.961 5.49286C27.5915 5.83753 27.1465 6.23071 26.7393 6.55111C25.6985 7.33269 24.8011 8.11431 23.9037 8.89588C23.7151 9.06579 23.5643 9.26482 23.3758 9.43473C22.8478 9.97844 21.9806 10.4736 21.792 10.9542C21.7619 11.0319 21.611 11.1241 21.611 11.2309ZM29.5221 4.48794C29.5296 4.48794 29.5372 4.48794 29.5447 4.48794L29.5296 4.47828C29.5296 4.47828 29.5221 4.48308 29.5221 4.48794ZM32.3879 3.73066C32.9686 3.44424 33.5493 2.93939 34.1375 2.4685C34.13 2.45879 34.1224 2.44905 34.1148 2.4442C33.5266 2.77431 32.961 3.28404 32.3879 3.73066ZM34.1676 2.6141C34.1073 2.67721 34.047 2.74033 33.9942 2.80829C34.0168 2.80829 34.0394 2.80343 34.0545 2.80343C34.1224 2.75488 34.1601 2.68206 34.1676 2.6141ZM9.42397 19.1438C10.2234 18.6001 10.9624 18.0224 11.6638 17.4641C12.0861 17.2311 12.4858 16.9883 12.878 16.7456C13.2702 16.5029 13.6472 16.2554 14.0092 16.0078C14.7257 15.5078 15.3818 14.9883 15.9398 14.4543C16.4074 13.9688 17.2068 13.4203 17.9534 12.8329C18.7 12.2455 19.4089 11.6339 19.7106 11.0319C19.5598 11.0999 19.4316 11.1726 19.3109 11.2455C19.4391 11.095 19.5447 10.9493 19.6276 10.7988C21.5055 9.45897 23.3682 8.16283 25.3893 6.87153C25.691 6.67734 25.7966 6.44918 26.0907 6.25985C26.3848 6.06082 26.6789 5.86179 26.9655 5.66761C26.958 5.66276 26.9429 5.65789 26.9278 5.65789C28.1043 4.82777 29.2355 3.98795 30.3743 3.06559C30.9323 2.6481 31.5658 2.28885 32.1541 1.89564C32.3728 1.75 32.5387 1.86167 32.7272 1.78885C33.5191 1.53642 34.1299 1.35191 34.8765 0.968405C34.8765 0.968405 34.9595 1.02183 34.9972 1.05095C35.0877 0.973281 35.1782 0.915029 35.2687 0.871338C35.3969 1.39077 34.7408 2.03645 35.9173 1.68207C35.8796 1.7209 35.8494 1.75973 35.8268 1.79857C35.8192 1.80342 35.8192 1.80343 35.8117 1.80829C35.8117 1.80829 35.8117 1.80829 35.8192 1.80829C35.6835 1.98791 35.6383 2.12383 35.6458 2.29374C35.774 2.20636 35.9022 2.12382 36.0379 2.03644C36.0681 2.08984 36.1058 2.1384 36.1812 2.17238C36.1812 2.18694 36.1812 2.20149 36.1812 2.21605C36.1209 2.25489 36.0756 2.28402 36.0756 2.28402C36.0907 2.318 36.1058 2.3471 36.1284 2.37623C35.9625 2.7209 35.51 3.13355 35.7815 3.1821C35.9475 3.18695 36.1209 2.97335 36.3547 2.75004C36.3848 2.75004 36.4226 2.74517 36.4527 2.74032C36.1209 3.01217 36.7318 2.9345 36.5508 3.10927C36.2566 3.30345 35.9927 3.52677 35.6986 3.7258C34.4844 4.52194 33.504 5.22099 32.4256 6.08509C32.3803 6.12393 32.3275 6.1579 32.2823 6.19674C31.7544 6.60937 31.2114 6.97349 30.6081 7.31816C30.6156 7.27447 30.6307 7.23078 30.6458 7.19194C30.1631 7.4735 29.6955 7.75992 29.2958 8.09974C28.3305 8.93957 27.3501 9.77454 26.1736 10.5755C25.5477 10.9882 24.9519 11.4056 24.3637 11.828C23.7679 12.2503 23.1872 12.6824 22.599 13.1387C23.0439 12.7455 23.504 12.3572 24.0243 11.9979C24.2732 11.8474 24.5145 11.6969 24.7483 11.5416C24.4919 11.6872 24.2581 11.8426 24.0243 11.9979C23.059 12.5708 22.0484 13.1436 21.6714 13.8572C21.5582 13.8815 21.5205 13.8523 21.4451 13.9009C20.9021 14.231 20.3214 14.5368 20.0047 14.93C20.0424 14.9592 19.8086 15.0999 19.9595 15.1096C19.5296 15.4203 18.9791 15.7456 18.5794 16.0854C18.3984 16.2262 18.2702 16.401 18.1495 16.5903C17.7724 16.8767 17.3953 17.168 17.0183 17.4544C16.8297 17.6001 16.6412 17.7408 16.4527 17.8865C16.2566 18.0321 16.068 18.1729 15.872 18.3185C15.4798 18.605 15.0876 18.8962 14.6879 19.1923C14.2807 19.4836 13.8584 19.7797 13.4361 20.0807C13.2174 20.2263 12.976 20.372 12.7196 20.5176C12.4707 20.6632 12.2068 20.7991 11.9655 20.9302C12.5688 20.4496 13.1796 19.9642 13.8282 19.4884C14.5748 19.1195 15.2385 18.7311 15.6005 18.2699C15.691 18.168 15.789 18.0709 15.887 17.9738C15.5401 18.2263 15.1932 18.4836 14.8539 18.736C14.6804 18.8622 14.5145 18.9884 14.341 19.1146C14.1676 19.2408 14.0017 19.3671 13.8282 19.4933C13.3908 19.7118 12.9383 19.9302 12.516 20.1584C12.5235 20.1535 12.5311 20.1438 12.5311 20.139C12.8176 19.9157 13.1042 19.6972 13.3984 19.4787C13.7226 19.3137 14.0469 19.1487 14.3259 18.9739C14.605 18.7991 14.8539 18.6146 15.0424 18.4156C15.0876 18.3671 15.1329 18.3136 15.1781 18.2651C15.2686 18.1631 15.3667 18.0661 15.4647 17.969C15.0349 18.2797 14.6125 18.5952 14.1902 18.9059C13.9263 19.1001 13.6623 19.2894 13.4059 19.4836C13.2098 19.5807 13.0137 19.6778 12.8252 19.7749C12.8327 19.7555 12.8478 19.736 12.8554 19.7214C12.9836 19.6001 13.0137 18.9982 12.6593 19.0419C12.3501 19.2166 12.0183 19.4156 11.694 19.6195C11.3697 19.8234 11.0454 20.0225 10.7588 20.1972C10.1932 20.5516 9.77843 20.8186 9.76335 20.8041C9.54464 20.7264 11.5356 19.4108 11.4074 19.4205C11.2716 19.4739 11.1359 19.5273 11.0001 19.5807C11.0831 19.4933 11.1736 19.4108 11.2415 19.3234C11.4451 19.1583 11.8071 19.0079 11.8976 18.8622C12.2445 18.3671 12.9685 18.0758 13.4587 17.5952C13.7453 17.2796 14.0771 16.8913 14.4089 16.5029C14.3335 16.4446 14.6125 16.3378 14.4542 16.3233C14.8991 16.066 15.4119 15.765 15.3818 15.4835L15.4044 15.4592C15.4345 15.4398 15.4647 15.4058 15.4949 15.3669C15.8795 15.1679 16.151 14.9543 16.3923 14.7213C16.6261 14.4932 16.8297 14.2504 17.0861 13.998C17.2898 13.8475 17.5085 13.7019 17.7498 13.5611C17.5914 13.6533 17.3275 13.765 17.2068 13.8864C17.1691 13.9252 17.1238 13.964 17.0861 14.0029C16.5507 14.3912 16.0907 14.8038 15.6005 15.1971C15.5778 15.2407 15.5401 15.3136 15.4949 15.3718C15.4496 15.3961 15.4119 15.4155 15.3667 15.4349C15.3742 15.4543 15.3742 15.4689 15.3818 15.4883C14.9443 15.8864 14.3787 16.2796 14.0167 16.6291C13.6397 16.9301 13.2023 17.202 12.7422 17.4593C12.2822 17.7166 11.792 17.9544 11.3244 18.1972C11.7166 17.8962 12.1012 17.6 12.4632 17.299C11.9805 17.6583 11.5205 17.9884 11.0906 18.3233C11.0152 18.367 10.9323 18.4059 10.8569 18.4496L10.3742 18.7166C10.5401 18.6486 10.6985 18.5758 10.8644 18.503C10.608 18.702 10.3516 18.9059 10.1027 19.1001C9.36363 19.605 8.60195 20.1098 7.77993 20.571C7.37269 20.804 6.95791 21.0322 6.53558 21.2506C6.10572 21.4642 5.66829 21.673 5.22335 21.8672C5.2158 21.8138 5.21582 21.7555 5.21582 21.6973C5.62306 21.4837 6.03029 21.2798 6.39982 21.0662C6.76181 20.8477 7.0861 20.6147 7.32743 20.3623C6.85986 20.6001 6.59591 20.8234 6.15096 21.0564C6.13588 21.037 6.09817 21.0128 6.12834 20.9837C5.87192 21.1633 5.57025 21.3623 5.24597 21.537C5.26859 21.406 5.29877 21.2652 5.32894 21.1293C5.42698 20.9836 5.6834 20.8623 5.9021 20.7069C6.91266 20.105 7.94585 19.6098 8.89608 18.9787C9.36365 18.736 9.83875 18.503 10.2912 18.2506C10.7513 18.003 11.2038 17.7554 11.6487 17.5078C10.8192 18.0661 10.1102 18.6098 9.42397 19.1438Z" fill="#0090B2"/>
<path d="M16.3607 4.0502C18.9097 6.19105 21.0214 9.2057 23.5628 11.3223C23.9475 11.6378 24.3396 11.9534 24.7167 12.2786C25.0938 12.6039 25.4784 12.9291 25.8555 13.2592C26.2401 13.5845 26.6172 13.9194 26.9867 14.2544C27.3638 14.5845 27.7408 14.9146 28.1179 15.2447L28.676 15.7447C28.8645 15.9098 29.0531 16.07 29.2416 16.2351C29.6187 16.5652 29.9958 16.8904 30.3653 17.2157C30.7424 17.5361 31.127 17.8516 31.504 18.1671C31.6926 18.3225 31.8736 18.4827 32.0621 18.638C32.2507 18.7885 32.4467 18.9439 32.6353 19.0944C32.4316 19.2109 31.8736 19.1817 32.0244 19.439C32.7409 20.4245 32.3487 20.6624 31.9415 20.9002C31.7378 21.0168 31.1647 20.2789 31.2175 20.6041C30.8253 20.2934 30.2823 19.8953 29.9052 19.6623C29.5433 19.4244 29.3321 19.3614 29.6111 19.7352C29.6639 20.0604 30.9158 20.7789 30.8706 21.1624C30.8329 21.5508 30.0033 21.3032 29.9656 21.6915C30.222 21.91 30.7801 22.3178 31.0591 22.5265C31.1421 22.8518 30.1843 22.677 30.4633 22.8857C30.6217 23.0702 30.8178 23.2596 31.044 23.4489C31.2627 23.6382 31.5116 23.8324 31.7906 24.0217C32.3336 24.4004 32.9445 24.7887 33.5252 25.1916C33.4347 25.2547 33.4121 25.3664 33.3291 25.4246C33.2914 25.4538 33.2311 25.4684 33.1406 25.4538C33.0501 25.4392 32.9294 25.3955 32.7635 25.3081C30.1089 23.5799 27.6202 21.7206 25.2899 19.7837C22.9595 17.8467 20.7951 15.8321 18.7287 13.7932C16.6699 11.7543 14.7091 9.69599 12.7936 7.65709C10.878 5.61818 9.00019 3.59387 7.10727 1.61808C6.31541 0.676304 7.43156 1.14232 8.43458 1.66176C8.09522 1.48699 8.42703 1.33649 8.09521 1.16173C8.41949 1.01124 9.43006 1.2054 10.4406 2.0598C10.2219 1.83164 9.98814 1.60838 9.7619 1.38021C9.64123 1.10351 10.0937 1.22972 10.3124 1.12777C10.5387 1.35593 10.7724 1.57922 10.878 1.53067C10.9911 1.48213 11.2099 1.38017 11.3154 1.33162C11.0892 1.10346 10.6292 0.651991 10.4029 0.423828C10.6292 0.651991 10.863 0.880192 10.9685 0.826792C11.0741 0.773392 11.3004 0.676285 11.4059 0.62774C11.9791 1.03067 12.4316 1.82198 12.9897 2.22976L13.3215 2.0841C12.9821 1.57437 12.1978 0.933606 11.7302 0.47728C12.0696 0.656898 12.1827 0.603467 12.4014 0.506376C12.8087 0.821921 13.0802 1.19574 13.3969 1.55497C13.7061 1.91421 14.053 2.25888 14.5508 2.53074C14.3321 2.29772 14.1058 2.06953 13.8795 1.83651C14.1284 1.88991 14.3622 2.01611 14.5809 2.18116C14.7996 2.35107 14.9957 2.55987 15.1918 2.78318C15.6141 3.2298 15.9761 3.72981 16.3607 4.0502Z" fill="#0090B2"/>
<path d="M27.4018 11.7827C28.7819 11.5448 30.26 11.5302 31.6401 11.404C32.6959 11.3069 33.8498 11.5205 34.8075 11.2632V11.1467L34.702 11.1856C34.3324 11.1564 34.0383 11.0885 33.7291 11.0545C33.7442 11.0496 33.7668 11.0496 33.7819 11.0448C33.7517 11.0448 33.7215 11.0496 33.6914 11.0496C33.4878 11.0253 33.2691 11.0156 33.0202 11.0448C32.9071 11.0593 32.7864 11.0739 32.6733 11.0934C31.3535 11.1419 29.996 11.171 28.7894 11.3895C28.0428 11.4914 27.4018 11.671 26.6627 11.7681C26.8739 11.7729 27.1906 11.8166 27.4018 11.7827ZM31.9568 10.2972C31.5119 10.3506 31.082 10.3991 30.5843 10.3894C31.0443 10.3603 31.5044 10.3312 31.9568 10.2972ZM23.1408 10.8263C22.0247 10.9623 20.7879 11.0059 19.7396 10.9477C18.895 10.9234 16.4591 11.0885 16.8512 11.5642C17.4017 11.1564 19.1438 11.205 20.6597 11.2341C22.1755 11.2632 23.4877 11.2729 23.1408 10.8263ZM21.8739 12.4672C21.0217 12.6371 19.9583 12.6128 18.9025 12.6614C18.5858 12.6516 18.2615 12.7973 17.8392 12.7876C17.3112 12.8118 16.987 12.8798 16.5646 12.9089L16.8738 12.9963C16.1348 12.938 15.6974 13.1565 14.9658 13.0545C14.9658 13.0934 14.8527 13.1662 14.7471 13.1662C14.2192 13.1905 13.6913 13.0982 13.2615 13.1613C12.7335 13.1856 12.2056 13.1662 11.7758 13.2293C11.6702 13.2244 11.4515 13.3361 11.2328 13.3652C10.9764 13.3701 10.7124 13.375 10.456 13.375C10.4636 13.3847 10.4786 13.3943 10.4862 13.4041C10.6973 13.4138 10.9085 13.4138 11.1272 13.3993C11.7682 13.341 12.5148 13.2876 13.1483 13.2682C14.7396 13.239 16.2328 13.1274 17.7185 13.0157C18.0352 12.9866 18.3595 12.9186 18.6763 12.8895C19.634 12.7633 20.7954 12.8312 21.444 12.5739C21.5496 12.5351 21.7607 12.54 21.8739 12.4672ZM8.91756 13.3167L8.90247 13.3021C8.90247 13.307 8.90247 13.3119 8.90247 13.3216C8.91001 13.3216 8.91002 13.3167 8.91756 13.3167ZM6.08195 12.4186C5.36551 12.3264 4.4002 12.3798 3.4726 12.4041C3.46505 12.4138 3.46505 12.4234 3.46505 12.4331C4.23428 12.4963 5.19205 12.438 6.08195 12.4186ZM3.61589 12.2875C3.72901 12.2778 3.84212 12.2584 3.95524 12.2439C3.94016 12.2342 3.92508 12.2244 3.90999 12.2147C3.80441 12.2147 3.69884 12.2439 3.61589 12.2875ZM39.0987 12.171C37.9448 12.2536 36.8211 12.3652 35.7201 12.4817C33.5028 12.4623 31.3611 12.5157 29.4304 12.7924C27.7261 13.0691 24.7698 12.9283 23.0503 13.5012C23.2313 13.5206 23.4048 13.5351 23.5707 13.5351C23.3218 13.5837 23.0805 13.6371 22.8618 13.7002C20.0639 13.7633 17.3113 13.7779 14.453 13.6905C14.0307 13.6808 13.7064 13.7827 13.2841 13.773C12.8542 13.7681 12.4319 13.7633 12.0096 13.7536C12.0096 13.7633 12.0096 13.773 12.0247 13.7779C10.275 13.773 8.55557 13.7924 6.74561 13.8555C5.89342 13.8653 5.04877 13.7973 4.20412 13.7633C3.88738 13.7536 3.90245 13.5983 3.69128 13.5497C2.86172 13.3264 2.24332 13.1468 1.29309 13.0352C1.29309 13.0352 1.30064 12.9574 1.30064 12.9186C1.14981 12.9235 1.0216 12.9186 0.916016 12.9041C1.40621 12.4914 2.57516 12.3798 1.37606 12.0351C1.44393 12.0254 1.50426 12.0157 1.5646 12.006C1.57214 12.006 1.57968 12.006 1.58722 12.006V12.0011C1.88134 11.9477 2.06233 11.8798 2.24333 11.7584C2.05479 11.7536 1.87378 11.7438 1.68524 11.739C1.72295 11.6856 1.75312 11.6322 1.73804 11.5788C1.75312 11.5691 1.76821 11.5594 1.79083 11.5496C1.87379 11.5545 1.94167 11.5545 1.94167 11.5545C1.97184 11.5254 1.99446 11.4962 2.00954 11.4671C2.50728 11.3215 3.27652 11.2632 3.14077 11.0982C3.03519 11.0108 2.6732 11.069 2.2735 11.103C2.25088 11.0884 2.22071 11.0739 2.19808 11.0593C2.72599 11.0399 2.22069 10.7875 2.53743 10.7632C2.95976 10.7778 3.3821 10.7535 3.80442 10.7729C5.51635 10.836 6.97184 10.8506 8.66113 10.7924C8.73655 10.7924 8.81197 10.7875 8.87984 10.7875C9.70187 10.7681 10.4711 10.7827 11.2705 10.8409C11.2177 10.8652 11.1649 10.8895 11.1046 10.9089C11.7456 10.9526 12.3942 10.9817 13.0428 10.9428C14.634 10.8409 16.2253 10.7292 17.907 10.7389C19.6717 10.7583 21.3761 10.7195 23.1785 10.6321C22.4395 10.7001 21.7079 10.7584 20.9538 10.7681C20.6144 10.7535 20.2826 10.7438 19.9508 10.7438C20.2901 10.7632 20.622 10.7729 20.9538 10.7681C22.2509 10.8166 23.5858 10.8943 24.6039 10.5544C24.7095 10.5884 24.7095 10.6273 24.815 10.6321C25.5541 10.6516 26.2856 10.7049 26.9267 10.5642C26.9267 10.5253 27.2434 10.535 27.1454 10.4525C27.7789 10.4282 28.5179 10.4428 29.1514 10.3797C29.4229 10.3603 29.7019 10.2923 29.981 10.2049C32.251 10.0447 34.4908 9.86996 36.9267 9.70976C37.53 9.68064 38.2314 9.69039 38.8422 9.69525C37.9373 9.81175 37.0097 9.90883 36.0594 9.98651C35.1469 9.94281 34.2721 9.93312 33.5406 10.1176C33.3671 10.1516 33.2012 10.1807 33.0353 10.2147C34.0534 10.1467 35.0639 10.0739 36.0594 9.99136C36.6024 10.0156 37.1529 10.0496 37.6959 10.0593C37.6884 10.0593 37.6733 10.0641 37.6658 10.069C37.2359 10.1127 36.806 10.1515 36.3762 10.1904C35.5617 10.1515 34.7849 10.137 34.1062 10.268C34.0232 10.2826 33.9403 10.302 33.8573 10.3214C33.6914 10.3554 33.5179 10.3846 33.352 10.4137C33.978 10.37 34.6039 10.3263 35.2223 10.2826C35.6069 10.2535 35.9915 10.2243 36.3762 10.1904C36.6175 10.2001 36.8588 10.2147 37.1002 10.2244C37.0775 10.2341 37.0474 10.2438 37.0247 10.2535C36.8136 10.2875 36.2102 10.7341 36.5194 10.8506C37.3339 10.8603 38.3068 10.8215 39.076 10.7924C39.8453 10.7632 40.4184 10.7341 40.4184 10.7486C40.5165 10.904 37.7336 11.069 37.8392 11.1127C37.9976 11.1321 38.1484 11.1467 38.3068 11.1613C38.156 11.1904 38.0127 11.2195 37.8769 11.2535C37.5602 11.2875 37.1379 11.2438 36.9267 11.3166C36.1801 11.5351 35.343 11.4477 34.4908 11.5885C33.9553 11.6953 33.3219 11.8409 32.6808 11.9817C32.6808 12.0594 32.3641 12.0157 32.4621 12.0934C31.8664 12.0836 31.1801 12.0691 30.9161 12.2924L30.8709 12.2973C30.8256 12.2973 30.7728 12.3069 30.705 12.3264C29.717 12.2681 29.0157 12.4672 28.1107 12.5982C27.8015 12.6128 27.4847 12.6177 27.1605 12.6128C27.3716 12.6177 27.6884 12.6613 27.8995 12.6273C27.9674 12.6176 28.0428 12.608 28.1107 12.5982C28.9176 12.5643 29.6793 12.4769 30.4485 12.4041C30.5089 12.3846 30.6145 12.3458 30.705 12.3215C30.7577 12.3264 30.8181 12.3264 30.8709 12.3312C30.886 12.3167 30.901 12.3021 30.9161 12.2875C31.6476 12.1905 32.4772 12.1662 33.1031 12.0643C34.2796 11.9526 35.524 12.0351 36.7155 12.0788C36.1198 12.1322 35.5315 12.1953 34.9508 12.2632C35.6748 12.2099 36.3535 12.1516 37.0172 12.0885C37.1228 12.0885 37.2208 12.0934 37.3188 12.0934L37.9524 12.1031C37.7563 12.0837 37.5602 12.0691 37.3641 12.0545C37.7563 12.0157 38.1484 11.972 38.533 11.9283C40.6522 11.7778 42.8392 11.705 44.981 11.7875C44.9358 11.8361 44.8905 11.8798 44.8377 11.9283C43.8045 11.9429 42.7714 11.9332 41.9267 12.1274C42.5225 12.1322 42.9373 12.0691 43.5104 12.0691C43.5104 12.0933 43.5104 12.1225 43.4652 12.137C43.8347 12.0982 44.2646 12.0594 44.6794 12.0497C44.5436 12.1468 44.3928 12.2438 44.242 12.3409C44.0308 12.4138 43.7141 12.4137 43.3973 12.4477C42.0248 12.5011 40.7352 12.4672 39.3777 12.5449C38.1786 12.5157 36.9719 12.4866 35.7955 12.472C36.9644 12.3943 38.0428 12.3021 39.0987 12.171Z" fill="#0090B2"/>
<path d="M17.1854 13.2981C17.6228 12.9971 17.8943 12.6476 18.1733 12.303C17.4116 12.9195 16.5594 13.4923 16.0391 14.0021C16.4161 13.7642 16.7932 13.5311 17.1854 13.2981Z" fill="#0090B2"/>
<path d="M17.0709 15.8C16.7768 15.9941 16.4902 16.198 16.2188 16.4019C16.8145 15.999 17.4103 15.6009 17.8175 15.198C17.7421 15.2465 17.6215 15.2611 17.5461 15.3096C17.4706 15.4601 17.3123 15.6592 17.0709 15.8Z" fill="#0090B2"/>
<path d="M18.3668 11.7039C18.0877 11.9029 17.8162 12.1068 17.5372 12.3059C16.783 12.8884 16.1345 13.4224 15.501 13.9904C16.0515 13.636 16.6096 13.2865 17.1827 12.9418C17.7182 12.568 18.0048 12.1262 18.3668 11.7039Z" fill="#0090B2"/>
<path d="M14.5371 17.6669C14.5447 17.6621 14.5597 17.6572 14.5673 17.6523C14.8011 17.4921 15.0424 17.332 15.2837 17.1718C15.5779 16.9145 15.8795 16.6523 16.2189 16.3999C15.8946 16.6135 15.5778 16.8319 15.2913 17.0455C14.9971 17.2543 14.7407 17.463 14.5371 17.6669Z" fill="#0090B2"/>
<path d="M17.6348 17.0921C17.7178 17.0436 17.8764 16.9514 17.9519 16.9077C17.9745 16.864 18.0047 16.8154 18.0274 16.7717C17.9519 16.8154 17.8764 16.8543 17.7933 16.898L17.6348 17.0921Z" fill="#0090B2"/>
<path d="M45.7588 12.4655C45.7965 12.4655 45.8268 12.4655 45.8645 12.4655C45.7664 12.4294 45.7588 12.4449 45.7588 12.4655Z" fill="#0090B2"/>
<path d="M38.0128 10.2691C38.488 10.1623 38.7745 10.1187 38.9405 10.109C39.0159 10.0556 39.1139 9.99244 39.2421 9.90991C39.2119 9.90991 39.1818 9.90991 39.1591 9.90991C38.6689 9.97302 38.1712 10.0313 37.6659 10.0798C37.4623 10.1235 37.2587 10.1769 37.0928 10.2352C37.402 10.2498 37.7112 10.2594 38.0128 10.2691Z" fill="#0090B2"/>
<path d="M29.9512 11.2929C30.3659 11.288 30.7883 11.2637 31.1955 11.2346C30.3508 11.2589 29.4987 11.2832 28.7822 11.3851C28.8878 11.3851 28.9934 11.4288 29.099 11.4288C29.3177 11.356 29.6344 11.288 29.9512 11.2929Z" fill="#0090B2"/>
<path d="M36.71 12.0968C36.8081 12.1017 36.9138 12.1018 37.012 12.1067C37.1328 12.0968 37.2461 12.0821 37.3669 12.0723C37.2989 12.0674 37.2234 12.0625 37.1555 12.0576C37.0044 12.0723 36.861 12.087 36.71 12.0968Z" fill="#0090B2"/>
<path d="M33.7351 11.0517C33.72 11.0517 33.7125 11.0469 33.6974 11.0469C33.3656 11.0614 33.0262 11.076 32.6793 11.0857C32.2042 11.1489 31.714 11.1974 31.2012 11.2362C32.1212 11.2119 33.0262 11.178 33.7351 11.0517Z" fill="#0090B2"/>
<path d="M30.8603 10.0749C30.7546 10.0749 30.5432 10.0701 30.4375 10.0652C30.3696 10.0896 30.3092 10.1091 30.2412 10.1335C30.3394 10.1383 30.4375 10.1432 30.5357 10.1481L30.8603 10.0749Z" fill="#0090B2"/>
</svg>
