<svg width="803" height="110" viewBox="0 0 803 110" fill="none" xmlns="http://www.w3.org/2000/svg">
<path d="M546.25 14.6602L51.9738 15.5677L42.1863 94.6068H546.25V14.6602Z" fill="black"/>
<path d="M0 107.664L19.76 14.8439L38.7578 1.85586H93.693L58.4242 20.9443L36.4 50.4639L84.0915 37.563L51.0869 56.0625L43.1797 94.6643L24.18 107.664H0Z" fill="black"/>
<path d="M62.5879 107.664L82.3479 14.8439L101.348 1.84735L117.62 34.6039H102.238L98.9879 50.4639H112.847L108.687 69.4439H94.8279L90.9279 87.9039L137.735 94.6525L118.748 107.664H62.5879Z" fill="black"/>
<path d="M127.588 107.664L147.348 14.8439L166.352 1.85125L182.001 34.6039H167.238L163.988 50.4639H176.801L172.641 69.4439H159.828L155.928 87.9039L202.742 94.6637L183.748 107.664H127.588Z" fill="black"/>
<path d="M232.758 32.2639L220.408 90.2439H225.218C234.578 90.2439 236.658 86.3439 241.988 61.2539C247.318 36.1639 246.928 32.2639 237.568 32.2639H232.758ZM192.588 107.664L212.348 14.8439L231.459 1.85125L247.448 14.8439C275.398 14.8439 283.096 36.9439 277.896 61.2539C272.696 85.5639 266.586 107.664 238.636 107.664H192.588Z" fill="black"/>
<path d="M268.016 107.664L287.776 14.8439L306.781 1.85907C324.071 1.85907 349.722 24.0739 346.732 37.9839C344.652 47.8639 343.379 56.7039 332.719 58.7839L332.589 59.0439C344.679 60.2139 347.409 70.6139 345.329 80.2339C341.819 96.3539 331.679 107.664 311.529 107.664H268.016ZM308.186 32.2639L304.156 51.2439H310.006C314.946 51.2439 318.586 46.8239 319.756 41.8839C320.796 36.6839 318.976 32.2639 314.036 32.2639H308.186ZM300.646 67.6239L295.836 90.2439H302.596C307.016 90.2439 312.086 86.3439 313.646 78.8039C315.206 71.6539 311.826 67.6239 307.406 67.6239H300.646Z" fill="black"/>
<path d="M334.475 107.664L376.855 14.8439L395.91 1.90317L407.462 19.8416L422.135 94.5385L410.135 107.664H384.395L385.307 90.1053L379.264 94.5385L360.215 107.664H334.475ZM386.345 73.2139L388.165 33.8239H387.905L372.825 73.2139H386.345Z" fill="black"/>
<path d="M463.781 48.2539L464.951 43.0539C467.161 32.5239 465.861 29.4039 461.181 29.4039C453.771 29.4039 451.561 36.1639 446.231 61.2539C440.901 86.3439 440.251 93.1039 447.661 93.1039C453.641 93.1039 455.981 87.9039 459.751 70.3539L478.75 57.3668L489.385 77.8354C483.795 103.835 459.621 109.484 444.151 109.484C416.981 109.484 413.861 95.8339 421.271 61.2539C428.811 25.7639 457.304 0 482.394 0C504.234 0 509.954 17.3135 506.184 35.2535L487.181 48.2539H463.781Z" fill="black"/>
<path d="M483.035 107.664L502.795 14.8439L521.797 1.84735L519.435 50.4639H519.695L545.175 14.8439L564.172 1.85516L538.805 55.4039L573.022 94.6668L554.015 107.664H526.455L526.224 94.6668L507.215 107.664H483.035Z" fill="black"/>
<path d="M589.041 107.664L608.801 14.8439L627.809 1.84194L632.218 94.657L613.221 107.664H589.041Z" fill="black"/>
<path d="M715.5 28.6L673.901 41.6239L674.421 39.4139C675.591 33.9539 674.291 29.4039 669.611 29.4039C664.411 29.4039 661.161 33.4339 660.381 37.5939C656.481 55.9239 708.72 46.9539 701.57 80.8839C697.28 100.644 683.89 109.484 662.57 109.484C642.55 109.484 621.901 102.594 626.061 83.3539L626.711 80.1039L645.711 67.1014L649.591 82.3139C647.901 90.2439 650.631 93.1039 655.311 93.1039C660.251 93.1039 663.891 89.2039 664.931 84.1339C668.831 65.8039 631.328 66.7139 638.219 33.8239C642.249 15.1039 671.17 0 691.58 0C712.64 0 719.66 8.71 715.5 28.6Z" fill="black"/>
<path d="M688.981 107.664L694.441 81.9239L713.441 68.9219L729.817 94.6578L710.821 107.664H688.981Z" fill="black"/>
<path d="M722.75 107.664L728.21 81.9239L747.219 68.9258L763.59 94.6602L744.59 107.664H722.75Z" fill="black"/>
<path d="M756.52 107.664L761.98 81.9239L781.077 68.9258L797.359 94.6641L778.36 107.664H756.52Z" fill="black"/>
<path d="M19 94.6634L38.76 1.84344H93.75L89.46 21.6034H58.65L55.4 37.4634H84.26L80.1 56.4434H51.24L43.18 94.6634H19Z" fill="white"/>
<path d="M81.5879 94.6634L101.348 1.84344H156.338L152.048 21.6034H121.238L117.988 37.4634H146.848L142.688 56.4434H113.828L109.928 74.9034H141.908L137.748 94.6634H81.5879Z" fill="white"/>
<path d="M146.588 94.6634L166.348 1.84344H221.338L217.048 21.6034H186.238L182.988 37.4634H211.848L207.688 56.4434H178.828L174.928 74.9034H206.908L202.748 94.6634H146.588Z" fill="white"/>
<path d="M251.758 19.2634L239.408 77.2434H244.218C253.578 77.2434 255.658 73.3434 260.988 48.2534C266.318 23.1634 265.928 19.2634 256.568 19.2634H251.758ZM211.588 94.6634L231.348 1.84344H266.448C294.398 1.84344 291.148 23.9434 285.948 48.2534C280.748 72.5634 274.638 94.6634 246.688 94.6634H211.588Z" fill="white"/>
<path d="M287.016 94.6634L306.776 1.84344H343.306C360.596 1.84344 366.706 11.0734 363.716 24.9834C361.636 34.8634 355.396 43.7034 344.736 45.7834L344.606 46.0434C356.696 47.2134 359.426 57.6134 357.346 67.2334C353.836 83.3534 343.696 94.6634 323.546 94.6634H287.016ZM327.186 19.2634L323.156 38.2434H329.006C333.946 38.2434 337.586 33.8234 338.756 28.8834C339.796 23.6834 337.976 19.2634 333.036 19.2634H327.186ZM319.646 54.6234L314.836 77.2434H321.596C326.016 77.2434 331.086 73.3434 332.646 65.8034C334.206 58.6534 330.826 54.6234 326.406 54.6234H319.646Z" fill="white"/>
<path d="M353.475 94.6634L395.855 1.84344H426.275L429.135 94.6634H403.395L404.435 78.4134H385.195L379.215 94.6634H353.475ZM405.345 60.2134L407.165 20.8234H406.905L391.825 60.2134H405.345Z" fill="white"/>
<path d="M482.781 35.2534L483.951 30.0534C486.161 19.5234 484.861 16.4034 480.181 16.4034C472.771 16.4034 470.561 23.1634 465.231 48.2534C459.901 73.3434 459.251 80.1034 466.661 80.1034C472.641 80.1034 474.981 74.9034 478.751 57.3534H502.151L500.721 64.2434C495.131 90.2434 478.621 96.4834 463.151 96.4834C435.981 96.4834 432.861 82.8334 440.271 48.2534C447.811 12.7634 458.601 0.0234375 483.691 0.0234375C505.531 0.0234375 511.251 11.4634 507.481 29.4034L506.181 35.2534H482.781Z" fill="white"/>
<path d="M502.035 94.6634L521.795 1.84344H545.975L538.435 37.4634H538.695L564.175 1.84344H589.915L557.805 42.4034L573.015 94.6634H545.455L538.175 62.2934L531.415 70.0934L526.215 94.6634H502.035Z" fill="white"/>
<path d="M608.041 94.6634L627.801 1.84344H651.981L632.221 94.6634H608.041Z" fill="white"/>
<path d="M715.521 28.6234H692.901L693.421 26.4134C694.591 20.9534 693.291 16.4034 688.611 16.4034C683.411 16.4034 680.161 20.4334 679.381 24.5934C675.481 42.9234 716.821 33.9534 709.671 67.8834C705.381 87.6434 691.991 96.4834 670.671 96.4834C650.651 96.4834 640.901 89.5934 645.061 70.3534L645.711 67.1034H669.111L668.591 69.3134C666.901 77.2434 669.631 80.1034 674.311 80.1034C679.251 80.1034 682.891 76.2034 683.931 71.1334C687.831 52.8034 648.051 61.9034 654.941 29.0134C658.971 10.2934 671.191 0.0234375 691.601 0.0234375C712.661 0.0234375 719.681 8.73344 715.521 28.6234Z" fill="white"/>
<path d="M707.981 94.6634L713.441 68.9234H735.281L729.821 94.6634H707.981Z" fill="white"/>
<path d="M741.75 94.6634L747.21 68.9234H769.05L763.59 94.6634H741.75Z" fill="white"/>
<path d="M775.52 94.6634L780.98 68.9234H802.82L797.36 94.6634H775.52Z" fill="white"/>
</svg>
