<svg width="235" height="185" viewBox="0 0 235 185" fill="none" xmlns="http://www.w3.org/2000/svg">
<path d="M84.1198 9.81978C79.7683 11.5682 73.9545 14.1073 69.71 16.4126C67.5432 17.4706 65.8044 18.5285 64.6809 19.1076C63.5573 19.709 63.0847 19.9094 63.6376 19.5085C63.058 19.7981 62.4873 20.0431 61.9434 20.3327C62.3535 20.0654 62.8618 19.7758 63.4414 19.4306C64.021 19.0854 64.663 18.7179 65.3853 18.2947C66.0987 17.9049 66.8477 17.4483 67.6324 17.0028C68.4438 16.5907 69.2999 16.1119 70.1737 15.6775C71.0565 15.2098 71.9392 14.7421 72.8577 14.2744C73.7761 13.8401 74.7213 13.4057 75.6665 12.9714C76.1391 12.7709 76.585 12.537 77.0576 12.3366C77.4945 12.1361 77.976 11.9023 78.413 11.7241C79.3225 11.3454 80.2052 11.0002 81.0434 10.6439C81.8905 10.2875 82.6931 9.96451 83.4332 9.69723C84.1733 9.42995 84.8777 9.18495 85.4841 8.99562C86.6968 8.58357 87.6063 8.26067 88.0699 8.14931C88.9438 7.83748 87.9986 8.27181 84.1198 9.81978Z" fill="#EF4E5D" stroke="#EF4E5D" stroke-width="1.8" stroke-miterlimit="10" stroke-linecap="round" stroke-linejoin="round"/>
<path d="M14.3367 132.283C14.7379 132.739 14.7557 132.528 14.4347 131.715C14.1137 130.935 13.5252 129.588 12.8208 127.817C12.6424 127.383 12.473 126.882 12.3036 126.392C12.2144 126.147 12.0985 125.89 12.0183 125.612C11.938 125.334 11.8488 125.089 11.7597 124.81C11.5902 124.253 11.3941 123.663 11.2247 123.084C11.0552 122.471 10.8947 121.848 10.7253 121.202C10.1011 118.618 9.59286 115.723 9.32535 112.627C9.7712 114.141 10.2527 115.656 10.8412 117.148C11.2514 119.409 11.9291 122.26 13.1239 125.345C14.3188 128.418 16.0933 131.726 18.4385 134.9C20.7479 138.074 23.7351 141.025 26.9987 143.631C30.2623 146.248 33.8112 148.52 37.2086 150.458C38.555 151.17 38.4302 151.07 37.699 150.614C36.9678 150.157 35.6838 149.4 34.6316 148.709C33.6062 148.052 32.8482 147.506 33.1335 147.651C33.294 147.729 33.6775 147.996 34.48 148.453C35.2825 148.91 36.4328 149.6 38.1359 150.524C38.8671 151.003 38.9295 151.104 39.1881 151.304C39.4378 151.504 39.8212 151.805 41.2658 152.585C44.3867 154.099 46.393 154.957 48.0426 155.603C49.6923 156.215 50.9228 156.705 52.7062 157.34C53.5801 157.652 54.5877 158.03 55.8182 158.465C56.4335 158.699 57.1112 158.932 57.8602 159.2C58.6092 159.467 59.4207 159.745 60.3213 160.057C61.2308 160.369 62.2027 160.692 63.3084 161.048C64.4141 161.405 65.6179 161.783 66.9109 162.218C68.2127 162.652 69.6751 163.042 71.2355 163.532C72.0202 163.743 72.8317 163.989 73.6788 164.245C74.5259 164.49 75.3998 164.746 76.345 164.968C79.5997 165.96 82.9167 166.884 86.2071 167.753C99.1277 170.704 112.334 173.31 125.584 174.39C132.227 174.925 138.853 175.08 145.415 174.613C151.943 174.145 158.407 173.109 164.507 171.261C167.556 170.336 170.526 169.256 173.361 167.942L173.905 167.719L174.413 167.463L175.466 166.951L177.534 165.882L179.514 164.69L180.504 164.111L181.012 163.821L181.493 163.499C186.621 160.124 191.159 156.093 195.02 151.627L195.76 150.781L196.429 149.901C196.884 149.333 197.348 148.743 197.802 148.175L198.159 147.751C198.266 147.607 198.373 147.44 198.48 147.295L199.122 146.382C199.55 145.78 199.942 145.179 200.37 144.589C200.763 143.987 201.128 143.353 201.521 142.729C201.886 142.094 202.314 141.504 202.644 140.858C202.974 140.223 203.34 139.588 203.67 138.954C204 138.319 204.365 137.684 204.66 137.016C207.174 131.826 209.011 126.436 210.152 120.935C210.242 120.434 210.34 119.899 210.438 119.298C210.5 118.696 210.607 118.017 210.67 117.326C210.741 116.614 210.875 115.868 210.919 115.055C210.991 114.253 211.035 113.406 211.115 112.538C211.196 111.669 211.214 110.734 211.258 109.809C211.285 109.33 211.276 108.852 211.303 108.373C211.312 108.128 211.329 107.894 211.312 107.649C211.294 107.404 211.303 107.17 211.285 106.892C211.267 105.9 211.258 104.876 211.249 103.818C211.169 102.793 211.124 101.735 211.053 100.644C210.714 96.3675 209.992 91.9129 209.02 87.681C208.743 86.6342 208.503 85.5874 208.226 84.5739C207.95 83.5605 207.638 82.5694 207.361 81.5782C207.085 80.5871 206.737 79.6627 206.452 78.7606C206.14 77.8586 205.854 76.9677 205.498 76.1213L205.587 75.7315C204 71.9006 201.86 66.7221 199.095 61.5325C198.73 60.8754 198.4 60.2406 198.043 59.5836C197.678 58.9265 197.357 58.2583 196.955 57.6235C196.233 56.3317 195.439 55.0621 194.681 53.7926C193.13 51.3202 191.463 48.9815 189.822 46.9213C187.94 44.449 185.881 42.0546 183.616 39.8496C183.027 39.1703 184.008 39.9721 185.613 41.5201C186.023 41.9099 186.424 42.3664 186.897 42.8342C187.37 43.3242 187.833 43.8476 188.333 44.3933C189.296 45.4958 190.321 46.7209 191.248 47.9459C193.139 50.3625 194.762 52.7791 195.68 54.1155C196.144 54.7837 196.42 55.1735 196.483 55.1735C196.545 55.1735 196.376 54.7725 195.859 53.8259C193.21 49.5161 190.366 45.7631 187.334 42.5001C184.267 39.2371 181.048 36.4753 177.561 34.1811C174.083 31.8759 170.383 29.9826 166.54 28.3455C162.661 26.7085 158.613 25.2941 154.252 23.9689C153.182 23.6459 152.201 23.4121 151.256 23.156C150.311 22.9332 149.464 22.6771 148.652 22.4878C147.021 22.1426 145.647 21.8196 144.444 21.5746C142.027 21.1403 140.288 20.8173 138.746 20.6279C137.988 20.5388 137.265 20.4498 136.552 20.3273C135.83 20.2382 135.108 20.1825 134.287 20.0823C133.467 20.0154 132.575 19.9152 131.559 19.8038C130.542 19.7259 129.392 19.6257 128.01 19.5477C125.21 19.5032 131.55 20.0711 130.39 20.1936C129.766 20.1379 129.178 20.0934 128.58 20.0489C127.992 20.0043 127.394 19.9486 126.806 19.9041C125.656 19.8373 124.532 19.7816 123.444 19.7259C122.356 19.6702 121.304 19.6702 120.279 19.6145C119.753 19.6034 119.253 19.5922 118.763 19.5811C118.272 19.57 117.773 19.5922 117.274 19.5811C116.32 19.5922 115.356 19.5811 114.429 19.5922C113.502 19.6034 112.61 19.6591 111.754 19.6702C110.006 19.7036 108.375 19.815 106.823 19.9041C100.599 20.305 95.6412 20.9175 90.8528 21.6748C86.0911 22.4655 81.4811 23.4121 76.0863 24.9601C70.7184 26.508 64.539 28.6574 56.9507 32.3101C56.6742 32.4661 55.0157 33.3904 53.0094 34.4929C51.0387 35.6289 48.7471 37.0098 47.2134 38.0566C46.4643 38.5689 45.8491 38.9698 45.5727 39.1926C45.2962 39.4153 45.2962 39.471 45.7332 39.2371C46.6159 38.8251 49.1394 37.2214 54.6679 34.4484L55.9609 33.7357L56.6029 33.4016L57.2806 33.0675L59.9289 31.7422C60.8117 31.2968 61.7212 30.9293 62.6396 30.4838L63.995 29.8712C64.432 29.6708 64.9045 29.4926 65.3771 29.2922C67.9363 28.3567 70.5222 27.4881 73.1081 26.6974C72.8406 26.7976 72.5374 26.8867 72.2699 26.9646C72.0024 27.0649 71.6993 27.154 71.3961 27.2876C70.7897 27.5104 70.1834 27.7331 69.5414 27.9446C68.2662 28.379 66.9822 28.9136 65.6357 29.437C64.2893 29.927 63.0053 30.5506 61.6855 31.1074C60.4015 31.6643 59.1799 32.2545 58.0296 32.8002C57.45 33.0897 56.8793 33.3347 56.371 33.602C55.8628 33.8582 55.3545 34.1255 54.8819 34.3816C53.9635 34.8827 53.152 35.2947 52.5368 35.6623C51.3152 36.375 50.7266 36.7536 51.1992 36.5755C50.8604 36.7314 50.4859 36.9095 50.0846 37.1211C49.6744 37.3327 49.2375 37.5332 48.7917 37.8005C47.9089 38.3017 46.9191 38.8473 45.8313 39.4821C44.7701 40.1169 43.6823 40.8407 42.4874 41.5869C41.3282 42.3664 40.1601 43.2017 38.9206 44.0703C37.7525 44.9724 36.5131 45.8968 35.3093 46.8434C34.7207 47.3334 34.1322 47.8345 33.5526 48.2911C32.9641 48.7811 32.3845 49.2489 31.8227 49.7723C31.2699 50.2734 30.7171 50.7968 30.1553 51.298C29.8789 51.543 29.6024 51.7991 29.326 52.0441C29.0496 52.2891 28.8088 52.5452 28.5591 52.7902C27.5159 53.7925 26.5083 54.7614 25.5987 55.7414C25.144 56.2203 24.6892 56.6881 24.2701 57.1335C23.851 57.6124 23.4676 58.0355 23.0752 58.481C22.2727 59.3162 21.6307 60.1403 21.0065 60.8419C20.3734 61.5435 19.9097 62.1672 19.4906 62.6795C19.0716 63.1918 18.7505 63.5815 18.5365 63.8377C18.1174 64.3499 18.1174 64.2832 18.6525 63.4813C18.9378 63.0804 19.3301 62.479 19.9008 61.7106C20.1862 61.3097 20.5339 60.8865 20.8906 60.3742C21.283 59.8953 21.702 59.3274 22.1657 58.7372C22.8256 58.069 23.423 57.3896 24.0204 56.7771C24.6446 56.1646 25.2064 55.5744 25.7949 55.0287C26.3478 54.4719 26.9095 53.9485 27.4624 53.4473C27.9796 52.9462 28.5057 52.4784 28.9872 52.0107C29.9948 51.0975 30.9578 50.3068 31.8227 49.5272C32.2686 49.1375 32.6877 48.7811 33.1335 48.4247C33.5526 48.0684 33.9985 47.7454 34.373 47.3779C37.6812 44.694 40.5078 42.489 44.6185 39.6603C43.7001 40.2505 42.7727 40.8297 41.881 41.4199C40.9893 42.0435 40.0977 42.656 39.2416 43.2574L38.5907 43.714L37.9398 44.204C37.5296 44.527 37.0838 44.861 36.6647 45.1506C36.2545 45.4736 35.8086 45.7742 35.3895 46.0972C34.9793 46.4201 34.5603 46.7542 34.1501 47.0772C33.3565 47.7342 32.5005 48.3913 31.7336 49.0484C30.94 49.7388 30.1731 50.3959 29.3795 51.0864C28.9961 51.4205 28.6127 51.7769 28.2381 52.1332C27.8547 52.4896 27.507 52.8236 27.1235 53.1911C26.7401 53.5475 26.3923 53.8816 26.0089 54.2491C25.6612 54.6166 25.3134 54.973 24.93 55.3405C19.2499 61.0759 14.408 67.2455 10.6272 73.7492C6.85536 80.2418 4.21594 87.1131 2.93191 94.1068C2.25422 97.5703 1.96888 101.101 2.15614 104.586C2.20072 106.335 2.44148 108.039 2.70898 109.754L2.97651 111.012L3.11026 111.658L3.27968 112.27L3.6096 113.529L4.01085 114.765C5.00063 117.282 6.2936 119.71 7.93432 121.892C7.9254 121.981 8.05023 122.238 8.29099 122.616C8.53174 122.995 8.87057 123.541 9.33425 124.142C9.58393 124.432 9.86035 124.788 10.1724 125.144C10.324 125.334 10.4846 125.501 10.6361 125.69C10.8234 125.89 10.9839 126.046 11.1711 126.247C11.9202 127.026 12.8029 127.85 13.8462 128.697C15.9417 130.367 18.59 132.06 21.6129 133.63C23.1198 134.421 24.6981 135.178 26.3478 135.913C27.9974 136.615 29.6738 137.328 31.3591 138.04C32.8125 138.575 34.4087 139.165 35.9245 139.711C37.4493 140.223 38.9117 140.702 40.1155 141.103C40.4098 141.192 40.6951 141.303 40.9893 141.381C41.2479 141.459 41.5065 141.548 41.774 141.593C42.2288 141.715 42.6211 141.838 42.9154 141.894C43.4683 142.027 43.6377 142.038 43.1829 141.882C43.5396 141.972 42.9867 141.771 41.8543 141.415C41.2658 141.248 40.5524 140.98 39.7142 140.702C38.8671 140.424 37.9309 140.078 36.8608 139.722C36.3436 139.555 35.7908 139.332 35.2379 139.109C34.6851 138.887 34.1055 138.686 33.5259 138.464C32.9463 138.241 32.331 138.007 31.7425 137.773C31.1272 137.539 30.5476 137.25 29.9324 137.027C28.7018 136.504 27.4445 135.98 26.2229 135.434C25.0013 134.878 23.8064 134.332 22.674 133.764C20.3913 132.617 18.3671 131.459 16.8066 130.401C15.2462 129.365 14.1316 128.463 13.6322 128.006C13.3469 127.773 13.2577 127.65 13.2577 127.617C13.2934 127.617 13.4806 127.728 13.8641 127.995C14.6309 128.508 16.1201 129.621 18.8843 131.147C20.6499 132.194 22.4778 133.129 24.3504 134.031C25.2867 134.466 26.2497 134.911 27.2216 135.345L30.1285 136.57L31.582 137.205L33.0711 137.773C34.0788 138.152 35.0418 138.53 36.0137 138.92C37.0213 139.299 37.9933 139.622 38.992 139.978L40.4811 140.49L41.2301 140.758L41.9791 141.003C50.0044 143.586 58.092 145.502 65.9122 146.805C73.7412 148.074 81.3028 148.687 88.1956 148.832C95.124 148.999 101.375 148.698 106.752 148.23C98.9494 149.132 92.1279 149.355 85.2351 149.221C78.3067 149.054 71.2712 148.564 62.9428 147.384C55.9074 146.237 48.8541 144.611 41.9078 142.45C41.4887 142.328 41.025 142.194 40.6059 142.038L39.3041 141.604C38.4302 141.326 37.5831 141.014 36.7092 140.735C35.8354 140.457 34.9883 140.112 34.1501 139.8C33.3119 139.488 32.438 139.154 31.5909 138.842C31.1718 138.686 30.7527 138.508 30.3247 138.352L29.0674 137.829C28.2292 137.495 27.391 137.116 26.5439 136.782C24.8676 136.069 23.1912 135.301 21.5772 134.477C18.3225 132.862 15.157 131.002 12.366 128.697C9.57503 126.425 7.24769 123.674 5.51781 120.645L4.88472 119.509L4.31405 118.351L4.04652 117.761C3.95735 117.571 3.86818 117.36 3.81467 117.171L3.351 115.99C3.17266 115.589 3.06565 115.188 2.92298 114.776C2.81598 114.375 2.63766 113.974 2.52174 113.54C2.29881 112.705 2.04915 111.903 1.88864 111.045C1.16637 107.738 0.916695 104.341 1.0237 100.978L1.0861 99.7196C1.10393 99.2964 1.16636 98.8843 1.1842 98.4612C1.22878 97.6259 1.37146 96.7907 1.44279 95.9554C1.4963 95.5434 1.5498 95.1202 1.63897 94.7082L1.87079 93.4609C1.95996 93.0488 2.01347 92.6256 2.10264 92.2136L2.39689 90.9997C3.16374 87.7478 4.11787 84.5516 5.40191 81.4557C6.65028 78.3708 8.13049 75.3528 9.79795 72.4796C11.4654 69.573 13.3291 66.8 15.3175 64.1384C15.8169 63.4813 16.3073 62.802 16.8423 62.1561C17.3684 61.5102 17.9034 60.8531 18.4295 60.2072C19.5174 58.9376 20.5785 57.6681 21.7288 56.4431L22.567 55.5187L23.4408 54.6278C24.0294 54.0487 24.5911 53.425 25.1885 52.8459C25.7771 52.2668 26.4012 51.6766 26.9987 51.1309C27.3108 50.8525 27.5872 50.5518 27.8993 50.2734L28.8356 49.4493C33.7845 45.0058 39.0811 40.9521 44.6542 37.433C45.1268 37.2325 46.2147 36.6312 47.5433 35.8961C48.1942 35.4952 48.97 35.1388 49.719 34.749C50.468 34.3593 51.2171 33.9361 51.9572 33.5797C53.4106 32.8893 54.7303 32.2656 55.408 31.9649C55.7469 31.809 55.9787 31.7422 55.9787 31.7756C55.9787 31.809 55.7736 31.9427 55.3278 32.21C56.4424 31.6977 58.0653 30.9627 59.9289 30.1163C60.8741 29.7154 61.855 29.281 62.8715 28.8467C63.3798 28.6128 63.888 28.4124 64.423 28.2231C64.958 28.0226 65.4663 27.7999 66.0102 27.5994C66.5452 27.399 67.0535 27.1985 67.5618 26.9981C68.0968 26.7976 68.6051 26.6305 69.1044 26.4635C70.112 26.1294 71.0929 25.7507 71.9935 25.4946C73.8036 24.9489 75.3106 24.5035 76.2469 24.3364C86.1804 21.2293 97.0501 19.1691 108.285 18.4229C119.485 17.6768 131.041 18.2893 142.223 20.3384C143.632 20.6057 145.005 20.8396 146.405 21.1625C147.778 21.4855 149.178 21.7528 150.552 22.1314C151.916 22.4878 153.289 22.8107 154.627 23.2116C155.991 23.5903 157.329 24.0023 158.657 24.4478C163.945 26.1739 169.054 28.2788 173.709 30.907C176.018 32.21 178.221 33.6577 180.281 35.2391C182.34 36.8204 184.24 38.5132 185.996 40.2505C189.51 43.7919 192.479 47.5783 195.02 51.3759C193.718 49.1931 193.843 49.2377 194.922 50.6409C195.966 52.0775 197.936 54.9173 199.898 58.4476C201.931 61.9556 203.991 66.1541 205.667 70.0853C205.872 70.5864 206.077 71.0542 206.282 71.5553C206.372 71.8003 206.488 72.023 206.577 72.268C206.666 72.513 206.746 72.7358 206.835 72.9808C207.183 73.9162 207.531 74.8183 207.887 75.6536C208.208 76.4888 208.458 77.324 208.752 78.0367C209.011 78.7829 209.243 79.4622 209.475 80.0524C209.778 81.1884 210.072 82.4469 210.438 83.7387C210.732 85.0528 211.053 86.4671 211.41 87.9371C211.534 88.6721 211.695 89.4406 211.855 90.1979C212.016 90.9663 212.168 91.757 212.257 92.5477C212.506 94.1291 212.783 95.755 212.926 97.4143C213.015 98.2384 213.104 99.0848 213.193 99.9089C213.247 100.755 213.3 101.579 213.362 102.426L213.434 103.662C213.443 104.085 213.452 104.508 213.434 104.898C213.452 105.744 213.443 106.557 213.469 107.37C213.461 108.183 213.416 109.019 213.371 109.798C213.327 110.611 213.318 111.391 213.247 112.193C213.175 112.972 213.104 113.752 213.024 114.498C212.97 114.888 212.952 115.244 212.899 115.634C212.845 115.99 212.792 116.38 212.738 116.736C212.703 117.371 212.462 119.509 212.141 121.235C211.998 122.093 211.855 122.872 211.802 123.318C211.713 123.763 211.704 123.886 211.891 123.474C212.114 122.405 212.292 121.425 212.471 120.511C212.56 120.066 212.649 119.621 212.738 119.175C212.792 118.73 212.845 118.306 212.934 117.928C213.041 117.093 213.184 116.324 213.291 115.578C213.363 114.798 213.434 114.086 213.505 113.34C213.559 112.983 213.576 112.593 213.63 112.204C213.683 111.814 213.701 111.457 213.719 111.068C213.764 110.288 213.799 109.509 213.844 108.64C213.862 108.217 213.889 107.771 213.915 107.348C213.906 106.891 213.933 106.446 213.924 105.967C213.915 105.488 213.906 104.998 213.933 104.464C213.951 104.196 213.924 103.951 213.942 103.684C213.924 103.417 213.906 103.139 213.915 102.871C213.969 103.083 214.022 103.395 214.04 103.695C214.058 104.029 214.103 104.364 214.112 104.787C214.165 105.6 214.183 106.569 214.192 107.649C214.165 108.729 214.103 109.965 214.067 111.279C213.969 112.593 213.79 114.03 213.648 115.522C213.541 116.268 213.407 117.037 213.3 117.816C213.247 118.206 213.157 118.585 213.104 118.975C213.059 119.186 213.05 119.364 213.006 119.565C212.961 119.776 212.917 119.955 212.872 120.155C212.524 121.748 212.212 123.385 211.731 125C211.49 125.824 211.285 126.648 211.044 127.438C210.768 128.263 210.5 129.053 210.224 129.866C210.099 130.278 209.947 130.69 209.831 131.069C209.68 131.481 209.528 131.86 209.377 132.238C209.073 133.029 208.77 133.82 208.431 134.566L209.564 131.28C209.921 130.2 210.206 129.075 210.527 127.962C208.895 133.218 206.479 138.53 203.34 143.542C200.21 148.553 196.331 153.264 191.891 157.362C187.45 161.461 182.421 164.902 177.195 167.574C174.618 168.933 171.943 170.069 169.286 171.06C166.629 172.051 164.007 172.864 161.43 173.521C167.342 172.252 173.094 170.281 178.417 167.586C172.71 170.704 166.076 173.087 159.067 174.535C152.059 175.983 144.738 176.495 137.64 176.461C130.542 176.428 123.676 175.804 117.345 175.025C111.014 174.234 105.254 173.254 100.314 172.43C104.754 173.332 109.962 174.267 115.232 175.003C117.889 175.37 120.573 175.704 123.203 175.949C125.834 176.194 128.393 176.406 130.836 176.506C140.547 177.029 147.885 176.361 147.663 176.673C147.19 176.873 141.679 177.419 135.018 177.274C131.683 177.219 128.063 176.985 124.684 176.673C121.295 176.372 118.121 175.927 115.66 175.582C110.318 174.791 105.156 173.822 100.117 172.809C95.1151 171.795 90.2197 170.737 85.4581 169.657C75.9348 167.463 66.8484 165.013 58.1544 161.962C53.8119 160.436 49.5763 158.732 45.4478 156.861C41.3193 154.99 37.2977 152.952 33.4635 150.591C29.6203 148.23 25.9287 145.58 22.6294 142.484C20.9887 140.936 19.4282 139.277 18.0372 137.539C17.6983 137.094 17.3595 136.637 17.0207 136.192L16.5302 135.524L16.2805 135.167L16.0666 134.822C15.4959 134.176 14.8449 133.285 14.3367 132.283Z" fill="#EF4E5D" stroke="#EF4E5D" stroke-width="1.8" stroke-miterlimit="10" stroke-linecap="round" stroke-linejoin="round"/>
<path d="M102.963 3.64906C101.224 4.13906 100.68 4.33955 101.082 4.30614C101.278 4.29501 101.679 4.20592 102.276 4.10569C102.874 3.97205 103.676 3.82726 104.639 3.67135C105.103 3.5934 105.638 3.48202 106.209 3.38179C106.779 3.28156 107.377 3.20361 108.01 3.10338C109.276 2.88065 110.667 2.71359 112.13 2.5354C115.09 2.17903 118.434 1.90061 121.876 1.82265C130.909 1.4106 140.236 1.84494 149.429 3.37064C154.012 4.13906 158.578 5.14135 163.036 6.43319C167.495 7.72503 171.837 9.28414 175.966 11.0994C179.363 12.4915 182.716 14.0618 185.953 15.799C181.271 13.104 175.413 10.3087 168.77 7.90322C162.127 5.53114 154.663 3.5934 147.004 2.42407C139.308 1.22132 131.408 0.798119 123.864 1.08767C116.329 1.29926 109.178 2.2904 102.963 3.64906Z" fill="#EF4E5D" stroke="#EF4E5D" stroke-width="1.8" stroke-miterlimit="10" stroke-linecap="round" stroke-linejoin="round"/>
<path d="M187.961 159.082C192.634 156.242 197.592 152.879 202.425 148.937C207.249 144.994 211.948 140.495 216.166 135.517C220.357 130.528 224.039 125.082 226.91 119.414C229.746 113.745 231.77 107.854 232.831 102.163C232.662 102.809 232.537 103.433 232.403 104.001C232.243 104.558 232.082 105.115 231.957 105.616C231.672 106.651 231.36 107.553 231.084 108.4C230.807 109.246 230.504 110.037 230.236 110.794C229.933 111.585 229.63 112.342 229.291 113.122C228.952 113.935 228.578 114.748 228.168 115.683C227.722 116.607 227.276 117.632 226.652 118.723C225.475 120.973 223.95 123.746 221.587 127.198C224.806 121.83 227.811 116.14 230.085 109.825C231.244 106.663 232.207 103.377 232.876 99.9026C233.554 96.4392 233.973 92.7976 233.999 89.0334C233.99 89.813 233.955 90.4477 233.928 91.0157C233.901 91.5502 233.848 92.0069 233.821 92.3632C233.75 93.076 233.696 93.41 233.696 93.4323C233.661 93.4546 233.678 93.1651 233.669 92.6528C233.687 92.3855 233.67 92.0514 233.687 91.695C233.705 91.3052 233.732 90.8821 233.723 90.4032C233.705 89.4343 233.732 88.3318 233.661 87.0845C233.625 86.4832 233.625 85.8149 233.562 85.1467C233.5 84.4785 233.464 83.7881 233.402 83.1199C233.152 80.3246 232.706 77.4069 232.154 74.8009C232.056 74.1884 231.886 73.5759 231.752 72.93C231.619 72.2841 231.485 71.6493 231.289 70.9922C231.128 70.3463 230.959 69.7004 230.763 69.021C230.566 68.3751 230.37 67.6958 230.174 67.0165C229.327 64.2992 228.284 61.4705 227.017 58.575C224.44 52.8285 221.025 46.8259 216.665 41.1129C212.305 35.3999 207.044 29.9763 201.149 25.221C195.255 20.4657 188.692 16.4677 182.094 13.3161C179.223 11.9686 174.675 9.99742 169.352 8.24899C169.031 8.13762 168.701 8.01511 168.344 7.89261C168.023 7.78124 167.657 7.69218 167.336 7.56967C166.65 7.36922 165.972 7.12419 165.259 6.92374C163.859 6.53396 162.432 6.12193 160.997 5.76556C159.561 5.37578 158.125 5.07506 156.69 4.7521C155.254 4.48482 153.845 4.16187 152.472 3.92801C149.726 3.438 147.068 3.09277 144.705 2.81435C143.519 2.71413 142.44 2.60281 141.415 2.51371C140.398 2.45803 139.471 2.39119 138.686 2.34664C135.458 2.20186 133.996 2.30209 135.476 2.48027C131.027 2.32436 127.558 2.38007 124.615 2.50257C123.884 2.53598 123.189 2.56935 122.529 2.60276C121.869 2.63617 121.2 2.68075 120.612 2.71416C119.381 2.82553 118.222 2.88119 117.099 2.97028C115.966 3.09278 114.914 3.14845 113.808 3.30436C112.711 3.42687 111.615 3.54937 110.455 3.72756C109.858 3.79438 109.261 3.90574 108.654 4.00597C108.021 4.1062 107.388 4.22868 106.719 4.32891C106.05 4.45141 105.355 4.57396 104.615 4.72987C104.249 4.81897 103.884 4.88575 103.509 4.97484C103.313 5.01939 103.144 5.06393 102.938 5.10848C102.733 5.15302 102.537 5.19756 102.341 5.24211C92.9693 7.73669 84.4091 10.944 76.4552 14.7305C68.5013 18.5391 61.1626 23.0049 54.2609 28.072C47.3949 33.1725 40.948 38.9078 34.9914 45.5341C34.2513 46.347 33.5469 47.2268 32.8157 48.0621C32.459 48.4853 32.0756 48.9085 31.7278 49.354C31.3712 49.7771 30.9877 50.2226 30.6667 50.6569C29.989 51.5701 29.2846 52.4387 28.5802 53.3519C28.2235 53.8085 27.8757 54.254 27.5547 54.7106C27.2337 55.1672 26.877 55.6461 26.556 56.1027C25.8783 57.0382 25.2363 58.007 24.5854 58.987C23.9434 59.9559 23.3281 60.9582 22.6772 61.9605C21.4466 63.9984 20.2517 66.0699 19.146 68.2415C19.5651 67.1055 17.3359 70.7472 15.0889 75.7698C13.9386 78.2644 12.8596 81.1265 11.959 83.8549C11.7628 84.5342 11.5221 85.2024 11.3259 85.8483C11.1297 86.4942 10.9603 87.1402 10.7998 87.7304C10.7196 88.02 10.6393 88.3207 10.5591 88.6102C10.4788 88.8998 10.4342 89.167 10.354 89.4343C10.2291 89.9689 10.1043 90.4923 9.97945 90.9377C9.85461 91.4389 9.75654 91.9734 9.6317 92.5302C9.53362 93.0982 9.40878 93.6551 9.27503 94.2453C9.17694 94.8355 9.07884 95.4369 8.98076 96.0606C8.88267 96.6842 8.78459 97.3413 8.71326 97.9983C8.37442 100.615 8.22283 103.533 8.24066 106.484C8.28525 109.436 8.51707 112.498 9.06101 115.494C9.56927 118.489 10.3361 121.374 11.2546 124.047C11.745 125.35 12.2087 126.653 12.7794 127.811C13.2787 128.991 13.8851 130.094 14.4201 131.107C14.6876 131.608 14.9997 132.087 15.2672 132.533C15.5436 132.978 15.8111 133.424 16.0608 133.836C16.6136 134.637 17.1041 135.339 17.541 135.918C17.755 136.208 17.978 136.464 18.1652 136.687C18.3525 136.909 18.5397 137.11 18.6913 137.299C19.0034 137.655 19.2263 137.889 19.3155 137.978C19.5384 138.179 19.3868 137.867 18.7448 136.876C17.0238 134.415 15.0443 131.219 13.3946 127.41C12.5386 125.506 11.8163 123.456 11.1654 121.329C10.5501 119.169 10.0062 116.93 9.66738 114.581C8.88269 109.937 8.74 105.081 9.15018 100.359C9.56036 95.6374 10.5234 91.0825 11.8253 86.9954C12.931 83.4763 13.8316 81.3826 14.2863 80.3024C14.7679 79.2332 14.8392 79.1999 14.6073 79.9015C14.536 80.0796 14.4558 80.3135 14.3755 80.5696C14.2953 80.8258 14.1793 81.1599 14.0634 81.5051C13.9475 81.8615 13.7959 82.2624 13.6711 82.6744C13.5908 82.8749 13.5195 83.1087 13.4392 83.3426C13.359 83.5765 13.2787 83.8104 13.1985 84.0777C12.8864 85.0799 12.5297 86.1936 12.1998 87.4298C12.0393 88.0534 11.8342 88.6659 11.7004 89.3452C11.531 89.9911 11.3973 90.6705 11.2278 91.3832C10.6572 94.1674 10.131 97.2299 9.87245 100.248C9.61386 103.266 9.62277 106.284 9.78327 108.912C9.84569 109.58 9.88138 110.215 9.91705 110.816C9.98839 111.429 10.0508 111.997 10.1221 112.554C10.1756 112.832 10.1935 113.099 10.2113 113.344C10.2648 113.589 10.3183 113.868 10.3361 114.102C10.4075 114.592 10.5234 115.015 10.5591 115.449C10.6393 115.85 10.7196 116.218 10.7998 116.552C10.8801 116.864 10.9692 117.142 11.0227 117.387C11.1654 117.855 11.2457 118.1 11.2813 118.133C11.1476 117.61 11.0406 117.086 10.9692 116.607C10.9157 116.362 10.8622 116.117 10.8444 115.872C10.8266 115.627 10.7731 115.382 10.7552 115.115C10.6839 114.603 10.6482 114.079 10.5769 113.5C10.5056 112.921 10.5056 112.286 10.4431 111.618C10.4253 111.284 10.3807 110.917 10.3718 110.527C10.3629 110.137 10.3451 109.747 10.3361 109.324C10.3272 108.901 10.3183 108.444 10.2737 107.966C10.2648 107.487 10.2559 106.997 10.2826 106.462C10.238 105.404 10.3361 104.235 10.3361 102.91C10.4075 101.595 10.4788 100.148 10.6661 98.544C10.4788 100.248 10.3986 101.718 10.3361 102.943C10.3361 103.578 10.3094 104.112 10.3183 104.625C10.3272 105.137 10.3005 105.582 10.345 105.983C10.3718 106.796 10.4075 107.375 10.4431 107.832C10.4521 108.255 10.5056 108.5 10.5323 108.623C10.5858 108.834 10.6037 108.511 10.6393 107.821C10.6572 107.487 10.6839 107.041 10.675 106.562C10.7017 106.083 10.6928 105.538 10.7552 104.97C10.782 104.402 10.8444 103.834 10.8801 103.233C10.9157 102.631 11.0049 102.063 11.0673 101.529C11.1922 100.426 11.3437 99.4683 11.4686 98.8781C11.6023 98.2878 11.6826 98.0206 11.6558 98.3769C11.6469 98.5551 11.6648 98.8558 11.6023 99.3681C11.5934 99.6131 11.5756 99.9027 11.5578 100.237C11.5399 100.571 11.5221 100.961 11.4953 101.406C11.8342 97.5194 12.494 94.2342 13.1717 91.3944C13.8494 88.5546 14.6341 86.1824 15.3385 84.0999C16.8098 80.0016 18.1028 77.2509 19.2798 74.9345C20.4212 72.6181 21.509 70.814 22.802 68.7426C24.1306 66.6824 25.6733 64.3437 28.0541 61.1587C29.3738 59.2209 30.4884 57.595 31.4782 56.2252C32.468 54.8888 33.2883 53.7863 33.9303 52.8731C34.2513 52.4165 34.5723 52.0267 34.8488 51.6481C35.1341 51.2806 35.3481 50.9688 35.5621 50.6792C35.9901 50.1112 36.3111 49.6546 36.5252 49.3094C37.0245 48.5966 37.2118 48.1957 37.4971 47.7057C37.8181 47.2157 38.2105 46.6478 39.0576 45.601C45.7898 37.9947 52.9412 32.0701 60.2977 27.0029C62.1167 25.7111 64.025 24.564 65.8708 23.3613C66.7981 22.7488 67.779 22.2253 68.7331 21.6685L71.5954 20.0092C72.5763 19.4857 73.5661 18.9957 74.5469 18.4723L76.036 17.6927L76.7851 17.303L77.5341 16.9466C78.5507 16.4566 79.5672 16 80.5837 15.51C81.092 15.2762 81.6002 15.02 82.1085 14.7861C82.6167 14.5523 83.1518 14.3295 83.6957 14.1068C82.9199 14.4966 82.376 14.7861 82.0015 14.9977C81.6269 15.2427 81.4575 15.3429 81.4486 15.4098C81.4397 15.5323 82.0817 15.2538 83.2944 14.8418C83.9008 14.6191 84.6409 14.3518 85.488 13.9955C85.9249 13.8173 86.3619 13.6502 86.8345 13.4386C87.0752 13.3384 87.307 13.2382 87.5745 13.1379C87.842 13.0377 88.1096 12.9375 88.3771 12.8707C89.456 12.4809 90.6687 12.0577 91.9439 11.6234C92.247 11.5009 92.5859 11.4007 92.9158 11.2782C93.2547 11.1891 93.5845 11.0665 93.9234 10.9663C94.6278 10.7547 95.3323 10.5431 96.0368 10.3204C96.7769 10.1088 97.5169 9.86377 98.2481 9.62991C99.015 9.41831 99.7908 9.24016 100.593 9.0397C102.198 8.62765 103.803 8.18218 105.507 7.84809C108.877 7.10194 112.408 6.51171 115.939 6.04398C122.984 5.10851 129.992 4.96369 135.503 5.16415C142.654 5.50938 146.81 6.08848 149.503 6.42258C152.187 6.79008 153.471 6.92376 154.781 7.09081C155.441 7.16877 156.092 7.25785 156.975 7.42489C157.822 7.58081 158.901 7.75896 160.346 8.09306C161.059 8.27124 161.879 8.42719 162.789 8.68333C163.698 8.93947 164.777 9.20673 165.945 9.57424C168.291 10.2758 171.171 11.2336 174.702 12.6702C175.121 12.8595 175.504 13.0377 175.834 13.1825C176.155 13.3272 176.414 13.4721 176.637 13.5834C177.092 13.8062 177.341 13.9397 177.439 14.0066C177.627 14.1402 177.181 13.9843 176.307 13.6391C175.888 13.4498 175.335 13.2605 174.72 13.0266C174.104 12.7927 173.391 12.5255 172.651 12.2582C171.902 11.9909 171.09 11.7124 170.252 11.434C169.405 11.1556 168.567 10.9106 167.72 10.6211C164.34 9.59651 161.05 8.78354 159.802 8.59422C159.177 8.48285 159.079 8.50517 159.73 8.70562C160.051 8.81699 160.577 8.98404 161.291 9.19563C162.004 9.40723 162.949 9.71904 164.153 10.0865C168.612 11.3227 172.99 12.8484 177.252 14.6748C181.363 16.3007 185.01 17.96 188.728 19.9423C192.42 21.9246 196.192 24.2856 200.356 27.5152C202.763 29.4863 205.626 32.1257 207.793 34.4087C208.328 34.9655 208.827 35.5112 209.291 36.0012C209.728 36.4912 210.102 36.9367 210.441 37.3265C211.092 38.0726 211.466 38.5849 211.457 38.6406C210.958 38.0615 210.485 37.5715 210.049 37.0815C209.612 36.6249 209.237 36.2017 208.863 35.8119C208.14 35.088 207.543 34.5312 207.133 34.108C206.286 33.3174 206.027 33.1725 206.339 33.5623C206.928 34.3641 209.808 37.3042 213.544 42.3045C214.008 42.8502 214.409 43.3959 214.783 43.8859C215.158 44.3648 215.497 44.7879 215.8 45.2C216.389 46.0018 216.879 46.67 217.307 47.2491C217.708 47.8282 218.074 48.3405 218.448 48.8417C218.636 49.0978 218.814 49.3539 219.001 49.6101C219.188 49.8662 219.367 50.1558 219.554 50.4342C219.376 50.0889 219.188 49.7771 219.046 49.4876C218.858 49.198 218.716 48.9196 218.564 48.6301C218.261 48.0955 217.994 47.6166 217.744 47.2046C217.227 46.3804 216.861 45.7791 216.647 45.3671C216.192 44.543 216.228 44.5541 216.692 45.1555C216.941 45.4784 217.245 45.9239 217.673 46.5252C218.101 47.1377 218.555 47.895 219.144 48.7525C219.42 49.1646 219.723 49.6435 220 50.1446C220.303 50.6458 220.606 51.1581 220.945 51.6926C221.248 52.2606 221.578 52.8285 221.881 53.4299C222.033 53.7083 222.211 54.0313 222.363 54.3431C222.514 54.6549 222.693 54.9667 222.844 55.2897C224.164 57.8622 225.466 60.7689 226.589 63.876C227.713 66.9497 228.703 70.2238 229.425 73.3754C230.147 76.5604 230.647 79.7121 230.932 82.5297C231.057 83.9551 231.182 85.3249 231.217 86.5611C231.253 87.1959 231.289 87.7972 231.289 88.3763C231.289 88.9443 231.298 89.49 231.306 90.0023C231.253 96.016 230.343 100.883 229.309 104.836C228.248 108.778 227.062 111.819 225.947 114.258C225.689 114.87 225.395 115.449 225.127 115.995C224.868 116.541 224.61 117.064 224.325 117.521C224.066 118.011 223.816 118.467 223.558 118.902C223.308 119.336 223.049 119.737 222.835 120.138C221.863 121.719 220.972 123.022 220.071 124.314C219.144 125.595 218.19 126.809 217.057 128.256C216.495 128.958 215.862 129.726 215.158 130.573C214.454 131.386 213.678 132.321 212.804 133.301C211.047 135.295 208.845 137.678 205.893 140.473C205.162 141.197 204.368 141.91 203.53 142.656C203.111 143.046 202.665 143.424 202.219 143.814C201.774 144.204 201.319 144.616 200.837 145.028C198.938 146.654 196.762 148.402 194.328 150.217C195.933 149.204 196.682 148.692 196.816 148.703C196.95 148.681 196.459 149.16 195.434 149.95C193.401 151.565 189.317 154.538 184.038 157.579C182.709 158.347 181.318 159.104 179.892 159.895C179.178 160.285 178.429 160.652 177.716 161.042C176.967 161.432 176.227 161.799 175.478 162.189C174.729 162.579 173.953 162.935 173.177 163.292C172.401 163.648 171.652 164.016 170.877 164.372C170.101 164.728 169.325 165.062 168.54 165.419C167.764 165.742 166.989 166.109 166.24 166.432C160.132 169.038 154.273 171.121 150.341 172.491C143.626 174.684 138.9 175.898 134.718 176.945C133.684 177.19 132.65 177.435 131.642 177.691C130.634 177.936 129.6 178.159 128.566 178.371C126.497 178.838 124.357 179.262 121.923 179.785C120.986 180.041 119.577 180.375 118.044 180.732C116.474 181.11 114.736 181.511 113.059 181.923C109.68 182.703 106.612 183.415 105.801 183.649C107.825 183.516 111.409 183.048 116.278 182.246C121.138 181.433 127.308 180.308 134.46 178.671C135.36 178.471 136.261 178.282 137.197 178.048C138.134 177.825 139.07 177.602 140.006 177.346C141.914 176.901 143.885 176.333 145.9 175.809C146.908 175.564 147.942 175.252 148.985 174.941C150.029 174.629 151.063 174.328 152.133 174.027C153.176 173.693 154.246 173.359 155.325 173.025C155.86 172.858 156.395 172.691 156.966 172.524C157.501 172.324 158.045 172.156 158.616 171.967C159.721 171.611 160.836 171.21 161.942 170.82C163.056 170.397 164.162 170.007 165.303 169.584C165.874 169.361 166.445 169.161 167.024 168.938C167.604 168.715 168.175 168.493 168.745 168.27C169.316 168.047 169.896 167.824 170.466 167.568C171.037 167.345 171.617 167.123 172.187 166.833C176.815 164.895 181.488 162.624 186.178 160.084C187.177 159.617 187.997 159.082 187.961 159.082Z" fill="#EF4E5D" stroke="#EF4E5D" stroke-width="1.8" stroke-miterlimit="10" stroke-linecap="round" stroke-linejoin="round"/>
</svg>
