<svg width="149" height="24" viewBox="0 0 149 24" fill="none" xmlns="http://www.w3.org/2000/svg">
<path d="M1.70001 11.7422C1.47001 12.3593 1.25 12.9471 1.25 12.9471C1.26 12.9667 1.28004 12.9763 1.29004 12.9959C1.44004 12.5452 1.57001 12.134 1.70001 11.7422Z" fill="#16B25E"/>
<path d="M1.79846 9.75781C1.74846 9.88516 1.69844 10.0124 1.64844 10.1299C1.67844 10.1104 1.67843 10.1201 1.69843 10.1103C1.72843 9.99278 1.75846 9.88516 1.79846 9.75781Z" fill="#16B25E"/>
<path d="M1.28818 13.0062C1.42818 13.1629 1.72819 12.9082 1.60819 13.7703C1.35819 14.4364 0.878147 15.798 0.628147 16.4936C0.448147 17.3164 0.74814 16.758 0.80814 16.8951C0.56814 17.5808 0.318179 18.2863 0.348179 18.3451C0.268179 18.9819 0.588159 18.3254 1.07816 17.0324C1.42816 15.1712 2.23819 12.3794 2.60819 11.008C2.78819 10.3027 2.84819 9.94012 2.66819 10.1556C2.49819 10.3809 2.06818 11.1841 1.28818 13.0062Z" fill="#16B25E"/>
<path d="M3.0873 7.31641C2.6173 8.37437 2.16731 9.5008 1.71731 10.6469C1.64731 11.1759 1.52732 11.8126 1.72732 11.6265C2.36732 9.71631 2.7373 8.5409 3.0873 7.31641Z" fill="#16B25E"/>
<path d="M143.6 10.2147C143.6 10.1658 143.63 10.0971 143.94 10.1167C143.82 10.1265 143.72 10.1854 143.6 10.2147C143.6 10.2735 143.62 10.3519 143.47 10.4302C144.05 10.1461 144.68 10.0579 145.3 10.3518C145.46 10.4008 145.61 10.5478 145.76 10.6457C145.91 10.7731 146.06 10.9297 146.21 11.0865L146.43 11.3706C146.5 11.4588 146.57 11.5568 146.65 11.6841C146.81 11.9192 146.97 12.1641 147.12 12.3992C147.31 12.5657 147.49 12.7224 147.65 12.8498L147.06 11.9584L146.77 11.5076L146.62 11.2823L146.48 11.0963C146.13 10.5575 145.74 10.2344 145.35 9.99927C144.56 9.54865 143.72 9.73475 142.92 10.2147C142.12 10.7143 141.34 11.4587 140.61 12.2914C139.87 13.124 139.17 14.0156 138.5 14.8874C139.48 13.8295 140.28 12.8889 141.08 12.0759C141.48 11.6742 141.87 11.2923 142.29 10.9691C142.71 10.6262 143.14 10.3715 143.6 10.2147Z" fill="#16B25E"/>
<path d="M148.027 12.7248C148.137 12.8914 148.237 13.0481 148.347 13.2146C148.077 12.6954 148.047 12.6759 148.027 12.7248Z" fill="#16B25E"/>
<path d="M87.5884 17.0824C86.3584 18.395 85.1484 18.9142 83.9984 19.071C82.8484 19.2179 81.7384 18.9827 80.6484 18.4929C81.7884 19.1296 82.9785 19.4626 84.1785 19.345C85.3785 19.2275 86.5984 18.6593 87.7184 17.3858C87.9984 17.043 88.2684 16.6905 88.5284 16.2888C88.6584 16.0733 88.7784 15.8579 88.9084 15.6424C89.0384 15.4269 89.1584 15.2112 89.2684 14.9565C89.4884 14.4471 89.7284 13.9868 89.9084 13.4089C90.0684 12.9485 90.2284 12.5075 90.3784 12.0569C90.4584 11.7435 90.5884 11.5475 90.6884 11.283C90.8184 11.0969 90.9184 10.8521 91.0584 10.715C91.1884 10.5289 91.3385 10.4209 91.4785 10.2838C91.5485 10.2152 91.6284 10.1957 91.6984 10.137C91.7784 10.0978 91.8485 10.0391 91.9285 10.0195C91.5785 10.1371 91.2384 10.3231 90.9584 10.6954C90.6784 11.0676 90.4285 11.5084 90.2385 12.1158L89.6984 13.6048C89.4984 14.0945 89.2684 14.5353 89.0584 14.9957C88.8284 15.3875 88.5884 15.7891 88.3484 16.1614C88.0884 16.465 87.8384 16.8179 87.5884 17.0824Z" fill="#16B25E"/>
<path d="M71.168 12.0975C72.398 12.7832 73.5279 13.6256 74.6179 14.4877C75.7379 15.3987 76.7879 16.2413 77.8079 17.0739C75.7079 15.105 73.708 13.2438 71.728 12.2348C71.548 12.1858 71.348 12.1465 71.168 12.0975Z" fill="#16B25E"/>
<path d="M74 13.3125C75.15 14.2529 76.24 15.2228 77.31 16.1142C77.58 16.3395 77.84 16.555 78.1 16.7803C78.23 16.888 78.3601 16.9959 78.4901 17.1036C78.6301 17.2114 78.77 17.3288 78.92 17.4365C79.21 17.6618 79.5 17.8481 79.78 18.0244C80.07 18.2203 80.36 18.3378 80.65 18.4848C80.33 18.2987 80.01 18.1222 79.69 17.8773C79.37 17.6618 79.06 17.4071 78.75 17.1524C78.19 16.6626 77.63 16.1728 77.08 15.6928C76 14.7622 74.96 13.9296 74 13.3125Z" fill="#16B25E"/>
<path d="M121.689 4.69274C122.629 4.22254 123.419 3.99726 124.069 3.98746C124.229 3.97767 124.379 3.97765 124.529 3.96785C124.669 3.96785 124.809 3.99729 124.929 4.01688C125.179 4.06586 125.389 4.09537 125.569 4.14435C125.729 4.14435 125.919 4.15393 126.139 4.16372C126.249 4.17352 126.369 4.18334 126.499 4.19314C126.629 4.23232 126.769 4.27163 126.909 4.32061C126.789 4.23245 126.659 4.15407 126.539 4.06591C125.449 3.53693 124.349 3.41939 123.299 3.58592C122.239 3.75245 121.239 4.22268 120.279 4.83982C119.889 5.10431 119.519 5.43729 119.169 5.73116C118.829 6.05443 118.499 6.35806 118.219 6.66173C119.329 5.85846 120.479 5.13356 121.689 4.69274Z" fill="#16B25E"/>
<path d="M125.569 4.15234C124.879 4.2503 124.729 4.37745 124.809 4.43622C124.899 4.51459 125.239 4.52451 125.579 4.5637C126.259 4.71063 126.969 4.7401 125.569 4.15234Z" fill="#16B25E"/>
<path d="M114.846 15.9453C114.766 16.0237 114.686 16.102 114.606 16.1706C114.376 16.4057 114.136 16.6508 113.906 16.8859C114.226 16.5725 114.536 16.2588 114.846 15.9453Z" fill="#16B25E"/>
<path d="M95.5486 7.14115C95.7286 7.35666 95.9186 7.56256 96.0986 7.81725C96.2786 8.05235 96.4586 8.30684 96.6286 8.59093L96.8786 8.99271L97.0986 9.35504C97.2386 9.59993 97.3986 9.8252 97.5486 10.0505C98.1486 10.9517 98.7686 11.716 99.4186 12.4115C98.7586 11.6768 98.1286 10.8735 97.5186 9.95269C97.3686 9.71759 97.2186 9.49231 97.0686 9.24742L96.8486 8.88485L96.5886 8.4735C96.2486 7.92493 95.8886 7.47438 95.5186 7.07275C94.7886 6.27928 94.0386 5.76003 93.2786 5.53472C92.5286 5.31921 91.7586 5.42688 91.0586 5.93627C91.2686 5.81872 91.4786 5.75016 91.6986 5.70118C91.9086 5.70118 92.1186 5.64236 92.3286 5.66196C92.7486 5.54441 93.2686 5.58372 93.8386 5.79923C94.3986 6.03433 94.9886 6.48482 95.5486 7.14115Z" fill="#16B25E"/>
<path d="M87.1976 13.8705C87.7176 13.1652 88.1977 12.3033 88.5977 11.2551C88.7077 11.0102 88.7876 10.7064 88.8876 10.4322L89.1876 9.54082C89.2976 9.21756 89.4077 8.8843 89.5477 8.61002C89.6777 8.32594 89.8076 8.03224 89.9576 7.81673C90.5376 6.83714 91.2177 6.30795 91.9077 6.13162C92.5877 5.9455 93.2776 6.0925 93.9376 6.44516C94.5976 6.79781 95.2376 7.36594 95.8376 8.12022L96.2877 8.71788L96.7177 9.39374C96.9677 9.81496 97.2277 10.2166 97.4877 10.5986C98.5277 12.1366 99.6276 13.2436 100.768 14.3407C101.208 14.7717 101.648 15.2223 102.098 15.7121C102.318 15.957 102.548 16.2117 102.768 16.4762C102.968 16.6917 103.178 16.9073 103.378 17.1229C104.198 17.9065 105.078 18.3472 105.968 18.4354C107.748 18.6215 109.538 17.5145 111.048 15.957L111.008 15.6728L110.678 16.0354C109.448 16.8778 108.458 17.2402 107.448 17.4165C107.508 17.3969 107.568 17.3677 107.618 17.3579C107.518 17.3873 107.418 17.4068 107.318 17.4361C106.648 17.5537 105.968 17.5539 105.198 17.3579L104.928 17.3089C104.838 17.2893 104.748 17.2403 104.668 17.2109C104.498 17.1227 104.308 17.0835 104.138 16.966L103.768 16.6818L103.578 16.5448L103.398 16.3587C103.158 16.104 102.938 15.9081 102.648 15.5554C102.098 14.9187 101.538 14.3407 100.988 13.7823C99.8877 12.6656 98.8577 11.6176 97.9077 10.2755C97.6677 9.94245 97.4376 9.58974 97.2076 9.23709L96.8577 8.66885L96.4476 8.03221C95.8876 7.24854 95.3076 6.63126 94.7177 6.18065C93.5377 5.26963 92.2576 5.07369 91.0776 5.91614C90.3476 6.43532 89.6776 7.45428 89.1976 8.79632C89.0876 9.12938 88.9776 9.45265 88.8676 9.77591L88.6077 10.5888C88.5277 10.8827 88.4176 11.0884 88.3176 11.3431C88.2176 11.5782 88.1276 11.8525 88.0076 12.0484L87.6777 12.6951C87.5677 12.9106 87.4376 13.0672 87.3176 13.2631L87.1276 13.5472C87.0676 13.6354 86.9977 13.7039 86.9277 13.7823C86.7977 13.939 86.6576 14.0859 86.5276 14.2427C85.9677 14.7521 85.3777 15.1636 84.7377 15.3497C84.9177 15.3008 85.1276 15.2516 85.3376 15.2027C85.5476 15.1047 85.7776 15.0265 85.9976 14.909C86.2176 14.7522 86.4376 14.6247 86.6476 14.4483C86.8376 14.2426 87.0376 14.0665 87.1976 13.8705ZM102.138 12.6951C101.378 11.9408 100.648 11.2745 99.9576 10.5594C99.2676 9.8345 98.6176 9.04113 97.9476 7.97338C98.5676 8.90399 99.2076 9.68766 99.8976 10.4224C100.588 11.1668 101.348 11.8722 102.138 12.6951ZM72.8676 5.17164C71.8476 4.66225 70.7876 2.09569 69.6976 1.95855C69.4276 1.91937 69.1576 1.91955 68.8776 1.89996L68.0377 1.97816C67.7577 2.03694 67.4776 2.12508 67.1976 2.20345C66.9176 2.3112 66.6476 2.43866 66.3776 2.55621C64.2076 3.68274 62.3077 2.29169 60.6077 4.24108C59.9277 5.04434 58.9476 6.30794 57.8876 7.5912C57.6176 7.91447 57.3476 8.23794 57.0776 8.54162C56.7976 8.86488 56.5276 9.16847 56.2576 9.43296C55.7076 9.98153 55.1476 10.4517 54.6176 10.8337C52.4676 12.3815 50.7176 12.2051 51.4376 12.979C51.8976 12.7537 52.6076 12.5186 53.4976 12.068C54.3776 11.6174 55.4276 10.9316 56.5176 9.8247C57.6176 8.69817 58.8077 7.22885 60.0377 5.73007C61.2677 4.2215 62.5477 6.34712 63.8477 5.14222C65.1477 3.90794 66.4877 3.10482 67.7277 2.84033C68.9777 2.57584 70.0577 2.82071 70.9177 3.05581C71.7777 3.30071 72.4176 5.74972 72.7676 5.78891C73.1076 5.82809 73.1676 5.65164 72.8676 5.17164ZM68.4576 5.94556C68.1076 5.99454 67.7476 6.15136 67.3776 6.2787C67.0176 6.47462 66.6376 6.63125 66.2576 6.90554C65.4976 7.40513 64.7177 8.07129 63.9277 8.90394C62.3377 10.5497 60.7076 9.07052 58.9976 11.1571C58.4776 11.7546 57.9676 12.4207 57.3976 13.1162C56.8076 13.8215 56.1576 14.4778 55.3776 14.9774C54.4076 15.6337 53.6077 15.9962 52.8477 16.2215C52.0877 16.4468 51.3576 16.5155 50.5176 16.3587C50.9376 16.5351 51.3576 16.6525 51.7676 16.7309C50.3076 16.6427 49.1176 16.2312 47.9476 15.2223C47.3676 14.7129 46.7877 17.681 46.2177 16.6917C45.6576 15.7023 45.1076 14.3898 44.6476 12.6755C44.6276 12.7049 44.5377 12.5089 44.4177 12.1661C44.3577 11.9995 44.2977 11.7937 44.2277 11.5586C44.1877 11.4313 44.1477 11.2942 44.1077 11.1472C44.0177 10.775 43.8977 10.4713 43.7977 10.1284C43.6777 9.83455 43.5776 9.51138 43.4576 9.23709C43.2176 8.67872 42.9577 8.19876 42.6777 7.80692C42.1177 6.99386 41.4577 8.76676 40.8577 8.61982C39.3277 8.14962 37.6077 8.73747 36.2776 9.69747C35.9376 9.88359 35.2976 10.5889 34.6376 11.2061C33.8276 11.8624 33.0177 12.6167 32.2277 13.4494C32.2677 13.4396 32.3076 13.4298 32.3376 13.4298C32.9876 12.7832 33.6576 12.166 34.3176 11.5684C35.3076 10.6672 36.3876 9.8737 37.4677 9.35452C38.5477 8.82554 39.6177 8.63939 40.5377 8.8353C41.6877 9.10959 42.6776 7.75773 43.3776 9.30549C43.4676 9.50141 43.5576 9.68764 43.6376 9.91295L43.7576 10.2363L43.8676 10.5888C43.9076 10.7064 43.9477 10.8142 43.9777 10.9416L44.0776 11.3235L44.1976 11.7449L44.3776 12.4208C44.8576 14.2134 45.4976 15.7709 46.1976 16.966C46.8976 18.1611 47.6577 15.3594 48.4177 15.9177C49.1777 16.4957 49.9476 16.7896 50.6976 16.9071C52.1976 17.1422 53.6476 16.6722 55.0276 15.8101C55.6176 15.4281 56.1976 14.9285 56.7676 14.3603C57.3476 13.7824 57.8676 13.1259 58.3876 12.5088C59.9476 10.579 61.5877 12.0094 63.1077 10.2363C63.8677 9.35466 64.5976 8.60032 65.2676 7.97338C65.5976 7.69909 65.9177 7.37576 66.2177 7.17005C66.3677 7.0525 66.5076 6.93509 66.6476 6.82733C66.7876 6.73917 66.9177 6.64117 67.0477 6.54321C67.1277 6.48444 67.2377 6.41592 67.3577 6.35715C67.4777 6.31796 67.6077 6.26885 67.7377 6.21987C68.0177 6.09252 68.2776 6.04352 68.4576 5.94556ZM26.7277 17.8281C26.7077 17.8281 26.6777 17.8281 26.6577 17.8281C26.6577 17.8477 26.6677 17.8576 26.6677 17.8674C26.6877 17.8576 26.7077 17.8379 26.7277 17.8281ZM16.1077 13.5864C15.6877 11.6664 15.5476 10.6771 15.1476 9.5016C14.7776 8.37507 14.2577 7.42473 13.6777 6.67044C12.4977 5.18147 10.9876 4.60362 9.57764 5.07382C9.55764 5.10321 9.55762 5.13244 9.55762 5.15203C10.1476 4.99529 10.7877 5.05416 11.4277 5.24028C11.5877 5.30885 11.7477 5.32838 11.9077 5.42634C12.0677 5.51451 12.2276 5.60269 12.3876 5.69085C12.5476 5.8084 12.6977 5.92607 12.8577 6.05342C13.0177 6.18076 13.1676 6.35704 13.3176 6.49418C13.9176 7.14072 14.4777 8.03211 14.9277 9.15865C15.0377 9.44273 15.1576 9.70712 15.2476 10.0402L15.3876 10.5106L15.4576 10.7457L15.5176 11.0004L15.6376 11.5096L15.6976 11.7643L15.7277 11.8917L15.7676 12.0778C15.8776 12.5774 15.9677 13.1064 16.1077 13.5864ZM9.96765 4.68184C10.3077 4.62307 10.6576 4.55465 11.0176 4.59383C10.9576 4.55465 10.9077 4.52517 10.8577 4.49578C10.7777 4.48598 10.6976 4.47616 10.6176 4.46636C10.5376 4.47616 10.4576 4.4958 10.3876 4.51539C10.2376 4.55457 10.0877 4.59368 9.96765 4.68184ZM126.028 9.83451C125.028 9.30553 124.008 9.23709 123.018 9.48199C122.018 9.72689 121.048 10.2755 120.098 10.971C118.198 12.3718 116.398 14.321 114.608 16.1724C112.768 17.8965 110.918 19.6206 108.988 20.6002C108.028 21.09 107.038 21.3839 106.058 21.3545C105.068 21.3251 104.078 20.9529 103.148 20.1398C102.688 19.7284 102.218 19.2289 101.818 18.7685C101.398 18.3081 100.978 17.877 100.558 17.4558C99.7176 16.6035 98.8576 15.7807 98.0176 14.7913C97.5976 14.2917 97.1877 13.753 96.7877 13.1751C96.3977 12.6167 95.9777 11.9114 95.6677 11.4608C94.9777 10.4812 94.2277 9.84447 93.4877 9.52121C92.8377 9.26652 92.1176 9.25665 91.4576 9.69747C91.1376 9.95216 90.8276 10.3047 90.5676 10.7749C90.4476 11.059 90.3076 11.2844 90.2076 11.6272C90.0476 12.0681 89.8977 12.5188 89.7377 12.9694C88.9777 15.0755 87.9376 16.7114 86.8276 17.5832C85.7176 18.4943 84.5477 18.7881 83.4177 18.7293C82.2877 18.6607 81.1777 18.2297 80.1077 17.5538C79.8477 17.3677 79.5776 17.1913 79.3176 17.0052C79.0676 16.7897 78.8076 16.5841 78.5576 16.3784C78.0876 15.9767 77.6277 15.5847 77.1777 15.183C75.3777 13.6451 73.7176 12.4892 72.3276 12.0386C72.8976 12.45 73.4577 12.8615 73.9877 13.3121C73.1777 12.8027 72.4176 12.4404 71.7177 12.2347C71.1676 11.9702 70.6176 9.54069 70.0776 9.40354C69.8076 9.33497 69.5376 9.28608 69.2676 9.24689C68.9976 9.2273 68.7177 9.1881 68.4877 9.22728C67.4977 9.29586 66.4876 9.77582 65.4576 10.6574C63.3876 12.3717 61.2976 11.6763 58.9576 14.3603C58.6676 14.7032 58.3676 15.0265 58.0576 15.3497C57.7676 15.6632 57.4176 16.0158 57.0876 16.2999C56.4176 16.8877 55.7477 17.3873 55.0477 17.7693C53.6677 18.5138 52.2277 18.8763 50.7277 18.5922C49.9777 18.4453 49.2176 18.1318 48.4576 17.5636C47.6976 16.9955 46.9276 19.8362 46.2076 18.6901C45.4876 17.5341 44.8277 16.0648 44.2877 14.3309C44.1577 13.8901 44.0177 13.459 43.9077 12.9986L43.7377 12.3129L43.6476 11.98C43.5976 11.7645 43.5377 11.5489 43.4777 11.3627C43.4177 11.1668 43.3577 10.9708 43.2877 10.7945C42.9777 9.94224 42.6476 9.42323 42.2676 9.0118C41.8876 8.61997 41.4577 10.53 40.9177 10.2851C39.8177 9.80508 38.5276 10.0207 37.2476 10.6084C37.2476 10.628 37.2577 10.6477 37.2977 10.6574C35.9577 11.2746 34.6076 12.2933 33.2776 13.557C32.5976 14.1937 32.0077 14.8696 31.1777 15.7121C30.3977 16.4859 29.6077 17.1914 28.7877 17.7987C27.1677 19.0036 25.4676 19.9047 23.6276 20.1496C22.7076 20.2672 21.7476 20.1988 20.7476 19.7971C20.2476 19.611 19.7377 19.2876 19.2277 18.9055C18.7177 18.4745 18.1976 17.975 17.6876 17.2697C16.7376 15.9962 15.8476 19.2191 15.1876 16.9954C14.8476 15.8884 14.5777 14.6933 14.3477 13.4982L14.2676 13.1653C14.2476 13.0673 14.2176 12.9497 14.1976 12.8517C14.1776 12.7342 14.1476 12.646 14.1176 12.548C14.0876 12.45 14.0577 12.352 14.0377 12.2541C13.8077 11.49 13.5076 10.7946 13.1176 10.1971C12.7376 9.60931 12.2676 9.16839 11.7676 8.86472C11.6776 8.81574 11.5876 8.75704 11.5176 8.69827C11.4376 8.65908 11.3776 8.61978 11.3176 8.5806C11.1976 8.50223 11.1177 8.41406 11.0377 8.3259C10.8677 8.19855 10.7377 8.02234 10.4677 7.95377C9.91765 7.78724 9.37762 7.84605 8.87762 7.99299C8.74762 8.04197 8.62762 8.08105 8.49762 8.13003L8.13763 8.34551C8.01763 8.39449 7.88763 8.51208 7.75763 8.62963C7.62763 8.74718 7.49761 8.82563 7.36761 8.96278C6.32761 9.96196 5.26766 11.4804 4.09766 13.9392C4.09766 13.9392 4.04764 13.792 4.01764 13.7137C3.66764 14.5267 3.35766 15.2616 3.09766 15.8591C3.28766 15.0069 3.59767 13.9294 3.92767 12.9498C4.08767 12.4502 4.25765 11.9896 4.40765 11.5684C4.55765 11.1472 4.69767 10.7751 4.79767 10.4714C5.00767 9.86404 5.08764 9.5211 4.89764 9.65825C4.70764 9.81498 4.23765 10.393 3.40765 11.9604C3.57765 11.5588 3.71761 11.1864 3.86761 10.8533C3.88761 10.8141 3.90767 10.7751 3.92767 10.7457C3.92767 10.7457 3.92766 10.7457 3.91766 10.7457C4.63766 9.09019 5.06763 8.09101 5.50763 7.07223C4.96763 7.8657 4.45764 8.79632 3.95764 9.77591C4.01764 9.48204 4.03764 9.24689 3.95764 9.23709C3.99764 9.12933 4.02763 9.0313 4.06763 8.91375C4.29763 8.49252 4.48767 8.13003 4.48767 8.13003C4.54767 7.93411 4.58767 7.77738 4.60767 7.65004C5.24767 6.25902 6.16765 4.77997 6.90765 3.86895C7.63765 2.93833 8.17764 2.48753 7.89764 2.44835C7.47764 2.52671 6.26764 3.69252 5.07764 5.73007C4.99764 5.80844 4.90762 5.91624 4.80762 6.024C5.20762 5.38727 5.39766 5.02486 5.47766 4.84854C5.55766 4.66242 5.51764 4.61343 5.45764 4.59383C5.33764 4.55465 5.12763 4.63306 5.63763 3.89836C6.32763 2.99714 7.03762 2.21341 7.80762 1.63545C8.56762 1.08688 9.35764 0.792846 10.1476 0.743866C10.9576 0.685091 11.7476 0.900716 12.5076 1.35133C13.2676 1.81174 14.0077 2.45816 14.6777 3.44755C15.3477 4.42714 15.9576 5.66145 16.4476 7.14063L16.7877 8.30653C16.9077 8.69836 16.9876 9.13896 17.0776 9.55039L17.2177 10.1775L17.3276 10.6967C17.3976 11.0493 17.4876 6.25917 17.5676 6.58243C18.2476 9.21754 19.3676 10.922 20.6276 11.7253C21.8976 12.5188 23.2977 12.5088 24.7177 12.019C24.9677 11.9308 25.2177 11.833 25.4677 11.7253C26.8477 11.1081 28.1676 10.1579 29.4476 9.002C30.0976 8.42404 30.6976 7.77733 31.3776 7.10141C32.0476 6.44508 32.7277 5.83789 33.4177 5.29911C33.2477 5.50483 33.0776 5.72025 32.8976 5.94556C34.0076 5.02474 35.1377 4.25102 36.2977 3.66327C37.4577 3.08531 38.6377 2.69324 39.8577 2.69324C40.5977 2.69324 41.3577 0.665594 42.1077 1.08682C42.8577 1.50804 43.6077 2.24276 44.2877 3.31051C44.9677 4.37827 45.5777 5.79865 46.0477 7.44436L46.3676 8.64924C46.4476 8.96271 46.5376 9.26631 46.6276 9.56019C46.7176 9.86387 46.8277 6.46481 46.9177 6.74889C47.0277 7.00358 47.1276 7.27789 47.2476 7.50319C48.1476 9.43299 49.3777 10.4712 50.6777 10.7847C51.9877 11.0884 53.3576 10.7456 54.7076 9.91295C55.4176 9.47213 56.0976 8.91375 56.7676 8.17905C57.4576 7.46395 58.1376 6.64117 58.8276 5.80852C60.2076 4.13342 61.5976 5.99451 63.0876 4.44675C63.8376 3.69247 64.6177 2.99715 65.4177 2.43878C66.2277 1.9098 67.0776 1.52765 67.9476 1.35133C68.8376 1.23378 69.6676 1.32188 70.5076 1.53739C71.3476 1.7529 72.1876 4.3097 73.0076 4.7799C72.3376 4.41745 71.6476 1.93897 70.9576 1.72346C70.2676 1.52754 69.5677 1.41995 68.8577 1.40036C67.3877 1.40036 65.9477 2.11529 64.5977 3.19285C63.3777 4.14305 62.2377 5.36754 61.1677 6.62142C62.2877 5.36754 63.4077 4.14305 64.5977 3.19285C65.7677 2.28183 67.0276 1.68443 68.3076 1.63545L68.7877 1.62564C68.9477 1.63544 69.0976 1.66487 69.2476 1.67467C69.5576 1.69426 69.8577 1.77255 70.1577 1.84112C70.7577 1.99786 71.3477 4.39775 71.9177 4.67204C74.2177 5.73979 76.2377 7.49333 77.9777 8.65904C78.3277 9.09007 78.3077 9.18815 78.6577 9.52121C78.9677 9.82488 79.2676 10.1187 79.5676 10.4224C79.8476 10.6771 80.1277 10.9611 80.4077 11.1669C80.9677 11.6371 81.5377 11.9506 82.0977 12.2053C83.2177 12.6461 84.3176 12.6754 85.2177 12.0778C85.2177 12.0288 85.4376 11.8916 85.6176 11.7741C85.7876 11.6075 85.9277 11.4706 85.7776 11.4706C85.8876 11.3922 85.9877 11.3139 86.0977 11.2355C86.1977 11.1375 86.2976 11.0297 86.3976 10.922L86.5477 10.7749L86.6876 10.579C86.7776 10.4517 86.8777 10.3244 86.9777 10.2069C87.0677 10.0501 87.1477 9.90323 87.2377 9.7465C87.2777 9.66813 87.3276 9.59958 87.3676 9.52121L87.4877 9.2567C87.5677 9.07058 87.6577 8.9236 87.7277 8.72768C87.7977 8.52197 87.8676 8.32595 87.9376 8.13003L88.3076 7.11121C88.4576 6.68019 88.6276 6.31782 88.8076 5.96517C88.8976 5.78884 88.9776 5.60269 89.0776 5.44595L89.3577 5.00519C89.4577 4.85825 89.5476 4.71138 89.6476 4.58403L89.9476 4.24108C90.7476 3.35944 91.5577 3.03614 92.2877 2.97736C93.5677 2.91859 94.7576 3.5064 95.8976 4.50558C96.1876 4.81905 96.4677 5.14237 96.7377 5.5342C96.8777 5.71053 97.0176 5.90631 97.1476 6.12182L97.5276 6.71947C97.8977 7.32682 98.2777 7.87535 98.6677 8.39454C99.4377 9.41331 100.278 10.2559 101.218 11.1865C101.688 11.6567 102.178 12.1367 102.668 12.6657L103.398 13.4592C103.578 13.6257 103.748 13.792 103.928 13.9684C104.638 14.5561 105.388 14.8207 106.188 14.7913C107.798 14.7325 109.568 13.459 111.418 11.7545C113.278 10.05 115.208 7.88516 117.378 5.95536C118.458 5.01495 119.678 4.09413 121.008 3.49658C122.328 2.88923 123.758 2.64435 125.138 3.02639C124.628 2.89904 124.128 2.93815 123.628 2.94795C123.138 3.03611 122.648 3.11459 122.168 3.31051C121.218 3.64357 120.298 4.17259 119.438 4.81912C118.568 5.45586 117.728 6.18069 116.908 6.95456C116.088 7.72844 115.298 8.53163 114.518 9.3251C112.988 10.7357 111.548 12.0583 110.218 13.1064C108.898 14.1154 107.688 14.8696 106.648 15.183C106.408 15.2418 106.158 15.3203 105.928 15.3105C105.808 15.3105 105.688 15.3301 105.568 15.3301L105.218 15.2713C106.618 15.7023 108.168 14.9872 109.728 13.8313C111.298 12.6558 112.878 11.0002 114.518 9.3251C116.328 7.67939 118.268 5.92602 120.378 4.7799C120.338 4.80929 120.298 4.83876 120.258 4.86815C118.628 5.90652 117.118 7.34653 115.658 8.79632C114.318 10.0306 112.998 11.2354 111.738 12.3913C110.518 13.4787 109.388 14.3897 108.358 15.046C108.098 15.2321 107.858 15.3398 107.608 15.4966C107.358 15.6239 107.108 15.7122 106.848 15.8199C106.598 15.8689 106.348 15.9472 106.098 15.9766C107.018 15.9766 107.988 15.5847 108.958 14.9676C109.928 14.3504 110.908 13.508 111.898 12.5774C113.128 11.4117 114.368 10.0992 115.648 8.80613C116.468 8.08123 117.308 7.35619 118.188 6.69986C118.098 6.79782 118.008 6.89583 117.928 6.99379C117.168 7.6795 115.318 10.6183 116.438 9.93256C117.818 8.68848 119.388 7.36603 121.048 6.50399C121.888 6.10236 122.738 5.82806 123.588 5.75949C123.798 5.7497 124.018 5.7693 124.228 5.7693C124.338 5.7693 124.438 5.76932 124.538 5.78891C124.648 5.8085 124.748 5.83795 124.848 5.85755C125.058 5.90653 125.258 5.93583 125.458 6.01419C125.658 6.10236 125.858 6.19053 126.058 6.2689C126.258 6.34727 126.448 6.48449 126.628 6.60205C126.818 6.72939 126.998 6.84683 127.178 6.97418C127.528 7.29744 127.868 7.58149 128.178 7.92435C128.798 8.61006 129.268 9.28592 129.648 9.8149C130.008 10.3145 130.298 10.7261 130.488 10.9906C130.578 11.1179 130.648 11.2157 130.698 11.2843C130.748 11.3529 130.768 11.3823 130.768 11.3921C130.818 11.5783 130.388 11.1374 129.608 10.1186C129.218 9.61903 128.738 8.96264 128.148 8.3357C127.858 8.01244 127.538 7.77747 127.228 7.49339C126.908 7.2289 126.578 7.06245 126.248 6.84694C124.908 6.16123 123.568 6.26893 122.638 6.54321C122.408 6.62158 122.188 6.69992 122.008 6.75869C121.828 6.82727 121.668 6.9154 121.548 6.97418C121.298 7.10152 121.188 7.17004 121.238 7.16024C121.828 6.94473 122.418 6.78806 123.018 6.73908C122.448 6.90561 121.908 7.1603 121.418 7.46397C120.248 8.03213 118.748 9.02145 118.048 9.83451C116.808 11.1472 115.508 12.5089 114.168 13.8509C112.828 15.193 111.438 16.4859 110.048 17.632C109.178 18.3569 108.208 19.0525 107.168 19.4346C106.128 19.8264 105.018 19.8851 103.918 19.3561C103.898 19.552 102.838 18.5824 103.168 19.0722C102.928 18.8175 102.678 18.5432 102.428 18.2885C102.178 18.0044 101.938 17.7104 101.688 17.4361C101.198 16.8876 100.708 16.3782 100.248 15.9275C99.3276 15.0361 98.5376 14.2819 98.0776 14.0076C98.0276 13.9488 97.9876 13.8901 97.9376 13.8411C97.7976 13.6746 97.6076 13.4396 97.3976 13.1947C97.0176 12.6167 96.6476 12.0485 96.3076 11.451C96.1276 11.1473 95.9776 10.9121 95.8176 10.6574C95.6476 10.4223 95.4876 10.1971 95.3176 9.99139C94.6476 9.19792 93.9677 8.6885 93.2877 8.48279C92.6177 8.27707 91.9376 8.35528 91.3176 8.81569C90.7076 9.30549 90.1777 10.1971 89.7877 11.4902C89.0377 13.8804 87.9476 15.7316 86.7476 16.6818C86.9476 16.5251 87.1576 16.3097 87.3876 16.0942C87.6176 15.8689 87.8476 15.5456 88.0776 15.2615C88.3076 14.9284 88.5177 14.5561 88.7277 14.2034C88.9177 13.8018 89.0976 13.4002 89.2476 13.0378C89.4376 12.5284 89.6077 11.98 89.7776 11.4804C90.1276 10.3539 90.6177 9.55043 91.1777 9.09981C91.7377 8.6394 92.3677 8.54152 92.9877 8.68846C93.6077 8.8452 94.2376 9.23695 94.8276 9.8247L95.2676 10.3047L95.6876 10.8533L96.0977 11.4706L96.5377 12.1661C96.7377 12.4305 97.0676 12.8322 97.3776 13.1947C97.5476 13.4494 97.7176 13.6943 97.8976 13.9392C97.9476 13.9588 97.9976 13.988 98.0576 14.0174C99.2476 15.3986 100.558 16.5155 101.768 17.8281C102.078 18.1514 102.368 18.4942 102.678 18.7881C102.828 18.935 102.978 19.0917 103.128 19.2289C103.288 19.3366 103.438 19.4445 103.588 19.5522C103.888 19.7971 104.198 19.8853 104.488 20.0224C104.778 20.1498 105.068 20.1693 105.348 20.2379C107.428 20.5709 109.548 19.2875 111.588 17.6516C113.638 15.9961 115.648 13.9586 117.658 12.2737C115.678 14.1349 113.798 16.3098 111.878 18.0926C114.288 15.9081 116.478 13.371 118.688 11.4412C119.038 11.1669 119.378 10.9318 119.718 10.6869C120.448 10.2167 121.178 9.7857 121.918 9.52121C121.568 9.63876 121.218 9.74644 120.878 9.93256C120.538 10.0795 120.198 10.2853 119.858 10.4812C121.198 9.4918 122.578 8.74726 123.968 8.70807C124.928 8.69828 125.898 9.02161 126.838 9.7563C127.778 10.4714 128.638 11.7154 129.458 12.8615C130.278 14.0077 131.098 15.0753 131.968 15.4672C132.188 15.5945 132.408 15.6239 132.628 15.6924C132.848 15.7022 133.078 15.7414 133.298 15.6924C133.748 15.6533 134.198 15.477 134.638 15.2223C136.428 14.2035 138.128 12.0191 139.908 10.1873C140.798 9.25665 141.718 8.39449 142.698 7.85571C143.188 7.60102 143.698 7.44433 144.208 7.41494C144.728 7.40515 145.248 7.58151 145.748 7.94396C145.578 7.92437 145.388 7.98319 145.178 7.99299C144.698 7.80687 144.208 7.77738 143.728 7.89493C143.258 8.02228 142.788 8.22815 142.338 8.54162C141.438 9.13917 140.598 10.0011 139.788 10.8827C138.178 12.6656 136.718 14.5464 135.298 15.7709C136.308 15.0754 137.128 14.1741 137.938 13.2827C138.748 12.3815 139.528 11.4216 140.478 10.4714C140.488 10.5302 140.518 10.5888 140.368 10.7749C140.968 10.1088 141.628 9.43294 142.338 8.92355C143.048 8.41417 143.818 8.08108 144.588 8.15944C144.088 8.34557 143.568 8.72768 143.068 9.21748C142.358 9.72687 141.308 10.5792 140.288 11.7449C139.178 12.9302 138.098 14.2232 136.978 15.3203C135.858 16.4175 134.698 17.3187 133.468 17.5244C132.858 17.6224 132.228 17.5243 131.628 17.1618C131.018 16.8288 130.448 16.2019 129.908 15.5162C128.828 14.1448 127.868 12.4599 126.778 11.588C125.828 10.6966 124.808 10.2755 123.788 10.2461C122.758 10.2167 121.728 10.5693 120.718 11.1374C118.688 12.2738 116.728 14.1742 114.768 16.0158C116.688 14.0664 118.518 12.1464 120.378 10.8827C122.218 9.61906 124.118 9.01172 125.958 9.90314L126.028 9.83451Z" fill="#16B25E"/>
<path d="M119.187 10.9001C119.957 10.2535 120.747 9.72444 121.557 9.31301C122.367 8.88199 123.197 8.65675 124.037 8.64696C124.197 8.64696 124.367 8.62735 124.527 8.63715L125.017 8.71559L125.257 8.75482C125.337 8.77441 125.417 8.81344 125.497 8.84283L125.977 9.01933C126.137 9.0781 126.297 9.19567 126.457 9.28383C126.617 9.38179 126.777 9.45018 126.937 9.58733L127.407 9.97931C127.567 10.1067 127.717 10.2437 127.867 10.4103C129.307 11.9482 130.567 14.4168 131.997 15.1026C132.707 15.465 133.467 15.4552 134.217 15.1222C134.977 14.7989 135.727 14.2306 136.487 13.5155C137.997 12.1049 139.487 10.2046 141.097 8.7254C141.897 7.98091 142.747 7.36361 143.637 7.09912C144.527 6.83463 145.477 7.01119 146.337 7.82425C146.577 7.76548 146.667 7.52045 146.447 6.96209C145.947 6.49188 145.417 6.13928 144.897 6.03152C144.377 5.91397 143.847 5.94321 143.357 6.11953C142.357 6.433 141.457 7.18743 140.597 7.9809C138.887 9.62661 137.337 11.6153 135.787 12.9475C135.007 13.594 134.237 14.0838 133.487 14.1916C133.107 14.2504 132.747 14.2111 132.387 14.0935C132.207 14.0152 132.037 13.9368 131.857 13.8094C131.687 13.6919 131.507 13.545 131.337 13.3687C130.637 12.6829 129.927 11.5662 129.137 10.4397C128.747 9.88132 128.327 9.313 127.877 8.81341L127.197 8.14735C126.967 7.92205 126.727 7.78486 126.497 7.60853C126.437 7.57914 126.377 7.54991 126.317 7.52052C125.487 7.18746 124.537 6.9914 123.537 7.12854C122.527 7.25589 121.477 7.67709 120.437 8.33342C118.357 9.63628 116.337 11.6935 114.627 13.5547C112.917 15.4747 111.207 17.2968 109.437 18.5115C107.667 19.7164 105.797 20.2846 103.977 19.3246C105.277 20.1671 106.627 20.2552 107.927 19.7948C109.237 19.3442 110.497 18.4722 111.747 17.4437C114.217 15.3865 116.617 12.7123 119.187 10.9001Z" fill="#16B25E"/>
<path d="M77.7969 17.0849C78.4469 17.702 79.2768 18.4563 80.0668 18.9754C80.8668 19.5044 81.6869 19.8668 82.5369 20.0823C83.7069 20.337 84.8968 20.239 86.0568 19.6121C87.2168 18.9851 88.3769 17.7804 89.3369 15.8506C89.5669 15.3412 89.8068 14.8513 90.0068 14.3028C90.1868 13.7738 90.3669 13.2643 90.5469 12.7451C90.5869 12.6276 90.6269 12.5003 90.6669 12.373C90.7169 12.2652 90.7668 12.1672 90.8068 12.0497C90.8468 11.9223 90.9068 11.8537 90.9568 11.7557C91.0168 11.6676 91.0568 11.5502 91.1268 11.4915C91.5968 10.8351 92.2969 10.5802 93.0269 10.7761C92.4969 10.5802 91.9669 10.5999 91.5269 10.9036C91.0869 11.1975 90.7469 11.7168 90.4769 12.4613C90.4369 12.5396 90.2568 13.0588 90.1168 13.4408C89.9668 13.8425 89.8269 14.2538 89.6569 14.5967C89.4869 14.9493 89.3269 15.3217 89.1569 15.6449L88.6168 16.5559C87.8668 17.6628 87.0668 18.417 86.2568 18.8872C85.4468 19.3574 84.6769 19.5533 83.9269 19.6415C83.1869 19.6709 82.4668 19.6219 81.7668 19.4162C81.4168 19.3378 81.0769 19.1812 80.7269 19.0539C80.3869 18.8776 80.0469 18.7502 79.7169 18.5249L79.2169 18.2113L78.7169 17.8392L78.4669 17.6529L78.2468 17.4766C78.0968 17.3297 77.9469 17.2122 77.7969 17.0849Z" fill="#16B25E"/>
<path d="M95.3962 12.6776C94.6562 11.6393 93.8263 10.9634 93.0363 10.7479C93.8363 11.0417 94.6563 11.8058 95.3563 12.8833L95.6262 13.3045L95.9662 13.8825C96.1962 14.2548 96.4263 14.6269 96.6663 14.9697C97.1363 15.675 97.6262 16.312 98.1162 16.8801C99.0962 18.036 100.046 18.9371 100.946 19.9069C101.166 20.1518 101.396 20.3967 101.616 20.6514C101.726 20.7788 101.826 20.8964 101.956 21.0434L102.356 21.4645L102.756 21.8759L103.176 22.1992L103.596 22.5226L104.016 22.7479C104.946 23.2181 105.896 23.365 106.806 23.2082C107.726 23.0613 108.616 22.6988 109.466 22.1894C111.176 21.1511 112.776 19.6328 114.336 18.0948C115.896 16.547 117.406 14.9405 118.936 13.618C120.466 12.2956 122.016 11.2668 123.566 11.0317C123.746 10.9926 123.916 11.0222 124.096 11.0124C124.276 11.0026 124.446 11.0024 124.616 11.0514C124.786 11.0807 124.966 11.1102 125.136 11.1592L125.646 11.3747C124.246 10.6106 122.766 10.8064 121.316 11.5117C120.586 11.8546 119.866 12.3543 119.146 12.8735C118.426 13.4319 117.706 14.0295 116.996 14.676C115.576 15.9593 114.146 17.3697 112.706 18.6334C111.256 19.8677 109.786 21.0236 108.246 21.6114C106.716 22.2285 105.106 22.1992 103.576 21.151L103.016 20.72C102.826 20.5731 102.656 20.3575 102.466 20.1812C102.086 19.809 101.796 19.4369 101.466 19.094C100.826 18.3887 100.166 17.7519 99.5062 17.0858C98.8462 16.4197 98.1762 15.6948 97.5162 14.8719C97.1862 14.4605 96.8662 14.0196 96.5562 13.5494C96.3962 13.3143 96.2463 13.0792 96.0963 12.8343L95.8662 12.472L95.6663 12.178C94.6463 10.6499 93.4462 9.80737 92.3862 9.92492C92.2262 9.92492 92.0662 9.99337 91.9062 10.0423C92.8562 9.77786 93.9562 10.4049 94.9062 11.5804C95.1463 11.8743 95.3763 12.1975 95.5963 12.56L95.7662 12.8441L95.9763 13.187C96.1163 13.4221 96.2562 13.6474 96.3962 13.8629C96.9562 14.7445 97.5362 15.5379 98.1262 16.2432C99.3062 17.6441 100.466 18.6922 101.546 19.9363L101.956 20.4065L102.426 20.9061C102.586 21.0628 102.746 21.2489 102.906 21.3763L103.406 21.7585L103.656 21.9445L103.906 22.0816L104.406 22.3461C104.746 22.4734 105.086 22.5812 105.426 22.6498C104.476 22.4931 103.516 22.0131 102.606 21.1608L101.936 20.485L101.366 19.8579C100.976 19.4464 100.586 19.0448 100.196 18.653C99.4062 17.8693 98.5663 17.0564 97.7363 16.0572C97.3163 15.5576 96.9062 15.0091 96.5062 14.4311C96.3062 14.1275 96.1063 13.8334 95.9163 13.5199C95.8263 13.373 95.7062 13.1869 95.6362 13.0694L95.4062 12.7267L95.3962 12.6776Z" fill="#16B25E"/>
<path d="M117.707 12.2146C118.047 11.9207 118.397 11.6463 118.737 11.3819C119.137 11.039 119.527 10.7158 119.917 10.4219C119.667 10.559 119.427 10.7451 119.187 10.9019C118.687 11.3133 118.197 11.7542 117.707 12.2146Z" fill="#16B25E"/>
<path d="M107.427 17.4275C107.387 17.4275 107.347 17.4373 107.297 17.4471C106.227 17.7409 105.137 17.6724 104.107 16.9671C103.927 16.8495 103.747 16.7321 103.577 16.6048C103.397 16.4578 103.227 16.2815 103.047 16.115C102.877 15.968 102.657 15.7132 102.457 15.5075C102.257 15.292 102.047 15.0766 101.837 14.8709C101.007 14.0284 100.177 13.2643 99.3867 12.4219C100.097 13.2153 100.847 13.9499 101.597 14.7336C101.967 15.1254 102.347 15.527 102.707 15.9483L102.847 16.1051L102.967 16.2226L103.207 16.4577C103.367 16.6144 103.517 16.7909 103.687 16.8889C103.847 17.0064 104.007 17.1238 104.167 17.2414C104.327 17.3198 104.497 17.3981 104.657 17.4667C104.817 17.5548 104.977 17.5942 105.137 17.6236C105.297 17.653 105.457 17.7214 105.607 17.7214C105.927 17.7214 106.227 17.7507 106.537 17.6724C106.687 17.6332 106.837 17.6333 106.987 17.5745C107.147 17.5354 107.287 17.4764 107.427 17.4275Z" fill="#16B25E"/>
<path d="M98.7888 8.2661C98.4988 7.87427 97.9587 7.03181 97.6887 6.54201L97.5488 6.35595L97.3588 6.09144C97.2288 5.92491 97.1088 5.73877 96.9688 5.58203C97.1587 5.87591 97.3487 6.18932 97.5287 6.50279L97.9188 7.16885C98.1988 7.56068 98.4888 7.93304 98.7888 8.2661Z" fill="#16B25E"/>
<path d="M78.0068 8.65773C78.3968 9.02018 78.7869 9.37292 79.1769 9.72557C79.3669 9.8921 79.5668 10.088 79.7468 10.235L80.2769 10.6757C80.9769 11.2145 81.6969 11.5965 82.4069 11.8218C83.8169 12.292 85.2168 12.0374 86.3068 10.901C86.8568 10.3427 87.3068 9.56872 87.6868 8.62831C87.7668 8.36382 87.8568 8.1189 87.9468 7.8642L88.1968 7.15893C88.2968 6.88464 88.3968 6.61052 88.4968 6.34603C88.6068 6.10113 88.7169 5.86604 88.8369 5.62114L89.0068 5.26838L89.1968 4.96465C89.3168 4.76873 89.4468 4.57297 89.5768 4.38684C89.7068 4.22031 89.8369 4.07315 89.9669 3.91642C91.0369 2.72132 92.1268 2.51562 93.1268 2.71154C94.1268 2.92705 95.0668 3.53445 95.9468 4.47485L96.4669 4.98426L96.9769 5.58192C95.8569 3.90681 94.6369 2.78026 93.2869 2.36883C92.6169 2.15332 91.9069 2.1826 91.1769 2.50586C90.4569 2.82913 89.6969 3.48561 89.0369 4.62194C88.8669 4.87663 88.7168 5.20962 88.5568 5.53289L88.3268 6.01288C88.2568 6.18921 88.1868 6.37538 88.1268 6.5517L87.9269 7.10009L87.7769 7.51168C87.7269 7.65862 87.6668 7.81533 87.6168 7.97206C87.4168 8.58921 87.1569 9.08868 86.8969 9.56868C86.3569 10.4895 85.6569 11.1068 84.9169 11.4693C84.6269 11.6162 84.2369 11.763 83.8469 11.8414C83.4569 11.9198 83.0369 11.8903 82.7169 11.8022C81.9469 11.5867 81.1769 11.1655 80.4269 10.6071C79.7169 10.0781 78.8768 9.25541 78.0768 8.55011C76.4568 7.11011 74.7869 5.7288 73.0469 4.78839C74.7069 5.73859 76.3068 7.10028 77.8768 8.52069C77.9168 8.56967 77.9568 8.60875 78.0068 8.65773Z" fill="#16B25E"/>
</svg>
