<svg width="153" height="100" viewBox="0 0 153 100" fill="none" xmlns="http://www.w3.org/2000/svg">
<path d="M9.85342 54.1805C9.69832 53.7867 9.69831 53.3158 9.6162 52.922C10.5559 56.9201 12.5175 60.9267 15.4188 64.4539C14.0868 62.3393 12.9098 60.1391 12.1252 57.8618C11.9701 57.3139 11.7329 56.6889 11.5778 56.1325C11.4227 55.5846 11.3406 54.9596 11.1855 54.4031C11.1034 54.0863 11.0304 53.8552 10.9483 53.5384L10.7932 52.6737C10.7111 52.1258 10.5559 51.5779 10.483 50.9443C9.93554 46.3898 10.0906 41.9208 9.85342 37.8457C10.3278 37.7686 10.9482 37.2207 11.5048 36.3561C11.815 35.9622 12.2073 35.4913 12.5266 35.0205C12.9189 34.5496 13.1561 34.0017 13.5485 33.5308C14.9626 31.4933 16.3676 29.61 16.2946 29.4473C16.7691 28.5826 17.2344 27.718 17.7088 26.8618C18.2562 26.0742 18.8036 25.2179 19.4332 24.3533C18.9587 24.9012 18.6485 25.4492 18.1741 25.9971C18.5664 25.4492 18.9587 24.8241 19.4332 24.3533C19.9806 23.7283 20.455 23.0948 21.0024 22.4698C21.5498 21.9219 22.1793 21.2969 22.7267 20.7405C23.9037 19.6446 25.2358 18.6258 26.6499 17.6841C29.4691 15.8006 32.6897 14.1569 36.0563 12.9754C42.7986 10.544 50.4076 9.44829 58.1718 9.20857C60.2884 9.13152 63.4269 9.0544 66.9578 9.13145C70.5616 9.2085 74.5668 9.4484 78.645 9.75661C86.7194 10.4586 94.6386 12.0337 98.7989 13.2066L100.605 13.6775C101.235 13.8316 101.782 14.0714 102.412 14.2255C100.45 13.5235 100.377 13.5235 98.3337 12.967C103.589 13.6691 108.37 14.6106 112.84 16.0232C112.138 15.5524 112.138 15.2356 110.331 14.2939L112.53 15.2357C113.707 15.2357 115.431 15.8605 117.155 16.4085C118.88 17.0334 120.604 17.8211 121.708 18.215C121.079 18.292 122.73 19.2337 124.135 20.0984L123.661 19.5506C126.407 21.0402 129.226 22.9237 131.972 24.7301C133.304 25.6718 134.563 26.6905 135.813 27.6323C136.99 28.651 138.085 29.5928 139.025 30.6115C139.572 31.1594 139.809 31.6304 139.964 31.9471C141.141 33.12 142.236 34.3784 143.103 35.714C142.793 35.714 143.258 36.5787 143.495 37.2807C143.732 37.9827 143.888 38.4536 143.258 37.5119C144.28 38.9245 144.745 40.5682 145.064 42.2205C145.375 43.8643 145.302 45.5936 145.302 47.323C145.064 48.8126 144.599 50.3794 144.043 51.869C143.413 53.3587 142.711 54.9253 141.926 56.3379C140.275 59.3172 138.158 62.1423 135.813 64.8134C131.105 70.2241 125.622 75.087 119.655 79.0936H120.048C118.013 80.5062 116.052 81.9186 113.853 83.1771C111.654 84.4356 109.227 85.6086 106.171 86.3192C104.136 87.2609 101.545 88.0486 99.1912 88.6735C96.8373 89.2215 94.8028 89.6153 93.8631 90.1632C91.199 90.2402 89.3105 90.1632 87.431 90.0091C85.5516 89.855 83.663 89.6152 81.081 88.8362C81.6284 89.307 80.3785 88.9903 79.2015 88.6821C78.8913 88.6051 78.6541 88.528 78.4169 88.4424C78.1797 88.3653 78.0246 88.3652 77.9425 88.3652C77.7053 88.3652 77.7874 88.4423 78.2527 88.759C79.0373 89.3069 79.6669 89.6238 80.1322 89.932C80.6796 90.1717 81.154 90.3257 81.5463 90.4798C81.9386 90.6339 82.4131 90.7966 82.8784 90.9507C83.3528 91.1048 83.9002 91.4217 84.6848 91.6528L84.6027 91.4988C91.6643 93.6134 99.3464 93.4592 106.408 91.8154C113.543 90.1717 120.212 87.1067 126.252 83.1857C130.175 80.3605 134.016 77.2271 137.702 73.7684C141.306 70.3182 144.836 66.4743 147.583 62.0825C149.07 59.7281 150.402 57.1426 151.351 54.3174C152.372 51.4922 152.993 48.4359 152.993 45.371C153.075 42.3147 152.445 39.1728 151.424 36.5017C150.329 33.7536 148.832 31.4763 147.345 29.6014C145.858 27.795 144.991 26.3823 143.815 24.8156C142.245 23.3259 140.439 21.8364 138.642 20.4238C136.835 18.9342 134.8 17.5984 132.757 16.1859C128.596 13.5148 124.135 11.2462 119.737 9.43974C119.893 9.51679 120.048 9.59378 120.13 9.59378C117.776 8.65205 115.814 7.71043 113.853 6.9228C111.891 6.05812 109.857 5.35597 107.503 4.64539C107.503 4.7995 106.8 4.56848 106.408 4.56848C106.253 4.41438 104.446 3.86649 101.782 3.31001C99.1183 2.76209 95.5875 2.21405 91.9837 1.89729C84.849 1.19527 77.6323 1.1954 76.7656 0.955683C76.2911 0.955683 75.7437 0.955683 75.2784 0.955683C70.2605 0.638919 65.1604 0.0909199 60.2246 0.0138692C55.2066 -0.0631815 50.3438 0.16792 45.9553 1.0326C45.0156 1.34936 44.0759 1.65773 43.1362 2.05154C42.1965 2.44535 41.3297 2.76193 40.5451 3.14719C38.9758 3.30129 38.8207 3.8493 37.0143 4.32017C36.3847 4.32017 35.8373 4.3973 35.2899 4.3973C34.7425 4.47435 34.268 4.55121 33.8027 4.63682C32.936 4.79093 32.1605 5.03083 31.7682 5.26198C30.8285 5.6558 30.9014 5.96397 32.0784 5.65576C28.3925 7.29951 24.7887 9.02885 21.8053 10.9894C20.4733 11.9311 19.1412 13.0269 17.8821 14.1313C16.8603 15.15 16.1578 15.5438 15.3732 15.7749C12.8642 18.5231 13.3387 17.4187 10.7476 20.3295C10.5925 20.4066 10.4373 20.5607 10.2001 20.8004C9.96291 21.0316 9.72568 21.4254 9.49759 21.8192C8.95018 22.6068 8.23858 23.6256 7.77328 24.7985C7.22587 25.8943 6.67845 26.9988 6.28614 27.9406C5.89383 28.8823 5.58362 29.5071 5.41939 29.7468L5.65661 29.199C5.34641 29.6699 5.10921 30.1407 4.872 30.6115C4.63479 31.0824 4.39756 31.4763 4.16947 31.9471C3.62206 32.8118 3.22972 33.6764 2.83741 34.4555C2.6002 34.8493 2.4451 35.3201 2.20788 35.714C1.97067 36.1848 1.81559 36.5787 1.66049 37.0496C1.35029 37.9913 0.957968 38.9331 0.793745 40.106C0.638644 40.8936 0.483526 41.6727 0.319302 42.4603C0.23719 43.2479 0.164248 44.0268 0.0821365 44.8915C0.0821365 45.2853 0 45.6791 0 46.15V47.4087C0 48.2734 2.44985e-05 49.0524 0.0821365 49.917C0.319349 53.2131 1.10397 56.5862 2.35389 59.7281C3.61294 62.7845 5.33728 65.6097 7.29884 68.1267C9.2604 70.6351 11.377 72.8352 13.4937 74.6416C13.886 74.3249 11.5322 73.0751 11.9245 72.4416C16.7052 77.1502 22.0425 81.0712 27.763 84.1275C28.7027 84.7525 29.8796 85.6171 30.3541 86.0109C32.1605 87.0297 31.531 86.3276 32.863 87.0296V87.5006C34.9797 88.0485 35.5271 89.2299 37.4887 89.8549C37.6438 89.7008 38.3554 90.009 38.9758 90.3258C38.8207 90.7967 41.0104 91.1135 40.7823 91.4988C41.1746 91.6529 41.4848 91.7384 41.9592 92.0466C42.3515 92.1236 44.4682 92.5946 46.667 92.9884C48.7836 93.3822 50.9003 93.776 51.3747 93.8531L51.6849 94.0926C52.7798 94.4864 53.3271 94.3239 52.7797 94.0157L54.1118 94.4866H53.9567L55.2887 94.9573C55.5259 95.1114 55.7631 95.3512 55.2887 95.4282C56.0733 95.5053 57.0131 95.745 57.7156 96.0532C55.681 95.1114 53.245 93.7759 51.2105 92.603C52.1502 92.7571 53.7194 93.6219 54.6592 93.8617C55.754 94.5722 58.0349 95.5908 59.8323 96.447C60.2246 96.524 60.699 96.1302 61.5566 96.6781C61.9489 97.149 62.6514 96.995 63.3631 97.4659C62.4233 97.3888 61.5566 96.9949 60.6169 96.6781C60.6169 97.149 62.7336 97.6199 63.4361 98.0137C63.8284 98.0137 65.5527 98.6387 66.7297 98.8784C66.1001 99.1096 67.5964 99.4264 68.1438 99.8202C68.8463 100.06 69.4029 100.06 69.1656 99.8202C69.558 99.4264 66.2643 98.7244 67.4413 98.5617C67.6785 98.8785 69.1656 99.1867 69.9502 99.4264C70.0324 99.1953 69.4759 99.1095 70.0324 99.0324C70.8991 99.3492 71.9119 99.2721 72.3863 99.6574C72.2312 99.6574 71.8388 99.5033 71.6016 99.5033C72.7785 99.8972 64.9323 99.2723 66.5016 99.5805C66.1914 99.2637 73.4811 100.051 72.6964 99.8116C71.9939 99.4949 73.326 99.4948 72.6144 99.2636L71.7476 99.3407C70.8079 98.9469 70.4886 98.476 70.8809 98.3989C72.5231 98.8698 65.7078 98.7157 67.195 98.8698L66.6475 98.5532C67.2771 98.5532 68.9193 98.8699 69.4667 99.3407C69.5488 99.1096 70.3334 99.2637 71.036 99.3407L71.2732 99.4179C71.9757 99.4949 72.9154 99.8116 72.6052 99.3407C68.527 98.322 75.8988 97.6969 71.9757 96.5155C73.4628 97.4572 71.2732 96.9095 69.5488 96.4386C69.4667 96.1989 68.7642 95.7365 67.5143 95.2656C66.4195 95.0259 66.8117 95.2657 66.5745 95.3427C66.0271 95.026 64.9323 94.6406 65.1604 94.4009C64.2207 94.478 63.9013 93.776 62.8886 93.6134C61.9489 93.4593 62.8886 93.7673 62.2591 93.6903C60.9271 93.2194 59.1206 92.5945 58.0988 92.2006C57.7886 91.8068 56.6846 90.9423 57.7065 90.8652C59.668 91.5673 56.7667 91.2589 58.8013 91.8069C58.0988 90.9422 60.6808 92.2777 61.1552 91.9609C60.6078 91.49 59.2757 91.0963 58.1718 90.7881L58.3269 90.9422C57.305 90.7025 55.3435 90.1545 54.4037 89.4525C54.7139 89.3755 54.3216 89.0587 55.0333 89.2128L53.7012 88.7419C53.5461 88.7419 53.3089 88.742 53.7012 88.8961C52.9987 88.8191 52.4421 88.5023 51.9768 88.1941C51.9768 88.04 50.0974 87.6461 48.291 87.2522C46.4845 86.8584 44.7601 86.3876 44.9152 86.3876C43.9755 85.9937 43.8934 85.6001 42.8807 85.446C42.7986 85.523 45.1525 86.2335 47.2691 86.8585C49.4679 87.4834 51.5025 88.0314 50.8729 87.8003C50.4806 87.5606 47.7344 86.7814 44.9882 85.9938C42.242 85.2061 39.578 84.2645 39.3407 83.9563C38.6382 83.6395 37.7715 83.3312 37.8536 83.6395C36.7588 83.0145 38.401 83.4084 37.6164 82.8519C37.6164 82.8519 37.6164 83.006 37.3792 82.8519L36.6767 82.2269C34.7151 81.7561 32.2883 80.1123 30.2446 79.6414C30.8741 79.7185 31.6587 79.6415 32.9907 79.9583L33.1459 80.1893C33.3831 80.1893 34.3228 80.5832 34.4049 80.3435C33.3101 79.6415 32.3703 79.2477 31.1113 78.8539C30.9562 78.6998 30.719 78.5371 30.5639 78.383V78.4601C30.2537 78.1433 30.3267 78.1432 30.4818 78.1432H30.5639C30.3267 77.6724 29.2318 77.2015 27.9728 76.6536C27.3433 76.3368 26.6408 76.1057 26.0113 75.7889C25.3817 75.4722 24.8343 75.0869 24.3599 74.7702C23.7304 74.539 24.2778 74.8472 23.4931 74.539C22.6264 73.7514 21.8509 73.2034 21.1393 72.5013C20.7469 72.1846 20.4367 71.8764 20.0444 71.4826C19.6521 71.1658 19.2598 70.7806 18.8675 70.3868C18.0829 70.1556 18.0008 70.1556 18.4752 71.0117C18.0008 70.6179 17.6084 70.2241 17.1431 69.7532C18.0099 69.9844 17.4533 69.2823 16.988 68.6574C16.5136 68.0324 16.1213 67.3219 16.988 67.6386C16.7508 67.1678 16.0483 66.4659 15.2637 65.8324C15.0265 65.9094 14.7163 65.9863 13.9317 65.0446C13.0649 63.5549 13.2291 63.9488 12.5996 62.6903C12.5996 62.2964 12.992 62.6132 13.0741 62.4505C12.3716 61.6629 12.2073 61.1921 12.1343 60.8068C12.0522 60.336 12.0522 59.8651 11.5048 59.0775C11.1125 58.6066 10.8023 57.7419 10.4099 57.1169C10.0176 56.492 9.78047 55.9441 9.54325 55.9441C9.14182 54.2576 9.46111 54.1805 9.85342 54.1805Z" fill="#16B25E"/>
</svg>
