<svg width="45" height="43" viewBox="0 0 45 43" fill="none" xmlns="http://www.w3.org/2000/svg">
<path d="M10.5449 18.0581L10.6549 18.168C10.3249 17.778 9.88483 17.4479 9.43483 17.1179C10.9848 17.3379 12.5249 17.728 11.4749 19.878C12.4149 19.158 13.5749 19.658 13.3549 19.878C13.3549 20.208 13.3549 20.4881 13.4149 20.7581C13.3549 20.5881 13.3048 20.368 13.3048 20.208C13.3048 20.378 13.3649 20.5981 13.4149 20.7581C13.7449 22.4681 15.1848 23.4081 16.6748 24.2981C17.5048 24.7981 19.4948 26.3982 20.4348 26.8382C20.5448 26.8982 20.7148 26.9481 20.8248 27.0581C20.6048 26.9981 20.6048 26.998 20.3248 26.888C20.5448 27.498 20.7148 28.1079 20.9348 28.5979C20.7648 28.6579 20.6548 28.7681 20.3248 28.7681L20.6049 28.878C20.4349 29.378 20.8848 29.7579 20.9348 30.0979C21.0448 29.8779 21.2648 29.9881 21.4348 30.0381L21.2648 30.0979C21.8748 30.4879 22.3148 31.1981 22.8148 31.5381C22.8748 31.5981 22.9849 31.5381 23.0949 31.5381L23.4248 32.0882C23.5948 31.8082 23.9748 32.1981 23.9248 31.8081C23.9848 32.4181 24.4749 32.5281 24.5349 33.0781C25.6449 34.0681 26.7448 35.288 27.6248 36.7281L27.5148 36.7881C27.7948 37.2881 27.7948 38.118 28.4548 38.388C28.5648 39.048 28.9548 39.6581 28.6748 40.3181C29.0648 40.7081 29.0049 41.148 29.3349 41.648C29.0049 41.868 29.5048 42.3079 29.1148 42.3679C28.5048 42.5379 28.7849 42.1981 28.2849 42.3081L28.3449 42.198C26.8549 41.758 25.5248 41.0881 24.2548 40.3181C23.6448 39.4381 22.6548 38.9881 21.9348 38.2781C21.1648 37.4481 20.3848 36.508 19.8948 35.678C19.7848 35.458 19.4548 35.5681 19.2348 35.5681C18.6848 34.8481 17.7948 34.188 17.1948 33.418H17.2548C16.9248 33.028 16.3749 33.028 16.0349 32.648C16.0949 32.588 16.0349 32.538 16.0349 32.428C15.6449 32.708 14.5449 29.668 14.2149 29.718C14.2149 29.658 14.1549 29.6081 14.1549 29.5481C13.2749 28.9381 11.8349 28.7781 11.2249 28.0581C11.2249 27.7781 11.2249 27.448 11.2849 27.178C11.0049 27.178 11.2848 26.8981 11.1148 26.7881C10.0648 27.0681 10.1748 26.5681 10.6148 26.5681C10.3948 26.1781 10.0649 25.958 9.84486 25.628C9.78486 25.458 9.73482 25.298 9.67482 25.128C9.61482 24.958 9.45486 25.0181 9.28486 25.0681C9.11486 24.6781 9.00482 24.9581 8.67482 24.7381C8.34482 24.9081 8.39486 23.688 8.28486 23.638V23.698C7.95486 23.418 7.29485 23.5881 6.95485 23.3081C5.96485 22.5381 5.29486 21.3781 4.46486 20.5481C4.74486 20.3281 4.57486 20.7681 4.90486 20.4881C4.40486 19.9881 3.68484 19.7681 3.19484 19.2681C3.02484 19.2081 2.80484 19.2081 2.69484 19.2681C2.47484 19.1581 2.75485 19.0481 2.58485 18.9881L2.30482 19.158C2.36482 18.828 1.80482 19.0981 1.80482 18.8281C1.91482 18.7181 1.86482 18.6579 1.80482 18.6079C1.52482 18.8279 1.69487 18.3879 1.41487 18.6079C1.35487 18.5479 1.35482 18.5481 1.30482 18.4981C1.36482 18.3281 1.52485 17.1681 1.58485 17.0081H1.52485C1.46485 16.8981 1.63484 16.7281 1.69484 16.7281L1.58485 16.6179V16.678L1.47487 16.5681C1.41487 16.5681 1.30484 16.6281 1.19484 16.7381C1.25484 16.5681 1.25484 16.458 1.13484 16.458C1.46484 16.518 1.85482 16.5681 2.24482 16.5681C2.24482 16.3981 2.02486 16.3981 1.96486 16.2881C1.68486 16.2881 1.41484 16.2279 1.13484 16.1179C1.13484 16.0579 1.41484 15.8382 1.19484 15.8382C0.974836 15.9482 1.13487 15.7281 0.914868 15.7781C0.854868 15.9481 0.974853 15.9981 1.02485 16.0581C0.804853 16.2281 0.694851 15.998 0.584851 15.948C0.644851 15.838 0.414868 15.7779 0.414868 15.6179C0.194868 15.8379 0.194853 15.678 0.0248533 15.678C-0.0351467 15.618 0.0248509 15.5081 0.0848509 15.5081C0.304851 15.2881 0.414839 15.678 0.634839 15.398C0.464839 15.458 0.414868 15.2881 0.414868 15.2281C0.524868 15.1181 0.584839 15.1681 0.634839 15.0581C0.524839 14.9981 0.634856 14.7782 0.464856 14.8382C0.464856 14.8982 0.464853 14.898 0.524853 14.898C0.414853 14.788 0.0848533 16.118 0.0248533 15.948C0.194853 15.888 0.414856 14.7282 0.464856 14.8382C0.574856 14.8382 0.684873 14.6179 0.794873 14.6179L0.684826 14.8382C0.794826 14.8982 1.07483 14.7279 1.12483 14.6179C1.01483 14.5079 0.514841 15.7181 0.574841 15.4981H0.684826C0.744826 15.3881 0.684844 15.168 0.514844 15.218C0.624844 15.108 0.624829 14.998 0.624829 14.888H0.564831C0.564831 14.778 0.504817 14.7179 0.674817 14.6079C0.954817 14.9979 1.89487 13.3379 2.22487 13.6179C1.83487 13.6779 1.94482 13.8981 2.05482 14.0581C2.16482 13.9981 2.38482 13.9481 2.55482 13.9981C2.61482 14.1081 2.49484 14.108 2.44484 14.218C2.55484 14.218 2.66485 14.278 2.83485 14.158C2.72485 14.378 3.05482 14.1581 3.05482 14.3281C3.05482 14.4981 2.94484 14.3881 2.94484 14.4981C3.05484 14.6081 3.22485 14.7181 3.33485 14.8281C3.50485 14.7681 3.83482 14.658 3.99482 14.388C3.82482 14.218 3.66487 14.7181 3.60487 14.4981C3.99487 14.3281 3.54484 14.2781 3.82484 14.0581C4.04484 13.9981 4.10486 14.1181 4.15486 14.2281H4.09486C4.09486 14.3381 4.20482 14.5581 4.42482 14.5581C4.53482 14.4481 4.64485 14.3882 4.64485 14.3382L4.75483 14.448C4.75483 14.508 4.69485 14.5581 4.64485 14.5081C4.58485 14.6181 4.70483 14.6779 4.81483 14.6179C4.92483 14.5079 4.81483 15.6681 4.87483 15.5581C4.93483 15.6681 5.15486 15.4981 5.09486 15.7281C4.98486 15.8381 4.87482 14.5681 4.92482 14.7381C5.09482 14.6781 5.09482 16.1781 5.36482 16.0681C5.42482 16.1281 5.42482 16.2379 5.30482 16.3479C5.47482 16.4079 5.52484 16.128 5.69484 16.128L5.63484 16.188L5.85487 16.128C5.79487 16.458 6.24484 16.5179 6.13484 16.8479C6.24484 16.6779 6.41486 16.4581 6.46486 16.2381L6.40486 16.2981C6.40486 16.2381 6.40484 16.1281 6.51484 16.0181C6.68484 16.0781 6.73483 16.1879 6.68483 16.3479C6.74483 16.3479 6.79487 16.3479 6.85487 16.3479C6.85487 16.3479 6.79487 16.348 6.79487 16.408C6.90487 16.408 6.90486 16.3481 6.96486 16.2981C6.96486 16.2981 6.96486 16.2981 6.96486 16.2381C7.35486 16.0181 7.07486 16.8479 7.40486 16.8479C7.40486 16.9579 7.34486 16.9081 7.34486 17.0181C7.62486 17.0781 7.84482 17.1281 8.11482 17.2981C8.00482 17.4681 7.94487 17.5181 7.72487 17.5781L7.89485 17.688C8.17485 17.188 8.50485 17.628 8.77485 17.138C8.88485 17.078 8.99482 17.1981 8.99482 17.3081C8.88482 17.4181 8.71484 17.528 8.82484 17.638C9.10484 17.698 8.99484 17.698 9.26484 17.698C9.43484 17.588 9.43487 17.528 9.54487 17.418C9.54487 17.748 9.98486 17.3581 10.0949 17.5281C10.1549 17.6981 10.3149 17.9181 10.0949 18.0781C10.2049 18.3881 10.3749 18.2781 10.5449 18.0581Z" fill="#16B25E"/>
<path d="M26.0449 4.47219L26.1549 4.58205C25.8249 4.19205 25.3848 3.86201 24.9348 3.53201C26.4848 3.75201 28.0249 4.14202 26.9749 6.29202C27.9149 5.57202 29.0749 6.07202 28.8549 6.29202C28.8549 6.62202 28.8549 6.90214 28.9149 7.17214C28.8549 7.00214 28.8048 6.78209 28.8048 6.62209C28.8048 6.79209 28.8649 7.01214 28.9149 7.17214C29.2449 8.88214 30.6848 9.82218 32.1748 10.7122C33.0048 11.2122 34.9948 12.8122 35.9348 13.2522C36.0448 13.3122 36.2148 13.3622 36.3248 13.4722C36.1048 13.4122 36.1048 13.412 35.8248 13.302C36.0448 13.912 36.2148 14.522 36.4348 15.012C36.2648 15.072 36.1548 15.1822 35.8248 15.1822L36.1049 15.292C35.9349 15.792 36.3848 16.172 36.4348 16.512C36.5448 16.292 36.7648 16.4022 36.9348 16.4522L36.7648 16.512C37.3748 16.902 37.8148 17.6122 38.3148 17.9522C38.3748 18.0122 38.4849 17.9522 38.5949 17.9522L38.9248 18.5022C39.0948 18.2222 39.4748 18.6122 39.4248 18.2222C39.4848 18.8322 39.9749 18.9422 40.0349 19.4922C41.1449 20.4822 42.2448 21.7021 43.1248 23.1421L43.0148 23.2022C43.2948 23.7022 43.2948 24.532 43.9548 24.802C44.0648 25.462 44.4548 26.0722 44.1748 26.7322C44.5648 27.1222 44.5049 27.562 44.8349 28.062C44.5049 28.282 45.0048 28.722 44.6148 28.782C44.0048 28.952 44.2849 28.6122 43.7849 28.7222L43.8449 28.6121C42.3549 28.1721 41.0248 27.5022 39.7548 26.7322C39.1448 25.8522 38.1548 25.4022 37.4348 24.6922C36.6648 23.8622 35.8848 22.9221 35.3948 22.0921C35.2848 21.8721 34.9548 21.9822 34.7348 21.9822C34.1848 21.2622 33.2948 20.6021 32.6948 19.8321H32.7548C32.4248 19.4421 31.8749 19.442 31.5349 19.062C31.5949 19.002 31.5349 18.9521 31.5349 18.8421C31.1449 19.1221 30.0449 16.0821 29.7149 16.1321C29.7149 16.0721 29.6549 16.0222 29.6549 15.9622C28.7749 15.3522 27.3349 15.1922 26.7249 14.4722C26.7249 14.1922 26.7249 13.8621 26.7849 13.5921C26.5049 13.5921 26.7848 13.3122 26.6148 13.2022C25.5648 13.4822 25.6748 12.9822 26.1148 12.9822C25.8948 12.5922 25.5649 12.372 25.3449 12.042C25.2849 11.872 25.2348 11.712 25.1748 11.542C25.1148 11.372 24.9549 11.4322 24.7849 11.4822C24.6149 11.0922 24.5048 11.3721 24.1748 11.1521C23.8448 11.3221 23.8949 10.102 23.7849 10.052V10.1121C23.4549 9.83208 22.7948 10.0022 22.4548 9.72219C21.4648 8.95219 20.7949 7.79218 19.9649 6.96218C20.2449 6.74218 20.0749 7.18212 20.4049 6.90212C19.9049 6.40212 19.1848 6.18215 18.6948 5.68215C18.5248 5.62215 18.3048 5.62215 18.1948 5.68215C17.9748 5.57215 18.2549 5.46212 18.0849 5.40212L17.8048 5.57204C17.8648 5.24204 17.3048 5.51221 17.3048 5.24221C17.4148 5.13221 17.3648 5.072 17.3048 5.022C17.0248 5.242 17.1949 4.802 16.9149 5.022C16.8549 4.962 16.8548 4.96213 16.8048 4.91213C16.8648 4.74213 17.0249 3.58214 17.0849 3.42214H17.0249C16.9649 3.31214 17.1348 3.14211 17.1948 3.14211L17.0849 3.03201V3.09206L16.9749 2.9822C16.9149 2.9822 16.8048 3.04212 16.6948 3.15212C16.7548 2.98212 16.7548 2.87209 16.6348 2.87209C16.9648 2.93209 17.3548 2.9822 17.7448 2.9822C17.7448 2.8122 17.5249 2.81217 17.4649 2.70217C17.1849 2.70217 16.9148 2.64201 16.6348 2.53201C16.6348 2.47201 16.9148 2.25222 16.6948 2.25222C16.4748 2.36222 16.6349 2.14216 16.4149 2.19216C16.3549 2.36216 16.4749 2.41219 16.5249 2.47219C16.3049 2.64219 16.1949 2.41208 16.0849 2.36208C16.1449 2.25208 15.9149 2.19201 15.9149 2.03201C15.6949 2.25201 15.6949 2.09206 15.5249 2.09206C15.4649 2.03206 15.5249 1.92214 15.5849 1.92214C15.8049 1.70214 15.9148 2.09204 16.1348 1.81204C15.9648 1.87204 15.9149 1.70211 15.9149 1.64211C16.0249 1.53211 16.0848 1.58219 16.1348 1.47219C16.0248 1.41219 16.1349 1.19222 15.9649 1.25222C15.9649 1.31222 15.9649 1.31204 16.0249 1.31204C15.9149 1.20204 15.5849 2.53208 15.5249 2.36208C15.6949 2.30208 15.9149 1.14222 15.9649 1.25222C16.0749 1.25222 16.1849 1.03201 16.2949 1.03201L16.1848 1.25222C16.2948 1.31222 16.5748 1.14201 16.6248 1.03201C16.5148 0.922006 16.0148 2.13213 16.0748 1.91213H16.1848C16.2448 1.80213 16.1848 1.5821 16.0148 1.6321C16.1248 1.5221 16.1248 1.41203 16.1248 1.30203H16.0648C16.0648 1.19203 16.0048 1.132 16.1748 1.022C16.4548 1.412 17.3949 -0.247994 17.7249 0.032006C17.3349 0.092006 17.4448 0.312192 17.5548 0.472192C17.6648 0.412192 17.8848 0.362133 18.0548 0.412133C18.1148 0.522133 17.9948 0.522104 17.9448 0.632104C18.0548 0.632104 18.1649 0.692045 18.3349 0.572045C18.2249 0.792045 18.5548 0.572211 18.5548 0.742211C18.5548 0.912211 18.4448 0.802133 18.4448 0.912133C18.5548 1.02213 18.7249 1.13221 18.8349 1.24221C19.0049 1.18221 19.3348 1.07203 19.4948 0.802025C19.3248 0.632025 19.1649 1.13213 19.1049 0.912133C19.4949 0.742133 19.0448 0.692192 19.3248 0.472192C19.5448 0.412192 19.6049 0.532113 19.6549 0.642113H19.5949C19.5949 0.752113 19.7048 0.972192 19.9248 0.972192C20.0348 0.862191 20.1448 0.802221 20.1448 0.752221L20.2548 0.862084C20.2548 0.922084 20.1948 0.972143 20.1448 0.922143C20.0848 1.03214 20.2048 1.09201 20.3148 1.03201C20.4248 0.922006 20.3148 2.08219 20.3748 1.97219C20.4348 2.08219 20.6549 1.91211 20.5949 2.14211C20.4849 2.25211 20.3748 0.982123 20.4248 1.15212C20.5948 1.09212 20.5948 2.5922 20.8648 2.4822C20.9248 2.5422 20.9248 2.65199 20.8048 2.76199C20.9748 2.82199 21.0248 2.54202 21.1948 2.54202L21.1348 2.60207L21.3549 2.54202C21.2949 2.87202 21.7448 2.93199 21.6348 3.26199C21.7448 3.09199 21.9149 2.87212 21.9649 2.65212L21.9049 2.71218C21.9049 2.65218 21.9048 2.54215 22.0148 2.43215C22.1848 2.49215 22.2348 2.60199 22.1848 2.76199C22.2448 2.76199 22.2949 2.76199 22.3549 2.76199C22.3549 2.76199 22.2949 2.76205 22.2949 2.82205C22.4049 2.82205 22.4049 2.76218 22.4649 2.71218C22.4649 2.71218 22.4649 2.71212 22.4649 2.65212C22.8549 2.43212 22.5749 3.26199 22.9049 3.26199C22.9049 3.37199 22.8449 3.32215 22.8449 3.43215C23.1249 3.49215 23.3448 3.54218 23.6148 3.71218C23.5048 3.88218 23.4449 3.93221 23.2249 3.99221L23.3948 4.10207C23.6748 3.60207 24.0049 4.04203 24.2749 3.55203C24.3849 3.49203 24.4948 3.61219 24.4948 3.72219C24.3848 3.83219 24.2148 3.94203 24.3248 4.05203C24.6048 4.11203 24.4948 4.11208 24.7648 4.11208C24.9348 4.00208 24.9349 3.94205 25.0449 3.83205C25.0449 4.16206 25.4849 3.77216 25.5949 3.94216C25.6549 4.11216 25.8149 4.33221 25.5949 4.49221C25.7049 4.80221 25.8749 4.69219 26.0449 4.47219Z" fill="#16B25E"/>
</svg>
