<svg width="30" height="30" viewBox="0 0 30 30" fill="none" xmlns="http://www.w3.org/2000/svg">
<circle cx="15" cy="15.0015" r="15" fill="#F5F5F5" fill-opacity="0.7"/>
<path d="M11.5916 19.2445L11.5986 17.9425L15.9876 14.0085C16.3423 13.6958 16.5826 13.3971 16.7086 13.1125C16.8393 12.8278 16.9046 12.5431 16.9046 12.2585C16.9046 11.8991 16.8253 11.5771 16.6666 11.2925C16.5079 11.0031 16.2886 10.7745 16.0086 10.6065C15.7286 10.4385 15.4066 10.3545 15.0426 10.3545C14.6693 10.3545 14.3356 10.4431 14.0416 10.6205C13.7523 10.7931 13.5259 11.0241 13.3626 11.3135C13.1993 11.6028 13.1199 11.9155 13.1246 12.2515H11.6266C11.6266 11.5981 11.7736 11.0265 12.0676 10.5365C12.3663 10.0418 12.7746 9.6568 13.2926 9.38146C13.8106 9.10146 14.4033 8.96146 15.0706 8.96146C15.7053 8.96146 16.2746 9.10613 16.7786 9.39546C17.2826 9.68013 17.6793 10.0721 17.9686 10.5715C18.2626 11.0708 18.4096 11.6401 18.4096 12.2795C18.4096 12.7415 18.3489 13.1335 18.2276 13.4555C18.1063 13.7775 17.9243 14.0761 17.6816 14.3515C17.4389 14.6268 17.1356 14.9255 16.7716 15.2475L13.3836 18.2715L13.2226 17.8515H18.4096V19.2445H11.5916Z" fill="black"/>
</svg>
