<svg width="30" height="30" viewBox="0 0 30 30" fill="none" xmlns="http://www.w3.org/2000/svg">
<circle cx="15" cy="15.001" r="15" fill="#FEFEFE"/>
<path d="M11.5916 19.244L11.5986 17.942L15.9876 14.008C16.3423 13.6953 16.5826 13.3966 16.7086 13.112C16.8393 12.8273 16.9046 12.5426 16.9046 12.258C16.9046 11.8986 16.8253 11.5766 16.6666 11.292C16.5079 11.0026 16.2886 10.774 16.0086 10.606C15.7286 10.438 15.4066 10.354 15.0426 10.354C14.6693 10.354 14.3356 10.4426 14.0416 10.62C13.7523 10.7926 13.5259 11.0236 13.3626 11.313C13.1993 11.6023 13.1199 11.915 13.1246 12.251H11.6266C11.6266 11.5976 11.7736 11.026 12.0676 10.536C12.3663 10.0413 12.7746 9.65631 13.2926 9.38098C13.8106 9.10098 14.4033 8.96098 15.0706 8.96098C15.7053 8.96098 16.2746 9.10564 16.7786 9.39498C17.2826 9.67964 17.6793 10.0716 17.9686 10.571C18.2626 11.0703 18.4096 11.6396 18.4096 12.279C18.4096 12.741 18.3489 13.133 18.2276 13.455C18.1063 13.777 17.9243 14.0756 17.6816 14.351C17.4389 14.6263 17.1356 14.925 16.7716 15.247L13.3836 18.271L13.2226 17.851H18.4096V19.244H11.5916Z" fill="black"/>
</svg>
