<svg width="213" height="26" viewBox="0 0 213 26" fill="none" xmlns="http://www.w3.org/2000/svg">
<path d="M124.956 18.0587C125.721 17.3909 126.438 16.5766 127.041 15.5794C127.194 15.3507 127.323 15.058 127.468 14.7926L127.911 13.9511C128.08 13.64 128.241 13.3197 128.442 13.0727C128.635 12.7983 128.829 12.5239 129.054 12.3134C129.915 11.3895 130.93 10.8863 131.944 10.7125C132.959 10.5386 133.981 10.6758 134.963 11.0143C135.945 11.3528 136.895 11.8926 137.789 12.597L138.449 13.1643L139.093 13.8047C139.472 14.2072 139.85 14.5823 140.236 14.9482C141.774 16.4028 143.416 17.4549 145.115 18.4978C145.759 18.9003 146.427 19.3395 147.088 19.7969C147.418 20.0256 147.748 20.2726 148.078 20.5196C148.376 20.7209 148.682 20.9313 148.988 21.1326C150.211 21.8827 151.515 22.2944 152.828 22.3859C155.476 22.5597 158.125 21.5076 160.371 20.0347L160.315 19.7603L159.824 20.108C158.004 20.9039 156.523 21.2514 155.034 21.4161C155.122 21.3978 155.211 21.3704 155.291 21.3521C155.138 21.3796 154.993 21.3978 154.84 21.4253C153.842 21.5351 152.828 21.5351 151.685 21.3521L151.29 21.3063C151.153 21.288 151.024 21.2423 150.896 21.2057C150.638 21.1234 150.364 21.0868 150.107 20.977L149.559 20.7118L149.285 20.5837L149.02 20.4098C148.665 20.1628 148.335 19.9799 147.901 19.6505C147.08 19.0467 146.25 18.4979 145.437 17.9672C143.803 16.906 142.265 15.918 140.864 14.6464C140.51 14.3353 140.164 13.9967 139.818 13.6582L139.295 13.1277L138.683 12.5238C137.862 11.7737 136.992 11.1973 136.106 10.7673C134.351 9.90735 132.451 9.71532 130.696 10.5204C129.61 11.0144 128.619 11.975 127.911 13.2466C127.75 13.5577 127.589 13.8687 127.428 14.1798L127.041 14.9482C126.921 15.2227 126.752 15.4148 126.615 15.6618C126.462 15.8905 126.325 16.1467 126.156 16.3296L125.657 16.9425C125.488 17.1438 125.302 17.2902 125.117 17.4823L124.844 17.7476C124.747 17.8299 124.65 17.8941 124.554 17.9672C124.353 18.1136 124.159 18.26 123.958 18.3972C123.137 18.8821 122.251 17.4366 121.301 17.6196C121.567 17.5739 121.873 17.5281 122.195 17.4823C122.509 17.3909 122.847 17.3176 123.177 17.2079C123.499 17.0615 123.837 18.7723 124.135 18.5984C124.433 18.4155 124.715 18.2508 124.956 18.0587ZM147.144 16.9425C146.017 16.2198 144.93 15.5977 143.908 14.9116C142.885 14.2254 141.911 13.4753 140.921 12.4599C141.839 13.3473 142.789 14.0791 143.819 14.7835C144.85 15.4879 145.985 16.1649 147.144 16.9425ZM103.678 7.97709C102.173 7.49222 100.587 5.3057 98.9768 5.18677C98.5742 5.15017 98.1717 5.15023 97.7611 5.13194L96.5052 5.20508C96.0866 5.25997 95.676 5.34229 95.2654 5.41548C94.8548 5.51611 94.4523 5.64419 94.0417 5.75397C90.8214 6.82434 87.9876 8.97426 85.4677 10.8222C84.4533 11.5816 83.0042 12.78 81.4263 13.9967C81.0318 14.2986 80.6293 14.6097 80.2187 14.9024C79.8081 15.2043 79.4056 15.4971 79.003 15.7533C78.1899 16.2747 77.3607 16.723 76.5637 17.0798C73.3756 18.5527 70.7752 18.3789 71.8379 19.1108C72.5222 18.8912 73.585 18.6808 74.8892 18.2508C76.1934 17.8208 77.7552 17.1713 79.3814 16.1192C81.0157 15.0489 82.7788 13.6583 84.6063 12.2311C86.4257 10.804 88.3338 9.34936 90.2659 8.2058C92.19 7.0348 94.1786 6.27547 96.0222 6.01931C97.8819 5.7723 99.4759 7.83068 100.756 8.05024C102.036 8.27895 102.986 8.52601 103.509 8.56261C104.033 8.60835 104.137 8.43451 103.678 7.97709ZM97.1412 8.96508C96.6179 9.01083 96.0866 9.15728 95.5472 9.27621C95.0078 9.45918 94.4523 9.61462 93.8887 9.87077C92.7616 10.3465 91.6024 10.9778 90.427 11.7646C88.0681 13.3198 85.6448 15.3874 83.1008 17.3726C82.3279 17.9398 81.5712 18.5709 80.7259 19.2296C79.8564 19.8975 78.8823 20.5196 77.723 20.9953C76.2819 21.6174 75.0985 21.9651 73.9633 22.1755C72.8282 22.3859 71.7574 22.4591 70.5015 22.3036C71.1214 22.4683 71.7413 22.5872 72.3612 22.6512C70.1956 22.5689 68.4325 24.0143 66.6935 23.0537C65.8241 22.5689 64.9707 21.9102 64.1334 20.977C63.2962 20.0347 62.4831 18.7906 61.7988 17.1622C61.7746 17.1896 61.6297 17.0066 61.4606 16.6773C61.372 16.5126 61.2755 16.3205 61.1788 16.1009C61.1144 15.9728 61.0501 15.8539 61.0018 15.7075C60.8649 15.3599 60.6958 15.0672 60.5509 14.7378C60.3738 14.4542 60.2208 14.1523 60.0437 13.8961C59.6895 13.3655 59.303 12.9081 58.8764 12.5422C58.0471 11.7737 57.065 11.3711 56.1713 11.2339C53.9011 10.7856 51.3409 11.3437 49.3766 12.2585C48.8694 12.4323 47.9194 13.1094 46.9453 13.6857C45.7457 14.3078 44.5461 15.0305 43.3627 15.8081C43.4271 15.799 43.4754 15.7899 43.5237 15.7899C44.4898 15.177 45.4801 14.5914 46.4622 14.0242C47.9275 13.1734 49.5376 12.414 51.1397 11.92C52.7418 11.426 54.3277 11.2431 55.6883 11.4261C57.395 11.6822 58.8602 12.4873 59.9068 13.9511C60.0437 14.134 60.1725 14.317 60.2933 14.5274L60.4784 14.8293L60.6475 15.1678C60.7039 15.2775 60.7602 15.3873 60.8166 15.5063L60.9695 15.8722L61.1467 16.2747L61.4123 16.9151C62.1288 18.6168 63.0788 20.0896 64.1093 21.2332C65.1559 22.3585 66.2749 23.1818 67.4101 23.7124C68.5452 24.2613 69.6723 22.7061 70.7914 22.8159C73.0214 23.0354 75.1709 22.5963 77.2238 21.7729C78.1014 21.407 78.9628 20.9404 79.8081 20.3915C80.6615 19.8426 81.4424 19.2206 82.2153 18.6351C84.5258 16.8054 86.9652 14.6921 89.2274 13.0087C90.3626 12.1762 91.4494 11.4535 92.4396 10.8589C92.9388 10.6027 93.4138 10.3007 93.8566 10.0995C94.082 9.9897 94.2913 9.87993 94.5006 9.77015C94.7099 9.68782 94.9031 9.59641 95.0963 9.50492C95.2251 9.45003 95.3862 9.38594 95.5633 9.33105C95.7404 9.29445 95.9336 9.2487 96.1268 9.20295C96.5133 9.09317 96.8997 9.0474 97.1573 8.94677H97.1412V8.96508ZM35.1671 19.9799C35.1349 19.9799 35.1027 19.9799 35.0625 19.9799C35.0625 19.9982 35.0786 20.0073 35.0786 20.0165C35.1027 20.0073 35.1349 19.9982 35.1671 19.9799ZM19.3878 12.9264C18.7599 11.1059 18.5505 10.1727 17.9628 9.05655C17.4073 7.98618 16.6505 7.08053 15.773 6.36695C14.018 4.94894 11.7799 4.40916 9.67871 4.85744C9.65456 4.88488 9.64647 4.9124 9.64647 4.9307C10.524 4.78432 11.4659 4.83918 12.424 5.013C12.6574 5.07704 12.907 5.09529 13.1405 5.19593C13.374 5.27826 13.6155 5.36062 13.857 5.44295C14.0905 5.55273 14.3239 5.67166 14.5574 5.78144C14.7909 5.90037 15.0082 6.06501 15.2417 6.20223C16.1353 6.81518 16.9646 7.66599 17.6328 8.72722C17.7938 9.00167 17.9789 9.24871 18.0997 9.55976L18.309 9.99886L18.4217 10.2184L18.5103 10.4654L18.6874 10.9503L18.776 11.1882L18.8243 11.3071L18.8887 11.4901C19.0497 11.9749 19.1866 12.4782 19.3878 12.9264ZM10.2745 4.48232C10.7816 4.42743 11.3049 4.36342 11.8282 4.40001C11.7477 4.36342 11.6753 4.336 11.5948 4.30855C11.474 4.2994 11.3533 4.29023 11.2405 4.28108C11.1198 4.29023 11.007 4.30857 10.8943 4.32687C10.6689 4.37261 10.4596 4.40913 10.2745 4.48232ZM182.631 14.2346C181.15 13.7314 179.636 13.6674 178.155 13.8961C176.674 14.1248 175.225 14.6463 173.816 15.305C170.998 16.6315 168.325 18.4795 165.669 20.2452C162.939 21.8828 160.194 23.5112 157.328 24.4443C155.895 24.9109 154.438 25.1945 152.973 25.1579C151.507 25.1305 150.034 24.7737 148.649 24.0052C147.965 23.6118 147.273 23.1361 146.677 22.7061C146.057 22.2761 145.437 21.8644 144.809 21.4527C143.561 20.6477 142.281 19.8701 141.042 18.9278C140.422 18.452 139.81 17.9397 139.222 17.3999C138.642 16.8693 138.023 16.2016 137.556 15.7808C136.533 14.8568 135.414 14.2529 134.311 13.9419C133.337 13.6949 132.274 13.6948 131.292 14.1065C130.809 14.3444 130.358 14.6829 129.964 15.1311C129.787 15.3964 129.585 15.616 129.432 15.9362C129.199 16.357 128.966 16.787 128.732 17.2079C127.605 19.2022 126.059 20.7575 124.409 21.5808C122.758 22.4408 121.028 20.8947 119.353 20.8398C117.67 20.7757 116.02 20.3641 114.442 19.7237C114.048 19.5499 113.661 19.3852 113.275 19.2023C112.896 19.001 112.518 18.7997 112.14 18.6076C111.447 18.2234 110.763 17.8483 110.087 17.4732C107.406 16.0094 104.95 14.9116 102.889 14.4908C103.743 14.8842 104.564 15.2775 105.361 15.6983C104.161 15.2135 103.034 14.875 101.988 14.6737C101.167 14.4176 100.361 12.3684 99.5484 12.2403C99.1459 12.1763 98.7433 12.1305 98.3408 12.0939C97.9382 12.0756 97.5276 12.039 97.1734 12.0756C95.7082 12.1396 94.2027 12.597 92.6731 13.4295C89.5977 15.058 86.5063 17.8665 83.0123 20.419C82.5775 20.7392 82.1267 21.0502 81.6759 21.3521C81.2411 21.654 80.7259 21.9834 80.2428 22.2578C79.2526 22.8159 78.2463 23.2916 77.2238 23.6484C75.1709 24.3528 73.0375 24.7004 70.8155 24.426C69.7045 24.2888 68.5774 25.8166 67.4423 25.286C66.3071 24.7463 65.172 23.9685 64.1012 22.889C63.0386 21.8003 62.0483 20.4007 61.2513 18.754C61.0581 18.3332 60.8568 17.9306 60.6958 17.4915L60.4382 16.8419L60.3094 16.5217C60.2289 16.3205 60.1483 16.11 60.0598 15.9362C59.9712 15.7441 59.8827 15.5612 59.7861 15.4056C59.3272 14.6006 58.8281 14.1066 58.2645 13.7223C57.6929 13.3473 57.065 13.0819 56.2599 12.8532C54.6256 12.3958 52.7176 12.5971 50.8096 13.1551C50.8096 13.1734 50.8338 13.1917 50.8901 13.2008C48.9096 13.7863 46.8969 14.7561 44.9245 15.9545C43.9182 16.5583 43.0407 17.2078 41.8089 17.9946C40.6496 18.7265 39.4742 19.3944 38.2666 19.9707C35.8514 21.1143 33.3316 21.9743 30.6024 22.1938C29.2338 22.3036 27.8169 24.0693 26.3275 23.685C25.5868 23.5112 24.8301 23.2001 24.0653 22.8342C23.3004 22.4225 22.5356 21.956 21.7788 21.279C20.3619 20.0714 19.0497 18.2691 18.0756 16.1558C17.5764 15.1037 17.1739 13.9784 16.8277 12.844L16.715 12.5238C16.6828 12.4232 16.6506 12.3226 16.6184 12.222C16.5942 12.1122 16.554 12.0298 16.5057 11.9383C16.4654 11.8468 16.4171 11.7554 16.3768 11.6639C16.0387 10.9412 15.5799 10.2825 15.0163 9.71532C14.4447 9.15726 13.7523 8.74558 13.0116 8.45283C12.8748 8.40709 12.746 8.35216 12.6413 8.29727C12.5286 8.26067 12.432 8.22408 12.3435 8.18749C12.1664 8.1143 12.0375 8.0228 11.9248 7.94046C11.6833 7.82153 11.482 7.64771 11.0715 7.59282C10.2503 7.42814 9.46132 7.49222 8.70456 7.62945C8.51939 7.67519 8.32617 7.7118 8.141 7.75754L7.60162 7.95878C7.42451 8.00452 7.23128 8.12348 7.03806 8.22412C6.84485 8.3339 6.6436 8.41621 6.45844 8.54429C4.91271 9.48658 3.3428 10.9321 1.5958 13.2649C1.5958 13.2649 1.51532 13.1277 1.47507 13.0454C0.951776 13.823 0.492878 14.5091 0.106445 15.0763C0.388219 14.2621 0.855132 13.2466 1.33817 12.3226C1.57969 11.856 1.82122 11.4077 2.04664 11.0143C2.27205 10.6118 2.47336 10.255 2.63437 9.98055C2.94834 9.4042 3.06911 9.08403 2.78733 9.21211C2.50556 9.35849 1.80514 9.90741 0.56534 11.3986C0.81491 11.0235 1.03225 10.6667 1.24157 10.3465C1.26572 10.3099 1.29795 10.2733 1.3221 10.2459H1.31405C2.37674 8.6815 3.02078 7.73012 3.67289 6.76039C2.87587 7.51971 2.11106 8.3979 1.36235 9.33105C1.45091 9.04744 1.49116 8.82794 1.36235 8.81879C1.4187 8.71816 1.46702 8.6266 1.53143 8.51682C1.86956 8.11429 2.1513 7.77585 2.1513 7.77585C2.23986 7.58373 2.29624 7.43736 2.32844 7.31843C3.27842 6.00105 4.65508 4.59215 5.74998 3.7322C6.83682 2.8448 7.63384 2.42398 7.2152 2.37824C6.5953 2.45143 4.79194 3.55841 3.02884 5.48874C2.90808 5.56193 2.77122 5.66249 2.62631 5.76312C3.21401 5.15933 3.49577 4.82086 3.62459 4.64704C3.74535 4.47322 3.68897 4.41831 3.60041 4.40001C3.4233 4.36342 3.11738 4.43664 3.8661 3.74135C4.88853 2.89055 5.94317 2.1404 7.08637 1.59149C8.22151 1.07003 9.38886 0.795532 10.5643 0.74979C11.7638 0.694899 12.9392 0.905318 14.0743 1.32615C15.2014 1.75612 16.2963 2.37826 17.2946 3.3114C18.2929 4.2354 19.1865 5.40635 19.9272 6.80606L20.4344 7.91299C20.6115 8.27893 20.7242 8.69979 20.8691 9.09318L21.0704 9.68785L21.2314 10.1819C21.3361 10.5204 21.4649 10.8314 21.5856 11.1424C22.592 13.6491 24.2504 15.2592 26.1262 16.0277C28.0101 16.7778 30.0871 14.9391 32.1964 14.4816C32.5748 14.3993 32.9371 14.3078 33.3074 14.198C35.3523 13.6125 37.3167 12.7068 39.2166 11.6182C40.1747 11.0693 41.0763 10.4563 42.0827 9.81594C43.0729 9.19384 44.0792 8.6175 45.1177 8.10518C44.8682 8.2973 44.6106 8.50764 44.3449 8.71806C45.9872 7.84896 47.6698 7.10794 49.3846 6.55904C51.0994 6.01013 52.8625 5.64419 54.6659 5.64419C55.7688 5.64419 56.8959 5.7997 58.0149 6.20223C59.134 6.60476 60.245 7.29094 61.2513 8.30642C62.2657 9.3219 63.1674 10.6668 63.8678 12.222L64.3508 13.3655C64.4716 13.6583 64.5923 13.951 64.7372 14.2254C64.866 14.509 65.0271 14.7561 65.172 15.0214C65.333 15.2592 65.486 15.5154 65.655 15.735C66.9995 17.5647 68.8189 16.723 70.7511 17.0158C72.6913 17.3085 74.7362 16.9792 76.7408 16.1924C77.7954 15.7716 78.8018 15.2409 79.8081 14.5456C80.8306 13.8686 81.853 13.0819 82.8674 12.3043C84.9122 10.7125 86.9732 9.01089 89.1952 7.54714C90.3062 6.82441 91.4574 6.1748 92.657 5.64419C93.8646 5.14103 95.1205 4.77509 96.4086 4.61957C97.7289 4.50979 98.9606 6.41272 100.217 6.62314C101.464 6.8244 102.704 7.17201 103.92 7.62029C102.922 7.27265 101.899 7.00733 100.877 6.80606C99.8462 6.61395 98.8077 4.68366 97.7611 4.67451C95.5794 4.67451 93.4379 5.35148 91.4333 6.37611C89.6219 7.27266 87.9232 8.4436 86.3372 9.6329C87.9956 8.4436 89.6702 7.29096 91.4333 6.37611C93.1722 5.51616 95.048 4.94896 96.9399 4.89407L97.6484 4.88491C97.8819 4.89406 98.1073 4.92155 98.3327 4.9307C98.7836 4.94899 99.2344 5.03126 99.6852 5.08615C100.571 5.23252 101.448 7.25436 102.302 7.51967C105.715 8.526 108.726 10.191 111.31 11.298C111.826 11.7005 111.81 11.792 112.325 12.1214C112.776 12.405 113.226 12.6885 113.677 12.9721C114.096 13.21 114.498 13.4844 114.925 13.6766C115.754 14.1248 116.608 14.4267 117.437 14.6646C119.103 15.0854 120.73 15.1128 122.066 14.5456C122.066 14.4999 122.396 14.3719 122.662 14.2621C122.919 14.1066 123.121 13.9693 122.895 13.9693C123.048 13.8961 123.209 13.8229 123.37 13.7497C123.515 13.6491 123.668 15.3873 123.821 15.2775L124.047 15.1403L124.256 14.9574C124.393 14.8384 124.538 14.7195 124.683 14.6006C124.811 14.4542 124.94 14.317 125.069 14.1706C125.133 14.0974 125.206 14.0334 125.262 13.9511L125.439 13.6949C125.552 13.5211 125.681 13.3746 125.794 13.1917C125.898 12.9995 125.995 12.8074 126.108 12.6245L126.655 11.6548C126.872 11.2523 127.13 10.9046 127.396 10.5661C127.532 10.4014 127.653 10.2185 127.798 10.0721L128.217 9.65122C128.362 9.51399 128.499 9.36767 128.643 9.24874L129.086 8.92857C130.27 8.09606 131.477 7.78496 132.572 7.73007C134.48 7.67517 136.235 8.22404 137.934 9.17548C138.361 9.47738 138.779 9.77933 139.19 10.1453C139.399 10.3099 139.6 10.502 139.802 10.7033L140.365 11.2705C140.913 11.8469 141.476 12.3683 142.056 12.8532C143.199 13.8229 144.447 14.6188 145.848 15.4971C146.548 15.9362 147.265 16.4028 147.997 16.906L149.076 17.6561C149.342 17.8116 149.599 17.9763 149.857 18.141C150.912 18.6991 152.031 18.9461 153.222 18.9186C155.605 18.8637 158.246 17.6561 160.991 16.046C163.752 14.4267 166.627 12.3774 169.847 10.5477C171.449 9.6512 173.268 8.78216 175.233 8.21496C177.189 7.63861 179.322 7.40076 181.375 7.7667C180.619 7.64776 179.878 7.68429 179.129 7.69344C178.405 7.77577 177.664 7.84896 176.964 8.03192C175.547 8.35212 174.194 8.85535 172.906 9.46829C171.61 10.0721 170.362 10.7582 169.154 11.4992C167.939 12.2311 166.763 12.9904 165.604 13.7497C163.326 15.0854 161.192 16.3479 159.212 17.3359C157.248 18.2965 155.46 19.0101 153.915 19.312C153.552 19.3669 153.19 19.4401 152.844 19.431C152.667 19.431 152.49 19.4493 152.312 19.4493L151.789 19.3943C153.874 19.7969 156.169 19.129 158.487 18.0221C160.814 16.906 163.173 15.3324 165.604 13.7497C168.293 12.1853 171.175 10.5203 174.307 9.44082C174.243 9.46827 174.186 9.49568 174.122 9.52313C171.698 10.5112 169.46 11.8743 167.295 13.2466C165.298 14.4176 163.342 15.5611 161.474 16.6498C159.663 17.6836 157.98 18.5435 156.459 19.1656C156.08 19.3395 155.71 19.4401 155.348 19.5956C154.969 19.7237 154.599 19.7969 154.22 19.8976C153.85 19.9433 153.48 20.0256 153.109 20.0438C154.486 20.0438 155.911 19.678 157.352 19.0833C158.793 18.4978 160.258 17.7019 161.724 16.8145C163.543 15.7076 165.395 14.4633 167.295 13.2375C168.51 12.5513 169.758 11.856 171.062 11.2339C170.934 11.3254 170.797 11.426 170.676 11.5084C169.541 12.1579 166.804 14.9482 168.47 14.2895C170.515 13.1094 172.85 11.8469 175.313 11.0418C176.553 10.6667 177.817 10.4014 179.089 10.3374C179.403 10.3282 179.725 10.3465 180.039 10.3465C180.192 10.3465 180.353 10.3465 180.506 10.3648C180.659 10.3831 180.82 10.4105 180.973 10.4288C181.287 10.4746 181.585 10.502 181.883 10.5752C182.18 10.6576 182.478 10.7399 182.768 10.8222C183.058 10.8954 183.348 11.0235 183.622 11.1333C183.895 11.2522 184.177 11.362 184.435 11.4901C184.95 11.8011 185.457 12.0664 185.916 12.3866C186.834 13.0361 187.534 13.6766 188.098 14.1798C188.629 14.6555 189.056 15.0397 189.354 15.2959C189.49 15.4148 189.595 15.5062 189.668 15.5702C189.74 15.6343 189.772 15.6618 189.772 15.671C189.845 15.8448 189.209 15.4239 188.049 14.4633C187.462 13.9876 186.753 13.3655 185.876 12.78C185.441 12.4781 184.966 12.2494 184.499 11.975C184.024 11.728 183.525 11.5632 183.042 11.362C181.053 10.7033 179.065 10.8131 177.672 11.0693C177.326 11.1425 177.012 11.2156 176.738 11.2705C176.464 11.3346 176.239 11.426 176.054 11.4718C175.692 11.5907 175.514 11.6548 175.587 11.6456C176.456 11.4444 177.334 11.2979 178.228 11.243C177.382 11.3986 176.577 11.6456 175.853 11.9383C174.122 12.4781 171.884 13.4204 170.845 14.1798C169.01 15.4331 167.077 16.7138 165.081 17.9854C163.084 19.2571 161.031 20.4922 158.962 21.5717C157.674 22.267 156.233 22.9165 154.687 23.2824C153.15 23.6484 151.491 23.7125 149.865 23.2093C149.833 23.4014 148.271 22.4774 148.754 22.9348C148.392 22.6878 148.021 22.4408 147.651 22.1847C147.289 21.9102 146.919 21.6357 146.556 21.3704C145.824 20.849 145.091 20.3732 144.415 19.9341C143.046 19.0833 141.879 18.3788 141.195 18.1135C141.122 18.0586 141.058 18.0038 140.985 17.9489C140.784 17.7843 140.494 17.5647 140.188 17.3359C139.617 16.787 139.077 16.2473 138.57 15.6801C138.304 15.3965 138.079 15.1677 137.837 14.9207C137.596 14.7012 137.346 14.4908 137.105 14.2895C136.106 13.5302 135.092 13.0544 134.086 12.8532C133.087 12.6611 132.081 12.7251 131.163 13.1734C130.254 13.6399 129.465 14.4816 128.901 15.7075C127.79 17.9763 126.164 19.7328 124.385 20.6294C124.675 20.4738 124.997 20.2726 125.335 20.0713C125.673 19.8518 126.019 19.5499 126.365 19.2846C126.703 18.9735 127.025 18.6168 127.331 18.2874C127.621 17.9032 127.879 17.528 128.104 17.1804C128.386 16.6955 128.643 16.1741 128.893 15.7075C129.416 14.6371 130.141 13.8778 130.978 13.4478C131.815 13.0179 132.749 12.9172 133.675 13.0544C134.601 13.2008 135.527 13.5759 136.404 14.134L137.056 14.5914L137.684 15.1128L138.288 15.6983L138.94 16.3571C139.238 16.6041 139.729 16.9883 140.18 17.3268C140.438 17.5646 140.687 17.8025 140.953 18.0312C141.025 18.0495 141.106 18.0769 141.195 18.1044C142.966 19.4218 144.898 20.4739 146.709 21.7181C147.16 22.02 147.595 22.3493 148.062 22.6238C148.287 22.761 148.513 22.9073 148.738 23.0354C148.971 23.136 149.197 23.2366 149.422 23.3464C149.865 23.5751 150.324 23.6576 150.759 23.7948C151.193 23.9137 151.628 23.932 152.031 23.996C155.122 24.3071 158.262 23.0994 161.289 21.5442C164.332 19.9798 167.311 18.0495 170.298 16.4486C167.367 18.2142 164.566 20.2727 161.708 21.9651C165.29 19.8976 168.535 17.4824 171.827 15.6618C172.343 15.4057 172.85 15.1769 173.365 14.9482C174.444 14.4999 175.531 14.0974 176.642 13.8413C176.126 13.9511 175.611 14.0608 175.104 14.2346C174.597 14.3718 174.09 14.5732 173.59 14.7561C175.587 13.8138 177.632 13.1093 179.701 13.0727C181.126 13.0636 182.575 13.3747 183.96 14.07C185.36 14.747 186.641 15.9271 187.856 17.0066C189.08 18.0953 190.296 19.1107 191.584 19.4767C191.906 19.6047 192.236 19.623 192.558 19.687C192.888 19.6962 193.218 19.7328 193.548 19.687C194.216 19.6505 194.876 19.4858 195.545 19.2479C198.209 18.2874 200.729 16.2107 203.378 14.4725C204.706 13.5942 206.075 12.7708 207.524 12.2585C208.257 12.0115 209.005 11.8652 209.77 11.8377C210.535 11.8286 211.316 12.0024 212.057 12.3318C211.807 12.3135 211.517 12.3683 211.211 12.3774C210.495 12.2036 209.77 12.1762 209.062 12.2768C208.353 12.3958 207.661 12.5879 207.001 12.8898C205.664 13.457 204.416 14.2713 203.217 15.1038C200.834 16.7871 198.652 18.5801 196.559 19.742C198.064 19.0833 199.28 18.2325 200.48 17.3817C201.679 16.5309 202.847 15.616 204.255 14.7195C204.263 14.7744 204.312 14.8292 204.086 15.003C204.972 14.3718 205.954 13.7315 207.009 13.2558C208.063 12.7709 209.207 12.4507 210.342 12.533C209.601 12.7068 208.828 13.0636 208.088 13.5302C207.025 14.015 205.471 14.8201 203.958 15.927C202.315 17.0523 200.705 18.2783 199.047 19.3212C197.388 20.355 195.657 21.2149 193.83 21.4161C192.92 21.5168 191.994 21.4161 191.093 21.0776C190.183 20.7574 189.338 20.172 188.541 19.5224C186.938 18.2234 185.505 16.6223 183.895 15.799C182.486 14.9481 180.973 14.5457 179.451 14.5274C177.93 14.5 176.392 14.8384 174.887 15.369C171.868 16.4485 168.961 18.2508 166.055 19.989C168.913 18.141 171.626 16.3204 174.379 15.122C177.117 13.9235 179.934 13.3472 182.655 14.198L182.631 14.2346Z" fill="#E16389"/>
</svg>
