<svg width="354" height="1336" viewBox="0 0 354 1336" fill="none" xmlns="http://www.w3.org/2000/svg">
<path d="M148.262 1302.1V1273.55H94.8421V1245.41L128.921 1121.78H185.002V1243.46H194.622V1273.55H185.002V1302.1H148.262ZM126.976 1243.46H148.262V1152.69L126.976 1243.46Z" fill="#16B25E"/>
<path d="M205.646 1291.29L209.63 1250.04H223.622L227.536 1291.29H219.731L219.146 1284.63H214.177L213.661 1291.29H205.646ZM214.763 1278.05H218.513L216.708 1257.07H216.333L214.763 1278.05ZM230.067 1291.29V1250.04H238.552L242.349 1269.8V1250.04H250.317V1291.29H242.255L238.13 1270.66V1291.29H230.067ZM252.849 1291.29L256.833 1250.04H270.825L274.739 1291.29H266.935L266.349 1284.63H261.38L260.864 1291.29H252.849ZM261.966 1278.05H265.716L263.911 1257.07H263.536L261.966 1278.05ZM277.271 1291.29V1250.04H285.521V1284.26H294.005V1291.29H277.271ZM299.841 1291.29V1277.72L293.255 1250.04H301.435L303.731 1264.01L306.028 1250.04H314.185L307.622 1277.72V1291.29H299.841ZM315.192 1291.29V1283.79L324.638 1257.63H316.106V1250.04H333.333V1257.26L323.724 1283.69H332.935V1291.29H315.192ZM335.958 1291.29V1250.04H352.458V1258.01H344.349V1266.05H352.13V1273.8H344.349V1283.25H352.997V1291.29H335.958Z" fill="#F5F5F5"/>
<path d="M97.4305 1328.86C96.9023 1328.9 96.4082 1328.95 96.4082 1328.95C96.4082 1329 96.4167 1329.06 96.4252 1329.1C96.8001 1329.01 97.1238 1328.93 97.4305 1328.86Z" fill="#D7F9F1"/>
<path d="M98.3928 1326.99C98.2818 1327 98.1794 1327.01 98.0684 1327.02C98.1025 1327.05 98.1111 1327.1 98.1367 1327.13C98.2135 1327.08 98.2904 1327.03 98.3928 1326.99Z" fill="#D7F9F1"/>
<path d="M96.4334 1329.11C96.5271 1329.65 96.9616 1330.15 96.459 1330.74C95.8967 1330.79 94.7635 1330.9 94.2012 1330.96C93.6474 1331.31 94.2183 1331.55 94.2268 1331.85C93.6645 1331.9 93.0936 1331.95 93.1021 1332.1C92.7443 1332.52 93.3577 1332.72 94.4568 1332.71C96.8423 1330.82 103.036 1329.65 96.4334 1329.11Z" fill="#D7F9F1"/>
<path d="M100.914 1327.49C99.9257 1327.58 98.9289 1327.67 97.9321 1327.76C97.6339 1328.14 97.2249 1328.52 97.5316 1328.83C99.0737 1328.44 100.002 1328.07 100.914 1327.49Z" fill="#D7F9F1"/>
<path d="M331.904 1334.42C331.904 1334.32 331.964 1334.29 332.466 1334.5C332.271 1334.47 332.083 1334.44 331.904 1334.42C331.896 1334.5 331.921 1334.63 331.666 1334.64C333.642 1334.79 335.951 1334.99 338.183 1335.3C338.482 1335.19 338.771 1335.07 339.027 1334.96C333.489 1334.18 327.959 1333.26 323.401 1333.38C326.605 1333.85 328.82 1333.96 331.904 1334.42Z" fill="#D7F9F1"/>
<path d="M339.503 1334.13C339.699 1334.16 339.878 1334.18 340.065 1334.21C339.571 1334 339.511 1334.03 339.503 1334.13Z" fill="#D7F9F1"/>
<path d="M240.692 1326.38C237.267 1326.32 234.259 1326.64 231.218 1326.99C237.667 1326.94 244.279 1327.08 249.203 1326.85C246.375 1326.69 243.546 1326.54 240.692 1326.38Z" fill="#D7F9F1"/>
<path d="M216.102 1328.33C220.336 1328.78 223.829 1328.55 227.16 1328.18C223.769 1328.16 220.404 1328.15 217.056 1328.14C216.741 1328.2 216.408 1328.26 216.102 1328.33Z" fill="#D7F9F1"/>
<path d="M220.808 1327.59C224.684 1327.76 227.964 1327.39 231.219 1326.98C227.564 1327.07 224.003 1327.23 220.808 1327.59Z" fill="#D7F9F1"/>
<path d="M297.91 1319.99C300.483 1319.89 302.033 1319.89 302.911 1319.95C303.303 1319.79 303.831 1319.6 304.538 1319.37C304.393 1319.35 304.231 1319.34 304.086 1319.32C301.445 1319.26 298.762 1319.16 296.044 1319.05C294.936 1319.1 293.871 1319.16 292.977 1319.33C294.629 1319.55 296.282 1319.77 297.91 1319.99Z" fill="#D7F9F1"/>
<path d="M286.12 1327.36C285.993 1327.34 285.865 1327.33 285.729 1327.33C285.354 1327.33 284.962 1327.31 284.587 1327.3C285.115 1327.32 285.609 1327.34 286.12 1327.36Z" fill="#D7F9F1"/>
<path d="M254.646 1320.26C256.887 1320.37 259.136 1320.43 261.342 1320.45C256.784 1320.27 252.201 1320.08 248.384 1320.24C248.946 1320.28 249.517 1320.48 250.079 1320.51C251.229 1320.3 252.933 1320.13 254.646 1320.26Z" fill="#D7F9F1"/>
<path d="M240.999 1321.45C242.848 1321.29 244.731 1321.19 246.631 1321.13C248.531 1321.07 250.448 1321.1 252.365 1321.12C256.198 1321.16 260.032 1321.21 263.73 1321.25C269.413 1321.35 275.632 1322.6 280.77 1322.1L280.778 1321.65L280.207 1321.75C278.214 1321.42 276.62 1321.07 274.951 1320.78C275.044 1320.78 275.147 1320.78 275.24 1320.77C275.07 1320.77 274.908 1320.75 274.738 1320.74C273.622 1320.56 272.471 1320.43 271.134 1320.43C270.52 1320.44 269.898 1320.45 269.268 1320.46C262.171 1320.02 254.835 1319.8 248.394 1320.23C244.416 1320.42 240.991 1320.99 237.012 1321.2C238.153 1321.29 239.857 1321.52 240.999 1321.45ZM265.306 1317.11C262.921 1317.11 260.612 1317.18 257.911 1316.97C260.373 1317 262.844 1317.01 265.306 1317.11ZM217.868 1317C214.869 1317.21 211.708 1317.39 208.598 1317.44C205.48 1317.5 202.413 1317.44 199.584 1317.36C195.035 1317.32 181.974 1318.12 184.248 1319.95C185.654 1319.11 188.704 1318.75 192.427 1318.55C196.151 1318.38 200.547 1318.35 204.645 1318.46C208.743 1318.54 212.534 1318.61 215.065 1318.43C217.578 1318.26 218.839 1317.9 217.868 1317ZM211.461 1323.29C206.92 1323.94 201.246 1323.74 195.58 1324.04C193.876 1324.02 192.18 1324.61 189.914 1324.58C187.077 1324.7 185.382 1324.98 183.107 1325.17L184.811 1325.45C180.84 1325.34 178.574 1326.25 174.613 1326C174.613 1326.15 174.05 1326.45 173.479 1326.46C170.651 1326.61 167.814 1326.4 165.547 1326.76C162.719 1326.98 159.882 1327.05 157.624 1327.4C157.053 1327.42 155.928 1327.89 154.795 1328.08C153.415 1328.19 152.026 1328.29 150.655 1328.39C150.723 1328.43 150.774 1328.47 150.825 1328.5C151.95 1328.46 153.091 1328.4 154.233 1328.26C157.632 1327.85 161.594 1327.46 164.985 1327.22C169.236 1326.94 173.343 1326.65 177.381 1326.39C181.42 1326.11 185.382 1325.73 189.352 1325.49C191.047 1325.35 192.76 1325.07 194.455 1324.93C197.011 1324.67 199.848 1324.54 202.464 1324.44C205.088 1324.33 207.499 1324.17 209.203 1323.69C209.765 1323.54 210.89 1323.56 211.461 1323.29ZM142.425 1328.73C142.39 1328.72 142.356 1328.7 142.331 1328.69C142.331 1328.72 142.339 1328.73 142.339 1328.76C142.373 1328.75 142.399 1328.73 142.425 1328.73ZM126.842 1326.5C125.87 1326.5 124.814 1326.53 123.715 1326.6C122.616 1326.69 121.457 1326.8 120.256 1326.93C117.879 1327.22 115.357 1327.53 112.886 1327.83C112.861 1327.87 112.844 1327.91 112.844 1327.94C114.923 1327.85 117.231 1327.62 119.617 1327.34C122.011 1327.07 124.473 1326.73 126.842 1326.5ZM113.593 1327.32C114.173 1327.21 114.769 1327.09 115.374 1326.97C115.28 1326.94 115.187 1326.92 115.101 1326.88C114.548 1326.93 114.011 1327.11 113.593 1327.32ZM303.841 1328.05C300.757 1327.86 297.699 1327.68 294.683 1327.54C291.658 1327.42 288.676 1327.36 285.745 1327.31C282.772 1327.01 279.824 1326.7 276.919 1326.48C274.013 1326.28 271.134 1326.1 268.314 1325.96C262.665 1325.65 257.212 1325.7 252.058 1325.91C247.517 1326.13 241.28 1326.04 235.044 1326.04C231.925 1326.02 228.807 1326.14 225.902 1326.35C222.997 1326.55 220.304 1326.88 218.03 1327.38C219.001 1327.48 219.938 1327.55 220.833 1327.58C219.504 1327.73 218.251 1327.91 217.075 1328.14C202.115 1328.22 187.426 1328.34 172.15 1328.58C169.884 1328.58 168.189 1329.11 165.922 1329.16C163.63 1329.24 161.373 1329.34 159.123 1329.41C159.115 1329.45 159.14 1329.48 159.209 1329.52C154.548 1329.7 149.922 1330.06 145.262 1330.41C142.927 1330.6 140.584 1330.75 138.224 1331C135.864 1331.25 133.479 1331.5 131.076 1331.76C128.818 1331.96 126.552 1332.1 124.286 1332.22C122.028 1332.37 119.762 1332.52 117.504 1332.68C115.809 1332.81 115.792 1332.21 114.658 1332.14C112.392 1331.94 110.407 1331.75 108.345 1331.64C106.283 1331.54 104.162 1331.53 101.615 1331.6C101.615 1331.6 101.606 1331.31 101.606 1331.15C100.831 1331.27 100.124 1331.33 99.5527 1331.34C101.938 1329.44 108.132 1328.27 101.538 1327.73C101.904 1327.63 102.228 1327.56 102.543 1327.48C102.586 1327.48 102.611 1327.48 102.654 1327.47C102.654 1327.47 102.654 1327.46 102.645 1327.45C104.187 1327.06 105.108 1326.69 106.028 1326.12C105.039 1326.21 104.043 1326.3 103.046 1326.39C103.233 1326.16 103.344 1325.94 103.242 1325.74C103.327 1325.7 103.404 1325.65 103.497 1325.6C103.94 1325.56 104.307 1325.52 104.307 1325.52C104.443 1325.39 104.554 1325.27 104.622 1325.15C105.908 1324.71 107.578 1324.3 108.831 1323.95C110.075 1323.62 110.901 1323.31 110.501 1323.04C109.887 1322.77 107.987 1323.19 105.84 1323.59C105.713 1323.54 105.559 1323.5 105.406 1323.48C108.234 1323.08 105.38 1322.44 107.076 1322.14C109.342 1321.93 111.608 1321.63 113.875 1321.45C123.11 1320.69 130.897 1320.11 139.971 1319.15C140.371 1319.11 140.772 1319.08 141.164 1319.05C145.568 1318.67 149.726 1318.47 154.037 1318.4C153.764 1318.51 153.475 1318.62 153.185 1318.72C156.653 1318.68 160.129 1318.66 163.605 1318.33C165.735 1318.13 167.865 1317.93 170.003 1317.73C172.142 1317.57 174.289 1317.42 176.453 1317.26C180.781 1317 185.186 1316.72 189.727 1316.71C194.489 1316.66 199.167 1316.6 203.861 1316.54C208.556 1316.46 213.267 1316.39 218.106 1316.3C214.153 1316.49 210.2 1316.73 206.144 1316.72C204.33 1316.67 202.515 1316.6 200.751 1316.61C202.575 1316.69 204.364 1316.73 206.144 1316.72C209.646 1316.83 213.19 1316.98 216.539 1316.94C219.887 1316.96 223.039 1316.78 225.74 1316.19C226.319 1316.34 226.319 1316.49 226.89 1316.52C228.884 1316.6 230.869 1316.69 232.786 1316.76C234.703 1316.84 236.552 1316.83 238.256 1316.63C238.256 1316.48 239.968 1316.58 239.406 1316.25C242.814 1316.32 246.801 1316.49 250.209 1316.47C251.691 1316.49 253.165 1316.31 254.648 1316.07C257.698 1316.11 260.748 1316.13 263.807 1316.17C266.865 1316.26 269.924 1316.34 273.025 1316.42C279.219 1316.54 285.524 1316.92 292.11 1317.23C295.381 1317.43 299.138 1317.95 302.444 1318.35C297.562 1318.19 292.544 1318.02 287.449 1317.87C282.516 1317.22 277.796 1316.69 273.877 1317.14C272.965 1317.19 272.062 1317.24 271.159 1317.29C273.903 1317.38 276.638 1317.46 279.355 1317.54C282.073 1317.65 284.774 1317.76 287.449 1317.86C290.363 1318.24 293.345 1318.64 296.267 1319.03C296.208 1319.03 296.148 1319.03 296.088 1319.04C293.788 1318.95 291.462 1318.88 289.128 1318.79C284.748 1318.24 280.523 1317.72 276.893 1317.92C276.442 1317.95 275.99 1317.98 275.556 1318.02C274.652 1318.07 273.741 1318.13 272.838 1318.18C274.533 1318.23 276.22 1318.29 277.907 1318.33C279.585 1318.4 281.264 1318.47 282.934 1318.54C285.004 1318.63 287.074 1318.7 289.128 1318.79C290.414 1318.96 291.718 1319.13 293.021 1319.31C292.885 1319.34 292.74 1319.35 292.612 1319.38C291.462 1319.4 288.233 1320.8 289.92 1321.44C294.291 1321.86 299.539 1322.39 303.697 1322.73C305.775 1322.91 307.582 1323.06 308.868 1323.17C309.516 1323.22 310.027 1323.28 310.376 1323.33C310.555 1323.36 310.691 1323.37 310.777 1323.39C310.87 1323.41 310.913 1323.42 310.913 1323.42C311.458 1324.04 296.463 1322.98 297.026 1323.19C297.86 1323.36 298.695 1323.52 299.539 1323.68C298.738 1323.71 297.954 1323.72 297.239 1323.78C295.535 1323.71 293.268 1323.29 292.127 1323.47C288.131 1323.94 283.607 1323.14 279.049 1323.25C276.195 1323.42 272.787 1323.71 269.37 1324C269.362 1324.29 267.658 1323.99 268.22 1324.34C266.618 1324.19 264.897 1324.03 263.398 1324C261.898 1323.99 260.629 1324.12 259.93 1324.5C259.854 1324.5 259.777 1324.5 259.7 1324.5C259.479 1324.48 259.155 1324.51 258.806 1324.55C253.481 1324.01 249.758 1324.51 244.918 1324.81C243.257 1324.78 241.57 1324.74 239.832 1324.63C240.965 1324.7 242.66 1324.95 243.802 1324.86C244.177 1324.84 244.552 1324.83 244.918 1324.81C249.229 1324.84 253.327 1324.81 257.425 1324.78C257.758 1324.72 258.303 1324.61 258.806 1324.55C259.104 1324.58 259.393 1324.62 259.692 1324.65C259.76 1324.6 259.845 1324.54 259.93 1324.5C260.91 1324.46 261.924 1324.46 262.946 1324.45C263.969 1324.46 264.991 1324.48 265.996 1324.5C268.015 1324.53 269.958 1324.57 271.628 1324.5C277.933 1324.52 284.629 1325.55 291.036 1326.31C287.841 1326.24 284.68 1326.17 281.588 1326.1C285.464 1326.24 289.119 1326.38 292.672 1326.51C293.217 1326.57 293.762 1326.64 294.299 1326.7L297.699 1327.12C296.642 1326.94 295.594 1326.75 294.555 1326.57C296.676 1326.65 298.772 1326.73 300.834 1326.81C303.68 1326.99 306.551 1327.2 309.43 1327.42C312.31 1327.7 315.207 1328.01 318.095 1328.34C323.889 1328.97 329.682 1329.89 335.424 1330.91C335.194 1331.06 334.922 1331.2 334.632 1331.33C331.863 1330.94 329.094 1330.51 326.453 1330.22C323.812 1329.89 321.282 1329.77 318.998 1329.83C322.193 1330.3 324.417 1330.31 327.501 1330.79C327.493 1330.88 327.518 1331.01 327.262 1331.02C329.239 1331.17 331.548 1331.37 333.789 1331.69C333.056 1331.96 332.238 1332.22 331.42 1332.46C330.27 1332.58 328.583 1332.31 326.871 1332.19C323.199 1331.73 319.629 1331.29 316.067 1330.85C312.515 1330.41 308.97 1329.95 305.349 1329.71C302.129 1329.29 298.908 1328.86 295.705 1328.43C292.501 1328.01 289.307 1327.69 286.146 1327.35C292.442 1327.6 298.227 1327.82 303.85 1328.04H303.841V1328.05Z" fill="#D7F9F1"/>
<path d="M293.395 1326.41C295.849 1326.51 298.32 1326.66 300.808 1326.82C302.733 1326.85 304.65 1326.9 306.558 1326.94C315.683 1327.34 326.29 1329.13 336.063 1330.38C336.369 1329.99 336.429 1329.54 336.097 1329.03C330.806 1327.97 325.506 1327.12 320.199 1326.53C314.891 1325.9 309.583 1325.22 304.284 1324.47C304.198 1324.47 304.113 1324.48 304.028 1324.49C301.745 1324.65 298.763 1324.43 295.644 1324.17C292.526 1323.9 289.255 1323.7 286.409 1323.76C283.563 1323.9 280.718 1323.88 277.872 1323.87C275.026 1323.89 272.189 1323.89 269.344 1324C271.397 1324.18 273.416 1324.35 275.427 1324.52C276.432 1324.59 277.429 1324.67 278.434 1324.75C279.431 1324.85 280.428 1324.94 281.425 1325.04C285.404 1325.43 289.365 1325.84 293.395 1326.41Z" fill="#D7F9F1"/>
<path d="M227.161 1328.19C229.376 1328.21 231.608 1328.16 233.858 1328.22C236.984 1328.22 239.941 1328.2 242.821 1328.14C245.709 1328.08 248.512 1328.02 251.357 1327.96C247.191 1327.74 243 1327.52 238.782 1327.29C236.669 1327.24 234.71 1327.35 232.81 1327.53C230.91 1327.7 229.053 1327.98 227.161 1328.19Z" fill="#D7F9F1"/>
<path d="M255.976 1327.86C254.417 1327.89 252.883 1327.92 251.358 1327.97C257.535 1328.31 263.669 1328.56 269.778 1328.97L277.327 1329.22L284.875 1329.57L299.981 1330.28C301.122 1330.36 302.256 1330.44 303.389 1330.51C284.705 1327.96 266.038 1325.97 250.114 1326.8C249.825 1326.82 249.492 1326.82 249.186 1326.83C256.751 1327.26 264.232 1327.69 271.686 1328.1L263.823 1327.88C261.216 1327.83 258.6 1327.85 255.976 1327.86Z" fill="#D7F9F1"/>
<path d="M291.017 1326.32C291.562 1326.39 292.107 1326.45 292.652 1326.51C293.291 1326.53 293.913 1326.55 294.535 1326.57C294.152 1326.51 293.769 1326.46 293.394 1326.39C292.601 1326.36 291.8 1326.34 291.017 1326.32Z" fill="#D7F9F1"/>
<path d="M274.958 1320.78C274.89 1320.77 274.822 1320.75 274.745 1320.74C272.947 1320.65 271.124 1320.56 269.275 1320.47C266.728 1320.52 264.07 1320.47 261.36 1320.44C266.276 1320.67 271.141 1320.98 274.958 1320.78Z" fill="#D7F9F1"/>
<path d="M259.3 1315.83C258.729 1315.79 257.596 1315.71 257.025 1315.66C256.675 1315.72 256.335 1315.79 255.985 1315.85C256.514 1315.89 257.059 1315.95 257.596 1316L259.3 1315.83Z" fill="#D7F9F1"/>
<path d="M225.703 1316.21C228.225 1316.17 230.704 1316.13 233.158 1316.1C235.603 1316.09 238.032 1316.08 240.426 1316.06C242.82 1316.05 245.197 1316.03 247.565 1316.03C249.925 1316.06 252.277 1316.07 254.62 1316.1C255.071 1316.02 255.531 1315.94 255.991 1315.86C252.848 1315.59 249.721 1315.36 246.654 1315.3C243.587 1315.26 240.579 1315.33 237.691 1315.58C236.549 1315.66 234.837 1316.01 233.703 1315.94C228.319 1315.82 223.19 1316.11 218.078 1316.32C220.523 1316.29 222.986 1316.25 225.516 1316.22C225.567 1316.21 225.635 1316.21 225.703 1316.21Z" fill="#D7F9F1"/>
<path d="M49.5316 930.047C33.6351 930.047 22.0709 925.851 14.839 917.459C7.60712 909.067 3.99118 896.412 3.99118 879.492V860.662H40.9352V879.594C40.9352 884.37 41.5151 888.429 42.6749 891.772C43.903 895.047 46.5979 896.685 50.7596 896.685C54.9896 896.685 57.6845 894.911 58.8443 891.363C60.0041 887.747 60.5841 881.88 60.5841 873.761V869.258C60.5841 863.05 59.5266 857.626 57.4116 852.986C55.3648 848.347 51.3054 846.027 45.2334 846.027C44.4829 846.027 43.8006 846.061 43.1866 846.13C42.6408 846.13 42.1632 846.164 41.7539 846.232V813.893C47.9624 813.893 52.704 812.529 55.9788 809.8C59.2537 807.002 60.8911 802.363 60.8911 795.882C60.8911 785.716 57.9574 780.633 52.09 780.633C48.2694 780.633 45.6768 782.134 44.3123 785.136C43.016 788.07 42.3679 791.822 42.3679 796.393V801.817H5.1169C5.04867 800.999 4.98045 800.009 4.91222 798.85C4.91222 797.69 4.91222 796.564 4.91222 795.472C4.91222 778.962 8.76695 766.852 16.4764 759.142C24.1859 751.433 35.9888 747.578 51.8853 747.578C82.5867 747.578 97.9374 763.543 97.9374 795.472C97.9374 804.342 96.7435 811.676 94.3556 817.475C91.9677 823.206 87.533 827.231 81.0516 829.551C86.1685 832.007 89.955 835.145 92.4111 838.966C94.8673 842.787 96.4706 847.528 97.221 853.191C97.9715 858.854 98.3467 865.71 98.3467 873.761C98.3467 891.772 94.5602 905.656 86.9872 915.412C79.4825 925.169 66.9972 930.047 49.5316 930.047Z" fill="#16B25E"/>
<path d="M113.771 915.029V873.779H130.271V881.747H122.161V889.786H129.942V897.544H122.161V906.99H130.81V915.029H113.771ZM137.349 915.029L132.263 873.755H140.114L143.138 901.833L145.833 873.755H153.685L148.599 915.029H137.349ZM153.989 915.029L157.974 873.779H171.966L175.88 915.029H168.075L167.489 908.372H162.521L162.005 915.029H153.989ZM163.106 901.786H166.856L165.052 880.81H164.677L163.106 901.786ZM178.411 915.029V873.779H186.661V907.997H195.146V915.029H178.411ZM207.028 915.404C203.591 915.404 201.06 914.443 199.435 912.521C197.81 910.583 196.997 907.74 196.997 903.99V873.779H205.013V903.661C205.013 904.349 205.052 905.013 205.13 905.654C205.208 906.279 205.388 906.794 205.669 907.2C205.95 907.607 206.403 907.81 207.028 907.81C207.669 907.81 208.13 907.615 208.411 907.224C208.692 906.818 208.864 906.294 208.927 905.654C209.005 905.013 209.044 904.349 209.044 903.661V873.779H217.06V903.99C217.06 907.74 216.247 910.583 214.622 912.521C212.997 914.443 210.466 915.404 207.028 915.404ZM219.099 915.029L223.083 873.779H237.075L240.989 915.029H233.185L232.599 908.372H227.63L227.114 915.029H219.099ZM228.216 901.786H231.966L230.161 880.81H229.786L228.216 901.786ZM246.45 915.029V881.7H241.552V873.779H259.599V881.7H254.7V915.029H246.45ZM261.896 915.029V873.779H278.396V881.747H270.286V889.786H278.067V897.544H270.286V906.99H278.935V915.029H261.896Z" fill="#F5F5F5"/>
<path d="M4.43054 952.6C3.90231 952.643 3.4082 952.694 3.4082 952.694C3.4082 952.737 3.41669 952.796 3.42521 952.839C3.80008 952.745 4.12383 952.669 4.43054 952.6Z" fill="#D7F9F1"/>
<path d="M5.39283 950.727C5.28183 950.735 5.17936 950.752 5.06836 950.761C5.10251 950.795 5.11107 950.838 5.13668 950.872C5.21353 950.821 5.29037 950.769 5.39283 950.727Z" fill="#D7F9F1"/>
<path d="M3.43338 952.847C3.5271 953.392 3.96163 953.895 3.45896 954.483C2.89665 954.534 1.76349 954.645 1.20119 954.696C0.647396 955.045 1.21825 955.292 1.22677 955.59C0.66446 955.641 0.093625 955.693 0.102145 955.837C-0.255688 956.263 0.357711 956.459 1.45677 956.451C3.84233 954.56 10.0363 953.392 3.43338 952.847Z" fill="#D7F9F1"/>
<path d="M7.91401 951.229C6.92571 951.323 5.92889 951.408 4.93207 951.502C4.63387 951.877 4.22489 952.26 4.53161 952.567C6.0737 952.175 7.00239 951.809 7.91401 951.229Z" fill="#D7F9F1"/>
<path d="M238.904 958.155C238.904 958.061 238.964 958.027 239.466 958.24C239.271 958.206 239.083 958.181 238.904 958.155C238.896 958.24 238.921 958.368 238.666 958.385C240.642 958.53 242.951 958.734 245.183 959.041C245.482 958.93 245.771 958.811 246.027 958.7C240.489 957.916 234.959 957.005 230.401 957.124C233.605 957.592 235.82 957.704 238.904 958.155Z" fill="#D7F9F1"/>
<path d="M246.503 957.865C246.699 957.899 246.878 957.917 247.065 957.951C246.571 957.738 246.511 957.772 246.503 957.865Z" fill="#D7F9F1"/>
<path d="M147.692 950.122C144.267 950.062 141.259 950.377 138.218 950.735C144.667 950.675 151.279 950.82 156.203 950.59C153.375 950.428 150.546 950.283 147.692 950.122Z" fill="#D7F9F1"/>
<path d="M123.102 952.073C127.336 952.516 130.829 952.294 134.16 951.919C130.769 951.902 127.404 951.893 124.056 951.885C123.741 951.936 123.408 951.996 123.102 952.073Z" fill="#D7F9F1"/>
<path d="M127.808 951.33C131.684 951.501 134.964 951.126 138.219 950.717C134.564 950.81 131.003 950.973 127.808 951.33Z" fill="#D7F9F1"/>
<path d="M204.91 943.732C207.483 943.629 209.033 943.629 209.911 943.689C210.303 943.527 210.831 943.34 211.538 943.11C211.393 943.093 211.231 943.075 211.086 943.058C208.445 942.999 205.762 942.905 203.044 942.794C201.936 942.837 200.871 942.905 199.977 943.067C201.629 943.288 203.282 943.51 204.91 943.732Z" fill="#D7F9F1"/>
<path d="M193.12 951.101C192.993 951.084 192.865 951.067 192.729 951.067C192.354 951.067 191.962 951.05 191.587 951.041C192.115 951.058 192.609 951.075 193.12 951.101Z" fill="#D7F9F1"/>
<path d="M161.646 944.003C163.887 944.114 166.136 944.174 168.342 944.191C163.784 944.012 159.201 943.816 155.384 943.978C155.946 944.02 156.517 944.216 157.079 944.25C158.229 944.037 159.933 943.867 161.646 944.003Z" fill="#D7F9F1"/>
<path d="M147.999 945.188C149.848 945.035 151.731 944.933 153.631 944.873C155.531 944.813 157.448 944.839 159.365 944.856C163.198 944.899 167.032 944.95 170.73 944.992C176.413 945.086 182.632 946.339 187.77 945.844L187.778 945.393L187.207 945.487C185.214 945.163 183.62 944.805 181.951 944.524C182.044 944.524 182.147 944.515 182.24 944.507C182.07 944.507 181.908 944.49 181.738 944.481C180.622 944.302 179.471 944.174 178.134 944.166C177.52 944.183 176.898 944.191 176.268 944.2C169.171 943.757 161.835 943.535 155.394 943.97C151.416 944.157 147.991 944.728 144.012 944.941C145.153 945.026 146.857 945.265 147.999 945.188ZM172.306 940.852C169.921 940.852 167.612 940.92 164.911 940.707C167.373 940.741 169.844 940.75 172.306 940.852ZM124.868 940.741C121.869 940.945 118.708 941.133 115.598 941.176C112.48 941.244 109.413 941.176 106.584 941.099C102.035 941.065 88.9736 941.857 91.2484 943.689C92.6542 942.845 95.7043 942.488 99.4275 942.292C103.151 942.121 107.547 942.087 111.645 942.198C115.743 942.283 119.534 942.351 122.065 942.172C124.578 942.002 125.839 941.644 124.868 940.741ZM118.461 947.029C113.92 947.676 108.246 947.48 102.58 947.778C100.876 947.761 99.1804 948.349 96.9142 948.324C94.077 948.443 92.3816 948.724 90.1068 948.912L91.8107 949.193C87.8405 949.082 85.5742 949.993 81.6125 949.738C81.6125 949.891 81.0502 950.189 80.4793 950.198C77.6508 950.351 74.8137 950.138 72.5474 950.496C69.7188 950.718 66.8817 950.794 64.6239 951.144C64.0531 951.161 62.9285 951.629 61.7953 951.817C60.4151 951.927 59.0264 952.03 57.6547 952.132C57.7229 952.166 57.774 952.209 57.8251 952.243C58.9497 952.2 60.0914 952.14 61.2331 951.996C64.6325 951.595 68.5942 951.203 71.9851 950.956C76.2365 950.675 80.343 950.394 84.3814 950.13C88.4199 949.849 92.3816 949.465 96.3518 949.227C98.0473 949.09 99.7597 948.809 101.455 948.673C104.011 948.409 106.848 948.281 109.464 948.179C112.088 948.068 114.499 947.915 116.203 947.429C116.765 947.276 117.89 947.301 118.461 947.029ZM49.4245 952.473C49.3904 952.456 49.3564 952.439 49.3308 952.43C49.3308 952.456 49.3393 952.473 49.3393 952.498C49.3734 952.49 49.399 952.473 49.4245 952.473ZM33.8418 950.241C32.8705 950.241 31.814 950.266 30.715 950.343C29.6159 950.428 28.4572 950.539 27.2559 950.667C24.8789 950.956 22.357 951.271 19.8863 951.57C19.8607 951.612 19.8437 951.655 19.8437 951.681C21.9225 951.587 24.2314 951.357 26.6169 951.076C29.011 950.812 31.4732 950.471 33.8418 950.241ZM20.5934 951.059C21.1728 950.948 21.7691 950.829 22.374 950.709C22.2803 950.675 22.1866 950.658 22.1014 950.624C21.5477 950.667 21.0109 950.846 20.5934 951.059ZM210.841 951.791C207.757 951.595 204.699 951.425 201.683 951.28C198.658 951.161 195.676 951.101 192.745 951.05C189.772 950.752 186.824 950.437 183.919 950.224C181.013 950.019 178.134 949.84 175.314 949.704C169.665 949.389 164.212 949.44 159.058 949.653C154.517 949.866 148.28 949.781 142.044 949.781C138.925 949.764 135.807 949.883 132.902 950.087C129.997 950.292 127.304 950.615 125.03 951.118C126.001 951.22 126.938 951.289 127.833 951.323C126.504 951.468 125.251 951.647 124.075 951.877C109.115 951.962 94.4263 952.081 79.1503 952.32C76.884 952.32 75.1885 952.848 72.9223 952.899C70.6304 952.984 68.3727 953.078 66.1234 953.155C66.1149 953.189 66.1405 953.223 66.2086 953.257C61.5483 953.436 56.922 953.802 52.2616 954.151C49.9272 954.339 47.5842 954.492 45.2242 954.739C42.8643 954.995 40.4787 955.242 38.0761 955.497C35.8184 955.702 33.5521 955.838 31.2858 955.958C29.028 956.111 26.7617 956.264 24.504 956.418C22.8085 956.545 22.7915 955.949 21.6584 955.881C19.3921 955.685 17.407 955.489 15.3452 955.378C13.2834 955.284 11.162 955.267 8.61452 955.344C8.61452 955.344 8.60599 955.046 8.60599 954.893C7.83069 955.012 7.12356 955.071 6.55273 955.08C8.93829 953.18 15.1322 952.013 8.53782 951.468C8.90417 951.374 9.22792 951.297 9.54315 951.22C9.58575 951.22 9.61132 951.22 9.65392 951.212C9.65392 951.212 9.65391 951.203 9.64539 951.195C11.1875 950.803 12.1076 950.428 13.0278 949.857C12.0395 949.951 11.0427 950.036 10.0458 950.13C10.2333 949.9 10.344 949.678 10.2418 949.482C10.327 949.44 10.4037 949.389 10.4974 949.338C10.9404 949.304 11.3068 949.261 11.3068 949.261C11.4431 949.133 11.5538 949.014 11.622 948.886C12.9085 948.451 14.5784 948.042 15.8308 947.693C17.0747 947.361 17.9011 947.054 17.5007 946.782C16.8873 946.509 14.9873 946.926 12.8403 947.327C12.7125 947.284 12.5592 947.242 12.4059 947.225C15.2344 946.816 12.3803 946.177 14.0757 945.879C16.342 945.666 18.6083 945.367 20.8746 945.188C30.1101 944.43 37.8972 943.851 46.9709 942.888C47.3713 942.854 47.7717 942.82 48.1636 942.786C52.5684 942.411 56.726 942.206 61.0371 942.138C60.7644 942.249 60.4748 942.36 60.1851 942.462C63.6527 942.419 67.1288 942.402 70.6049 942.07C72.7348 941.874 74.8648 941.67 77.0033 941.465C79.1418 941.312 81.2887 941.158 83.4528 941.005C87.7808 940.741 92.1856 940.46 96.7267 940.451C101.489 940.4 106.167 940.34 110.861 940.281C115.556 940.204 120.267 940.128 125.106 940.042C121.153 940.23 117.2 940.469 113.144 940.46C111.33 940.409 109.515 940.34 107.751 940.349C109.575 940.426 111.364 940.469 113.144 940.46C116.646 940.571 120.19 940.715 123.539 940.681C126.887 940.698 130.039 940.52 132.74 939.932C133.319 940.077 133.319 940.23 133.89 940.255C135.884 940.341 137.869 940.426 139.786 940.502C141.703 940.579 143.552 940.571 145.256 940.375C145.256 940.221 146.968 940.323 146.406 939.991C149.814 940.059 153.801 940.23 157.209 940.213C158.691 940.23 160.165 940.051 161.648 939.812C164.698 939.846 167.748 939.872 170.807 939.915C173.865 940 176.924 940.085 180.025 940.162C186.219 940.281 192.524 940.656 199.11 940.971C202.381 941.167 206.138 941.687 209.444 942.087C204.562 941.925 199.544 941.763 194.449 941.61C189.516 940.962 184.796 940.434 180.877 940.877C179.965 940.928 179.062 940.98 178.159 941.031C180.903 941.116 183.638 941.201 186.355 941.278C189.073 941.389 191.774 941.499 194.449 941.602C197.363 941.985 200.345 942.377 203.267 942.769C203.208 942.769 203.148 942.769 203.088 942.777C200.788 942.692 198.462 942.615 196.128 942.53C191.748 941.976 187.523 941.465 183.893 941.661C183.442 941.687 182.99 941.721 182.556 941.763C181.652 941.815 180.741 941.866 179.838 941.917C181.533 941.968 183.22 942.027 184.907 942.07C186.585 942.138 188.264 942.206 189.934 942.283C192.004 942.368 194.074 942.445 196.128 942.53C197.414 942.7 198.718 942.871 200.021 943.05C199.885 943.075 199.74 943.092 199.612 943.118C198.462 943.143 195.233 944.541 196.92 945.18C201.291 945.597 206.539 946.126 210.697 946.466C212.775 946.645 214.582 946.799 215.868 946.909C216.516 946.961 217.027 947.02 217.376 947.071C217.555 947.097 217.691 947.114 217.777 947.131C217.87 947.148 217.913 947.165 217.913 947.165C218.458 947.778 203.463 946.722 204.026 946.935C204.86 947.097 205.695 947.259 206.539 947.421C205.738 947.446 204.954 947.463 204.239 947.523C202.535 947.454 200.268 947.029 199.127 947.208C195.131 947.676 190.607 946.884 186.049 946.986C183.195 947.156 179.787 947.454 176.37 947.736C176.362 948.034 174.658 947.727 175.22 948.077C173.618 947.932 171.897 947.77 170.398 947.744C168.898 947.727 167.629 947.855 166.93 948.239C166.854 948.239 166.777 948.239 166.7 948.239C166.479 948.222 166.155 948.247 165.806 948.29C160.481 947.753 156.758 948.247 151.918 948.545C150.257 948.52 148.57 948.477 146.832 948.375C147.965 948.443 149.66 948.69 150.802 948.605C151.177 948.579 151.552 948.571 151.918 948.545C156.229 948.579 160.327 948.554 164.425 948.52C164.758 948.46 165.303 948.349 165.806 948.29C166.104 948.324 166.393 948.358 166.692 948.392C166.76 948.341 166.845 948.281 166.93 948.239C167.91 948.204 168.924 948.196 169.946 948.187C170.969 948.204 171.991 948.222 172.996 948.239C175.015 948.273 176.958 948.307 178.628 948.239C184.933 948.264 191.629 949.286 198.036 950.053C194.841 949.977 191.68 949.908 188.588 949.84C192.464 949.985 196.119 950.121 199.672 950.249C200.217 950.309 200.762 950.377 201.299 950.437L204.699 950.863C203.642 950.684 202.594 950.488 201.555 950.309C203.676 950.385 205.772 950.471 207.834 950.547C210.68 950.726 213.551 950.939 216.43 951.161C219.31 951.442 222.207 951.749 225.095 952.081C230.889 952.711 236.682 953.631 242.424 954.654C242.194 954.799 241.922 954.935 241.632 955.071C238.863 954.68 236.094 954.254 233.453 953.955C230.812 953.632 228.282 953.512 225.998 953.572C229.193 954.04 231.417 954.049 234.501 954.535C234.493 954.62 234.518 954.747 234.262 954.764C236.239 954.909 238.548 955.114 240.789 955.429C240.056 955.702 239.238 955.958 238.42 956.205C237.27 956.315 235.583 956.051 233.871 955.932C230.199 955.472 226.629 955.029 223.067 954.594C219.515 954.151 215.97 953.691 212.349 953.453C209.129 953.027 205.908 952.601 202.705 952.175C199.501 951.749 196.307 951.434 193.146 951.093C199.442 951.34 205.227 951.561 210.85 951.783H210.841V951.791Z" fill="#D7F9F1"/>
<path d="M200.395 950.147C202.849 950.249 205.32 950.402 207.808 950.556C209.733 950.59 211.65 950.641 213.558 950.675C222.683 951.076 233.29 952.873 243.063 954.117C243.369 953.725 243.429 953.282 243.097 952.771C237.806 951.706 232.506 950.863 227.199 950.266C221.891 949.636 216.583 948.963 211.284 948.213C211.198 948.213 211.113 948.221 211.028 948.23C208.745 948.392 205.763 948.17 202.644 947.906C199.526 947.642 196.255 947.438 193.409 947.497C190.563 947.642 187.718 947.616 184.872 947.608C182.026 947.633 179.189 947.634 176.344 947.744C178.397 947.923 180.416 948.085 182.427 948.256C183.432 948.332 184.429 948.409 185.434 948.494C186.431 948.588 187.428 948.681 188.425 948.775C192.404 949.167 196.365 949.584 200.395 950.147Z" fill="#D7F9F1"/>
<path d="M134.161 951.929C136.376 951.946 138.608 951.903 140.858 951.963C143.984 951.963 146.941 951.937 149.821 951.877C152.709 951.818 155.512 951.758 158.357 951.698C154.191 951.477 150 951.255 145.782 951.025C143.669 950.983 141.71 951.094 139.81 951.272C137.91 951.443 136.053 951.724 134.161 951.929Z" fill="#D7F9F1"/>
<path d="M162.976 951.596C161.417 951.63 159.883 951.664 158.358 951.706C164.535 952.047 170.669 952.303 176.778 952.712L184.327 952.959L191.875 953.308L206.981 954.024C208.122 954.101 209.256 954.177 210.389 954.245C191.705 951.698 173.038 949.713 157.114 950.539C156.825 950.556 156.492 950.565 156.186 950.573C163.751 950.999 171.232 951.425 178.686 951.843L170.823 951.621C168.216 951.57 165.6 951.587 162.976 951.596Z" fill="#D7F9F1"/>
<path d="M198.017 950.061C198.562 950.129 199.107 950.189 199.652 950.248C200.291 950.274 200.913 950.291 201.535 950.308C201.152 950.248 200.769 950.197 200.394 950.129C199.601 950.103 198.8 950.078 198.017 950.061Z" fill="#D7F9F1"/>
<path d="M181.958 944.516C181.89 944.508 181.822 944.491 181.745 944.482C179.947 944.388 178.124 944.303 176.275 944.21C173.728 944.261 171.07 944.209 168.36 944.184C173.276 944.405 178.141 944.721 181.958 944.516Z" fill="#D7F9F1"/>
<path d="M166.3 939.574C165.729 939.531 164.596 939.446 164.025 939.403C163.675 939.463 163.335 939.531 162.985 939.591C163.514 939.633 164.059 939.693 164.596 939.744L166.3 939.574Z" fill="#D7F9F1"/>
<path d="M132.703 939.949C135.225 939.915 137.704 939.872 140.158 939.838C142.603 939.829 145.032 939.821 147.426 939.804C149.82 939.787 152.197 939.77 154.565 939.77C156.925 939.795 159.277 939.812 161.62 939.838C162.071 939.761 162.531 939.676 162.991 939.599C159.848 939.327 156.721 939.096 153.654 939.037C150.587 939.003 147.579 939.071 144.691 939.318C143.549 939.403 141.837 939.753 140.703 939.684C135.319 939.557 130.19 939.855 125.078 940.059C127.523 940.025 129.986 939.991 132.516 939.957C132.567 939.948 132.635 939.949 132.703 939.949Z" fill="#D7F9F1"/>
<path d="M98.3965 556V547.334C98.3965 538.324 99.7721 530.242 102.523 523.089C105.343 515.867 108.954 509.195 113.356 503.074C117.758 496.884 122.401 490.831 127.284 484.916C132.03 479.138 136.535 473.223 140.799 467.171C145.133 461.049 148.64 454.446 151.323 447.362C154.074 440.209 155.45 432.196 155.45 423.323C155.45 419.059 154.796 415.414 153.489 412.387C152.251 409.292 149.638 407.745 145.648 407.745C139.596 407.745 136.569 413.144 136.569 423.942V446.124H98.3965C98.3278 444.542 98.2246 442.754 98.087 440.759C98.0182 438.765 97.9839 436.839 97.9839 434.982C97.9839 421.913 99.3595 410.84 102.111 401.761C104.862 392.613 109.711 385.666 116.658 380.921C123.673 376.106 133.509 373.699 146.164 373.699C161.227 373.699 172.92 377.929 181.242 386.389C189.633 394.849 193.829 406.919 193.829 422.601C193.829 433.262 192.453 442.616 189.702 450.663C186.951 458.642 183.305 465.933 178.766 472.536C174.226 479.07 169.24 485.604 163.806 492.138C159.955 496.746 156.206 501.457 152.561 506.272C148.984 511.087 145.82 516.245 143.069 521.748H192.591V556H98.3965Z" fill="#16B25E"/>
<path d="M206.622 557.881V516.631H219.185L222.653 541.779L226.099 516.631H238.778V557.881H231.231V528.162L226.497 557.881H219.091L214.075 528.162V557.881H206.622ZM241.31 557.881L245.294 516.631H259.286L263.2 557.881H255.396L254.81 551.224H249.841L249.325 557.881H241.31ZM250.427 544.638H254.177L252.372 523.662H251.997L250.427 544.638ZM268.661 557.881V524.552H263.763V516.631H281.81V524.552H276.911V557.881H268.661ZM293.716 558.256C290.731 558.256 288.325 557.326 286.497 555.466C284.685 553.607 283.778 551.006 283.778 547.662V528.631C283.778 524.631 284.567 521.568 286.146 519.443C287.739 517.318 290.325 516.256 293.903 516.256C295.856 516.256 297.591 516.615 299.106 517.334C300.638 518.052 301.841 519.131 302.716 520.568C303.591 521.99 304.028 523.787 304.028 525.959V533.084H295.825V526.99C295.825 525.756 295.669 524.927 295.356 524.506C295.044 524.068 294.56 523.849 293.903 523.849C293.138 523.849 292.622 524.131 292.356 524.693C292.091 525.24 291.958 525.974 291.958 526.896V547.545C291.958 548.685 292.122 549.49 292.45 549.959C292.794 550.427 293.278 550.662 293.903 550.662C294.606 550.662 295.099 550.373 295.38 549.795C295.677 549.216 295.825 548.466 295.825 547.545V540.115H304.122V547.92C304.122 551.545 303.208 554.177 301.38 555.818C299.552 557.443 296.997 558.256 293.716 558.256ZM306.888 557.881V516.631H315.091V531.373H318.981V516.631H327.185V557.881H318.981V539.177H315.091V557.881H306.888Z" fill="#F5F5F5"/>
<path d="M96.4305 580.452C95.9023 580.495 95.4082 580.546 95.4082 580.546C95.4082 580.589 95.4167 580.648 95.4252 580.691C95.8001 580.597 96.1238 580.521 96.4305 580.452Z" fill="#D7F9F1"/>
<path d="M97.3928 578.579C97.2818 578.587 97.1794 578.604 97.0684 578.613C97.1025 578.647 97.1111 578.69 97.1367 578.724C97.2135 578.673 97.2904 578.621 97.3928 578.579Z" fill="#D7F9F1"/>
<path d="M95.4334 580.699C95.5271 581.244 95.9616 581.747 95.459 582.335C94.8967 582.386 93.7635 582.497 93.2012 582.548C92.6474 582.897 93.2183 583.144 93.2268 583.442C92.6645 583.493 92.0936 583.544 92.1021 583.689C91.7443 584.115 92.3577 584.311 93.4568 584.303C95.8423 582.412 102.036 581.244 95.4334 580.699Z" fill="#D7F9F1"/>
<path d="M99.914 579.081C98.9257 579.175 97.9289 579.26 96.9321 579.354C96.6339 579.729 96.2249 580.112 96.5316 580.419C98.0737 580.027 99.0024 579.661 99.914 579.081Z" fill="#D7F9F1"/>
<path d="M330.904 586.007C330.904 585.913 330.964 585.879 331.466 586.092C331.271 586.058 331.083 586.033 330.904 586.007C330.896 586.092 330.921 586.22 330.666 586.237C332.642 586.382 334.951 586.586 337.183 586.893C337.482 586.782 337.771 586.663 338.027 586.552C332.489 585.768 326.959 584.857 322.401 584.976C325.605 585.444 327.82 585.556 330.904 586.007Z" fill="#D7F9F1"/>
<path d="M338.503 585.717C338.699 585.751 338.878 585.769 339.065 585.803C338.571 585.59 338.511 585.624 338.503 585.717Z" fill="#D7F9F1"/>
<path d="M239.692 577.974C236.267 577.914 233.259 578.229 230.218 578.587C236.667 578.527 243.279 578.672 248.203 578.442C245.375 578.28 242.546 578.135 239.692 577.974Z" fill="#D7F9F1"/>
<path d="M215.102 579.924C219.336 580.367 222.829 580.146 226.16 579.771C222.769 579.754 219.404 579.745 216.056 579.737C215.741 579.788 215.408 579.848 215.102 579.924Z" fill="#D7F9F1"/>
<path d="M219.808 579.182C223.684 579.353 226.964 578.978 230.219 578.569C226.564 578.662 223.003 578.824 219.808 579.182Z" fill="#D7F9F1"/>
<path d="M296.91 571.584C299.483 571.481 301.033 571.481 301.911 571.541C302.303 571.379 302.831 571.192 303.538 570.962C303.393 570.945 303.231 570.927 303.086 570.91C300.445 570.851 297.762 570.757 295.044 570.646C293.936 570.689 292.871 570.757 291.977 570.919C293.629 571.14 295.282 571.362 296.91 571.584Z" fill="#D7F9F1"/>
<path d="M285.12 578.953C284.993 578.936 284.865 578.919 284.729 578.919C284.354 578.919 283.962 578.902 283.587 578.893C284.115 578.91 284.609 578.927 285.12 578.953Z" fill="#D7F9F1"/>
<path d="M253.646 571.855C255.887 571.966 258.136 572.026 260.342 572.043C255.784 571.864 251.201 571.668 247.384 571.83C247.946 571.872 248.517 572.068 249.079 572.102C250.229 571.889 251.933 571.719 253.646 571.855Z" fill="#D7F9F1"/>
<path d="M239.999 573.04C241.848 572.887 243.731 572.785 245.631 572.725C247.531 572.665 249.448 572.691 251.365 572.708C255.198 572.751 259.032 572.802 262.73 572.844C268.413 572.938 274.632 574.191 279.77 573.696L279.778 573.245L279.207 573.339C277.214 573.015 275.62 572.657 273.951 572.376C274.044 572.376 274.147 572.367 274.24 572.359C274.07 572.359 273.908 572.342 273.738 572.333C272.622 572.154 271.471 572.026 270.134 572.018C269.52 572.035 268.898 572.043 268.268 572.052C261.171 571.609 253.835 571.387 247.394 571.822C243.416 572.009 239.991 572.58 236.012 572.793C237.153 572.878 238.857 573.117 239.999 573.04ZM264.306 568.704C261.921 568.704 259.612 568.772 256.911 568.559C259.373 568.593 261.844 568.602 264.306 568.704ZM216.868 568.593C213.869 568.797 210.708 568.985 207.598 569.028C204.48 569.096 201.413 569.028 198.584 568.951C194.035 568.917 180.974 569.709 183.248 571.541C184.654 570.697 187.704 570.34 191.427 570.144C195.151 569.973 199.547 569.939 203.645 570.05C207.743 570.135 211.534 570.203 214.065 570.024C216.578 569.854 217.839 569.496 216.868 568.593ZM210.461 574.881C205.92 575.528 200.246 575.332 194.58 575.63C192.876 575.613 191.18 576.201 188.914 576.176C186.077 576.295 184.382 576.576 182.107 576.764L183.811 577.045C179.84 576.934 177.574 577.845 173.613 577.59C173.613 577.743 173.05 578.041 172.479 578.05C169.651 578.203 166.814 577.99 164.547 578.348C161.719 578.57 158.882 578.646 156.624 578.995C156.053 579.013 154.928 579.481 153.795 579.669C152.415 579.779 151.026 579.882 149.655 579.984C149.723 580.018 149.774 580.061 149.825 580.095C150.95 580.052 152.091 579.992 153.233 579.847C156.632 579.447 160.594 579.055 163.985 578.808C168.236 578.527 172.343 578.246 176.381 577.982C180.42 577.701 184.382 577.317 188.352 577.079C190.047 576.942 191.76 576.661 193.455 576.525C196.011 576.261 198.848 576.133 201.464 576.031C204.088 575.92 206.499 575.767 208.203 575.281C208.765 575.128 209.89 575.153 210.461 574.881ZM141.425 580.325C141.39 580.308 141.356 580.291 141.331 580.282C141.331 580.308 141.339 580.325 141.339 580.35C141.373 580.342 141.399 580.325 141.425 580.325ZM125.842 578.093C124.87 578.093 123.814 578.118 122.715 578.195C121.616 578.28 120.457 578.391 119.256 578.519C116.879 578.808 114.357 579.123 111.886 579.421C111.861 579.464 111.844 579.507 111.844 579.533C113.923 579.439 116.231 579.209 118.617 578.928C121.011 578.664 123.473 578.323 125.842 578.093ZM112.593 578.911C113.173 578.8 113.769 578.68 114.374 578.561C114.28 578.527 114.187 578.51 114.101 578.476C113.548 578.519 113.011 578.698 112.593 578.911ZM302.841 579.643C299.757 579.447 296.699 579.277 293.683 579.132C290.658 579.013 287.676 578.953 284.745 578.902C281.772 578.604 278.824 578.289 275.919 578.076C273.013 577.871 270.134 577.692 267.314 577.556C261.665 577.24 256.212 577.292 251.058 577.505C246.517 577.718 240.28 577.633 234.044 577.633C230.925 577.616 227.807 577.735 224.902 577.939C221.997 578.144 219.304 578.467 217.03 578.97C218.001 579.072 218.938 579.141 219.833 579.175C218.504 579.32 217.251 579.498 216.075 579.729C201.115 579.814 186.426 579.933 171.15 580.172C168.884 580.172 167.189 580.7 164.922 580.751C162.63 580.836 160.373 580.93 158.123 581.006C158.115 581.041 158.14 581.075 158.209 581.109C153.548 581.288 148.922 581.654 144.262 582.003C141.927 582.191 139.584 582.344 137.224 582.591C134.864 582.847 132.479 583.094 130.076 583.349C127.818 583.554 125.552 583.69 123.286 583.81C121.028 583.963 118.762 584.116 116.504 584.27C114.809 584.397 114.792 583.801 113.658 583.733C111.392 583.537 109.407 583.341 107.345 583.23C105.283 583.136 103.162 583.119 100.615 583.196C100.615 583.196 100.606 582.898 100.606 582.745C99.8307 582.864 99.1236 582.923 98.5527 582.932C100.938 581.032 107.132 579.865 100.538 579.32C100.904 579.226 101.228 579.149 101.543 579.072C101.586 579.072 101.611 579.072 101.654 579.064C101.654 579.064 101.654 579.055 101.645 579.047C103.187 578.655 104.108 578.28 105.028 577.709C104.039 577.803 103.043 577.888 102.046 577.982C102.233 577.752 102.344 577.53 102.242 577.334C102.327 577.292 102.404 577.241 102.497 577.19C102.94 577.156 103.307 577.113 103.307 577.113C103.443 576.985 103.554 576.866 103.622 576.738C104.908 576.303 106.578 575.894 107.831 575.545C109.075 575.213 109.901 574.906 109.501 574.634C108.887 574.361 106.987 574.778 104.84 575.179C104.713 575.136 104.559 575.094 104.406 575.077C107.234 574.668 104.38 574.029 106.076 573.731C108.342 573.518 110.608 573.219 112.875 573.04C122.11 572.282 129.897 571.703 138.971 570.74C139.371 570.706 139.772 570.672 140.164 570.638C144.568 570.263 148.726 570.058 153.037 569.99C152.764 570.101 152.475 570.212 152.185 570.314C155.653 570.271 159.129 570.254 162.605 569.922C164.735 569.726 166.865 569.522 169.003 569.317C171.142 569.164 173.289 569.01 175.453 568.857C179.781 568.593 184.186 568.312 188.727 568.303C193.489 568.252 198.167 568.192 202.861 568.133C207.556 568.056 212.267 567.98 217.106 567.894C213.153 568.082 209.2 568.321 205.144 568.312C203.33 568.261 201.515 568.192 199.751 568.201C201.575 568.278 203.364 568.321 205.144 568.312C208.646 568.423 212.19 568.567 215.539 568.533C218.887 568.55 222.039 568.372 224.74 567.784C225.319 567.929 225.319 568.082 225.89 568.107C227.884 568.193 229.869 568.278 231.786 568.354C233.703 568.431 235.552 568.423 237.256 568.227C237.256 568.073 238.968 568.175 238.406 567.843C241.814 567.911 245.801 568.082 249.209 568.065C250.691 568.082 252.165 567.903 253.648 567.664C256.698 567.698 259.748 567.724 262.807 567.767C265.865 567.852 268.924 567.937 272.025 568.014C278.219 568.133 284.524 568.508 291.11 568.823C294.381 569.019 298.138 569.539 301.444 569.939C296.562 569.777 291.544 569.615 286.449 569.462C281.516 568.814 276.796 568.286 272.877 568.729C271.965 568.78 271.062 568.832 270.159 568.883C272.903 568.968 275.638 569.053 278.355 569.13C281.073 569.241 283.774 569.351 286.449 569.454C289.363 569.837 292.345 570.229 295.267 570.621C295.208 570.621 295.148 570.621 295.088 570.629C292.788 570.544 290.462 570.467 288.128 570.382C283.748 569.828 279.523 569.317 275.893 569.513C275.442 569.539 274.99 569.573 274.556 569.615C273.652 569.666 272.741 569.718 271.838 569.769C273.533 569.82 275.22 569.879 276.907 569.922C278.585 569.99 280.264 570.058 281.934 570.135C284.004 570.22 286.074 570.297 288.128 570.382C289.414 570.552 290.718 570.723 292.021 570.902C291.885 570.927 291.74 570.944 291.612 570.97C290.462 570.995 287.233 572.393 288.92 573.032C293.291 573.449 298.539 573.978 302.697 574.318C304.775 574.497 306.582 574.651 307.868 574.761C308.516 574.812 309.027 574.872 309.376 574.923C309.555 574.949 309.691 574.966 309.777 574.983C309.87 575 309.913 575.017 309.913 575.017C310.458 575.63 295.463 574.574 296.026 574.787C296.86 574.949 297.695 575.111 298.539 575.273C297.738 575.298 296.954 575.315 296.239 575.375C294.535 575.306 292.268 574.881 291.127 575.06C287.131 575.528 282.607 574.736 278.049 574.838C275.195 575.008 271.787 575.306 268.37 575.588C268.362 575.886 266.658 575.579 267.22 575.929C265.618 575.784 263.897 575.622 262.398 575.596C260.898 575.579 259.629 575.707 258.93 576.091C258.854 576.091 258.777 576.091 258.7 576.091C258.479 576.073 258.155 576.099 257.806 576.142C252.481 575.605 248.758 576.099 243.918 576.397C242.257 576.372 240.57 576.329 238.832 576.227C239.965 576.295 241.66 576.542 242.802 576.457C243.177 576.431 243.552 576.423 243.918 576.397C248.229 576.431 252.327 576.406 256.425 576.372C256.758 576.312 257.303 576.201 257.806 576.142C258.104 576.176 258.393 576.21 258.692 576.244C258.76 576.192 258.845 576.133 258.93 576.091C259.91 576.056 260.924 576.048 261.946 576.039C262.969 576.056 263.991 576.073 264.996 576.091C267.015 576.125 268.958 576.159 270.628 576.091C276.933 576.116 283.629 577.138 290.036 577.905C286.841 577.828 283.68 577.76 280.588 577.692C284.464 577.837 288.119 577.973 291.672 578.101C292.217 578.161 292.762 578.229 293.299 578.289L296.699 578.715C295.642 578.536 294.594 578.339 293.555 578.161C295.676 578.237 297.772 578.323 299.834 578.399C302.68 578.578 305.551 578.791 308.43 579.013C311.31 579.294 314.207 579.6 317.095 579.933C322.889 580.563 328.682 581.483 334.424 582.506C334.194 582.651 333.922 582.787 333.632 582.923C330.863 582.532 328.094 582.105 325.453 581.807C322.812 581.484 320.282 581.364 317.998 581.424C321.193 581.892 323.417 581.901 326.501 582.387C326.493 582.472 326.518 582.599 326.262 582.616C328.239 582.761 330.548 582.966 332.789 583.281C332.056 583.554 331.238 583.81 330.42 584.057C329.27 584.167 327.583 583.903 325.871 583.784C322.199 583.324 318.629 582.881 315.067 582.446C311.515 582.003 307.97 581.543 304.349 581.305C301.129 580.879 297.908 580.453 294.705 580.027C291.501 579.601 288.307 579.286 285.146 578.945C291.442 579.192 297.227 579.413 302.85 579.634H302.841V579.643Z" fill="#D7F9F1"/>
<path d="M292.395 577.999C294.849 578.101 297.32 578.254 299.808 578.408C301.733 578.442 303.65 578.493 305.558 578.527C314.683 578.928 325.29 580.725 335.063 581.969C335.369 581.577 335.429 581.134 335.097 580.623C329.806 579.558 324.506 578.715 319.199 578.118C313.891 577.488 308.583 576.815 303.284 576.065C303.198 576.065 303.113 576.073 303.028 576.082C300.745 576.244 297.763 576.022 294.644 575.758C291.526 575.494 288.255 575.29 285.409 575.349C282.563 575.494 279.718 575.468 276.872 575.46C274.026 575.485 271.189 575.486 268.344 575.596C270.397 575.775 272.416 575.937 274.427 576.108C275.432 576.184 276.429 576.261 277.434 576.346C278.431 576.44 279.428 576.533 280.425 576.627C284.404 577.019 288.365 577.436 292.395 577.999Z" fill="#D7F9F1"/>
<path d="M226.161 579.78C228.376 579.798 230.608 579.755 232.858 579.815C235.984 579.815 238.941 579.789 241.821 579.729C244.709 579.67 247.512 579.61 250.357 579.55C246.191 579.329 242 579.107 237.782 578.877C235.669 578.835 233.71 578.946 231.81 579.124C229.91 579.295 228.053 579.576 226.161 579.78Z" fill="#D7F9F1"/>
<path d="M254.976 579.448C253.417 579.482 251.883 579.516 250.358 579.558C256.535 579.899 262.669 580.155 268.778 580.564L276.327 580.811L283.875 581.16L298.981 581.876C300.122 581.953 301.256 582.029 302.389 582.097C283.705 579.55 265.038 577.565 249.114 578.391C248.825 578.408 248.492 578.417 248.186 578.425C255.751 578.851 263.232 579.277 270.686 579.695L262.823 579.473C260.216 579.422 257.6 579.439 254.976 579.448Z" fill="#D7F9F1"/>
<path d="M290.017 577.913C290.562 577.981 291.107 578.041 291.652 578.1C292.291 578.126 292.913 578.143 293.535 578.16C293.152 578.1 292.769 578.049 292.394 577.981C291.601 577.955 290.8 577.93 290.017 577.913Z" fill="#D7F9F1"/>
<path d="M273.958 572.368C273.89 572.36 273.822 572.343 273.745 572.334C271.947 572.24 270.124 572.155 268.275 572.061C265.728 572.113 263.07 572.061 260.36 572.036C265.276 572.257 270.141 572.573 273.958 572.368Z" fill="#D7F9F1"/>
<path d="M258.3 567.426C257.729 567.383 256.596 567.298 256.025 567.255C255.675 567.315 255.335 567.383 254.985 567.443C255.514 567.485 256.059 567.545 256.596 567.596L258.3 567.426Z" fill="#D7F9F1"/>
<path d="M224.703 567.801C227.225 567.767 229.704 567.724 232.158 567.69C234.603 567.681 237.032 567.673 239.426 567.656C241.82 567.639 244.197 567.622 246.565 567.622C248.925 567.647 251.277 567.664 253.62 567.69C254.071 567.613 254.531 567.528 254.991 567.451C251.848 567.179 248.721 566.948 245.654 566.889C242.587 566.855 239.579 566.923 236.691 567.17C235.549 567.255 233.837 567.605 232.703 567.536C227.319 567.409 222.19 567.707 217.078 567.911C219.523 567.877 221.986 567.843 224.516 567.809C224.567 567.8 224.635 567.801 224.703 567.801Z" fill="#D7F9F1"/>
<path d="M24.8681 182V43.2298C22.412 46.1635 19.0349 48.5513 14.7367 50.3934C10.4385 52.1673 6.37906 53.0542 2.55845 53.0542V24.2973C6.17439 23.7515 10.0632 22.5916 14.225 20.8178C18.3867 18.9757 22.2414 16.4855 25.7892 13.3471C29.4051 10.1405 32.1682 6.28578 34.0785 1.78291H63.0402V182H24.8681Z" fill="#16B25E"/>
<path d="M78.5654 170.584L82.5498 129.334H96.542L100.456 170.584H92.6514L92.0654 163.928H87.0967L86.5811 170.584H78.5654ZM87.6826 157.342H91.4326L89.6279 136.366H89.2529L87.6826 157.342ZM102.987 170.584V129.334H113.886C116.167 129.334 117.972 129.842 119.3 130.858C120.644 131.874 121.604 133.319 122.183 135.194C122.761 137.069 123.05 139.303 123.05 141.897C123.05 144.397 122.808 146.577 122.323 148.436C121.839 150.28 120.972 151.709 119.722 152.725C118.487 153.741 116.729 154.249 114.448 154.249H111.097V170.584H102.987ZM111.097 146.842H111.565C113.097 146.842 114.034 146.413 114.378 145.553C114.722 144.694 114.894 143.428 114.894 141.756C114.894 140.194 114.722 138.991 114.378 138.147C114.05 137.288 113.261 136.858 112.011 136.858H111.097V146.842ZM125.675 170.584V129.334H136.573C138.854 129.334 140.659 129.842 141.987 130.858C143.331 131.874 144.292 133.319 144.87 135.194C145.448 137.069 145.737 139.303 145.737 141.897C145.737 144.397 145.495 146.577 145.011 148.436C144.526 150.28 143.659 151.709 142.409 152.725C141.175 153.741 139.417 154.249 137.136 154.249H133.784V170.584H125.675ZM133.784 146.842H134.253C135.784 146.842 136.722 146.413 137.065 145.553C137.409 144.694 137.581 143.428 137.581 141.756C137.581 140.194 137.409 138.991 137.065 138.147C136.737 137.288 135.948 136.858 134.698 136.858H133.784V146.842ZM148.362 170.584V129.334H156.612V163.553H165.097V170.584H148.362ZM170.933 170.584V157.014L164.347 129.334H172.526L174.823 143.303L177.12 129.334H185.276L178.714 157.014V170.584H170.933Z" fill="#F5F5F5"/>
<path d="M4.43054 208.156C3.90231 208.199 3.4082 208.25 3.4082 208.25C3.4082 208.293 3.41669 208.352 3.42521 208.395C3.80008 208.301 4.12383 208.224 4.43054 208.156Z" fill="#D7F9F1"/>
<path d="M5.39283 206.283C5.28183 206.291 5.17936 206.308 5.06836 206.317C5.10251 206.351 5.11107 206.394 5.13668 206.428C5.21353 206.376 5.29037 206.325 5.39283 206.283Z" fill="#D7F9F1"/>
<path d="M3.43338 208.403C3.5271 208.948 3.96163 209.451 3.45896 210.039C2.89665 210.09 1.76349 210.201 1.20119 210.252C0.647396 210.601 1.21825 210.848 1.22677 211.146C0.66446 211.197 0.093625 211.248 0.102145 211.393C-0.255688 211.819 0.357711 212.015 1.45677 212.007C3.84233 210.115 10.0363 208.948 3.43338 208.403Z" fill="#D7F9F1"/>
<path d="M7.91401 206.785C6.92571 206.879 5.92889 206.964 4.93207 207.058C4.63387 207.433 4.22489 207.816 4.53161 208.123C6.0737 207.731 7.00239 207.364 7.91401 206.785Z" fill="#D7F9F1"/>
<path d="M238.904 213.711C238.904 213.617 238.964 213.583 239.466 213.796C239.271 213.762 239.083 213.737 238.904 213.711C238.896 213.796 238.921 213.924 238.666 213.941C240.642 214.086 242.951 214.29 245.183 214.597C245.482 214.486 245.771 214.367 246.027 214.256C240.489 213.472 234.959 212.56 230.401 212.68C233.605 213.148 235.82 213.259 238.904 213.711Z" fill="#D7F9F1"/>
<path d="M246.503 213.421C246.699 213.455 246.878 213.472 247.065 213.507C246.571 213.294 246.511 213.328 246.503 213.421Z" fill="#D7F9F1"/>
<path d="M147.692 205.678C144.267 205.618 141.259 205.933 138.218 206.291C144.667 206.231 151.279 206.376 156.203 206.146C153.375 205.984 150.546 205.839 147.692 205.678Z" fill="#D7F9F1"/>
<path d="M123.102 207.628C127.336 208.071 130.829 207.85 134.16 207.475C130.769 207.458 127.404 207.449 124.056 207.441C123.741 207.492 123.408 207.552 123.102 207.628Z" fill="#D7F9F1"/>
<path d="M127.808 206.886C131.684 207.057 134.964 206.682 138.219 206.273C134.564 206.366 131.003 206.528 127.808 206.886Z" fill="#D7F9F1"/>
<path d="M204.91 199.287C207.483 199.185 209.033 199.185 209.911 199.245C210.303 199.083 210.831 198.896 211.538 198.666C211.393 198.648 211.231 198.631 211.086 198.614C208.445 198.555 205.762 198.461 203.044 198.35C201.936 198.393 200.871 198.461 199.977 198.623C201.629 198.844 203.282 199.066 204.91 199.287Z" fill="#D7F9F1"/>
<path d="M193.12 206.657C192.993 206.64 192.865 206.622 192.729 206.622C192.354 206.622 191.962 206.606 191.587 206.597C192.115 206.614 192.609 206.631 193.12 206.657Z" fill="#D7F9F1"/>
<path d="M161.646 199.559C163.887 199.67 166.136 199.73 168.342 199.747C163.784 199.568 159.201 199.372 155.384 199.534C155.946 199.576 156.517 199.772 157.079 199.806C158.229 199.593 159.933 199.423 161.646 199.559Z" fill="#D7F9F1"/>
<path d="M147.999 200.744C149.848 200.591 151.731 200.489 153.631 200.429C155.531 200.369 157.448 200.395 159.365 200.412C163.198 200.455 167.032 200.506 170.73 200.548C176.413 200.642 182.632 201.894 187.77 201.4L187.778 200.949L187.207 201.043C185.214 200.719 183.62 200.361 181.951 200.08C182.044 200.08 182.147 200.071 182.24 200.063C182.07 200.063 181.908 200.046 181.738 200.037C180.622 199.858 179.471 199.73 178.134 199.722C177.52 199.739 176.898 199.747 176.268 199.756C169.171 199.313 161.835 199.091 155.394 199.526C151.416 199.713 147.991 200.284 144.012 200.497C145.153 200.582 146.857 200.821 147.999 200.744ZM172.306 196.408C169.921 196.408 167.612 196.476 164.911 196.263C167.373 196.297 169.844 196.306 172.306 196.408ZM124.868 196.297C121.869 196.501 118.708 196.689 115.598 196.731C112.48 196.8 109.413 196.732 106.584 196.655C102.035 196.621 88.9736 197.413 91.2484 199.245C92.6542 198.401 95.7043 198.044 99.4275 197.848C103.151 197.677 107.547 197.643 111.645 197.754C115.743 197.839 119.534 197.907 122.065 197.728C124.578 197.558 125.839 197.2 124.868 196.297ZM118.461 202.585C113.92 203.232 108.246 203.036 102.58 203.334C100.876 203.317 99.1804 203.905 96.9142 203.88C94.077 203.999 92.3816 204.28 90.1068 204.468L91.8107 204.749C87.8405 204.638 85.5742 205.549 81.6125 205.294C81.6125 205.447 81.0502 205.745 80.4793 205.754C77.6508 205.907 74.8137 205.694 72.5474 206.052C69.7188 206.274 66.8817 206.35 64.6239 206.699C64.0531 206.716 62.9285 207.185 61.7953 207.373C60.4151 207.483 59.0264 207.586 57.6547 207.688C57.7229 207.722 57.774 207.764 57.8251 207.799C58.9497 207.756 60.0914 207.696 61.2331 207.551C64.6325 207.151 68.5942 206.759 71.9851 206.512C76.2365 206.231 80.343 205.95 84.3814 205.686C88.4199 205.404 92.3816 205.021 96.3518 204.782C98.0473 204.646 99.7597 204.365 101.455 204.229C104.011 203.965 106.848 203.837 109.464 203.735C112.088 203.624 114.499 203.471 116.203 202.985C116.765 202.832 117.89 202.857 118.461 202.585ZM49.4245 208.029C49.3904 208.012 49.3564 207.995 49.3308 207.986C49.3308 208.012 49.3393 208.029 49.3393 208.054C49.3734 208.046 49.399 208.029 49.4245 208.029ZM33.8418 205.797C32.8705 205.797 31.814 205.822 30.715 205.899C29.6159 205.984 28.4572 206.095 27.2559 206.223C24.8789 206.512 22.357 206.827 19.8863 207.125C19.8607 207.168 19.8437 207.211 19.8437 207.237C21.9225 207.143 24.2314 206.913 26.6169 206.632C29.011 206.368 31.4732 206.027 33.8418 205.797ZM20.5934 206.615C21.1728 206.504 21.7691 206.384 22.374 206.265C22.2803 206.231 22.1866 206.214 22.1014 206.18C21.5477 206.222 21.0109 206.402 20.5934 206.615ZM210.841 207.347C207.757 207.151 204.699 206.981 201.683 206.836C198.658 206.717 195.676 206.657 192.745 206.606C189.772 206.308 186.824 205.993 183.919 205.78C181.013 205.575 178.134 205.396 175.314 205.26C169.665 204.944 164.212 204.995 159.058 205.208C154.517 205.421 148.28 205.337 142.044 205.337C138.925 205.32 135.807 205.439 132.902 205.643C129.997 205.848 127.304 206.171 125.03 206.674C126.001 206.776 126.938 206.845 127.833 206.879C126.504 207.024 125.251 207.202 124.075 207.432C109.115 207.518 94.4263 207.637 79.1503 207.875C76.884 207.875 75.1885 208.403 72.9223 208.455C70.6304 208.54 68.3727 208.634 66.1234 208.71C66.1149 208.745 66.1405 208.779 66.2086 208.813C61.5483 208.992 56.922 209.358 52.2616 209.707C49.9272 209.895 47.5842 210.048 45.2242 210.295C42.8643 210.551 40.4787 210.798 38.0761 211.053C35.8184 211.258 33.5521 211.394 31.2858 211.513C29.028 211.667 26.7617 211.82 24.504 211.974C22.8085 212.101 22.7915 211.505 21.6584 211.437C19.3921 211.241 17.407 211.045 15.3452 210.934C13.2834 210.84 11.162 210.823 8.61452 210.9C8.61452 210.9 8.60599 210.602 8.60599 210.449C7.83069 210.568 7.12356 210.627 6.55273 210.636C8.93829 208.736 15.1322 207.569 8.53782 207.024C8.90417 206.93 9.22792 206.853 9.54315 206.776C9.58575 206.776 9.61132 206.776 9.65392 206.768C9.65392 206.768 9.65391 206.759 9.64539 206.751C11.1875 206.359 12.1076 205.984 13.0278 205.413C12.0395 205.507 11.0427 205.592 10.0458 205.686C10.2333 205.456 10.344 205.234 10.2418 205.038C10.327 204.996 10.4037 204.945 10.4974 204.894C10.9404 204.859 11.3068 204.817 11.3068 204.817C11.4431 204.689 11.5538 204.57 11.622 204.442C12.9085 204.007 14.5784 203.598 15.8308 203.249C17.0747 202.917 17.9011 202.61 17.5007 202.338C16.8873 202.065 14.9873 202.482 12.8403 202.883C12.7125 202.84 12.5592 202.798 12.4059 202.781C15.2344 202.372 12.3803 201.733 14.0757 201.434C16.342 201.221 18.6083 200.923 20.8746 200.744C30.1101 199.986 37.8972 199.407 46.9709 198.444C47.3713 198.41 47.7717 198.376 48.1636 198.342C52.5684 197.967 56.726 197.762 61.0371 197.694C60.7644 197.805 60.4748 197.916 60.1851 198.018C63.6527 197.975 67.1288 197.958 70.6049 197.626C72.7348 197.43 74.8648 197.226 77.0033 197.021C79.1418 196.868 81.2887 196.714 83.4528 196.561C87.7808 196.297 92.1856 196.016 96.7267 196.007C101.489 195.956 106.167 195.896 110.861 195.837C115.556 195.76 120.267 195.683 125.106 195.598C121.153 195.786 117.2 196.024 113.144 196.016C111.33 195.965 109.515 195.896 107.751 195.905C109.575 195.982 111.364 196.024 113.144 196.016C116.646 196.127 120.19 196.271 123.539 196.237C126.887 196.254 130.039 196.075 132.74 195.488C133.319 195.632 133.319 195.786 133.89 195.811C135.884 195.896 137.869 195.982 139.786 196.058C141.703 196.135 143.552 196.127 145.256 195.931C145.256 195.777 146.968 195.879 146.406 195.547C149.814 195.615 153.801 195.786 157.209 195.769C158.691 195.786 160.165 195.607 161.648 195.368C164.698 195.402 167.748 195.428 170.807 195.471C173.865 195.556 176.924 195.641 180.025 195.718C186.219 195.837 192.524 196.212 199.11 196.527C202.381 196.723 206.138 197.243 209.444 197.643C204.562 197.481 199.544 197.319 194.449 197.166C189.516 196.518 184.796 195.99 180.877 196.433C179.965 196.484 179.062 196.536 178.159 196.587C180.903 196.672 183.638 196.757 186.355 196.834C189.073 196.945 191.774 197.055 194.449 197.157C197.363 197.541 200.345 197.933 203.267 198.325C203.208 198.325 203.148 198.325 203.088 198.333C200.788 198.248 198.462 198.171 196.128 198.086C191.748 197.532 187.523 197.021 183.893 197.217C183.442 197.243 182.99 197.277 182.556 197.319C181.652 197.37 180.741 197.422 179.838 197.473C181.533 197.524 183.22 197.583 184.907 197.626C186.585 197.694 188.264 197.762 189.934 197.839C192.004 197.924 194.074 198.001 196.128 198.086C197.414 198.256 198.718 198.427 200.021 198.606C199.885 198.631 199.74 198.648 199.612 198.674C198.462 198.699 195.233 200.097 196.92 200.736C201.291 201.153 206.539 201.681 210.697 202.022C212.775 202.201 214.582 202.355 215.868 202.465C216.516 202.516 217.027 202.576 217.376 202.627C217.555 202.653 217.691 202.67 217.777 202.687C217.87 202.704 217.913 202.721 217.913 202.721C218.458 203.334 203.463 202.278 204.026 202.491C204.86 202.653 205.695 202.815 206.539 202.977C205.738 203.002 204.954 203.019 204.239 203.079C202.535 203.01 200.268 202.585 199.127 202.764C195.131 203.232 190.607 202.44 186.049 202.542C183.195 202.712 179.787 203.01 176.37 203.292C176.362 203.59 174.658 203.283 175.22 203.633C173.618 203.488 171.897 203.326 170.398 203.3C168.898 203.283 167.629 203.411 166.93 203.794C166.854 203.794 166.777 203.794 166.7 203.794C166.479 203.777 166.155 203.803 165.806 203.846C160.481 203.309 156.758 203.803 151.918 204.101C150.257 204.076 148.57 204.033 146.832 203.93C147.965 203.999 149.66 204.246 150.802 204.161C151.177 204.135 151.552 204.127 151.918 204.101C156.229 204.135 160.327 204.11 164.425 204.076C164.758 204.016 165.303 203.905 165.806 203.846C166.104 203.88 166.393 203.913 166.692 203.948C166.76 203.896 166.845 203.837 166.93 203.794C167.91 203.76 168.924 203.752 169.946 203.743C170.969 203.76 171.991 203.777 172.996 203.794C175.015 203.829 176.958 203.863 178.628 203.794C184.933 203.82 191.629 204.842 198.036 205.609C194.841 205.532 191.68 205.464 188.588 205.396C192.464 205.541 196.119 205.677 199.672 205.805C200.217 205.865 200.762 205.933 201.299 205.993L204.699 206.419C203.642 206.24 202.594 206.043 201.555 205.865C203.676 205.941 205.772 206.027 207.834 206.103C210.68 206.282 213.551 206.495 216.43 206.717C219.31 206.998 222.207 207.304 225.095 207.637C230.889 208.267 236.682 209.187 242.424 210.21C242.194 210.355 241.922 210.491 241.632 210.627C238.863 210.235 236.094 209.809 233.453 209.511C230.812 209.187 228.282 209.068 225.998 209.128C229.193 209.596 231.417 209.605 234.501 210.091C234.493 210.176 234.518 210.303 234.262 210.32C236.239 210.465 238.548 210.67 240.789 210.985C240.056 211.258 239.238 211.514 238.42 211.761C237.27 211.871 235.583 211.607 233.871 211.488C230.199 211.028 226.629 210.585 223.067 210.15C219.515 209.707 215.97 209.247 212.349 209.009C209.129 208.583 205.908 208.157 202.705 207.731C199.501 207.305 196.307 206.989 193.146 206.649C199.442 206.896 205.227 207.117 210.85 207.338H210.841V207.347Z" fill="#D7F9F1"/>
<path d="M200.395 205.703C202.849 205.805 205.32 205.958 207.808 206.112C209.733 206.146 211.65 206.197 213.558 206.231C222.683 206.631 233.29 208.429 243.063 209.673C243.369 209.281 243.429 208.838 243.097 208.327C237.806 207.262 232.506 206.418 227.199 205.822C221.891 205.192 216.583 204.518 211.284 203.769C211.198 203.769 211.113 203.777 211.028 203.786C208.745 203.948 205.763 203.726 202.644 203.462C199.526 203.198 196.255 202.994 193.409 203.053C190.563 203.198 187.718 203.172 184.872 203.164C182.026 203.189 179.189 203.189 176.344 203.3C178.397 203.479 180.416 203.641 182.427 203.812C183.432 203.888 184.429 203.965 185.434 204.05C186.431 204.144 187.428 204.237 188.425 204.331C192.404 204.723 196.365 205.14 200.395 205.703Z" fill="#D7F9F1"/>
<path d="M134.161 207.484C136.376 207.501 138.608 207.459 140.858 207.519C143.984 207.519 146.941 207.493 149.821 207.433C152.709 207.374 155.512 207.314 158.357 207.254C154.191 207.033 150 206.811 145.782 206.581C143.669 206.539 141.71 206.649 139.81 206.828C137.91 206.999 136.053 207.28 134.161 207.484Z" fill="#D7F9F1"/>
<path d="M162.976 207.152C161.417 207.186 159.883 207.22 158.358 207.262C164.535 207.603 170.669 207.859 176.778 208.268L184.327 208.515L191.875 208.864L206.981 209.58C208.122 209.656 209.256 209.733 210.389 209.801C191.705 207.254 173.038 205.268 157.114 206.095C156.825 206.112 156.492 206.121 156.186 206.129C163.751 206.555 171.232 206.981 178.686 207.399L170.823 207.177C168.216 207.126 165.6 207.143 162.976 207.152Z" fill="#D7F9F1"/>
<path d="M198.017 205.617C198.562 205.685 199.107 205.745 199.652 205.804C200.291 205.83 200.913 205.847 201.535 205.864C201.152 205.804 200.769 205.753 200.394 205.685C199.601 205.659 198.8 205.634 198.017 205.617Z" fill="#D7F9F1"/>
<path d="M181.958 200.072C181.89 200.064 181.822 200.046 181.745 200.038C179.947 199.944 178.124 199.859 176.275 199.765C173.728 199.817 171.07 199.765 168.36 199.74C173.276 199.961 178.141 200.276 181.958 200.072Z" fill="#D7F9F1"/>
<path d="M166.3 195.129C165.729 195.087 164.596 195.001 164.025 194.959C163.675 195.019 163.335 195.087 162.985 195.146C163.514 195.189 164.059 195.248 164.596 195.3L166.3 195.129Z" fill="#D7F9F1"/>
<path d="M132.703 195.505C135.225 195.47 137.704 195.428 140.158 195.394C142.603 195.385 145.032 195.377 147.426 195.36C149.82 195.343 152.197 195.326 154.565 195.326C156.925 195.351 159.277 195.368 161.62 195.394C162.071 195.317 162.531 195.232 162.991 195.155C159.848 194.882 156.721 194.652 153.654 194.593C150.587 194.559 147.579 194.627 144.691 194.874C143.549 194.959 141.837 195.309 140.703 195.24C135.319 195.113 130.19 195.411 125.078 195.615C127.523 195.581 129.986 195.547 132.516 195.513C132.567 195.504 132.635 195.505 132.703 195.505Z" fill="#D7F9F1"/>
</svg>
