<svg width="377" height="1347" viewBox="0 0 377 1347" fill="none" xmlns="http://www.w3.org/2000/svg">
<path d="M125.696 1213.25H150.427V1163.79H150.008L125.696 1213.25ZM96.3534 1241.33V1211.99L143.301 1123.55H185.638V1213.25H198.632V1241.33H185.638V1269H149.17V1241.33H96.3534Z" fill="#E4DD67"/>
<path d="M204.318 1299.29L212.67 1265.02H223.902L232.254 1299.29H222.75L221.838 1293.29H214.734L213.822 1299.29H204.318ZM220.782 1286.57L218.334 1272.03H218.238L215.79 1286.57H220.782ZM233.726 1299.29V1265.02H243.71L249.47 1286.14H249.566V1265.02H257.918V1299.29H248.126L242.174 1278.12H242.078V1299.29H233.726ZM259.397 1299.29L267.749 1265.02H278.981L287.333 1299.29H277.829L276.917 1293.29H269.813L268.901 1299.29H259.397ZM275.861 1286.57L273.413 1272.03H273.317L270.869 1286.57H275.861ZM288.804 1299.29V1265.02H297.732V1291.99H308.724V1299.29H288.804ZM312.521 1299.29V1285.8L303.785 1265.02H313.577L316.937 1276.97H317.033L320.393 1265.02H330.185L321.449 1285.8V1299.29H312.521ZM330.402 1299.29V1292.86L341.154 1272.31H331.122V1265.02H351.57V1271.45L340.626 1291.99H351.57V1299.29H330.402ZM354.664 1299.29V1265.02H374.968V1272.31H363.592V1278.17H374.248V1285.18H363.592V1291.99H375.4V1299.29H354.664Z" fill="#F5F5F5"/>
<path d="M97.4305 1339.86C96.9023 1339.9 96.4082 1339.95 96.4082 1339.95C96.4082 1340 96.4167 1340.06 96.4252 1340.1C96.8001 1340.01 97.1238 1339.93 97.4305 1339.86Z" fill="#F5F5F5"/>
<path d="M98.3928 1337.99C98.2818 1337.99 98.1794 1338.01 98.0684 1338.02C98.1025 1338.05 98.1111 1338.1 98.1367 1338.13C98.2135 1338.08 98.2904 1338.03 98.3928 1337.99Z" fill="#F5F5F5"/>
<path d="M96.4334 1340.11C96.5271 1340.65 96.9616 1341.16 96.459 1341.74C95.8967 1341.79 94.7635 1341.91 94.2012 1341.96C93.6474 1342.31 94.2183 1342.55 94.2268 1342.85C93.6645 1342.9 93.0936 1342.95 93.1021 1343.1C92.7443 1343.52 93.3577 1343.72 94.4568 1343.71C96.8423 1341.82 103.036 1340.65 96.4334 1340.11Z" fill="#F5F5F5"/>
<path d="M100.914 1338.49C99.9257 1338.58 98.9289 1338.67 97.9321 1338.76C97.6339 1339.14 97.2249 1339.52 97.5316 1339.83C99.0737 1339.44 100.002 1339.07 100.914 1338.49Z" fill="#F5F5F5"/>
<path d="M331.904 1345.41C331.904 1345.32 331.964 1345.29 332.466 1345.5C332.271 1345.47 332.083 1345.44 331.904 1345.41C331.896 1345.5 331.921 1345.63 331.666 1345.64C333.642 1345.79 335.951 1345.99 338.183 1346.3C338.482 1346.19 338.771 1346.07 339.027 1345.96C333.489 1345.18 327.959 1344.26 323.401 1344.38C326.605 1344.85 328.82 1344.96 331.904 1345.41Z" fill="#F5F5F5"/>
<path d="M339.503 1345.13C339.699 1345.16 339.878 1345.18 340.065 1345.21C339.571 1345 339.511 1345.03 339.503 1345.13Z" fill="#F5F5F5"/>
<path d="M240.692 1337.38C237.267 1337.32 234.259 1337.64 231.218 1338C237.667 1337.94 244.279 1338.08 249.203 1337.85C246.375 1337.69 243.546 1337.54 240.692 1337.38Z" fill="#F5F5F5"/>
<path d="M216.102 1339.33C220.336 1339.78 223.829 1339.55 227.16 1339.18C223.769 1339.16 220.404 1339.15 217.056 1339.14C216.741 1339.2 216.408 1339.26 216.102 1339.33Z" fill="#F5F5F5"/>
<path d="M220.808 1338.59C224.684 1338.76 227.964 1338.39 231.219 1337.98C227.564 1338.07 224.003 1338.23 220.808 1338.59Z" fill="#F5F5F5"/>
<path d="M297.91 1330.99C300.483 1330.89 302.033 1330.89 302.911 1330.95C303.303 1330.79 303.831 1330.6 304.538 1330.37C304.393 1330.35 304.231 1330.34 304.086 1330.32C301.445 1330.26 298.762 1330.17 296.044 1330.05C294.936 1330.1 293.871 1330.17 292.977 1330.33C294.629 1330.55 296.282 1330.77 297.91 1330.99Z" fill="#F5F5F5"/>
<path d="M286.12 1338.36C285.993 1338.34 285.865 1338.33 285.729 1338.33C285.354 1338.33 284.962 1338.31 284.587 1338.3C285.115 1338.32 285.609 1338.33 286.12 1338.36Z" fill="#F5F5F5"/>
<path d="M254.646 1331.26C256.887 1331.37 259.136 1331.43 261.342 1331.45C256.784 1331.27 252.201 1331.08 248.384 1331.24C248.946 1331.28 249.517 1331.48 250.079 1331.51C251.229 1331.3 252.933 1331.13 254.646 1331.26Z" fill="#F5F5F5"/>
<path d="M240.999 1332.45C242.848 1332.29 244.731 1332.19 246.631 1332.13C248.531 1332.07 250.448 1332.1 252.365 1332.12C256.198 1332.16 260.032 1332.21 263.73 1332.25C269.413 1332.35 275.632 1333.6 280.77 1333.1L280.778 1332.65L280.207 1332.75C278.214 1332.42 276.62 1332.07 274.951 1331.78C275.044 1331.78 275.147 1331.78 275.24 1331.77C275.07 1331.77 274.908 1331.75 274.738 1331.74C273.622 1331.56 272.471 1331.43 271.134 1331.43C270.52 1331.44 269.898 1331.45 269.268 1331.46C262.171 1331.02 254.835 1330.8 248.394 1331.23C244.416 1331.42 240.991 1331.99 237.012 1332.2C238.153 1332.29 239.857 1332.53 240.999 1332.45ZM265.306 1328.11C262.921 1328.11 260.612 1328.18 257.911 1327.97C260.373 1328 262.844 1328.01 265.306 1328.11ZM217.868 1328C214.869 1328.21 211.708 1328.39 208.598 1328.44C205.48 1328.5 202.413 1328.44 199.584 1328.36C195.035 1328.32 181.974 1329.12 184.248 1330.95C185.654 1330.11 188.704 1329.75 192.427 1329.55C196.151 1329.38 200.547 1329.35 204.645 1329.46C208.743 1329.54 212.534 1329.61 215.065 1329.43C217.578 1329.26 218.839 1328.9 217.868 1328ZM211.461 1334.29C206.92 1334.94 201.246 1334.74 195.58 1335.04C193.876 1335.02 192.18 1335.61 189.914 1335.58C187.077 1335.7 185.382 1335.98 183.107 1336.17L184.811 1336.45C180.84 1336.34 178.574 1337.25 174.613 1337C174.613 1337.15 174.05 1337.45 173.479 1337.46C170.651 1337.61 167.814 1337.4 165.547 1337.76C162.719 1337.98 159.882 1338.05 157.624 1338.4C157.053 1338.42 155.928 1338.89 154.795 1339.08C153.415 1339.19 152.026 1339.29 150.655 1339.39C150.723 1339.43 150.774 1339.47 150.825 1339.5C151.95 1339.46 153.091 1339.4 154.233 1339.26C157.632 1338.86 161.594 1338.46 164.985 1338.22C169.236 1337.94 173.343 1337.65 177.381 1337.39C181.42 1337.11 185.382 1336.73 189.352 1336.49C191.047 1336.35 192.76 1336.07 194.455 1335.93C197.011 1335.67 199.848 1335.54 202.464 1335.44C205.088 1335.33 207.499 1335.17 209.203 1334.69C209.765 1334.54 210.89 1334.56 211.461 1334.29ZM142.425 1339.73C142.39 1339.72 142.356 1339.7 142.331 1339.69C142.331 1339.72 142.339 1339.73 142.339 1339.76C142.373 1339.75 142.399 1339.73 142.425 1339.73ZM126.842 1337.5C125.87 1337.5 124.814 1337.53 123.715 1337.6C122.616 1337.69 121.457 1337.8 120.256 1337.93C117.879 1338.22 115.357 1338.53 112.886 1338.83C112.861 1338.87 112.844 1338.91 112.844 1338.94C114.923 1338.85 117.231 1338.62 119.617 1338.34C122.011 1338.07 124.473 1337.73 126.842 1337.5ZM113.593 1338.32C114.173 1338.21 114.769 1338.09 115.374 1337.97C115.28 1337.94 115.187 1337.92 115.101 1337.88C114.548 1337.93 114.011 1338.11 113.593 1338.32ZM303.841 1339.05C300.757 1338.86 297.699 1338.68 294.683 1338.54C291.658 1338.42 288.676 1338.36 285.745 1338.31C282.772 1338.01 279.824 1337.7 276.919 1337.48C274.013 1337.28 271.134 1337.1 268.314 1336.96C262.665 1336.65 257.212 1336.7 252.058 1336.91C247.517 1337.13 241.28 1337.04 235.044 1337.04C231.925 1337.02 228.807 1337.14 225.902 1337.35C222.997 1337.55 220.304 1337.88 218.03 1338.38C219.001 1338.48 219.938 1338.55 220.833 1338.58C219.504 1338.73 218.251 1338.91 217.075 1339.14C202.115 1339.22 187.426 1339.34 172.15 1339.58C169.884 1339.58 168.189 1340.11 165.922 1340.16C163.63 1340.24 161.373 1340.34 159.123 1340.41C159.115 1340.45 159.14 1340.48 159.209 1340.52C154.548 1340.7 149.922 1341.06 145.262 1341.41C142.927 1341.6 140.584 1341.75 138.224 1342C135.864 1342.25 133.479 1342.5 131.076 1342.76C128.818 1342.96 126.552 1343.1 124.286 1343.22C122.028 1343.37 119.762 1343.52 117.504 1343.68C115.809 1343.81 115.792 1343.21 114.658 1343.14C112.392 1342.94 110.407 1342.75 108.345 1342.64C106.283 1342.54 104.162 1342.53 101.615 1342.6C101.615 1342.6 101.606 1342.31 101.606 1342.15C100.831 1342.27 100.124 1342.33 99.5527 1342.34C101.938 1340.44 108.132 1339.27 101.538 1338.73C101.904 1338.63 102.228 1338.56 102.543 1338.48C102.586 1338.48 102.611 1338.48 102.654 1338.47C102.654 1338.47 102.654 1338.46 102.645 1338.45C104.187 1338.06 105.108 1337.69 106.028 1337.12C105.039 1337.21 104.043 1337.3 103.046 1337.39C103.233 1337.16 103.344 1336.94 103.242 1336.74C103.327 1336.7 103.404 1336.65 103.497 1336.6C103.94 1336.56 104.307 1336.52 104.307 1336.52C104.443 1336.39 104.554 1336.27 104.622 1336.15C105.908 1335.71 107.578 1335.3 108.831 1334.95C110.075 1334.62 110.901 1334.31 110.501 1334.04C109.887 1333.77 107.987 1334.19 105.84 1334.59C105.713 1334.54 105.559 1334.5 105.406 1334.48C108.234 1334.08 105.38 1333.44 107.076 1333.14C109.342 1332.93 111.608 1332.63 113.875 1332.45C123.11 1331.69 130.897 1331.11 139.971 1330.15C140.371 1330.11 140.772 1330.08 141.164 1330.05C145.568 1329.67 149.726 1329.47 154.037 1329.4C153.764 1329.51 153.475 1329.62 153.185 1329.72C156.653 1329.68 160.129 1329.66 163.605 1329.33C165.735 1329.13 167.865 1328.93 170.003 1328.73C172.142 1328.57 174.289 1328.42 176.453 1328.26C180.781 1328 185.186 1327.72 189.727 1327.71C194.489 1327.66 199.167 1327.6 203.861 1327.54C208.556 1327.46 213.267 1327.39 218.106 1327.3C214.153 1327.49 210.2 1327.73 206.144 1327.72C204.33 1327.67 202.515 1327.6 200.751 1327.61C202.575 1327.69 204.364 1327.73 206.144 1327.72C209.646 1327.83 213.19 1327.98 216.539 1327.94C219.887 1327.96 223.039 1327.78 225.74 1327.19C226.319 1327.34 226.319 1327.49 226.89 1327.52C228.884 1327.6 230.869 1327.69 232.786 1327.76C234.703 1327.84 236.552 1327.83 238.256 1327.63C238.256 1327.48 239.968 1327.58 239.406 1327.25C242.814 1327.32 246.801 1327.49 250.209 1327.47C251.691 1327.49 253.165 1327.31 254.648 1327.07C257.698 1327.11 260.748 1327.13 263.807 1327.17C266.865 1327.26 269.924 1327.35 273.025 1327.42C279.219 1327.54 285.524 1327.92 292.11 1328.23C295.381 1328.43 299.138 1328.95 302.444 1329.35C297.562 1329.19 292.544 1329.02 287.449 1328.87C282.516 1328.22 277.796 1327.69 273.877 1328.14C272.965 1328.19 272.062 1328.24 271.159 1328.29C273.903 1328.38 276.638 1328.46 279.355 1328.54C282.073 1328.65 284.774 1328.76 287.449 1328.86C290.363 1329.24 293.345 1329.64 296.267 1330.03C296.208 1330.03 296.148 1330.03 296.088 1330.04C293.788 1329.95 291.462 1329.88 289.128 1329.79C284.748 1329.24 280.523 1328.73 276.893 1328.92C276.442 1328.95 275.99 1328.98 275.556 1329.02C274.652 1329.07 273.741 1329.13 272.838 1329.18C274.533 1329.23 276.22 1329.29 277.907 1329.33C279.585 1329.4 281.264 1329.47 282.934 1329.54C285.004 1329.63 287.074 1329.7 289.128 1329.79C290.414 1329.96 291.718 1330.13 293.021 1330.31C292.885 1330.34 292.74 1330.35 292.612 1330.38C291.462 1330.4 288.233 1331.8 289.92 1332.44C294.291 1332.86 299.539 1333.39 303.697 1333.73C305.775 1333.91 307.582 1334.06 308.868 1334.17C309.516 1334.22 310.027 1334.28 310.376 1334.33C310.555 1334.36 310.691 1334.37 310.777 1334.39C310.87 1334.41 310.913 1334.42 310.913 1334.42C311.458 1335.04 296.463 1333.98 297.026 1334.19C297.86 1334.36 298.695 1334.52 299.539 1334.68C298.738 1334.71 297.954 1334.72 297.239 1334.78C295.535 1334.71 293.268 1334.29 292.127 1334.47C288.131 1334.94 283.607 1334.14 279.049 1334.25C276.195 1334.42 272.787 1334.71 269.37 1335C269.362 1335.29 267.658 1334.99 268.22 1335.34C266.618 1335.19 264.897 1335.03 263.398 1335C261.898 1334.99 260.629 1335.12 259.93 1335.5C259.854 1335.5 259.777 1335.5 259.7 1335.5C259.479 1335.48 259.155 1335.51 258.806 1335.55C253.481 1335.01 249.758 1335.51 244.918 1335.81C243.257 1335.78 241.57 1335.74 239.832 1335.63C240.965 1335.7 242.66 1335.95 243.802 1335.86C244.177 1335.84 244.552 1335.83 244.918 1335.81C249.229 1335.84 253.327 1335.81 257.425 1335.78C257.758 1335.72 258.303 1335.61 258.806 1335.55C259.104 1335.58 259.393 1335.62 259.692 1335.65C259.76 1335.6 259.845 1335.54 259.93 1335.5C260.91 1335.46 261.924 1335.46 262.946 1335.45C263.969 1335.46 264.991 1335.48 265.996 1335.5C268.015 1335.53 269.958 1335.57 271.628 1335.5C277.933 1335.52 284.629 1336.55 291.036 1337.31C287.841 1337.24 284.68 1337.17 281.588 1337.1C285.464 1337.24 289.119 1337.38 292.672 1337.51C293.217 1337.57 293.762 1337.64 294.299 1337.7L297.699 1338.12C296.642 1337.94 295.594 1337.75 294.555 1337.57C296.676 1337.65 298.772 1337.73 300.834 1337.81C303.68 1337.99 306.551 1338.2 309.43 1338.42C312.31 1338.7 315.207 1339.01 318.095 1339.34C323.889 1339.97 329.682 1340.89 335.424 1341.91C335.194 1342.06 334.922 1342.2 334.632 1342.33C331.863 1341.94 329.094 1341.51 326.453 1341.22C323.812 1340.89 321.282 1340.77 318.998 1340.83C322.193 1341.3 324.417 1341.31 327.501 1341.79C327.493 1341.88 327.518 1342.01 327.262 1342.02C329.239 1342.17 331.548 1342.37 333.789 1342.69C333.056 1342.96 332.238 1343.22 331.42 1343.46C330.27 1343.58 328.583 1343.31 326.871 1343.19C323.199 1342.73 319.629 1342.29 316.067 1341.85C312.515 1341.41 308.97 1340.95 305.349 1340.71C302.129 1340.29 298.908 1339.86 295.705 1339.43C292.501 1339.01 289.307 1338.69 286.146 1338.35C292.442 1338.6 298.227 1338.82 303.85 1339.04H303.841V1339.05Z" fill="#F5F5F5"/>
<path d="M293.395 1337.41C295.849 1337.51 298.32 1337.66 300.808 1337.82C302.733 1337.85 304.65 1337.9 306.558 1337.94C315.683 1338.34 326.29 1340.13 336.063 1341.38C336.369 1340.99 336.429 1340.54 336.097 1340.03C330.806 1338.97 325.506 1338.12 320.199 1337.53C314.891 1336.9 309.583 1336.22 304.284 1335.47C304.198 1335.47 304.113 1335.48 304.028 1335.49C301.745 1335.65 298.763 1335.43 295.644 1335.17C292.526 1334.9 289.255 1334.7 286.409 1334.76C283.563 1334.9 280.718 1334.88 277.872 1334.87C275.026 1334.89 272.189 1334.89 269.344 1335.01C271.397 1335.18 273.416 1335.35 275.427 1335.52C276.432 1335.59 277.429 1335.67 278.434 1335.76C279.431 1335.85 280.428 1335.94 281.425 1336.04C285.404 1336.43 289.365 1336.85 293.395 1337.41Z" fill="#F5F5F5"/>
<path d="M227.161 1339.19C229.376 1339.21 231.608 1339.16 233.858 1339.22C236.984 1339.22 239.941 1339.2 242.821 1339.14C245.709 1339.08 248.512 1339.02 251.357 1338.96C247.191 1338.74 243 1338.52 238.782 1338.29C236.669 1338.24 234.71 1338.35 232.81 1338.53C230.91 1338.7 229.053 1338.99 227.161 1339.19Z" fill="#F5F5F5"/>
<path d="M255.976 1338.86C254.417 1338.89 252.883 1338.92 251.358 1338.97C257.535 1339.31 263.669 1339.56 269.778 1339.97L277.327 1340.22L284.875 1340.57L299.981 1341.28C301.122 1341.36 302.256 1341.44 303.389 1341.51C284.705 1338.96 266.038 1336.97 250.114 1337.8C249.825 1337.82 249.492 1337.83 249.186 1337.83C256.751 1338.26 264.232 1338.69 271.686 1339.1L263.823 1338.88C261.216 1338.83 258.6 1338.85 255.976 1338.86Z" fill="#F5F5F5"/>
<path d="M291.017 1337.32C291.562 1337.39 292.107 1337.45 292.652 1337.51C293.291 1337.54 293.913 1337.55 294.535 1337.57C294.152 1337.51 293.769 1337.46 293.394 1337.39C292.601 1337.36 291.8 1337.34 291.017 1337.32Z" fill="#F5F5F5"/>
<path d="M274.958 1331.78C274.89 1331.77 274.822 1331.75 274.745 1331.74C272.947 1331.65 271.124 1331.56 269.275 1331.47C266.728 1331.52 264.07 1331.47 261.36 1331.44C266.276 1331.66 271.141 1331.98 274.958 1331.78Z" fill="#F5F5F5"/>
<path d="M259.3 1326.83C258.729 1326.79 257.596 1326.71 257.025 1326.66C256.675 1326.72 256.335 1326.79 255.985 1326.85C256.514 1326.89 257.059 1326.95 257.596 1327L259.3 1326.83Z" fill="#F5F5F5"/>
<path d="M225.703 1327.21C228.225 1327.18 230.704 1327.13 233.158 1327.1C235.603 1327.09 238.032 1327.08 240.426 1327.06C242.82 1327.05 245.197 1327.03 247.565 1327.03C249.925 1327.06 252.277 1327.07 254.62 1327.1C255.071 1327.02 255.531 1326.94 255.991 1326.86C252.848 1326.59 249.721 1326.36 246.654 1326.3C243.587 1326.26 240.579 1326.33 237.691 1326.58C236.549 1326.66 234.837 1327.01 233.703 1326.94C228.319 1326.82 223.19 1327.12 218.078 1327.32C220.523 1327.29 222.986 1327.25 225.516 1327.22C225.567 1327.21 225.635 1327.21 225.703 1327.21Z" fill="#F5F5F5"/>
<path d="M40.8697 791.463H5.65888C6.07805 775.954 10.0602 764.636 17.815 757.51C25.5697 750.175 37.0971 746.612 52.1874 746.612C88.6558 746.612 98.9256 761.492 98.9256 787.691C98.9256 799.847 93.6859 813.68 78.1764 817.243V817.662C95.7818 820.806 101.65 834.219 101.65 850.148C101.65 883.473 85.3023 897.934 53.2354 897.934C19.4917 897.934 3.98217 886.407 3.98217 850.567H40.4505C40.4505 858.951 41.4984 864.4 43.1751 868.173C44.8519 871.945 47.7861 873.622 51.9778 873.622C60.9901 873.622 62.6668 869.221 62.6668 850.567C62.6668 835.896 58.2655 832.124 48.4148 832.124H38.5642V807.811H44.2231C55.7504 807.811 61.1997 804.039 61.1997 786.853C61.1997 774.696 58.0559 770.924 51.3491 770.924C43.8039 770.924 40.8697 775.744 40.8697 791.463Z" fill="#E4DD67"/>
<path d="M114.054 923.029V888.757H134.358V896.053H122.982V901.909H133.638V908.917H122.982V915.733H134.79V923.029H114.054ZM142.662 923.029L135.27 888.757H144.774L148.374 914.581H148.47L152.07 888.757H161.574L154.182 923.029H142.662ZM158.475 923.029L166.827 888.757H178.059L186.411 923.029H176.907L175.995 917.029H168.891L167.979 923.029H158.475ZM174.939 910.309L172.491 895.765H172.395L169.947 910.309H174.939ZM187.883 923.029V888.757H196.811V915.733H207.803V923.029H187.883ZM209.717 888.757H218.645V913.477C218.645 916.789 219.653 917.653 221.333 917.653C223.013 917.653 224.021 916.789 224.021 913.477V888.757H232.949V911.221C232.949 920.821 228.821 923.701 221.333 923.701C213.845 923.701 209.717 920.821 209.717 911.221V888.757ZM233.568 923.029L241.92 888.757H253.152L261.504 923.029H252L251.088 917.029H243.984L243.072 923.029H233.568ZM250.032 910.309L247.584 895.765H247.488L245.04 910.309H250.032ZM264.863 923.029V896.341H258.143V888.757H280.511V896.341H273.791V923.029H264.863ZM282.523 923.029V888.757H302.827V896.053H291.451V901.909H302.107V908.917H291.451V915.733H303.259V923.029H282.523Z" fill="#F5F5F5"/>
<path d="M4.43054 963.602C3.90231 963.644 3.4082 963.695 3.4082 963.695C3.4082 963.738 3.41669 963.797 3.42521 963.84C3.80008 963.746 4.12383 963.67 4.43054 963.602Z" fill="#F5F5F5"/>
<path d="M5.39283 961.727C5.28183 961.735 5.17936 961.752 5.06836 961.761C5.10251 961.795 5.11107 961.837 5.13668 961.872C5.21353 961.82 5.29037 961.769 5.39283 961.727Z" fill="#F5F5F5"/>
<path d="M3.43338 963.848C3.5271 964.393 3.96163 964.896 3.45896 965.484C2.89665 965.535 1.76349 965.646 1.20119 965.697C0.647396 966.046 1.21825 966.293 1.22677 966.591C0.66446 966.642 0.093625 966.693 0.102145 966.838C-0.255688 967.264 0.357711 967.46 1.45677 967.452C3.84233 965.561 10.0363 964.393 3.43338 963.848Z" fill="#F5F5F5"/>
<path d="M7.91401 962.23C6.92571 962.324 5.92889 962.41 4.93207 962.503C4.63387 962.878 4.22489 963.262 4.53161 963.568C6.0737 963.176 7.00239 962.81 7.91401 962.23Z" fill="#F5F5F5"/>
<path d="M238.904 969.155C238.904 969.061 238.964 969.027 239.466 969.24C239.271 969.206 239.083 969.181 238.904 969.155C238.896 969.24 238.921 969.368 238.666 969.385C240.642 969.53 242.951 969.734 245.183 970.041C245.482 969.93 245.771 969.811 246.027 969.7C240.489 968.916 234.959 968.005 230.401 968.124C233.605 968.592 235.82 968.704 238.904 969.155Z" fill="#F5F5F5"/>
<path d="M246.503 968.866C246.699 968.9 246.878 968.917 247.065 968.951C246.571 968.738 246.511 968.772 246.503 968.866Z" fill="#F5F5F5"/>
<path d="M147.692 961.123C144.267 961.063 141.259 961.378 138.218 961.736C144.667 961.676 151.279 961.821 156.203 961.591C153.375 961.429 150.546 961.284 147.692 961.123Z" fill="#F5F5F5"/>
<path d="M123.102 963.072C127.336 963.515 130.829 963.294 134.16 962.919C130.769 962.902 127.404 962.893 124.056 962.885C123.741 962.936 123.408 962.996 123.102 963.072Z" fill="#F5F5F5"/>
<path d="M127.808 962.33C131.684 962.501 134.964 962.126 138.219 961.717C134.564 961.811 131.003 961.973 127.808 962.33Z" fill="#F5F5F5"/>
<path d="M204.91 954.732C207.483 954.63 209.033 954.63 209.911 954.689C210.303 954.527 210.831 954.34 211.538 954.11C211.393 954.093 211.231 954.076 211.086 954.059C208.445 953.999 205.762 953.906 203.044 953.795C201.936 953.838 200.871 953.906 199.977 954.067C201.629 954.289 203.282 954.511 204.91 954.732Z" fill="#F5F5F5"/>
<path d="M193.12 962.101C192.993 962.083 192.865 962.066 192.729 962.066C192.354 962.066 191.962 962.05 191.587 962.041C192.115 962.058 192.609 962.075 193.12 962.101Z" fill="#F5F5F5"/>
<path d="M161.646 955.004C163.887 955.114 166.136 955.174 168.342 955.191C163.784 955.012 159.201 954.816 155.384 954.978C155.946 955.021 156.517 955.217 157.079 955.251C158.229 955.038 159.933 954.867 161.646 955.004Z" fill="#F5F5F5"/>
<path d="M147.999 956.189C149.848 956.035 151.731 955.933 153.631 955.873C155.531 955.814 157.448 955.839 159.365 955.856C163.198 955.899 167.032 955.95 170.73 955.993C176.413 956.086 182.632 957.339 187.77 956.845L187.778 956.393L187.207 956.487C185.214 956.163 183.62 955.805 181.951 955.524C182.044 955.524 182.147 955.516 182.24 955.507C182.07 955.507 181.908 955.49 181.738 955.481C180.622 955.302 179.471 955.175 178.134 955.166C177.52 955.183 176.898 955.192 176.268 955.2C169.171 954.757 161.835 954.536 155.394 954.97C151.416 955.158 147.991 955.728 144.012 955.941C145.153 956.027 146.857 956.265 147.999 956.189ZM172.306 951.852C169.921 951.852 167.612 951.92 164.911 951.707C167.373 951.741 169.844 951.75 172.306 951.852ZM124.868 951.741C121.869 951.946 118.708 952.133 115.598 952.176C112.48 952.244 109.413 952.176 106.584 952.099C102.035 952.065 88.9736 952.857 91.2484 954.689C92.6542 953.845 95.7043 953.488 99.4275 953.292C103.151 953.122 107.547 953.087 111.645 953.198C115.743 953.283 119.534 953.351 122.065 953.173C124.578 953.002 125.839 952.644 124.868 951.741ZM118.461 958.029C113.92 958.676 108.246 958.48 102.58 958.779C100.876 958.762 99.1804 959.35 96.9142 959.324C94.077 959.443 92.3816 959.724 90.1068 959.912L91.8107 960.193C87.8405 960.082 85.5742 960.994 81.6125 960.738C81.6125 960.891 81.0502 961.19 80.4793 961.198C77.6508 961.351 74.8137 961.139 72.5474 961.496C69.7188 961.718 66.8817 961.794 64.6239 962.144C64.0531 962.161 62.9285 962.629 61.7953 962.817C60.4151 962.928 59.0264 963.03 57.6547 963.132C57.7229 963.166 57.774 963.209 57.8251 963.243C58.9497 963.2 60.0914 963.141 61.2331 962.996C64.6325 962.595 68.5942 962.204 71.9851 961.957C76.2365 961.675 80.343 961.394 84.3814 961.13C88.4199 960.849 92.3816 960.465 96.3518 960.227C98.0473 960.09 99.7597 959.809 101.455 959.673C104.011 959.409 106.848 959.281 109.464 959.179C112.088 959.068 114.499 958.915 116.203 958.429C116.765 958.276 117.89 958.302 118.461 958.029ZM49.4245 963.473C49.3904 963.456 49.3564 963.439 49.3308 963.43C49.3308 963.456 49.3393 963.473 49.3393 963.499C49.3734 963.49 49.399 963.473 49.4245 963.473ZM33.8418 961.241C32.8705 961.241 31.814 961.266 30.715 961.343C29.6159 961.428 28.4572 961.539 27.2559 961.667C24.8789 961.957 22.357 962.272 19.8863 962.57C19.8607 962.612 19.8437 962.655 19.8437 962.681C21.9225 962.587 24.2314 962.357 26.6169 962.076C29.011 961.812 31.4732 961.471 33.8418 961.241ZM20.5934 962.059C21.1728 961.948 21.7691 961.829 22.374 961.709C22.2803 961.675 22.1866 961.658 22.1014 961.624C21.5477 961.667 21.0109 961.846 20.5934 962.059ZM210.841 962.791C207.757 962.595 204.699 962.425 201.683 962.28C198.658 962.161 195.676 962.101 192.745 962.05C189.772 961.752 186.824 961.437 183.919 961.224C181.013 961.019 178.134 960.84 175.314 960.704C169.665 960.389 164.212 960.44 159.058 960.653C154.517 960.866 148.28 960.781 142.044 960.781C138.925 960.764 135.807 960.883 132.902 961.087C129.997 961.292 127.304 961.616 125.03 962.118C126.001 962.221 126.938 962.289 127.833 962.323C126.504 962.468 125.251 962.647 124.075 962.877C109.115 962.962 94.4263 963.081 79.1503 963.32C76.884 963.32 75.1885 963.848 72.9223 963.899C70.6304 963.984 68.3727 964.078 66.1234 964.155C66.1149 964.189 66.1405 964.223 66.2086 964.257C61.5483 964.436 56.922 964.802 52.2616 965.151C49.9272 965.339 47.5842 965.492 45.2242 965.739C42.8643 965.995 40.4787 966.242 38.0761 966.498C35.8184 966.702 33.5521 966.838 31.2858 966.958C29.028 967.111 26.7617 967.265 24.504 967.418C22.8085 967.546 22.7915 966.949 21.6584 966.881C19.3921 966.685 17.407 966.489 15.3452 966.378C13.2834 966.285 11.162 966.267 8.61452 966.344C8.61452 966.344 8.60599 966.046 8.60599 965.893C7.83069 966.012 7.12356 966.071 6.55273 966.08C8.93829 964.18 15.1322 963.013 8.53782 962.468C8.90417 962.374 9.22792 962.297 9.54315 962.221C9.58575 962.221 9.61132 962.22 9.65392 962.212C9.65392 962.212 9.65391 962.203 9.64539 962.195C11.1875 961.803 12.1076 961.428 13.0278 960.857C12.0395 960.951 11.0427 961.036 10.0458 961.13C10.2333 960.9 10.344 960.679 10.2418 960.483C10.327 960.44 10.4037 960.389 10.4974 960.338C10.9404 960.304 11.3068 960.261 11.3068 960.261C11.4431 960.133 11.5538 960.014 11.622 959.886C12.9085 959.452 14.5784 959.043 15.8308 958.693C17.0747 958.361 17.9011 958.055 17.5007 957.782C16.8873 957.509 14.9873 957.926 12.8403 958.327C12.7125 958.284 12.5592 958.242 12.4059 958.225C15.2344 957.816 12.3803 957.177 14.0757 956.879C16.342 956.666 18.6083 956.367 20.8746 956.189C30.1101 955.43 37.8972 954.851 46.9709 953.888C47.3713 953.854 47.7717 953.82 48.1636 953.786C52.5684 953.411 56.726 953.207 61.0371 953.138C60.7644 953.249 60.4748 953.36 60.1851 953.462C63.6527 953.419 67.1288 953.402 70.6049 953.07C72.7348 952.874 74.8648 952.67 77.0033 952.465C79.1418 952.312 81.2887 952.159 83.4528 952.005C87.7808 951.741 92.1856 951.46 96.7267 951.451C101.489 951.4 106.167 951.341 110.861 951.281C115.556 951.204 120.267 951.128 125.106 951.043C121.153 951.23 117.2 951.469 113.144 951.46C111.33 951.409 109.515 951.341 107.751 951.349C109.575 951.426 111.364 951.469 113.144 951.46C116.646 951.571 120.19 951.716 123.539 951.682C126.887 951.699 130.039 951.52 132.74 950.932C133.319 951.077 133.319 951.23 133.89 951.256C135.884 951.341 137.869 951.426 139.786 951.503C141.703 951.579 143.552 951.571 145.256 951.375C145.256 951.222 146.968 951.324 146.406 950.991C149.814 951.06 153.801 951.23 157.209 951.213C158.691 951.23 160.165 951.051 161.648 950.812C164.698 950.847 167.748 950.872 170.807 950.915C173.865 951 176.924 951.085 180.025 951.162C186.219 951.281 192.524 951.656 199.11 951.971C202.381 952.167 206.138 952.687 209.444 953.087C204.562 952.925 199.544 952.763 194.449 952.61C189.516 951.963 184.796 951.434 180.877 951.877C179.965 951.929 179.062 951.98 178.159 952.031C180.903 952.116 183.638 952.201 186.355 952.278C189.073 952.389 191.774 952.5 194.449 952.602C197.363 952.985 200.345 953.377 203.267 953.769C203.208 953.769 203.148 953.769 203.088 953.777C200.788 953.692 198.462 953.615 196.128 953.53C191.748 952.976 187.523 952.465 183.893 952.661C183.442 952.687 182.99 952.721 182.556 952.764C181.652 952.815 180.741 952.866 179.838 952.917C181.533 952.968 183.22 953.028 184.907 953.07C186.585 953.138 188.264 953.206 189.934 953.283C192.004 953.368 194.074 953.445 196.128 953.53C197.414 953.701 198.718 953.871 200.021 954.05C199.885 954.075 199.74 954.093 199.612 954.118C198.462 954.144 195.233 955.541 196.92 956.18C201.291 956.597 206.539 957.126 210.697 957.467C212.775 957.645 214.582 957.799 215.868 957.91C216.516 957.961 217.027 958.02 217.376 958.071C217.555 958.097 217.691 958.114 217.777 958.131C217.87 958.148 217.913 958.165 217.913 958.165C218.458 958.778 203.463 957.722 204.026 957.935C204.86 958.097 205.695 958.259 206.539 958.421C205.738 958.446 204.954 958.463 204.239 958.523C202.535 958.455 200.268 958.029 199.127 958.208C195.131 958.676 190.607 957.884 186.049 957.986C183.195 958.157 179.787 958.455 176.37 958.736C176.362 959.034 174.658 958.728 175.22 959.077C173.618 958.932 171.897 958.77 170.398 958.745C168.898 958.727 167.629 958.855 166.93 959.239C166.854 959.239 166.777 959.239 166.7 959.239C166.479 959.222 166.155 959.247 165.806 959.29C160.481 958.753 156.758 959.247 151.918 959.545C150.257 959.52 148.57 959.477 146.832 959.375C147.965 959.443 149.66 959.69 150.802 959.605C151.177 959.579 151.552 959.571 151.918 959.545C156.229 959.579 160.327 959.554 164.425 959.52C164.758 959.46 165.303 959.35 165.806 959.29C166.104 959.324 166.393 959.358 166.692 959.392C166.76 959.341 166.845 959.281 166.93 959.239C167.91 959.205 168.924 959.196 169.946 959.188C170.969 959.205 171.991 959.222 172.996 959.239C175.015 959.273 176.958 959.307 178.628 959.239C184.933 959.264 191.629 960.287 198.036 961.053C194.841 960.977 191.68 960.909 188.588 960.84C192.464 960.985 196.119 961.122 199.672 961.249C200.217 961.309 200.762 961.377 201.299 961.437L204.699 961.863C203.642 961.684 202.594 961.488 201.555 961.309C203.676 961.385 205.772 961.471 207.834 961.548C210.68 961.726 213.551 961.939 216.43 962.161C219.31 962.442 222.207 962.749 225.095 963.081C230.889 963.711 236.682 964.632 242.424 965.654C242.194 965.799 241.922 965.935 241.632 966.072C238.863 965.68 236.094 965.254 233.453 964.956C230.812 964.632 228.282 964.512 225.998 964.572C229.193 965.041 231.417 965.049 234.501 965.535C234.493 965.62 234.518 965.748 234.262 965.765C236.239 965.909 238.548 966.114 240.789 966.429C240.056 966.702 239.238 966.958 238.42 967.205C237.27 967.316 235.583 967.051 233.871 966.932C230.199 966.472 226.629 966.029 223.067 965.595C219.515 965.151 215.97 964.692 212.349 964.453C209.129 964.027 205.908 963.601 202.705 963.175C199.501 962.749 196.307 962.434 193.146 962.093C199.442 962.34 205.227 962.561 210.85 962.783H210.841V962.791Z" fill="#F5F5F5"/>
<path d="M200.395 961.148C202.849 961.25 205.32 961.404 207.808 961.557C209.733 961.591 211.65 961.643 213.558 961.677C222.683 962.077 233.29 963.875 243.063 965.119C243.369 964.727 243.429 964.284 243.097 963.772C237.806 962.707 232.506 961.864 227.199 961.268C221.891 960.637 216.583 959.964 211.284 959.214C211.198 959.214 211.113 959.223 211.028 959.231C208.745 959.393 205.763 959.172 202.644 958.908C199.526 958.644 196.255 958.439 193.409 958.499C190.563 958.644 187.718 958.618 184.872 958.609C182.026 958.635 179.189 958.635 176.344 958.746C178.397 958.925 180.416 959.087 182.427 959.257C183.432 959.334 184.429 959.41 185.434 959.495C186.431 959.589 187.428 959.683 188.425 959.777C192.404 960.169 196.365 960.586 200.395 961.148Z" fill="#F5F5F5"/>
<path d="M134.161 962.93C136.376 962.947 138.608 962.904 140.858 962.964C143.984 962.964 146.941 962.938 149.821 962.879C152.709 962.819 155.512 962.759 158.357 962.7C154.191 962.478 150 962.257 145.782 962.027C143.669 961.984 141.71 962.095 139.81 962.274C137.91 962.444 136.053 962.725 134.161 962.93Z" fill="#F5F5F5"/>
<path d="M162.976 962.596C161.417 962.63 159.883 962.664 158.358 962.707C164.535 963.048 170.669 963.304 176.778 963.712L184.327 963.96L191.875 964.309L206.981 965.025C208.122 965.101 209.256 965.178 210.389 965.246C191.705 962.698 173.038 960.713 157.114 961.54C156.825 961.557 156.492 961.565 156.186 961.574C163.751 962 171.232 962.426 178.686 962.843L170.823 962.622C168.216 962.571 165.6 962.588 162.976 962.596Z" fill="#F5F5F5"/>
<path d="M198.017 961.062C198.562 961.131 199.107 961.19 199.652 961.25C200.291 961.275 200.913 961.292 201.535 961.309C201.152 961.25 200.769 961.198 200.394 961.13C199.601 961.105 198.8 961.08 198.017 961.062Z" fill="#F5F5F5"/>
<path d="M181.958 955.516C181.89 955.507 181.822 955.49 181.745 955.482C179.947 955.388 178.124 955.303 176.275 955.209C173.728 955.261 171.07 955.209 168.36 955.184C173.276 955.405 178.141 955.72 181.958 955.516Z" fill="#F5F5F5"/>
<path d="M166.3 950.575C165.729 950.532 164.596 950.447 164.025 950.404C163.675 950.464 163.335 950.532 162.985 950.592C163.514 950.635 164.059 950.694 164.596 950.745L166.3 950.575Z" fill="#F5F5F5"/>
<path d="M132.703 950.949C135.225 950.915 137.704 950.873 140.158 950.839C142.603 950.83 145.032 950.822 147.426 950.805C149.82 950.788 152.197 950.77 154.565 950.77C156.925 950.796 159.277 950.813 161.62 950.839C162.071 950.762 162.531 950.677 162.991 950.6C159.848 950.327 156.721 950.097 153.654 950.037C150.587 950.003 147.579 950.072 144.691 950.319C143.549 950.404 141.837 950.753 140.703 950.685C135.319 950.557 130.19 950.856 125.078 951.06C127.523 951.026 129.986 950.992 132.516 950.958C132.567 950.949 132.635 950.949 132.703 950.949Z" fill="#F5F5F5"/>
<path d="M134.047 424.115H97.2823C97.4936 408.691 99.3952 396.225 106.579 387.351C113.763 378.476 126.018 373.405 146.302 373.405C185.602 373.405 194.477 391.788 194.477 414.185C194.477 434.469 187.081 447.357 175.883 458.556L152.641 481.164C149.26 484.545 144.4 488.982 142.921 493.419H194.477V523H96.0145C96.0145 502.293 101.297 483.277 118.412 465.74L144.612 439.117C152.218 431.511 155.176 425.806 155.176 414.607C155.176 401.93 151.162 397.915 145.034 397.915C139.541 397.915 134.047 400.873 134.047 417.777V424.115Z" fill="#E4DD67"/>
<path d="M206.57 558.881V524.609H219.338L222.938 544.913H223.034L226.634 524.609H239.402V558.881H231.05V533.345H230.954L226.202 558.881H219.77L215.018 533.345H214.922V558.881H206.57ZM240.545 558.881L248.897 524.609H260.129L268.481 558.881H258.977L258.065 552.881H250.961L250.049 558.881H240.545ZM257.009 546.161L254.561 531.617H254.465L252.017 546.161H257.009ZM271.84 558.881V532.193H265.12V524.609H287.488V532.193H280.768V558.881H271.84ZM303.18 536.945V535.025C303.18 531.137 302.46 529.985 300.732 529.985C297.996 529.985 297.708 532.481 297.708 541.745C297.708 551.009 297.996 553.505 300.732 553.505C302.94 553.505 303.42 551.585 303.42 545.105H312.06V547.649C312.06 557.249 306.444 559.553 300.732 559.553C290.7 559.553 288.492 554.513 288.492 541.745C288.492 528.641 291.468 523.937 300.732 523.937C308.796 523.937 311.82 528.161 311.82 534.785V536.945H303.18ZM315.281 558.881V524.609H324.209V537.185H329.681V524.609H338.609V558.881H329.681V544.769H324.209V558.881H315.281Z" fill="#F5F5F5"/>
<path d="M96.4305 591.453C95.9023 591.496 95.4082 591.547 95.4082 591.547C95.4082 591.589 95.4167 591.649 95.4252 591.691C95.8001 591.598 96.1238 591.521 96.4305 591.453Z" fill="#F5F5F5"/>
<path d="M97.3928 589.578C97.2818 589.587 97.1794 589.604 97.0684 589.612C97.1025 589.646 97.1111 589.689 97.1367 589.723C97.2135 589.672 97.2904 589.621 97.3928 589.578Z" fill="#F5F5F5"/>
<path d="M95.4334 591.699C95.5271 592.244 95.9616 592.748 95.459 593.335C94.8967 593.386 93.7635 593.497 93.2012 593.548C92.6474 593.898 93.2183 594.145 93.2268 594.443C92.6645 594.494 92.0936 594.545 92.1021 594.69C91.7443 595.116 92.3577 595.312 93.4568 595.304C95.8423 593.412 102.036 592.244 95.4334 591.699Z" fill="#F5F5F5"/>
<path d="M99.914 590.082C98.9257 590.176 97.9289 590.261 96.9321 590.355C96.6339 590.73 96.2249 591.113 96.5316 591.42C98.0737 591.028 99.0024 590.661 99.914 590.082Z" fill="#F5F5F5"/>
<path d="M330.904 597.007C330.904 596.913 330.964 596.879 331.466 597.092C331.271 597.057 331.083 597.032 330.904 597.007C330.896 597.092 330.921 597.219 330.666 597.236C332.642 597.381 334.951 597.586 337.183 597.892C337.482 597.782 337.771 597.662 338.027 597.552C332.489 596.768 326.959 595.856 322.401 595.975C325.605 596.444 327.82 596.555 330.904 597.007Z" fill="#F5F5F5"/>
<path d="M338.503 596.718C338.699 596.752 338.878 596.769 339.065 596.803C338.571 596.59 338.511 596.624 338.503 596.718Z" fill="#F5F5F5"/>
<path d="M239.692 588.974C236.267 588.914 233.259 589.229 230.218 589.587C236.667 589.528 243.279 589.673 248.203 589.443C245.375 589.281 242.546 589.136 239.692 588.974Z" fill="#F5F5F5"/>
<path d="M215.102 590.924C219.336 591.367 222.829 591.145 226.16 590.77C222.769 590.753 219.404 590.745 216.056 590.736C215.741 590.787 215.408 590.847 215.102 590.924Z" fill="#F5F5F5"/>
<path d="M219.808 590.182C223.684 590.352 226.964 589.977 230.219 589.568C226.564 589.662 223.003 589.824 219.808 590.182Z" fill="#F5F5F5"/>
<path d="M296.91 582.584C299.483 582.482 301.033 582.481 301.911 582.541C302.303 582.379 302.831 582.192 303.538 581.962C303.393 581.945 303.231 581.928 303.086 581.911C300.445 581.851 297.762 581.757 295.044 581.646C293.936 581.689 292.871 581.757 291.977 581.919C293.629 582.14 295.282 582.362 296.91 582.584Z" fill="#F5F5F5"/>
<path d="M285.12 589.952C284.993 589.935 284.865 589.918 284.729 589.918C284.354 589.918 283.962 589.901 283.587 589.893C284.115 589.91 284.609 589.927 285.12 589.952Z" fill="#F5F5F5"/>
<path d="M253.646 582.855C255.887 582.966 258.136 583.026 260.342 583.043C255.784 582.864 251.201 582.668 247.384 582.83C247.946 582.872 248.517 583.068 249.079 583.102C250.229 582.889 251.933 582.719 253.646 582.855Z" fill="#F5F5F5"/>
<path d="M239.999 584.04C241.848 583.887 243.731 583.784 245.631 583.725C247.531 583.665 249.448 583.691 251.365 583.708C255.198 583.75 259.032 583.802 262.73 583.844C268.413 583.938 274.632 585.19 279.77 584.696L279.778 584.244L279.207 584.338C277.214 584.015 275.62 583.657 273.951 583.376C274.044 583.376 274.147 583.367 274.24 583.359C274.07 583.359 273.908 583.341 273.738 583.333C272.622 583.154 271.471 583.026 270.134 583.018C269.52 583.035 268.898 583.043 268.268 583.052C261.171 582.609 253.835 582.387 247.394 582.822C243.416 583.009 239.991 583.58 236.012 583.793C237.153 583.878 238.857 584.117 239.999 584.04ZM264.306 579.704C261.921 579.704 259.612 579.771 256.911 579.558C259.373 579.593 261.844 579.601 264.306 579.704ZM216.868 579.593C213.869 579.797 210.708 579.985 207.598 580.027C204.48 580.095 201.413 580.027 198.584 579.951C194.035 579.917 180.974 580.709 183.248 582.54C184.654 581.697 187.704 581.339 191.427 581.143C195.151 580.973 199.547 580.939 203.645 581.049C207.743 581.135 211.534 581.203 214.065 581.024C216.578 580.854 217.839 580.496 216.868 579.593ZM210.461 585.881C205.92 586.528 200.246 586.332 194.58 586.63C192.876 586.613 191.18 587.201 188.914 587.176C186.077 587.295 184.382 587.576 182.107 587.763L183.811 588.045C179.84 587.934 177.574 588.845 173.613 588.59C173.613 588.743 173.05 589.041 172.479 589.05C169.651 589.203 166.814 588.99 164.547 589.348C161.719 589.569 158.882 589.646 156.624 589.995C156.053 590.012 154.928 590.481 153.795 590.668C152.415 590.779 151.026 590.881 149.655 590.984C149.723 591.018 149.774 591.06 149.825 591.094C150.95 591.052 152.091 590.992 153.233 590.847C156.632 590.447 160.594 590.055 163.985 589.808C168.236 589.527 172.343 589.246 176.381 588.981C180.42 588.7 184.382 588.317 188.352 588.078C190.047 587.942 191.76 587.661 193.455 587.525C196.011 587.26 198.848 587.133 201.464 587.03C204.088 586.92 206.499 586.766 208.203 586.281C208.765 586.127 209.89 586.153 210.461 585.881ZM141.425 591.324C141.39 591.307 141.356 591.291 141.331 591.282C141.331 591.308 141.339 591.325 141.339 591.35C141.373 591.342 141.399 591.324 141.425 591.324ZM125.842 589.093C124.87 589.093 123.814 589.118 122.715 589.194C121.616 589.28 120.457 589.391 119.256 589.519C116.879 589.808 114.357 590.123 111.886 590.421C111.861 590.464 111.844 590.507 111.844 590.532C113.923 590.439 116.231 590.209 118.617 589.927C121.011 589.663 123.473 589.323 125.842 589.093ZM112.593 589.91C113.173 589.8 113.769 589.68 114.374 589.561C114.28 589.527 114.187 589.51 114.101 589.476C113.548 589.518 113.011 589.697 112.593 589.91ZM302.841 590.643C299.757 590.447 296.699 590.277 293.683 590.132C290.658 590.012 287.676 589.953 284.745 589.902C281.772 589.603 278.824 589.288 275.919 589.075C273.013 588.871 270.134 588.692 267.314 588.555C261.665 588.24 256.212 588.291 251.058 588.504C246.517 588.717 240.28 588.632 234.044 588.632C230.925 588.615 227.807 588.735 224.902 588.939C221.997 589.144 219.304 589.467 217.03 589.97C218.001 590.072 218.938 590.141 219.833 590.175C218.504 590.319 217.251 590.498 216.075 590.728C201.115 590.813 186.426 590.933 171.15 591.171C168.884 591.171 167.189 591.699 164.922 591.75C162.63 591.836 160.373 591.93 158.123 592.006C158.115 592.04 158.14 592.075 158.209 592.109C153.548 592.288 148.922 592.654 144.262 593.003C141.927 593.19 139.584 593.344 137.224 593.591C134.864 593.846 132.479 594.094 130.076 594.349C127.818 594.554 125.552 594.69 123.286 594.809C121.028 594.963 118.762 595.116 116.504 595.269C114.809 595.397 114.792 594.801 113.658 594.732C111.392 594.536 109.407 594.341 107.345 594.23C105.283 594.136 103.162 594.119 100.615 594.196C100.615 594.196 100.606 593.898 100.606 593.744C99.8307 593.864 99.1236 593.923 98.5527 593.932C100.938 592.032 107.132 590.865 100.538 590.319C100.904 590.226 101.228 590.149 101.543 590.072C101.586 590.072 101.611 590.072 101.654 590.064C101.654 590.064 101.654 590.055 101.645 590.046C103.187 589.655 104.108 589.28 105.028 588.709C104.039 588.803 103.043 588.888 102.046 588.981C102.233 588.751 102.344 588.53 102.242 588.334C102.327 588.292 102.404 588.241 102.497 588.189C102.94 588.155 103.307 588.112 103.307 588.112C103.443 587.985 103.554 587.865 103.622 587.738C104.908 587.303 106.578 586.894 107.831 586.545C109.075 586.213 109.901 585.906 109.501 585.633C108.887 585.361 106.987 585.778 104.84 586.178C104.713 586.136 104.559 586.094 104.406 586.076C107.234 585.668 104.38 585.028 106.076 584.73C108.342 584.517 110.608 584.219 112.875 584.04C122.11 583.282 129.897 582.702 138.971 581.74C139.371 581.706 139.772 581.672 140.164 581.638C144.568 581.263 148.726 581.058 153.037 580.99C152.764 581.101 152.475 581.211 152.185 581.314C155.653 581.271 159.129 581.254 162.605 580.922C164.735 580.726 166.865 580.521 169.003 580.317C171.142 580.164 173.289 580.01 175.453 579.857C179.781 579.593 184.186 579.312 188.727 579.303C193.489 579.252 198.167 579.192 202.861 579.132C207.556 579.056 212.267 578.979 217.106 578.894C213.153 579.082 209.2 579.32 205.144 579.312C203.33 579.261 201.515 579.192 199.751 579.201C201.575 579.277 203.364 579.32 205.144 579.312C208.646 579.423 212.19 579.567 215.539 579.533C218.887 579.55 222.039 579.371 224.74 578.783C225.319 578.928 225.319 579.082 225.89 579.107C227.884 579.192 229.869 579.278 231.786 579.354C233.703 579.431 235.552 579.422 237.256 579.227C237.256 579.073 238.968 579.175 238.406 578.843C241.814 578.911 245.801 579.082 249.209 579.065C250.691 579.082 252.165 578.903 253.648 578.664C256.698 578.698 259.748 578.724 262.807 578.766C265.865 578.852 268.924 578.937 272.025 579.014C278.219 579.133 284.524 579.507 291.11 579.823C294.381 580.019 298.138 580.538 301.444 580.939C296.562 580.777 291.544 580.615 286.449 580.462C281.516 579.814 276.796 579.286 272.877 579.729C271.965 579.78 271.062 579.831 270.159 579.883C272.903 579.968 275.638 580.053 278.355 580.13C281.073 580.24 283.774 580.351 286.449 580.453C289.363 580.837 292.345 581.229 295.267 581.621C295.208 581.621 295.148 581.62 295.088 581.629C292.788 581.544 290.462 581.467 288.128 581.382C283.748 580.828 279.523 580.317 275.893 580.513C275.442 580.538 274.99 580.573 274.556 580.615C273.652 580.666 272.741 580.718 271.838 580.769C273.533 580.82 275.22 580.879 276.907 580.922C278.585 580.99 280.264 581.058 281.934 581.135C284.004 581.22 286.074 581.297 288.128 581.382C289.414 581.552 290.718 581.723 292.021 581.901C291.885 581.927 291.74 581.944 291.612 581.97C290.462 581.995 287.233 583.392 288.92 584.031C293.291 584.449 298.539 584.977 302.697 585.318C304.775 585.497 306.582 585.65 307.868 585.761C308.516 585.812 309.027 585.872 309.376 585.923C309.555 585.949 309.691 585.965 309.777 585.982C309.87 586 309.913 586.017 309.913 586.017C310.458 586.63 295.463 585.574 296.026 585.787C296.86 585.948 297.695 586.111 298.539 586.272C297.738 586.298 296.954 586.315 296.239 586.374C294.535 586.306 292.268 585.881 291.127 586.059C287.131 586.528 282.607 585.735 278.049 585.838C275.195 586.008 271.787 586.306 268.37 586.587C268.362 586.886 266.658 586.579 267.22 586.928C265.618 586.784 263.897 586.622 262.398 586.596C260.898 586.579 259.629 586.707 258.93 587.09C258.854 587.09 258.777 587.09 258.7 587.09C258.479 587.073 258.155 587.099 257.806 587.141C252.481 586.605 248.758 587.099 243.918 587.397C242.257 587.371 240.57 587.329 238.832 587.226C239.965 587.294 241.66 587.542 242.802 587.456C243.177 587.431 243.552 587.422 243.918 587.397C248.229 587.431 252.327 587.406 256.425 587.372C256.758 587.312 257.303 587.201 257.806 587.141C258.104 587.176 258.393 587.209 258.692 587.243C258.76 587.192 258.845 587.133 258.93 587.09C259.91 587.056 260.924 587.048 261.946 587.039C262.969 587.056 263.991 587.073 264.996 587.09C267.015 587.124 268.958 587.158 270.628 587.09C276.933 587.116 283.629 588.138 290.036 588.905C286.841 588.828 283.68 588.76 280.588 588.692C284.464 588.837 288.119 588.973 291.672 589.101C292.217 589.161 292.762 589.229 293.299 589.288L296.699 589.714C295.642 589.536 294.594 589.339 293.555 589.16C295.676 589.237 297.772 589.322 299.834 589.399C302.68 589.578 305.551 589.791 308.43 590.012C311.31 590.293 314.207 590.6 317.095 590.933C322.889 591.563 328.682 592.483 334.424 593.506C334.194 593.65 333.922 593.787 333.632 593.923C330.863 593.531 328.094 593.105 325.453 592.807C322.812 592.483 320.282 592.364 317.998 592.424C321.193 592.892 323.417 592.901 326.501 593.387C326.493 593.472 326.518 593.599 326.262 593.616C328.239 593.761 330.548 593.966 332.789 594.281C332.056 594.554 331.238 594.809 330.42 595.056C329.27 595.167 327.583 594.903 325.871 594.784C322.199 594.323 318.629 593.881 315.067 593.446C311.515 593.003 307.97 592.543 304.349 592.305C301.129 591.879 297.908 591.453 294.705 591.027C291.501 590.601 288.307 590.285 285.146 589.945C291.442 590.192 297.227 590.413 302.85 590.634H302.841V590.643Z" fill="#F5F5F5"/>
<path d="M292.395 589C294.849 589.102 297.32 589.255 299.808 589.409C301.733 589.443 303.65 589.494 305.558 589.528C314.683 589.929 325.29 591.726 335.063 592.97C335.369 592.578 335.429 592.135 335.097 591.624C329.806 590.559 324.506 589.716 319.199 589.119C313.891 588.489 308.583 587.816 303.284 587.066C303.198 587.066 303.113 587.074 303.028 587.083C300.745 587.245 297.763 587.023 294.644 586.759C291.526 586.495 288.255 586.291 285.409 586.35C282.563 586.495 279.718 586.469 276.872 586.461C274.026 586.486 271.189 586.487 268.344 586.597C270.397 586.776 272.416 586.938 274.427 587.109C275.432 587.185 276.429 587.262 277.434 587.347C278.431 587.441 279.428 587.535 280.425 587.628C284.404 588.02 288.365 588.438 292.395 589Z" fill="#F5F5F5"/>
<path d="M226.161 590.781C228.376 590.798 230.608 590.756 232.858 590.816C235.984 590.816 238.941 590.79 241.821 590.73C244.709 590.671 247.512 590.611 250.357 590.551C246.191 590.33 242 590.108 237.782 589.878C235.669 589.836 233.71 589.946 231.81 590.125C229.91 590.296 228.053 590.577 226.161 590.781Z" fill="#F5F5F5"/>
<path d="M254.976 590.448C253.417 590.482 251.883 590.516 250.358 590.559C256.535 590.899 262.669 591.155 268.778 591.564L276.327 591.811L283.875 592.16L298.981 592.876C300.122 592.953 301.256 593.029 302.389 593.097C283.705 590.55 265.038 588.565 249.114 589.391C248.825 589.408 248.492 589.417 248.186 589.425C255.751 589.851 263.232 590.278 270.686 590.695L262.823 590.473C260.216 590.422 257.6 590.439 254.976 590.448Z" fill="#F5F5F5"/>
<path d="M290.017 588.914C290.562 588.982 291.107 589.042 291.652 589.101C292.291 589.127 292.913 589.144 293.535 589.161C293.152 589.101 292.769 589.05 292.394 588.982C291.601 588.956 290.8 588.931 290.017 588.914Z" fill="#F5F5F5"/>
<path d="M273.958 583.368C273.89 583.359 273.822 583.342 273.745 583.333C271.947 583.24 270.124 583.155 268.275 583.061C265.728 583.112 263.07 583.061 260.36 583.035C265.276 583.257 270.141 583.572 273.958 583.368Z" fill="#F5F5F5"/>
<path d="M258.3 578.426C257.729 578.384 256.596 578.298 256.025 578.256C255.675 578.315 255.335 578.384 254.985 578.443C255.514 578.486 256.059 578.545 256.596 578.597L258.3 578.426Z" fill="#F5F5F5"/>
<path d="M224.703 578.801C227.225 578.767 229.704 578.724 232.158 578.69C234.603 578.682 237.032 578.673 239.426 578.656C241.82 578.639 244.197 578.622 246.565 578.622C248.925 578.648 251.277 578.665 253.62 578.69C254.071 578.614 254.531 578.528 254.991 578.451C251.848 578.179 248.721 577.949 245.654 577.889C242.587 577.855 239.579 577.923 236.691 578.17C235.549 578.255 233.837 578.605 232.703 578.537C227.319 578.409 222.19 578.707 217.078 578.912C219.523 578.878 221.986 578.843 224.516 578.809C224.567 578.801 224.635 578.801 224.703 578.801Z" fill="#F5F5F5"/>
<path d="M77.338 149H38.3546V47.9785H10.2698V23.6663C34.1629 23.4567 44.2231 18.6362 49.2532 0.611643H77.338V149Z" fill="#E4DD67"/>
<path d="M77.2383 178.584L85.5903 144.312H96.8223L105.174 178.584H95.6703L94.7583 172.584H87.6543L86.7423 178.584H77.2383ZM93.7023 165.864L91.2543 151.32H91.1583L88.7103 165.864H93.7023ZM106.31 178.584V144.312H119.702C126.518 144.312 129.59 148.872 129.59 154.872C129.59 161.88 125.606 165.528 118.358 165.528H115.238V178.584H106.31ZM115.238 150.744V159.096H116.918C119.174 159.096 120.374 157.8 120.374 154.92C120.374 152.088 119.174 150.744 116.918 150.744H115.238ZM132.091 178.584V144.312H145.483C152.299 144.312 155.371 148.872 155.371 154.872C155.371 161.88 151.387 165.528 144.139 165.528H141.019V178.584H132.091ZM141.019 150.744V159.096H142.699C144.955 159.096 146.155 157.8 146.155 154.92C146.155 152.088 144.955 150.744 142.699 150.744H141.019ZM158.209 178.584V144.312H167.137V171.288H178.129V178.584H158.209ZM181.925 178.584V165.096L173.189 144.312H182.981L186.341 156.264H186.437L189.797 144.312H199.589L190.853 165.096V178.584H181.925Z" fill="#F5F5F5"/>
<path d="M4.43054 219.156C3.90231 219.199 3.4082 219.25 3.4082 219.25C3.4082 219.292 3.41669 219.352 3.42521 219.395C3.80008 219.301 4.12383 219.224 4.43054 219.156Z" fill="#F5F5F5"/>
<path d="M5.39283 217.281C5.28183 217.29 5.17936 217.307 5.06836 217.315C5.10251 217.35 5.11107 217.392 5.13668 217.426C5.21353 217.375 5.29037 217.324 5.39283 217.281Z" fill="#F5F5F5"/>
<path d="M3.43338 219.402C3.5271 219.948 3.96163 220.451 3.45896 221.039C2.89665 221.09 1.76349 221.2 1.20119 221.251C0.647396 221.601 1.21825 221.848 1.22677 222.146C0.66446 222.197 0.093625 222.248 0.102145 222.393C-0.255688 222.819 0.357711 223.015 1.45677 223.007C3.84233 221.115 10.0363 219.948 3.43338 219.402Z" fill="#F5F5F5"/>
<path d="M7.91401 217.785C6.92571 217.879 5.92889 217.964 4.93207 218.058C4.63387 218.433 4.22489 218.816 4.53161 219.123C6.0737 218.731 7.00239 218.365 7.91401 217.785Z" fill="#F5F5F5"/>
<path d="M238.904 224.71C238.904 224.616 238.964 224.582 239.466 224.795C239.271 224.761 239.083 224.735 238.904 224.71C238.896 224.795 238.921 224.922 238.666 224.939C240.642 225.084 242.951 225.289 245.183 225.596C245.482 225.485 245.771 225.366 246.027 225.255C240.489 224.471 234.959 223.559 230.401 223.679C233.605 224.147 235.82 224.258 238.904 224.71Z" fill="#F5F5F5"/>
<path d="M246.503 224.421C246.699 224.455 246.878 224.472 247.065 224.506C246.571 224.293 246.511 224.327 246.503 224.421Z" fill="#F5F5F5"/>
<path d="M147.692 216.677C144.267 216.618 141.259 216.933 138.218 217.29C144.667 217.231 151.279 217.376 156.203 217.146C153.375 216.984 150.546 216.839 147.692 216.677Z" fill="#F5F5F5"/>
<path d="M123.102 218.627C127.336 219.07 130.829 218.848 134.16 218.474C130.769 218.457 127.404 218.448 124.056 218.439C123.741 218.491 123.408 218.55 123.102 218.627Z" fill="#F5F5F5"/>
<path d="M127.808 217.885C131.684 218.055 134.964 217.68 138.219 217.271C134.564 217.365 131.003 217.527 127.808 217.885Z" fill="#F5F5F5"/>
<path d="M204.91 210.287C207.483 210.185 209.033 210.184 209.911 210.244C210.303 210.082 210.831 209.895 211.538 209.665C211.393 209.648 211.231 209.631 211.086 209.614C208.445 209.554 205.762 209.46 203.044 209.35C201.936 209.392 200.871 209.46 199.977 209.622C201.629 209.844 203.282 210.065 204.91 210.287Z" fill="#F5F5F5"/>
<path d="M193.12 217.655C192.993 217.638 192.865 217.621 192.729 217.621C192.354 217.621 191.962 217.604 191.587 217.596C192.115 217.613 192.609 217.63 193.12 217.655Z" fill="#F5F5F5"/>
<path d="M161.646 210.558C163.887 210.669 166.136 210.729 168.342 210.746C163.784 210.567 159.201 210.371 155.384 210.533C155.946 210.576 156.517 210.771 157.079 210.805C158.229 210.592 159.933 210.422 161.646 210.558Z" fill="#F5F5F5"/>
<path d="M147.999 211.743C149.848 211.59 151.731 211.488 153.631 211.428C155.531 211.368 157.448 211.394 159.365 211.411C163.198 211.453 167.032 211.505 170.73 211.547C176.413 211.641 182.632 212.893 187.77 212.399L187.778 211.948L187.207 212.042C185.214 211.718 183.62 211.36 181.951 211.079C182.044 211.079 182.147 211.07 182.24 211.062C182.07 211.062 181.908 211.045 181.738 211.036C180.622 210.857 179.471 210.729 178.134 210.721C177.52 210.738 176.898 210.746 176.268 210.755C169.171 210.312 161.835 210.09 155.394 210.525C151.416 210.712 147.991 211.283 144.012 211.496C145.153 211.581 146.857 211.82 147.999 211.743ZM172.306 207.407C169.921 207.407 167.612 207.475 164.911 207.262C167.373 207.296 169.844 207.305 172.306 207.407ZM124.868 207.296C121.869 207.5 118.708 207.688 115.598 207.73C112.48 207.799 109.413 207.731 106.584 207.654C102.035 207.62 88.9736 208.412 91.2484 210.244C92.6542 209.4 95.7043 209.043 99.4275 208.847C103.151 208.676 107.547 208.642 111.645 208.753C115.743 208.838 119.534 208.906 122.065 208.727C124.578 208.557 125.839 208.199 124.868 207.296ZM118.461 213.584C113.92 214.231 108.246 214.035 102.58 214.333C100.876 214.316 99.1804 214.904 96.9142 214.879C94.077 214.998 92.3816 215.279 90.1068 215.467L91.8107 215.748C87.8405 215.637 85.5742 216.548 81.6125 216.293C81.6125 216.446 81.0502 216.744 80.4793 216.753C77.6508 216.906 74.8137 216.693 72.5474 217.051C69.7188 217.273 66.8817 217.349 64.6239 217.698C64.0531 217.715 62.9285 218.184 61.7953 218.372C60.4151 218.482 59.0264 218.585 57.6547 218.687C57.7229 218.721 57.774 218.763 57.8251 218.798C58.9497 218.755 60.0914 218.695 61.2331 218.55C64.6325 218.15 68.5942 217.758 71.9851 217.511C76.2365 217.23 80.343 216.949 84.3814 216.685C88.4199 216.403 92.3816 216.02 96.3518 215.781C98.0473 215.645 99.7597 215.364 101.455 215.228C104.011 214.964 106.848 214.836 109.464 214.734C112.088 214.623 114.499 214.47 116.203 213.984C116.765 213.831 117.89 213.856 118.461 213.584ZM49.4245 219.028C49.3904 219.011 49.3564 218.994 49.3308 218.985C49.3308 219.011 49.3393 219.028 49.3393 219.053C49.3734 219.045 49.399 219.028 49.4245 219.028ZM33.8418 216.796C32.8705 216.796 31.814 216.821 30.715 216.898C29.6159 216.983 28.4572 217.094 27.2559 217.222C24.8789 217.511 22.357 217.826 19.8863 218.124C19.8607 218.167 19.8437 218.21 19.8437 218.235C21.9225 218.142 24.2314 217.912 26.6169 217.631C29.011 217.366 31.4732 217.026 33.8418 216.796ZM20.5934 217.614C21.1728 217.503 21.7691 217.383 22.374 217.264C22.2803 217.23 22.1866 217.213 22.1014 217.179C21.5477 217.221 21.0109 217.401 20.5934 217.614ZM210.841 218.346C207.757 218.15 204.699 217.98 201.683 217.835C198.658 217.716 195.676 217.656 192.745 217.605C189.772 217.307 186.824 216.992 183.919 216.779C181.013 216.574 178.134 216.395 175.314 216.259C169.665 215.943 164.212 215.994 159.058 216.207C154.517 216.42 148.28 216.336 142.044 216.336C138.925 216.319 135.807 216.438 132.902 216.642C129.997 216.847 127.304 217.17 125.03 217.673C126.001 217.775 126.938 217.844 127.833 217.878C126.504 218.023 125.251 218.201 124.075 218.431C109.115 218.517 94.4263 218.636 79.1503 218.874C76.884 218.874 75.1885 219.402 72.9223 219.454C70.6304 219.539 68.3727 219.633 66.1234 219.709C66.1149 219.743 66.1405 219.778 66.2086 219.812C61.5483 219.991 56.922 220.357 52.2616 220.706C49.9272 220.894 47.5842 221.047 45.2242 221.294C42.8643 221.55 40.4787 221.797 38.0761 222.052C35.8184 222.257 33.5521 222.393 31.2858 222.512C29.028 222.666 26.7617 222.819 24.504 222.973C22.8085 223.1 22.7915 222.504 21.6584 222.435C19.3921 222.24 17.407 222.044 15.3452 221.933C13.2834 221.839 11.162 221.822 8.61452 221.899C8.61452 221.899 8.60599 221.601 8.60599 221.447C7.83069 221.567 7.12356 221.626 6.55273 221.635C8.93829 219.735 15.1322 218.568 8.53782 218.022C8.90417 217.929 9.22792 217.852 9.54315 217.775C9.58575 217.775 9.61132 217.775 9.65392 217.767C9.65392 217.767 9.65391 217.758 9.64539 217.75C11.1875 217.358 12.1076 216.983 13.0278 216.412C12.0395 216.506 11.0427 216.591 10.0458 216.685C10.2333 216.455 10.344 216.233 10.2418 216.037C10.327 215.995 10.4037 215.944 10.4974 215.893C10.9404 215.858 11.3068 215.816 11.3068 215.816C11.4431 215.688 11.5538 215.569 11.622 215.441C12.9085 215.006 14.5784 214.597 15.8308 214.248C17.0747 213.916 17.9011 213.609 17.5007 213.337C16.8873 213.064 14.9873 213.481 12.8403 213.882C12.7125 213.839 12.5592 213.797 12.4059 213.78C15.2344 213.371 12.3803 212.732 14.0757 212.433C16.342 212.22 18.6083 211.922 20.8746 211.743C30.1101 210.985 37.8972 210.405 46.9709 209.443C47.3713 209.409 47.7717 209.375 48.1636 209.341C52.5684 208.966 56.726 208.761 61.0371 208.693C60.7644 208.804 60.4748 208.915 60.1851 209.017C63.6527 208.974 67.1288 208.957 70.6049 208.625C72.7348 208.429 74.8648 208.224 77.0033 208.02C79.1418 207.867 81.2887 207.713 83.4528 207.56C87.7808 207.296 92.1856 207.015 96.7267 207.006C101.489 206.955 106.167 206.895 110.861 206.836C115.556 206.759 120.267 206.682 125.106 206.597C121.153 206.785 117.2 207.023 113.144 207.015C111.33 206.964 109.515 206.895 107.751 206.904C109.575 206.981 111.364 207.023 113.144 207.015C116.646 207.126 120.19 207.27 123.539 207.236C126.887 207.253 130.039 207.074 132.74 206.487C133.319 206.631 133.319 206.785 133.89 206.81C135.884 206.895 137.869 206.981 139.786 207.057C141.703 207.134 143.552 207.126 145.256 206.93C145.256 206.776 146.968 206.878 146.406 206.546C149.814 206.614 153.801 206.785 157.209 206.768C158.691 206.785 160.165 206.606 161.648 206.367C164.698 206.401 167.748 206.427 170.807 206.47C173.865 206.555 176.924 206.64 180.025 206.717C186.219 206.836 192.524 207.211 199.11 207.526C202.381 207.722 206.138 208.241 209.444 208.642C204.562 208.48 199.544 208.318 194.449 208.165C189.516 207.517 184.796 206.989 180.877 207.432C179.965 207.483 179.062 207.535 178.159 207.586C180.903 207.671 183.638 207.756 186.355 207.833C189.073 207.944 191.774 208.054 194.449 208.156C197.363 208.54 200.345 208.932 203.267 209.324C203.208 209.324 203.148 209.324 203.088 209.332C200.788 209.247 198.462 209.17 196.128 209.085C191.748 208.531 187.523 208.02 183.893 208.216C183.442 208.241 182.99 208.276 182.556 208.318C181.652 208.369 180.741 208.421 179.838 208.472C181.533 208.523 183.22 208.582 184.907 208.625C186.585 208.693 188.264 208.761 189.934 208.838C192.004 208.923 194.074 209 196.128 209.085C197.414 209.255 198.718 209.426 200.021 209.605C199.885 209.63 199.74 209.647 199.612 209.673C198.462 209.698 195.233 211.096 196.92 211.735C201.291 212.152 206.539 212.68 210.697 213.021C212.775 213.2 214.582 213.354 215.868 213.464C216.516 213.515 217.027 213.575 217.376 213.626C217.555 213.652 217.691 213.669 217.777 213.686C217.87 213.703 217.913 213.72 217.913 213.72C218.458 214.333 203.463 213.277 204.026 213.49C204.86 213.652 205.695 213.814 206.539 213.976C205.738 214.001 204.954 214.018 204.239 214.077C202.535 214.009 200.268 213.584 199.127 213.763C195.131 214.231 190.607 213.439 186.049 213.541C183.195 213.711 179.787 214.009 176.37 214.29C176.362 214.589 174.658 214.282 175.22 214.632C173.618 214.487 171.897 214.325 170.398 214.299C168.898 214.282 167.629 214.41 166.93 214.793C166.854 214.793 166.777 214.793 166.7 214.793C166.479 214.776 166.155 214.802 165.806 214.845C160.481 214.308 156.758 214.802 151.918 215.1C150.257 215.074 148.57 215.032 146.832 214.929C147.965 214.998 149.66 215.245 150.802 215.16C151.177 215.134 151.552 215.126 151.918 215.1C156.229 215.134 160.327 215.109 164.425 215.075C164.758 215.015 165.303 214.904 165.806 214.845C166.104 214.879 166.393 214.912 166.692 214.947C166.76 214.895 166.845 214.836 166.93 214.793C167.91 214.759 168.924 214.751 169.946 214.742C170.969 214.759 171.991 214.776 172.996 214.793C175.015 214.828 176.958 214.862 178.628 214.793C184.933 214.819 191.629 215.841 198.036 216.608C194.841 216.531 191.68 216.463 188.588 216.395C192.464 216.54 196.119 216.676 199.672 216.804C200.217 216.864 200.762 216.932 201.299 216.992L204.699 217.418C203.642 217.239 202.594 217.042 201.555 216.863C203.676 216.94 205.772 217.026 207.834 217.102C210.68 217.281 213.551 217.494 216.43 217.715C219.31 217.997 222.207 218.303 225.095 218.636C230.889 219.266 236.682 220.186 242.424 221.209C242.194 221.354 241.922 221.49 241.632 221.626C238.863 221.234 236.094 220.808 233.453 220.51C230.812 220.186 228.282 220.067 225.998 220.127C229.193 220.595 231.417 220.604 234.501 221.09C234.493 221.175 234.518 221.302 234.262 221.319C236.239 221.464 238.548 221.669 240.789 221.984C240.056 222.257 239.238 222.512 238.42 222.76C237.27 222.87 235.583 222.606 233.871 222.487C230.199 222.027 226.629 221.584 223.067 221.149C219.515 220.706 215.97 220.246 212.349 220.008C209.129 219.582 205.908 219.156 202.705 218.73C199.501 218.304 196.307 217.988 193.146 217.648C199.442 217.895 205.227 218.116 210.85 218.337H210.841V218.346Z" fill="#F5F5F5"/>
<path d="M200.395 216.703C202.849 216.805 205.32 216.959 207.808 217.112C209.733 217.146 211.65 217.197 213.558 217.231C222.683 217.632 233.29 219.429 243.063 220.673C243.369 220.281 243.429 219.838 243.097 219.327C237.806 218.262 232.506 217.419 227.199 216.822C221.891 216.192 216.583 215.519 211.284 214.769C211.198 214.769 211.113 214.777 211.028 214.786C208.745 214.948 205.763 214.726 202.644 214.462C199.526 214.198 196.255 213.994 193.409 214.053C190.563 214.198 187.718 214.173 184.872 214.164C182.026 214.19 179.189 214.19 176.344 214.3C178.397 214.479 180.416 214.641 182.427 214.812C183.432 214.888 184.429 214.965 185.434 215.05C186.431 215.144 187.428 215.238 188.425 215.331C192.404 215.723 196.365 216.141 200.395 216.703Z" fill="#F5F5F5"/>
<path d="M134.161 218.485C136.376 218.502 138.608 218.459 140.858 218.519C143.984 218.519 146.941 218.493 149.821 218.433C152.709 218.374 155.512 218.314 158.357 218.254C154.191 218.033 150 217.811 145.782 217.581C143.669 217.539 141.71 217.65 139.81 217.828C137.91 217.999 136.053 218.28 134.161 218.485Z" fill="#F5F5F5"/>
<path d="M162.976 218.151C161.417 218.185 159.883 218.219 158.358 218.262C164.535 218.602 170.669 218.858 176.778 219.267L184.327 219.514L191.875 219.863L206.981 220.579C208.122 220.656 209.256 220.732 210.389 220.801C191.705 218.253 173.038 216.268 157.114 217.094C156.825 217.111 156.492 217.12 156.186 217.128C163.751 217.554 171.232 217.981 178.686 218.398L170.823 218.176C168.216 218.125 165.6 218.142 162.976 218.151Z" fill="#F5F5F5"/>
<path d="M198.017 216.617C198.562 216.685 199.107 216.745 199.652 216.804C200.291 216.83 200.913 216.847 201.535 216.864C201.152 216.804 200.769 216.753 200.394 216.685C199.601 216.659 198.8 216.634 198.017 216.617Z" fill="#F5F5F5"/>
<path d="M181.958 211.071C181.89 211.062 181.822 211.045 181.745 211.037C179.947 210.943 178.124 210.858 176.275 210.764C173.728 210.815 171.07 210.764 168.36 210.738C173.276 210.96 178.141 211.275 181.958 211.071Z" fill="#F5F5F5"/>
<path d="M166.3 206.13C165.729 206.087 164.596 206.002 164.025 205.959C163.675 206.019 163.335 206.087 162.985 206.147C163.514 206.189 164.059 206.249 164.596 206.3L166.3 206.13Z" fill="#F5F5F5"/>
<path d="M132.703 206.504C135.225 206.47 137.704 206.427 140.158 206.393C142.603 206.385 145.032 206.376 147.426 206.359C149.82 206.342 152.197 206.325 154.565 206.325C156.925 206.351 159.277 206.368 161.62 206.393C162.071 206.317 162.531 206.231 162.991 206.155C159.848 205.882 156.721 205.652 153.654 205.592C150.587 205.558 147.579 205.626 144.691 205.873C143.549 205.959 141.837 206.308 140.703 206.24C135.319 206.112 130.19 206.41 125.078 206.615C127.523 206.581 129.986 206.546 132.516 206.512C132.567 206.504 132.635 206.504 132.703 206.504Z" fill="#F5F5F5"/>
</svg>
