<svg width="171" height="25" viewBox="0 0 171 25" fill="none" xmlns="http://www.w3.org/2000/svg">
<path d="M62.8406 16.2089C65.2056 16.1834 68.4113 16.1919 70.8788 16.2514C73.319 16.3024 75.0073 16.43 74.3306 16.6257L75.2739 16.8299C71.2684 16.8384 54.4744 16.7278 62.8406 16.2089Z" fill="#EF4E5D" stroke="#EF4E5D" stroke-width="1.8" stroke-miterlimit="10" stroke-linecap="round" stroke-linejoin="round"/>
<path d="M61.7084 14.6289C65.789 14.765 62.679 14.8671 61.9545 14.9862L56.3291 14.9181C54.6408 14.7139 59.3708 14.6544 61.7084 14.6289Z" fill="#EF4E5D" stroke="#EF4E5D" stroke-width="1.8" stroke-miterlimit="10" stroke-linecap="round" stroke-linejoin="round"/>
<path d="M64.1355 11.3195L62.4677 11.2344C64.1355 11.3194 66.5483 11.3705 68.1409 11.379C68.264 11.5407 65.2018 11.7193 61.9414 11.6257C62.6659 11.5066 65.8511 11.4811 64.1355 11.3195Z" fill="#EF4E5D" stroke="#EF4E5D" stroke-width="1.8" stroke-miterlimit="10" stroke-linecap="round" stroke-linejoin="round"/>
<path d="M145.865 11.9721C147.068 11.3511 141.682 11.0619 134.929 11.0959C135.763 10.7216 136.624 10.3813 137.458 10.0496C142.57 10.0496 152.755 8.8671 160.697 7.79524C163.746 7.23379 153.308 8.3992 161.128 7.24227C162.023 7.25078 161.401 7.56555 163.049 7.42094C166.869 6.74039 167.498 6.39164 169.774 5.90675L169.829 10.3388C167.929 10.3898 164.901 10.3133 158.004 9.8709L152.919 9.18185C139.768 8.4928 126.323 8.05043 113.029 7.77821C99.7616 7.46346 86.6381 7.34439 74.1092 7.2253C73.0019 7.3614 71.3546 7.42092 69.3997 7.5145C67.4449 7.60807 65.1824 7.67614 62.7901 7.7442C60.4251 7.81225 57.9303 7.94835 55.5653 8.05043C53.2003 8.15251 50.9379 8.26311 49.0035 8.43325L48.8053 8.19509C46.5839 8.53536 43.5764 8.64592 40.4117 8.748C37.2743 8.89261 33.9798 8.9862 31.2252 9.18185L26.2629 9.34349C25.7776 9.28394 26.4201 9.16487 27.6094 8.99473C28.7714 8.86713 30.4733 8.64593 32.0933 8.50132C35.3126 8.21209 38.2244 7.90584 35.9962 7.75271C30.6784 7.89733 26.1876 8.45877 21.9088 8.96067C19.7694 9.23289 17.6779 9.53914 15.5658 9.76883C14.5063 9.90494 13.4264 9.99851 12.3464 10.0921C11.8064 10.1431 11.2665 10.1856 10.6991 10.2367C10.1592 10.2877 9.61915 10.3303 9.05183 10.4154C5.84613 10.9683 4.19202 12.1082 3.20775 13.163C3.15307 13.2396 3.0984 13.2736 3.05056 13.3417C3.02322 13.3757 2.99585 13.4183 2.94117 13.4523C2.88649 13.5289 2.83181 13.5969 2.77713 13.6735C2.66777 13.8181 2.6131 13.9712 2.53108 14.1158C2.47639 14.2689 2.41488 14.4136 2.3602 14.5667C2.33285 14.6432 2.33288 14.7198 2.2987 14.7963C2.2987 14.8729 2.21666 14.9835 2.31919 14.992C2.4969 15.1196 2.66778 15.2387 2.87283 15.3238C2.97536 15.3663 3.07106 15.4514 3.17358 15.4939C3.20093 15.4939 3.22142 15.5364 3.24876 15.5364H3.30345L3.406 15.579C3.52903 15.6641 3.68625 15.7491 3.83662 15.8342C4.49963 16.0554 4.09634 15.7746 3.64521 15.4429C3.59737 15.4003 3.52217 15.3578 3.46749 15.3153L3.39232 15.2387L3.36499 15.1962C3.33765 15.1536 3.31714 15.1196 3.31714 15.0771C3.29663 15.0005 3.2966 14.958 3.37179 14.924L3.44701 14.9665C3.54954 15.009 3.64521 15.0941 3.72723 15.1366C3.98013 15.2642 4.23305 15.4344 4.50645 15.562C5.01226 15.8172 5.51804 16.0724 6.02385 16.251C7.01495 16.6423 7.97872 16.9656 8.89463 17.1613C10.7265 17.6376 12.4147 17.8843 13.9732 18.08C15.5316 18.2757 16.9397 18.4628 18.2725 18.6074C19.5986 18.7946 20.8562 18.9732 22.0592 19.1093C24.513 19.4666 26.8917 19.7814 29.7283 20.0876C31.1637 20.2407 32.6948 20.3939 34.4377 20.5215C36.1807 20.6491 38.1014 20.7937 40.2818 20.9043C40.9311 20.7512 54.8954 20.9042 41.9086 19.9175L35.7227 19.8239C34.3147 19.6367 32.934 19.4496 31.5328 19.2624C36.2969 19.5857 45.0938 20.0876 44.0754 19.7303C45.6338 20.0451 48.4772 20.2662 51.6282 20.3938C54.7793 20.5214 58.2994 20.5554 61.177 20.5895C66.9527 20.6235 70.2678 20.6065 63.5967 21.1339C59.5229 20.8787 56.8845 20.7086 54.6221 20.6661C52.3391 20.6235 50.4389 20.6406 47.7869 20.6916C56.9939 21.1765 65.654 21.6273 73.9178 21.9506C75.9957 22.0187 78.0189 22.1292 80.049 22.1548C82.079 22.2228 84.0544 22.2483 86.0297 22.3164C89.9805 22.3674 93.8355 22.461 97.6359 22.4695L102.092 22.0187C102.236 22.2569 104.184 22.393 106.98 22.5461C108.388 22.6226 110.008 22.6652 111.723 22.6822C113.439 22.6992 115.264 22.7162 117.089 22.6992C120.226 22.5546 124.238 22.5035 123.268 22.2994C123.63 22.2058 122.14 22.2398 119.932 22.2398C117.724 22.2398 114.772 22.2398 112.202 22.2568C107.041 22.2143 103.323 22.0612 109.837 21.6358C126.733 21.6444 144.594 21.3211 155.434 21.3551C147.533 21.857 141.853 22.0186 133.473 22.8778C126.398 23.2691 119.146 23.4988 111.874 23.652C104.574 23.7625 97.2258 23.8391 89.9121 23.7626C82.5916 23.72 75.3053 23.6094 68.1147 23.4563C60.9309 23.2692 53.8702 23.133 46.994 22.9629C46.4882 22.7843 44.4103 22.5631 42.7493 22.393C41.0884 22.1888 39.8102 22.0101 40.9175 21.9165C39.6393 21.7379 37.2538 21.6103 34.9504 21.4487C32.6469 21.287 30.4186 21.0574 29.4754 20.8192C24.7796 20.615 19.913 20.2833 14.9711 19.943C12.5105 19.7388 10.0293 19.4581 7.61646 18.752C6.39296 18.4203 5.20365 17.9354 4.04167 17.3399C3.76142 17.1698 3.46068 17.0421 3.18727 16.872L2.4559 16.4126L1.77922 15.9192C1.55366 15.7576 1.32811 15.5534 1.10254 15.3918C1.0752 15.3493 1.02734 15.3493 1 15.3068L1.05469 15.1537L1.17088 14.8559L1.28707 14.5582L1.42378 14.2604C1.61516 13.8521 1.83388 13.5203 2.0526 13.1886L2.42853 12.7122C2.48321 12.6356 2.56525 12.5676 2.61309 12.491L2.85235 12.2358C3.00956 12.0572 3.17357 11.9466 3.33078 11.802L3.57004 11.5893L3.82978 11.4106C4.17154 11.1639 4.54062 10.9513 4.88238 10.7386C5.24465 10.5685 5.61373 10.3558 5.97599 10.2197C6.70736 9.91341 7.4866 9.69225 8.23164 9.53913C9.75589 9.19885 11.3006 9.08826 12.8522 8.90111C14.3969 8.7565 15.9212 8.60337 17.4113 8.41622C20.4256 8.07595 23.3921 7.85478 26.2765 7.62509C27.7187 7.506 29.1336 7.39543 30.528 7.27633C31.9156 7.19977 33.2826 7.08066 34.6223 6.9956C31.9361 6.77442 34.8479 6.47671 39.072 6.11942C40.1315 6.02584 41.2866 5.93224 42.4417 5.87269C43.5969 5.81314 44.7862 5.72809 45.914 5.67705C48.1765 5.53243 50.2407 5.3708 51.5804 5.25171C54.0957 5.34528 57.5407 5.26021 61.136 5.14112C64.7313 5.06455 68.4906 4.95398 71.7032 4.89444C72.4004 4.74131 76.3579 4.68172 75.4147 4.47756C73.0497 4.54561 71.4298 4.53716 69.8167 4.52865C68.2036 4.52014 66.5563 4.5116 64.1161 4.49459C65.1004 4.20536 67.6977 4.1458 70.9581 4.16281C74.2185 4.22236 78.1146 4.34999 81.7372 4.34999C80.4727 4.43506 79.215 4.56263 77.9779 4.69023C89.9736 4.67322 104.239 5.91521 115.052 5.75358L110.472 5.31978L105.886 4.92844C119.29 5.02202 135.776 6.49372 145.701 6.33209C141.244 5.98331 135.291 5.78764 130.499 5.57497C125.701 5.3623 122.037 5.13259 122.201 4.80082C122.461 4.62218 125.189 4.61367 128.469 4.74978C131.75 4.84336 135.571 5.08155 138.032 5.28572C149.788 6.24699 160.055 6.47669 169.979 6.84248L170 9.28393C161.934 10.645 154.115 11.6489 145.865 11.9721Z" fill="#EF4E5D" stroke="#EF4E5D" stroke-width="1.8" stroke-miterlimit="10" stroke-linecap="round" stroke-linejoin="round"/>
<path d="M165.182 5.66155C147.643 4.77684 156.351 6.23152 139.509 5.30428C141.628 4.99803 133.432 4.30049 127.787 4.04529C125.066 4.05379 122.086 3.93469 119.188 3.8241C116.29 3.71351 113.467 3.60294 111.081 3.51787C107.828 3.34773 108.279 2.87132 114.67 3.05847C122.53 3.69648 131.436 3.97722 140.233 4.24944C149.064 4.54718 157.766 4.88743 165.182 5.66155Z" fill="#EF4E5D" stroke="#EF4E5D" stroke-width="1.8" stroke-miterlimit="10" stroke-linecap="round" stroke-linejoin="round"/>
<path d="M159.555 9.52458C160.457 9.4225 161.202 9.34594 161.872 9.26087C162.542 9.18431 163.109 9.13325 163.601 9.08221C164.579 8.98012 165.276 8.98012 165.864 8.97161C167.046 8.9546 167.866 9.03968 169.951 8.76746L169.944 7.43188C169.021 7.34681 167.866 7.3213 166.301 7.27876C167.716 7.15967 168.741 7.17665 169.951 7.2447L169.972 8.9631C168.064 9.2098 165.747 9.3544 160.867 10.0094C162.391 9.74571 163.916 9.40544 165.447 9.1077C163.471 9.27784 161.51 9.43951 159.555 9.52458Z" fill="#EF4E5D" stroke="#EF4E5D" stroke-width="1.8" stroke-miterlimit="10" stroke-linecap="round" stroke-linejoin="round"/>
<path d="M109.147 4.09524C107.76 4.06122 105.914 4.0442 103.911 3.93361C101.909 3.86556 99.7555 3.75494 97.7801 3.68688C93.802 3.51675 90.4733 3.26154 90.2819 2.98932C89.4617 2.94678 90.8561 2.67456 87.7188 2.77665C90.1794 2.87022 95.005 3.00633 99.4958 3.20199C103.98 3.40615 108.101 3.73796 109.147 4.09524Z" fill="#EF4E5D" stroke="#EF4E5D" stroke-width="1.8" stroke-miterlimit="10" stroke-linecap="round" stroke-linejoin="round"/>
<path d="M133.771 7.10657C130.641 7.05553 127.462 6.92795 122.691 6.75781C125.795 6.80035 129.629 6.69824 133.771 7.10657Z" fill="#EF4E5D" stroke="#EF4E5D" stroke-width="1.8" stroke-miterlimit="10" stroke-linecap="round" stroke-linejoin="round"/>
<path d="M101.844 4.89504C102.377 5.11622 101.194 5.0907 99.6838 5.04816C98.1732 5.00563 96.3209 4.91203 95.528 4.8695L92.1992 4.65683C95.3366 4.59728 99.3147 4.61432 101.844 4.89504Z" fill="#EF4E5D" stroke="#EF4E5D" stroke-width="1.8" stroke-miterlimit="10" stroke-linecap="round" stroke-linejoin="round"/>
<path d="M53.8583 3.94142C45.7381 4.052 62.2861 3.15875 52.6416 3.42246L58.1986 3.17578L60.2355 3.7032L53.8583 3.94142Z" fill="#EF4E5D" stroke="#EF4E5D" stroke-width="1.8" stroke-miterlimit="10" stroke-linecap="round" stroke-linejoin="round"/>
<path d="M41.4512 3.98438C39.1341 4.24809 36.7896 4.46077 32.6953 4.6309L34.9441 4.2566C36.4341 4.06094 38.2592 4.19705 41.4512 3.98438Z" fill="#EF4E5D" stroke="#EF4E5D" stroke-width="1.8" stroke-miterlimit="10" stroke-linecap="round" stroke-linejoin="round"/>
<path d="M52.0531 4.84273C50.0982 4.97033 49.2712 5.00434 48.6082 4.92778C47.9383 4.89375 47.4803 4.79165 46.2227 4.80016C46.9745 4.68957 49.4147 4.58748 51.1577 4.63852C52.9553 4.66404 54.0353 4.75766 52.0531 4.84273Z" fill="#EF4E5D" stroke="#EF4E5D" stroke-width="1.8" stroke-miterlimit="10" stroke-linecap="round" stroke-linejoin="round"/>
<path d="M13.3047 11.3613C15.116 10.9189 17.8501 10.5701 21.0216 10.2384C24.2136 9.94913 27.8226 9.6769 31.3496 9.32812C27.8158 9.6769 25.3141 10.0002 22.6894 10.3235C22.0195 10.4 21.377 10.4851 20.6798 10.5616C19.9827 10.6382 19.2855 10.7148 18.5131 10.8338C16.9957 10.9785 15.3142 11.1656 13.3047 11.3613Z" fill="#EF4E5D" stroke="#EF4E5D" stroke-width="1.8" stroke-miterlimit="10" stroke-linecap="round" stroke-linejoin="round"/>
<path d="M20.1328 1.72306C21.9168 1.43383 23.7897 1.34027 25.4916 1.31475C27.2141 1.28923 28.7315 1.2552 29.8866 1.20416L28.171 1C25.601 1.05104 22.9011 1.0255 20.1328 1.72306Z" fill="#EF4E5D" stroke="#EF4E5D" stroke-width="1.8" stroke-miterlimit="10" stroke-linecap="round" stroke-linejoin="round"/>
<path d="M52.9327 16.7985C56.5212 16.2625 50.3217 16.4667 43.6369 16.0073C41.4291 15.9648 39.1667 15.9648 36.9384 15.9648C34.676 15.9648 32.393 15.9563 30.11 15.8712C27.8271 15.7521 25.5237 15.5565 23.227 15.0886C22.0787 14.8759 20.9304 14.5867 19.8162 14.2634C19.2558 14.0848 18.6953 13.8977 18.1417 13.6765L17.2804 13.3617C17.1779 13.3191 17.0548 13.2766 16.9523 13.2341L16.5969 13.064L15.9134 12.7237C15.3802 12.4685 14.8539 12.2473 14.3208 11.9921L12.8102 11.1499L9.65916 9.34648L9.85057 9.09129L9.93259 8.94664L10.0693 8.80204L10.5751 8.18105L11.5662 7.01562C11.245 7.38142 10.9237 7.74718 10.5546 8.10447C10.206 8.50429 9.78219 8.93816 9.48828 9.34648C10.5956 10.0185 11.7302 10.7246 12.9127 11.4307C13.2135 11.6008 13.4937 11.805 13.7944 11.9751C13.9448 12.0602 14.0952 12.1793 14.2456 12.2303C14.396 12.3154 14.5737 12.4004 14.7241 12.4855C15.3802 12.8258 16.0637 13.166 16.7472 13.4723C16.925 13.5573 17.1027 13.6424 17.253 13.6935L17.5538 13.8211C17.7588 13.9061 17.9366 13.9912 18.1348 14.0423C18.3399 14.1273 18.5381 14.2124 18.7158 14.2634C18.9208 14.3485 19.1191 14.3995 19.3241 14.4846C20.1375 14.7908 20.9509 14.9865 21.819 15.2247C25.2024 16.0924 28.8387 16.5092 32.4819 16.6623C36.125 16.8154 39.7203 16.8155 43.2131 16.807C46.6102 16.8495 49.9252 16.8325 52.9327 16.7985Z" fill="#EF4E5D" stroke="#EF4E5D" stroke-width="1.8" stroke-miterlimit="10" stroke-linecap="round" stroke-linejoin="round"/>
<path d="M59.6804 14.0238C53.1118 13.7516 44.602 14.0748 39.8242 14.0493C47.8556 14.2024 58.2587 14.2875 63.8772 14.3556C64.6018 14.2024 61.3414 14.1088 59.6804 14.0238Z" fill="#EF4E5D" stroke="#EF4E5D" stroke-width="1.8" stroke-miterlimit="10" stroke-linecap="round" stroke-linejoin="round"/>
<path d="M105.662 2.27392C94.4938 2.11229 79.0052 1.41474 66.736 1.90814C72.4024 2.12931 72.5255 2.29091 81.4044 2.56312C74.7537 3.20964 67.7545 2.23139 59.771 2.11229C66.2849 2.376 57.7273 2.58014 52.1566 2.51209C47.1054 2.32494 40.612 2.17186 33.6538 2.07828C31.9108 2.06127 30.1405 2.0102 28.3428 1.99318C26.5725 1.97617 24.727 1.91663 22.8678 2.05274C21.9382 2.12079 20.9882 2.25691 20.0586 2.43555C19.5938 2.52913 19.129 2.65674 18.6574 2.81837C18.425 2.88643 18.1926 2.98847 17.9533 3.04802C17.8235 3.08205 17.7209 3.1161 17.5911 3.18416L17.0921 3.42232L16.5931 3.66054C16.4359 3.72859 16.2787 3.79662 16.1215 3.8987L15.1509 4.49419C14.9937 4.59627 14.8638 4.70686 14.7066 4.81745L14.2828 5.17472C14.153 5.28531 13.9958 5.38743 13.859 5.53205L13.49 5.89783C12.9842 6.40824 12.5057 6.91862 12.0272 7.46306C11.788 7.71826 11.5214 8.05002 11.2822 8.30523L10.9062 8.7476C10.8516 8.85819 10.8242 8.9688 10.7695 9.08789C11.6034 9.58979 12.4032 10.0917 13.1824 10.551C13.4626 10.7212 13.7633 10.8828 14.0641 11.053C14.2145 11.138 14.3922 11.2231 14.5426 11.3082C14.6178 11.3507 14.7203 11.3932 14.7955 11.4358C14.898 11.4783 14.9732 11.5208 15.0757 11.5634C15.4311 11.7335 15.8344 11.9121 16.2172 12.0823C16.4223 12.1673 16.6205 12.2524 16.8255 12.38C16.9281 12.4226 17.0306 12.4651 17.1262 12.5076C17.2219 12.5501 17.3313 12.5927 17.427 12.6352C18.5685 13.0776 19.8398 13.5284 21.2137 13.8602C23.9615 14.6173 27.0305 15.0086 29.7987 15.2298C32.567 15.4169 35.0345 15.4255 36.6271 15.3999C38.2197 15.3659 38.9442 15.2553 38.206 15.0596C46.9619 15.1022 48.1512 15.6551 54.6651 15.8848C64.3369 15.5105 73.0244 15.9359 81.876 16.2421C90.7549 16.5569 99.8116 16.761 110.222 15.8168C108.943 16.3187 119.285 15.8338 123.325 15.5871C125.539 15.4765 128.499 15.3234 131.609 15.0682C133.181 14.9576 134.774 14.813 136.346 14.7024C137.918 14.5578 139.462 14.4047 140.884 14.2515C142.326 14.0984 143.639 13.9793 144.801 13.8092C145.963 13.6816 146.92 13.5029 147.637 13.3838C149.086 13.1201 149.503 12.9074 148.348 12.8479C146.831 12.8819 144.951 13.0095 142.839 13.2052C140.7 13.4008 138.355 13.656 135.881 13.8687C133.406 14.0814 130.857 14.3281 128.307 14.4982C125.785 14.6343 123.29 14.7279 121.007 14.7279C117.05 14.7109 116.107 14.6258 116.906 14.4727C117.706 14.3621 120.283 14.192 123.372 13.9708C124.917 13.8602 126.564 13.7581 128.212 13.656C129.832 13.554 131.431 13.3668 132.846 13.2477C135.683 12.9755 137.747 12.7033 137.802 12.5161C136.667 12.6862 135.744 12.6012 134.281 12.6012C132.791 12.6012 130.713 12.6437 127.207 12.9925C134.678 12.3119 133.113 12.1929 130.652 12.1844C129.422 12.1589 127.959 12.1588 127.289 12.0823C126.626 12.0057 126.729 11.9036 128.642 11.6569C124.377 11.776 121.26 11.9206 118.875 11.9462C116.483 11.9717 114.815 11.9972 113.407 11.9632C110.584 11.9292 108.82 11.725 104.487 11.4188C94.2272 11.8356 97.0843 12.4056 94.1383 12.8224C83.2294 13.3924 74.6307 12.5587 65.1708 12.7118C68.7593 12.1333 64.8154 11.9291 58.5475 11.8271C52.307 11.725 43.7562 11.6995 38.1855 11.6739C34.5902 11.6399 32.5123 11.6059 31.1521 11.6144C29.7919 11.6229 29.1699 11.6995 28.5 11.742C27.8575 11.7845 27.1603 11.8611 25.7044 11.708C25.3422 11.6909 24.9389 11.6314 24.4536 11.5634C24.2212 11.5123 23.9683 11.5038 23.7154 11.4442C23.4625 11.3932 23.1822 11.3422 22.8747 11.2826C21.6785 11.0274 20.2021 10.6446 18.3976 9.93857C18.2951 9.89604 18.1926 9.85348 18.0969 9.81095C18.049 9.76842 17.9943 9.76844 17.9465 9.7259C17.9191 9.7259 17.8713 9.68338 17.844 9.68338C17.7414 9.64084 17.6663 9.55577 17.5911 9.52175C17.468 9.43668 17.3928 9.36007 17.3928 9.31754C17.3723 9.24098 17.5227 9.24952 17.7551 9.30056C17.8098 9.30056 17.885 9.34309 17.9602 9.3516C18.09 9.39413 18.2404 9.44515 18.3908 9.48769C18.7189 9.58126 19.0538 9.70887 19.4571 9.81095C19.8398 9.90452 20.2499 10.0066 20.6806 10.1427C21.1112 10.2448 21.5487 10.3384 21.9519 10.4404C23.6607 10.7977 25.3217 10.9594 25.9642 10.9594C26.2718 10.9339 26.3264 10.8998 25.9983 10.8062C25.6703 10.7127 24.9525 10.5255 23.7564 10.2278C22.6354 10.0151 21.5076 9.80243 20.414 9.47917C19.8535 9.33456 19.3204 9.15593 18.7599 8.96878L18.3566 8.8327L18.1515 8.7476C18.0968 8.7476 18.0764 8.70507 18.049 8.70507L17.8235 8.62003C17.4612 8.60301 16.9554 8.45839 16.3471 8.23721L16.1967 8.19469C16.1693 8.19469 16.1693 8.19465 16.1967 8.16062V8.12662L16.224 8.09256C16.2514 8.01599 16.2787 7.93948 16.3061 7.87142C16.3881 7.72681 16.4701 7.57367 16.5794 7.42905C16.7982 7.13131 17.1126 6.80805 17.4817 6.51882C17.5637 6.45076 17.7209 6.38271 17.8235 6.30615C17.9533 6.23809 18.0354 6.16155 18.2678 6.05947C18.4523 5.95738 18.6573 5.88932 18.8419 5.78724C19.0538 5.68516 19.2315 5.61708 19.4434 5.54903C20.2773 5.25129 21.159 5.0301 22.1091 4.85146C23.6812 4.66431 25.6634 4.65581 27.2492 4.69834C28.8623 4.74088 30.0995 4.80896 30.1473 4.88552C27.01 4.91104 25.93 5.08115 26.4358 5.22576C26.9416 5.40441 29.0673 5.59156 32.3482 5.7617C35.4104 5.61708 36.1828 5.6171 37.6523 5.46398C24.7817 4.02633 51.1792 5.64263 60.27 5.04715C86.7153 4.4857 74.0839 6.72299 100.078 6.63792C92.1288 5.42145 117.269 6.3572 125.751 6.11051C132.962 6.26363 135.573 6.58686 140.59 7.03772C142.572 6.95265 148.143 6.97819 148.998 6.79104C144.992 5.28533 128.301 3.6435 106.674 2.09526C106.155 2.22286 105.642 2.23139 105.662 2.27392Z" fill="#EF4E5D" stroke="#EF4E5D" stroke-width="1.8" stroke-miterlimit="10" stroke-linecap="round" stroke-linejoin="round"/>
</svg>
