<svg width="30" height="30" viewBox="0 0 30 30" fill="none" xmlns="http://www.w3.org/2000/svg">
<circle cx="15" cy="15.0015" r="15" fill="#F5F5F5" fill-opacity="0.7"/>
<path d="M14.7951 19.4405C14.2958 19.4405 13.8268 19.3471 13.3881 19.1605C12.9495 18.9691 12.5691 18.6985 12.2471 18.3485C11.9298 17.9985 11.6988 17.5855 11.5541 17.1095L12.9681 16.7175C13.1035 17.1515 13.3391 17.4851 13.6751 17.7185C14.0111 17.9471 14.3845 18.0591 14.7951 18.0545C15.1638 18.0498 15.4881 17.9635 15.7681 17.7955C16.0481 17.6275 16.2675 17.4011 16.4261 17.1165C16.5848 16.8271 16.6641 16.4958 16.6641 16.1225C16.6641 15.5625 16.4891 15.1005 16.1391 14.7365C15.7938 14.3725 15.3411 14.1905 14.7811 14.1905C14.6225 14.1905 14.4591 14.2138 14.2911 14.2605C14.1278 14.3071 13.9738 14.3678 13.8291 14.4425L13.1431 13.2875L16.6991 10.1445L16.8531 10.5645H11.9531V9.17146H18.0151V10.5645L15.0611 13.4065L15.0471 12.9305C15.6818 12.9305 16.2325 13.0728 16.6991 13.3575C17.1658 13.6375 17.5251 14.0201 17.7771 14.5055C18.0338 14.9861 18.1621 15.5251 18.1621 16.1225C18.1621 16.7665 18.0105 17.3381 17.7071 17.8375C17.4085 18.3368 17.0048 18.7288 16.4961 19.0135C15.9921 19.2981 15.4251 19.4405 14.7951 19.4405Z" fill="black"/>
</svg>
