<svg width="30" height="30" viewBox="0 0 30 30" fill="none" xmlns="http://www.w3.org/2000/svg">
<circle cx="15" cy="15.001" r="15" fill="#FEFEFE"/>
<path d="M14.7951 19.44C14.2958 19.44 13.8268 19.3466 13.3881 19.16C12.9495 18.9686 12.5691 18.698 12.2471 18.348C11.9298 17.998 11.6988 17.585 11.5541 17.109L12.9681 16.717C13.1035 17.151 13.3391 17.4846 13.6751 17.718C14.0111 17.9466 14.3845 18.0586 14.7951 18.054C15.1638 18.0493 15.4881 17.963 15.7681 17.795C16.0481 17.627 16.2675 17.4006 16.4261 17.116C16.5848 16.8266 16.6641 16.4953 16.6641 16.122C16.6641 15.562 16.4891 15.1 16.1391 14.736C15.7938 14.372 15.3411 14.19 14.7811 14.19C14.6225 14.19 14.4591 14.2133 14.2911 14.26C14.1278 14.3066 13.9738 14.3673 13.8291 14.442L13.1431 13.287L16.6991 10.144L16.8531 10.564H11.9531V9.17098H18.0151V10.564L15.0611 13.406L15.0471 12.93C15.6818 12.93 16.2325 13.0723 16.6991 13.357C17.1658 13.637 17.5251 14.0196 17.7771 14.505C18.0338 14.9856 18.1621 15.5246 18.1621 16.122C18.1621 16.766 18.0105 17.3376 17.7071 17.837C17.4085 18.3363 17.0048 18.7283 16.4961 19.013C15.9921 19.2976 15.4251 19.44 14.7951 19.44Z" fill="black"/>
</svg>
